<?xml version="1.0" encoding="utf-8"?>
<!-- Generator: Adobe Illustrator 16.0.0, SVG Export Plug-In . SVG Version: 6.00 Build 0)  -->
<!DOCTYPE svg PUBLIC "-//W3C//DTD SVG 1.1//EN" "http://www.w3.org/Graphics/SVG/1.1/DTD/svg11.dtd">
<svg version="1.1"
	 id="svg3965" xmlns:dc="http://purl.org/dc/elements/1.1/" xmlns:cc="http://creativecommons.org/ns#" xmlns:rdf="http://www.w3.org/1999/02/22-rdf-syntax-ns#" xmlns:svg="http://www.w3.org/2000/svg"
	 xmlns="http://www.w3.org/2000/svg" xmlns:xlink="http://www.w3.org/1999/xlink" x="0px" y="0px" width="104.5px" height="150px"
	 viewBox="0 0 104.5 150" enable-background="new 0 0 104.5 150" xml:space="preserve">
<g id="layer1" transform="translate(-43.226591,-14.808419)">
	<g id="g4120" transform="translate(14,-8)">
		<path id="path3484" fill="#FF6905" d="M114.164,89.875c3.505,3.465,5.258,7.696,5.258,12.691c0,4.876-1.743,9.057-5.228,12.541
			c-3.485,3.485-7.645,5.229-12.48,5.229c-3.392,0-6.448-0.825-9.168-2.475l-6.341,6.34c3.945,4.489,5.918,9.84,5.918,16.053
			c0,6.696-2.394,12.438-7.181,17.226c-4.787,4.787-10.501,7.181-17.143,7.181c-6.751,0-12.536-2.38-17.351-7.14
			c-4.815-4.759-7.222-10.515-7.222-17.267c0-6.753,2.324-12.536,6.974-17.352c4.649-4.814,10.349-7.223,17.102-7.223
			c5.988,0,11.188,1.784,15.601,5.351l6.036-6.036c-3.41-3.437-5.114-7.579-5.114-12.428c0-4.915,1.692-9.125,5.077-12.631
			c0.314-0.325,0.635-0.636,0.963-0.931l-6.173-6.172c-2.682,2.548-5.857,3.822-9.527,3.822c-3.871,0-7.188-1.364-9.948-4.093
			c-2.761-2.729-4.141-6.029-4.141-9.901s1.333-7.188,3.999-9.949c2.666-2.761,5.934-4.141,9.805-4.141
			c3.967,0,7.331,1.365,10.092,4.094c2.76,2.729,4.141,6.061,4.141,9.996c0,2.692-0.674,5.116-2.024,7.27l6.853,6.854
			c2.498-1.404,5.301-2.105,8.412-2.105C106.387,84.678,110.658,86.409,114.164,89.875z M74.164,64.758
			c-2.189,0-4.03,0.777-5.521,2.333c-1.491,1.555-2.237,3.412-2.237,5.569c0,2.221,0.73,4.078,2.19,5.569
			c1.46,1.491,3.316,2.237,5.569,2.237c2.126,0,3.927-0.769,5.403-2.309c1.476-1.539,2.213-3.372,2.213-5.498
			c0-1.047-0.19-2.047-0.571-2.999c-0.38-0.952-0.92-1.777-1.618-2.476c-0.698-0.729-1.531-1.316-2.499-1.761
			S75.148,64.758,74.164,64.758z M67.799,126.472c-3.819,0-7.029,1.355-9.629,4.067c-2.602,2.712-3.902,5.95-3.902,9.714
			c0,3.873,1.272,7.111,3.819,9.713c2.545,2.601,5.784,3.901,9.713,3.901c3.708,0,6.849-1.342,9.422-4.026
			c2.573-2.684,3.86-5.881,3.86-9.588c0-1.827-0.332-3.57-0.996-5.23s-1.605-3.1-2.823-4.316c-1.217-1.273-2.67-2.297-4.358-3.072
			C71.217,126.859,69.515,126.472,67.799,126.472z M101.714,92.534c-2.78,0-5.117,0.987-7.011,2.961
			c-1.894,1.974-2.841,4.332-2.841,7.071c0,2.82,0.927,5.178,2.78,7.072c1.854,1.893,4.21,2.84,7.071,2.84
			c2.699,0,4.986-0.977,6.859-2.932c1.874-1.953,2.81-4.28,2.81-6.98c0-1.329-0.242-2.599-0.725-3.807
			c-0.483-1.209-1.168-2.257-2.055-3.143c-0.887-0.927-1.944-1.672-3.173-2.236C104.202,92.816,102.963,92.534,101.714,92.534z"/>
		<path id="path3486" fill="#FF6905" d="M49.294,52.663c4.549-8.034,13.976-13.554,24.866-13.554
			c10.854,0,20.256,5.485,24.822,13.476l5.541-5.685c-6.214-9.323-17.488-15.556-30.363-15.556
			c-12.967,0-24.312,6.323-30.496,15.758L49.294,52.663z"/>
		<path id="path3488" fill="#FF6905" d="M74.093,44.894c-9.485,0-17.688,4.484-21.598,10.996l5.617,5.548
			c2.163-5.054,8.501-8.713,15.981-8.713c7.555,0,13.944,3.733,16.044,8.865l5.554-5.698C91.782,49.379,83.578,44.894,74.093,44.894
			z"/>
	</g>
</g>
</svg>
