<?xml version="1.0" encoding="UTF-8"?>
<svg width="200" height="200" version="1.1" viewBox="0 0 200 200" xmlns="http://www.w3.org/2000/svg"><g transform="matrix(1.1982 0 0 1.1982 -432.83 -905.29)" style="stroke-width:.83457"><path d="m460.83 764.01c-17.166 1.5e-4 -31.41 12.493-34.143 28.881l-4.2461 0.80664c-4.9916-8.4326-14.175-14.088-24.688-14.088-15.84 0-28.674 12.835-28.674 28.674-1.8e-4 13.468 9.2815 24.757 21.799 27.838v3.2031l-5.8086 2e-3 -0.0254-0.26171-6.875-2.5527-4.8184 2e-3 7.6035 15.834 2.8125-0.75586 1.5625-2.5527h5.5488v35.809h36.508v7.1953h-12.77v11.906h56.447v-11.904h-18.242v-7.1953h37.723v-20.953h12.156l17.578 10.65v-47.84l-17.578 10.65-12.156 2e-3v-12.045h-7.6563c7.681-6.3516 12.578-15.951 12.578-26.695 2.4e-4 -19.122-15.515-34.609-34.637-34.609zm0.21485 7.9473c14.336 1.4e-4 25.959 11.623 25.959 25.959 0 14.336-11.623 25.957-25.959 25.957-14.336 0-25.957-11.622-25.957-25.957 0-14.336 11.621-25.959 25.957-25.959zm-63.842 14.254c11.843 0 21.445 9.6005 21.445 21.443 0 11.843-9.6022 21.443-21.445 21.443-11.843 0-21.443-9.6-21.443-21.443 0-11.843 9.6002-21.443 21.443-21.443zm33.547 29.545c2.0807 3.649 4.8012 6.8955 8.0215 9.5586l-17.943 2e-3c1.8784-2.542 3.3363-5.4054 4.2969-8.4922z" style="fill:#72706f;stroke-width:.83457"/><g transform="matrix(.48757 0 0 .48757 396.55 819.68)" style="stroke-width:1.7117"><path class="fil3" d="m136.16 73.875c3.5054 3.465 5.2583 7.6957 5.2583 12.692 0 4.8752-1.7426 9.0556-5.2278 12.541s-7.6454 5.2278-12.48 5.2278c-3.3916 0-6.4478-0.82488-9.168-2.4746l-6.3408 6.3408c3.9455 4.4887 5.918 9.8394 5.918 16.052 0 6.6965-2.3935 12.438-7.1809 17.226-4.787 4.7874-10.501 7.1809-17.143 7.1809-6.7518 0-12.536-2.38-17.351-7.1398-4.815-4.7594-7.2223-10.515-7.2223-17.267 0-6.7525 2.3241-12.536 6.9736-17.351 4.6488-4.815 10.349-7.2223 17.101-7.2223 5.9882 0 11.188 1.7833 15.601 5.3497l6.036-6.0357c-3.4097-3.437-5.1144-7.5795-5.1144-12.427 0-4.9156 1.6923-9.1261 5.0768-12.632 0.31429-0.32528 0.63532-0.63567 0.96272-0.93083l-6.1728-6.1728c-2.6819 2.548-5.8574 3.8222-9.5265 3.8222-3.8711 0-7.1876-1.3645-9.9482-4.0936-2.7609-2.7291-4.1414-6.0293-4.1414-9.9007s1.333-7.188 3.9986-9.9485c2.6656-2.761 5.934-4.1414 9.8054-4.1414 3.9671 0 7.3304 1.3649 10.092 4.0939 2.7602 2.7287 4.1407 6.0608 4.1407 9.996 0 2.6926-0.67465 5.1158-2.0243 7.2702l6.8528 6.8531c2.4977-1.4035 5.3011-2.1054 8.4115-2.1054 5.0365 0 9.3072 1.7323 12.813 5.1977zm-39.999-25.117c-2.1894 0-4.0302 0.77704-5.5215 2.3322-1.4914 1.5548-2.2372 3.4115-2.2372 5.5694 0 2.2209 0.72992 4.0776 2.1898 5.5694 1.4598 1.4914 3.3162 2.2369 5.569 2.2369 2.1263 0 3.927-0.76925 5.4028-2.3085 1.4754-1.5392 2.2132-3.3718 2.2132-5.4978 0-1.0474-0.19027-2.047-0.57118-2.999-0.38055-0.95209-0.9202-1.777-1.6182-2.4754-0.69838-0.72957-1.5311-1.3167-2.4991-1.761-0.96768-0.44433-1.9435-0.66614-2.9275-0.66614zm-6.3648 61.714c-3.819 0-7.0289 1.3557-9.6296 4.0674-2.6015 2.712-3.9022 5.9499-3.9022 9.7136 0 3.8735 1.2728 7.1114 3.819 9.7129 2.5455 2.6008 5.7837 3.9015 9.7129 3.9015 3.7081 0 6.8489-1.3418 9.4224-4.0266 2.5732-2.6837 3.8604-5.8798 3.8604-9.5878 0-1.8269-0.33201-3.5699-0.99638-5.2303-0.66401-1.6604-1.6048-3.0993-2.8226-4.3168-1.2175-1.2731-2.6702-2.2968-4.3586-3.0717-1.6873-0.77492-3.3895-1.1622-5.1052-1.1622zm33.914-33.938c-2.7804 0-5.1172 0.98681-7.0108 2.9612-1.8939 1.9743-2.8407 4.3313-2.8407 7.0714 0 2.8205 0.92657 5.1775 2.7801 7.0714 1.8535 1.8935 4.2105 2.8403 7.0714 2.8403 2.6993 0 4.9858-0.97725 6.8595-2.9314 1.8734-1.9541 2.8102-4.2807 2.8102-6.9803 0-1.3298-0.24165-2.599-0.72532-3.8076-0.4833-1.2086-1.1682-2.2564-2.0548-3.1426-0.88654-0.92693-1.9442-1.6721-3.173-2.2362-1.2288-0.56445-2.4676-0.84615-3.7166-0.84615z" style="fill-rule:evenodd;fill:#ff6905;stroke-width:1.7117"/><path class="fil3" d="m71.294 36.663c4.5489-8.0337 13.976-13.554 24.866-13.554 10.854 0 20.256 5.485 24.822 13.476l5.541-5.6845c-6.2135-9.3228-17.488-15.555-30.363-15.555-12.967 0-24.311 6.323-30.496 15.758z" style="fill-rule:evenodd;fill:#ff6905;stroke-width:1.7117"/><path class="fil3" d="m96.093 28.894c-9.4847 0-17.688 4.4844-21.598 10.996l5.6168 5.5474c2.1632-5.0535 8.5015-8.7134 15.981-8.7134 7.5547 0 13.944 3.7336 16.044 8.8654l5.5545-5.6984c-3.91-6.5122-12.114-10.997-21.599-10.997z" style="fill-rule:evenodd;fill:#ff6905;stroke-width:1.7117"/></g></g></svg>
