<?xml version="1.0" encoding="UTF-8" standalone="no"?>
<svg xmlns:rdf="http://www.w3.org/1999/02/22-rdf-syntax-ns#" xmlns="http://www.w3.org/2000/svg" height="328" width="536" version="1.1" xmlns:cc="http://creativecommons.org/ns#" xmlns:xlink="http://www.w3.org/1999/xlink" viewBox="0 0 536 328" xmlns:dc="http://purl.org/dc/elements/1.1/">
<defs>
<linearGradient id="a">
<stop style="stop-color:#ff6905" offset="0"/>
<stop style="stop-color:#c14d00" offset="1"/>
</linearGradient>
<linearGradient id="h" y2="329.9" gradientUnits="userSpaceOnUse" x2="421" gradientTransform="matrix(.8328 0 0 .8328 -121.2 628.5)" y1="217.9" x1="264.3">
<stop stop-color="#453106" style="stop-color:#2d2004" offset="0"/>
<stop stop-color="#bc8510" style="stop-color:#655128" offset="1"/>
</linearGradient>
<linearGradient id="b" y2="987.2" xlink:href="#a" gradientUnits="userSpaceOnUse" x2="312.4" y1="1056" x1="220.3"/>
<linearGradient id="g" y2="987.2" xlink:href="#a" gradientUnits="userSpaceOnUse" x2="312.4" gradientTransform="translate(.1446 -3.47)" y1="1056" x1="220.3"/>
<linearGradient id="f" y2="987.2" xlink:href="#a" gradientUnits="userSpaceOnUse" x2="312.4" gradientTransform="translate(0 -5.206)" y1="1056" x1="220.3"/>
<linearGradient id="e" y2="987.2" xlink:href="#a" gradientUnits="userSpaceOnUse" x2="312.4" gradientTransform="translate(0 -6.218)" y1="1056" x1="220.3"/>
<linearGradient id="d" y2="987.2" xlink:href="#a" gradientUnits="userSpaceOnUse" x2="312.4" gradientTransform="translate(0 -7.664)" y1="1056" x1="220.3"/>
<linearGradient id="c" y2="987.2" xlink:href="#a" gradientUnits="userSpaceOnUse" x2="312.4" gradientTransform="translate(0 -8.821)" y1="1056" x1="220.3"/>
<filter id="o" style="color-interpolation-filters:sRGB" height="1.414" width="1.515" y="-.2069" x="-.2574">
<feGaussianBlur stdDeviation="2.0937542"/>
</filter>
<filter id="n" style="color-interpolation-filters:sRGB" height="1.413" width="1.536" y="-.2065" x="-.2681">
<feGaussianBlur stdDeviation="2.0937542"/>
</filter>
<filter id="m" style="color-interpolation-filters:sRGB" height="1.441" width="1.544" y="-.2207" x="-.2718">
<feGaussianBlur stdDeviation="2.0937542"/>
</filter>
<filter id="l" style="color-interpolation-filters:sRGB" height="1.446" width="1.507" y="-.2232" x="-.2537">
<feGaussianBlur stdDeviation="2.0937542"/>
</filter>
<filter id="k" style="color-interpolation-filters:sRGB" height="1.447" width="1.431" y="-.2236" x="-.2156">
<feGaussianBlur stdDeviation="2.0937542"/>
</filter>
<filter id="j" style="color-interpolation-filters:sRGB" height="1.477" width="1.58" y="-.2384" x="-0.29">
<feGaussianBlur stdDeviation="2.0937542"/>
</filter>
<filter id="i" style="color-interpolation-filters:sRGB" height="1.482" width="1.581" y="-.2410" x="-.2904">
<feGaussianBlur stdDeviation="2.0937542"/>
</filter>
</defs>
<g transform="translate(0 -724.4)">
<text y="1020.5294" x="357.49631" style="font-size:35.27px;font-weight:bold;fill:#969594;font-family:Harabara;fill-rule:evenodd" class="fil4 fnt0"/>
<text y="1020.5294" x="479.72595" style="font-size:35.27px;font-weight:bold;fill:#969594;font-family:Harabara;fill-rule:evenodd" class="fil4 fnt0"/>
<text y="1020.5294" x="525.26593" style="font-size:35.27px;font-weight:bold;fill:#969594;font-family:Harabara;fill-rule:evenodd" class="fil4 fnt0"/>
<text y="1020.5294" x="654.18103" style="font-size:35.27px;font-weight:bold;fill:#969594;font-family:Harabara;fill-rule:evenodd" class="fil4 fnt0"/>
<text y="1020.5294" x="909.30902" style="font-size:35.27px;font-weight:bold;fill:#969594;font-family:Harabara;fill-rule:evenodd" class="fil4 fnt0"/>
<text y="1020.5294" x="1059.0309" style="font-size:35.27px;font-weight:bold;fill:#969594;font-family:Harabara;fill-rule:evenodd" class="fil4 fnt0"/>
<text y="1020.5294" x="1335.8665" style="font-size:35.27px;font-weight:bold;fill:#969594;font-family:Harabara;fill-rule:evenodd" class="fil4 fnt0"/>
<g transform="matrix(.8524 0 0 .8524 39.21 122.9)">
<path style="fill:#b38111" d="m259 867.7-102.6 3.226-0.186 1.036 102.5-3.291z"/>
<path style="fill:url(#h)" d="m258.6 867.1-102 2.349 1.791 104.9 32.75 37.45 65.24-47.22z"/>
<path style="fill:#6f5b2d" d="m293.2 830-34.23 37.69 53.31 13.43 40.26-45.73z"/>
<path style="fill:#3d2c06" d="m156.4 871-11.31-34.96-0.1574 1.027 11.28 34.97z"/>
<path style="fill:#63470a" d="m310.6 880.9-52.08-13.01-2.059 96.74 49.89 31.44z"/>
<path style="fill:#614609" d="m352.5 835.4-40.26 45.73 0.9181 1.039 40.2-45.7z"/>
<path style="fill:#6f5b2d" d="m145.1 836 11.31 34.96 102.6-3.226-16.42-32.54z"/>
<path style="fill:#523b08" d="m156.4 871 34.88 15.12 0.7649-0.2073-34.44-14.84z"/>
<path style="fill:#0b0801" d="m136.2 928.5-25.29-23.34 0.8357 1.09 25.45 23.56z"/>
<path style="fill:#3d2c06" d="m312.1 881-53.14-13.24-0.446 0.1208 52.08 13.01z"/>
<g transform="matrix(.8624 0 0 .8624 83.2 70.53)">
<path style="fill:#ff6905;fill-rule:evenodd" class="fil3" d="m240.2 872.2c6.961 6.881 10.44 15.28 10.44 25.2 0 9.681-3.461 17.98-10.38 24.9-6.921 6.921-15.18 10.38-24.78 10.38-6.735 0-12.8-1.638-18.21-4.914l-12.59 12.59c7.835 8.914 11.75 19.54 11.75 31.88 0 13.3-4.753 24.7-14.26 34.21-9.506 9.507-20.85 14.26-34.04 14.26-13.41 0-24.89-4.726-34.46-14.18-9.562-9.451-14.34-20.88-14.34-34.29s4.615-24.89 13.85-34.46c9.232-9.562 20.55-14.34 33.96-14.34 11.89 0 22.22 3.541 30.98 10.62l11.99-11.99c-6.771-6.825-10.16-15.05-10.16-24.68 0-9.762 3.361-18.12 10.08-25.08 0.6241-0.646 1.262-1.262 1.912-1.848l-12.26-12.26c-5.326 5.06-11.63 7.59-18.92 7.59-7.687 0-14.27-2.71-19.76-8.129-5.483-5.419-8.224-11.97-8.224-19.66 0-7.688 2.647-14.27 7.941-19.76 5.294-5.483 11.78-8.224 19.47-8.224 7.878 0 14.56 2.71 20.04 8.13 5.481 5.419 8.223 12.04 8.223 19.85 0 5.347-1.34 10.16-4.02 14.44l13.61 13.61c4.96-2.787 10.53-4.181 16.7-4.181 10 0 18.48 3.44 25.44 10.32zm-79.43-49.88c-4.348 0-8.003 1.543-10.96 4.631-2.962 3.088-4.443 6.775-4.443 11.06 0 4.41 1.45 8.098 4.349 11.06s6.585 4.442 11.06 4.442c4.223 0 7.798-1.528 10.73-4.584 2.93-3.057 4.395-6.696 4.395-10.92 0-2.08-0.3778-4.065-1.134-5.956-0.7557-1.891-1.827-3.529-3.214-4.916-1.387-1.449-3.04-2.615-4.963-3.497-1.922-0.8824-3.86-1.323-5.814-1.323zm-12.64 122.6c-7.584 0-13.96 2.692-19.12 8.077-5.166 5.386-7.749 11.82-7.749 19.29 0 7.692 2.527 14.12 7.584 19.29 5.055 5.165 11.49 7.748 19.29 7.748 7.364 0 13.6-2.665 18.71-7.996 5.11-5.329 7.666-11.68 7.666-19.04 0-3.628-0.6593-7.089-1.979-10.39-1.319-3.297-3.187-6.155-5.605-8.573-2.418-2.528-5.303-4.561-8.656-6.1-3.351-1.539-6.731-2.308-10.14-2.308zm67.35-67.4c-5.522 0-10.16 1.96-13.92 5.88-3.761 3.921-5.641 8.601-5.641 14.04 0 5.601 1.84 10.28 5.521 14.04s8.361 5.64 14.04 5.64c5.36 0 9.901-1.941 13.62-5.821 3.72-3.881 5.581-8.501 5.581-13.86 0-2.641-0.4799-5.161-1.44-7.561-0.9598-2.4-2.32-4.481-4.08-6.241-1.761-1.841-3.861-3.321-6.301-4.441-2.44-1.121-4.9-1.68-7.381-1.68z"/>
<path style="fill:#ff6905;fill-rule:evenodd" class="fil3" d="m111.4 798.3c9.033-15.95 27.75-26.92 49.38-26.92 21.55 0 40.22 10.89 49.29 26.76l11-11.29c-12.34-18.51-34.73-30.89-60.3-30.89-25.75 0-48.28 12.56-60.56 31.29l11.18 11.04z"/>
<path style="fill:#ff6905;fill-rule:evenodd" class="fil3" d="m160.6 782.9c-18.84 0-35.13 8.905-42.89 21.84l11.15 11.02c4.296-10.04 16.88-17.3 31.74-17.3 15 0 27.69 7.414 31.86 17.61l11.03-11.32c-7.6-12.9-23.9-21.8-42.8-21.8z"/>
</g>
<path style="fill:#7d6633" d="m191.2 1012 116.3-14.79 4.614-116.1-120.9 5.122z"/>
<path style="fill:#221803" d="m191.2 886.1 120.9-5.123-1.509-0.0969-118.6 5.013z"/>
<path style="fill:#6f5b2d" d="m191.2 886.1 21.89 37.72 130.5-8.987-31.56-33.86z"/>
<path style="fill:#614609" d="m343.6 914.8-130.5 8.987-0.2518 1.553 130.4-9.111z"/>
<path style="fill:#6b572c" d="m157.5 975 33.69 36.85 0.0269-125.7-34.88-15.12z"/>
<path style="fill:#6f5b2d" d="m156.6 871-45.63 34.22 25.29 23.34 55-42.43z"/>
<path style="fill:#614609" d="m191.2 886.1-55.25 42.44 1.241 1.306 53.81-42.29z"/>
<path style="fill:#523b08" d="m213.1 923.8-21.89-37.72-0.1944 1.462 21.83 37.81z"/>
<g style="fill:url(#b)" transform="matrix(.8583 0 0 .8583 3.85 92.78)">
<path style="opacity:.8;filter:url(#o);fill:#000" d="m221.3 993.2c-0.00001 7.205 0 14.41 0 21.62 7.517 2.013 9.034-1.974 9.857-6.654 6.242 0.7582 11.77-5.952 8.873-11.8-3.191-7.132-12.71-4.921-18.73-5.164v1 1zm9.783 5.652c1.71 0.0561 0.6651 2.968-1.055 1.658 0.328-0.6255-0.768-2.522 1.055-1.658z"/>
<path style="opacity:.8;filter:url(#n);fill:#000" d="m240.8 999.1c0.4932 4.092 5.525 11.15 3.732 13.79-3.312-0.6101-3.297 8.337 1.002 7.381 7.001 0.9904 8.428-7.69 10.02-12.47 1.148-5.037 7.619-13.86-1.854-11.35-5.66 2.94-3.344-0.3851-11.01 0-3.026-0.1244-3.178-0.4239-1.891 2.65z"/>
<path style="opacity:.8;filter:url(#m);fill:#000" d="m258.8 989.8v20.46c5.628-0.4365 16 2.234 18.08-5.424 1.306-2.49-1.292-5.046-0.834-6.963 2.656-5.063-2.361-10.71-7.732-10.05-2.741 0.7296-10.17-1.948-9.51 1.98zm8.588 5.436c2.171-0.1501-0.3774 0.7297 0 0zm0.9375 7.174c1.704 0.8844-3.44 0.03 0 0z"/>
<path style="opacity:.8;filter:url(#l);fill:#000" d="m286.2 985.8c-11.14 0.1188-12.84 18.36-2.932 21.83 6.617 2.677 13.94-3.314 13.24-10.27 0.55-6.047-3.854-12.06-10.3-11.56zm0.6523 7.385c1.837 1.327 2.167 6.895-0.3496 7.617-1.766-0.784-2.149-7.507 0.3496-7.617z"/>
<path style="opacity:.8;filter:url(#k);fill:#000" d="m296.5 986.9v19.37c6.781 0.063 7.725-0.568 13.76 0 0.967-1.209 12.13 2.996 8.992-5-1.168-4.954 2.443-14.69-2-16.37-7.402-4.782-8.577 8.429-9.988 5.623 1.002-6.975-9.679-7.616-10.76-3.623z"/>
<path style="opacity:.8;filter:url(#j);fill:#000" d="m319.2 985.1v18.85c5.209-0.4259 14.6 2.049 16.77-4.828 1.597-2.933-1.997-5.347-0.2441-7.852 1.514-5.51-4.649-9.06-9.475-8.166-2.037 0.7544-8.177-1.758-7.051 2zm8.857 11.68c0.5588 0.0872-2.331-0.0193 0 0z"/>
<path style="opacity:.8;filter:url(#i);fill:#000" d="m344.2 981.4c-5.48-0.5211-10.13 6.352-6 10.65 0.0818 0.4792-3.489 1.232-1.848 4.416 1.866 8.206 17.55 7.533 16.63-1.674 0.4686-2.455-4.787-5.356 0.1426-4.34 0.8199-5.331-3.555-9.711-8.928-9.053z"/>
</g>
<g style="fill:url(#b)" transform="matrix(.8583 0 0 .8583 3.85 92.78)">
<path d="m228 1006v6.655h-4.729v-19.62h7.827q1.765 0 3.179 0.4985 1.415 0.4985 2.398 1.388 0.9835 0.8892 1.509 2.115 0.5254 1.212 0.5254 2.654 0 1.428-0.5254 2.587t-1.509 1.994q-0.9835 0.8218-2.398 1.28-1.415 0.4446-3.179 0.4446h-3.099zm0-3.651h3.099q0.741 0 1.266-0.1886 0.5389-0.2021 0.8757-0.5523 0.3503-0.3503 0.5119-0.8353 0.1617-0.485 0.1617-1.051 0-0.6062-0.1617-1.145-0.1617-0.5524-0.5119-0.97-0.3368-0.4176-0.8757-0.6601-0.5254-0.256-1.266-0.256h-3.099v5.658z" style="fill:url(#b)"/>
<path d="m249.6 1006 2.352-7.971h4.718l-5.671 16.24q-0.183 0.5359-0.4835 1.163-0.3006 0.6273-0.8363 1.163-0.5227 0.5489-1.333 0.9148-0.8102 0.3659-2.026 0.3659-0.3267 0-0.5488-0.013-0.2091-0.013-0.392-0.052-0.183-0.026-0.392-0.079-0.196-0.039-0.4835-0.1175v-3.149h0.5619q0.5227 0 0.8886-0.079t0.6142-0.2352q0.2483-0.1569 0.392-0.3921 0.1568-0.2221 0.2614-0.5227l0.3528-0.9409-4.914-14.27h4.704l2.235 7.971z" style="fill:url(#b)"/>
<path d="m260.8 1008v-18.46h6.629q1.711 0 3.055 0.3169 1.356 0.3042 2.294 0.938t1.432 1.597q0.4944 0.9507 0.4944 2.244 0 0.6338-0.1394 1.23-0.1394 0.5831-0.4563 1.103-0.3042 0.5197-0.7986 0.938-0.4944 0.4057-1.204 0.6718 0.8239 0.2155 1.394 0.6211 0.5704 0.4058 0.9253 0.9381t0.507 1.153q0.1648 0.6085 0.1648 1.242 0 2.738-1.749 4.107-1.749 1.356-5.184 1.356h-7.365zm4.449-7.846v4.424h2.915q0.6718 0 1.141-0.1648 0.4817-0.1647 0.7732-0.4437 0.3042-0.2915 0.4436-0.6717 0.1394-0.3804 0.1394-0.824 0-0.5324-0.1268-0.9633-0.1268-0.431-0.4056-0.7226-0.2789-0.3042-0.7225-0.469t-1.077-0.1648h-3.08zm0-2.915h2.32q1.458-0.014 2.079-0.5325 0.6211-0.5197 0.6211-1.534 0-1.166-0.6718-1.673-0.6718-0.5197-2.168-0.5197h-2.18v4.259z" style="fill:url(#g)"/>
<path d="m294.5 997.3q0 2.053-0.5779 3.689-0.5779 1.635-1.623 2.779-1.033 1.144-2.471 1.758-1.426 0.6026-3.135 0.6026-1.734 0-3.185-0.6026-1.439-0.6147-2.484-1.758-1.033-1.144-1.611-2.779-0.5779-1.636-0.5779-3.689v-0.7254q0-2.053 0.5656-3.689 0.5779-1.635 1.611-2.779 1.045-1.144 2.484-1.758 1.439-0.6148 3.172-0.6148 1.709 0 3.148 0.6148t2.471 1.758q1.045 1.143 1.623 2.779 0.5902 1.635 0.5902 3.689v0.7254zm-4.39-0.75q0-2.668-0.8976-4.045-0.8853-1.389-2.545-1.389-1.734 0-2.594 1.389-0.8484 1.377-0.8484 4.045v0.75q0 2.631 0.873 4.045t2.594 1.414q1.648 0 2.533-1.402 0.8853-1.414 0.8853-4.058v-0.75z" style="fill:url(#f)"/>
<path d="m304 986.9 3.876 12.08 3.864-12.08h5.51v17.37h-4.198v-4.055l0.4055-8.301-4.198 12.36h-2.767l-4.21-12.37 0.4055 8.313v4.055h-4.186v-17.37h5.498z" style="fill:url(#e)"/>
<path d="m321.2 1002v-16.84h6.051q1.562 0 2.788 0.2892 1.238 0.2776 2.094 0.8561 0.8561 0.5784 1.307 1.458 0.4512 0.8677 0.4512 2.048 0 0.5784-0.1272 1.122-0.1273 0.5321-0.4165 1.006-0.2776 0.4745-0.7288 0.8562-0.4512 0.3702-1.099 0.6131 0.752 0.1967 1.273 0.5669 0.5206 0.3703 0.8445 0.8562 0.3239 0.4858 0.4628 1.053 0.1504 0.5554 0.1504 1.134 0 2.499-1.596 3.748-1.597 1.238-4.732 1.238h-6.722zm4.061-7.161v4.038h2.661q0.6132 0 1.041-0.1505 0.4396-0.1502 0.7057-0.405 0.2776-0.2659 0.4049-0.613 0.1272-0.3472 0.1272-0.752 0-0.4859-0.1157-0.8792-0.1157-0.3934-0.3702-0.6595-0.2545-0.2777-0.6594-0.428-0.4049-0.1505-0.9834-0.1505h-2.811zm0-2.661h2.117q1.33-0.014 1.897-0.486 0.5668-0.4743 0.5668-1.4 0-1.064-0.6131-1.527-0.6132-0.4743-1.978-0.4743h-1.99v3.887z" style="fill:url(#d)"/>
<path d="m347.1 995.6q0-0.3815-0.1122-0.6846-0.101-0.3142-0.4152-0.5835-0.3142-0.2806-0.8865-0.5498-0.5611-0.2694-1.481-0.5724-1.077-0.3592-2.076-0.8079-0.9987-0.4489-1.773-1.066-0.7743-0.6172-1.246-1.436-0.4601-0.8305-0.4601-1.93 0-1.055 0.4713-1.896 0.4713-0.8529 1.313-1.448 0.8416-0.5948 1.986-0.9202 1.156-0.3254 2.514-0.3254 1.335 0 2.458 0.3591 1.122 0.3591 1.93 1.021 0.808 0.6621 1.257 1.605 0.4601 0.9314 0.4601 2.087h-3.928q0-0.4599-0.1459-0.8415-0.1346-0.3928-0.4264-0.6621-0.2806-0.2805-0.707-0.4376-0.4152-0.1571-0.9875-0.1571-0.5611 0-0.9875 0.1347-0.4264 0.1234-0.7182 0.3591-0.2806 0.2244-0.4264 0.5275-0.1459 0.2917-0.1459 0.6284 0 0.3703 0.202 0.6733 0.2132 0.2918 0.5948 0.561 0.3928 0.2582 0.9426 0.4939 0.5611 0.2244 1.257 0.4487 1.302 0.4152 2.323 0.9203 1.021 0.5049 1.717 1.156 0.707 0.6509 1.066 1.47 0.3703 0.8193 0.3703 1.852 0 1.1-0.4377 1.964-0.4264 0.8529-1.223 1.436-0.7855 0.5835-1.908 0.8866-1.111 0.3029-2.48 0.3029-0.8416 0-1.672-0.1459-0.8304-0.1347-1.594-0.4265-0.7518-0.2917-1.414-0.7293-0.6509-0.449-1.133-1.066-0.4713-0.6171-0.7518-1.403-0.2693-0.7854-0.2693-1.75h3.95q0 0.7181 0.1908 1.212 0.1908 0.4827 0.5611 0.7857 0.3703 0.3029 0.8978 0.4376 0.5386 0.1235 1.234 0.1235 0.5611 0 0.9539-0.1235 0.404-0.1347 0.6621-0.3478 0.2581-0.2246 0.3703-0.5163 0.1234-0.2918 0.1234-0.6171z" style="fill:url(#c)"/>
</g>
<g transform="matrix(.7469 .4312 -.4312 .7469 614.5 382.6)">
<path style="stroke-linejoin:round;stroke:#000;stroke-linecap:square;stroke-width:9.129;fill:#ff6905" d="m15.96 742.3-42.65 35.73 42.65 35.73h206.9v-71.47zm3.146 22.8c7.145 0.00052 12.94 5.793 12.94 12.94-0.000518 7.145-5.793 12.94-12.94 12.94-7.146 0.001-12.94-5.791-12.94-12.94 0.0005125-7.146 5.794-12.94 12.94-12.94z"/>
<g>
<path style="" d="m78.58 782.6h-3.543v9.583h-6.544v-27.15h10.68q2.349 0 4.251 0.5407 1.902 0.5221 3.244 1.566 1.342 1.025 2.051 2.554 0.7272 1.529 0.7272 3.543 0 1.566-0.3356 2.797-0.3356 1.212-0.9695 2.144-0.6153 0.9136-1.492 1.603-0.8763 0.6712-1.939 1.175l5.668 10.94v0.2797h-7.01l-4.792-9.583zm-3.543-5.053h4.139q1.864 0 2.797-0.9695 0.9509-0.9882 0.9509-2.741t-0.9509-2.741q-0.9509-1.007-2.797-1.007h-4.139v7.458z"/>
<path style="" d="m102.9 792.6q-2.461 0-4.4-0.7831t-3.263-2.126q-1.324-1.342-2.032-3.114-0.6899-1.771-0.6899-3.766v-0.7085q0-2.2 0.5966-4.102 0.6153-1.92 1.827-3.319 1.231-1.398 3.039-2.2 1.827-0.8017 4.251-0.8017 2.144 0 3.841 0.6899 1.715 0.6899 2.89 1.976 1.193 1.286 1.809 3.114 0.6339 1.827 0.6339 4.102v2.554h-12.49q0.3356 1.697 1.473 2.666 1.137 0.9695 2.946 0.9695 1.286 0 2.517-0.4848 1.249-0.4848 2.144-1.603l2.871 3.393q-0.4848 0.6712-1.249 1.305-0.7458 0.6339-1.753 1.137-1.007 0.4848-2.256 0.7831-1.249 0.317-2.704 0.317zm-0.7085-16.07q-0.8017 0-1.38 0.2797-0.578 0.2797-0.9695 0.7644-0.3729 0.4848-0.5966 1.156t-0.3356 1.454h6.339v-0.4848q0.0373-1.51-0.7644-2.331-0.8017-0.839-2.293-0.839z"/>
<path style="" d="m120.5 792.2h-6.302v-28.64h6.302v28.64z"/>
<path style="" d="m134.1 792.6q-2.461 0-4.4-0.7831t-3.263-2.126q-1.324-1.342-2.032-3.114-0.6899-1.771-0.6899-3.766v-0.7085q0-2.2 0.5966-4.102 0.6153-1.92 1.827-3.319 1.231-1.398 3.039-2.2 1.827-0.8017 4.251-0.8017 2.144 0 3.841 0.6899 1.715 0.6899 2.89 1.976 1.193 1.286 1.809 3.114 0.6339 1.827 0.6339 4.102v2.554h-12.49q0.3356 1.697 1.473 2.666 1.137 0.9695 2.946 0.9695 1.286 0 2.517-0.4848 1.249-0.4848 2.144-1.603l2.871 3.393q-0.4848 0.6712-1.249 1.305-0.7458 0.6339-1.753 1.137-1.007 0.4848-2.256 0.7831-1.249 0.317-2.704 0.317zm-0.7085-16.07q-0.8017 0-1.38 0.2797-0.578 0.2797-0.9695 0.7644-0.3729 0.4848-0.5966 1.156t-0.3356 1.454h6.339v-0.4848q0.0373-1.51-0.7644-2.331-0.8017-0.839-2.293-0.839z"/>
<path style="" d="m156.5 792.2q-0.2051-0.3729-0.3543-0.8204-0.1305-0.4661-0.2424-0.9882-0.7272 0.9136-1.883 1.548-1.156 0.6339-2.965 0.6339-1.398 0-2.648-0.4475-1.231-0.4475-2.163-1.231-0.9322-0.8017-1.492-1.92-0.5407-1.119-0.5407-2.461 0-1.566 0.5594-2.797 0.578-1.231 1.734-2.07 1.175-0.8577 2.946-1.305 1.79-0.4661 4.232-0.4661h1.939v-1.063q0-1.286-0.5594-2.032-0.5594-0.7458-1.846-0.7458-1.081 0-1.659 0.5407t-0.578 1.659h-6.283q0-1.398 0.6153-2.61 0.6339-1.212 1.79-2.088 1.156-0.8763 2.778-1.38 1.641-0.5034 3.654-0.5034 1.809 0 3.337 0.4475 1.548 0.4475 2.666 1.361 1.119 0.895 1.753 2.256 0.6339 1.342 0.6339 3.132v8.26q0 0.9882 0.0559 1.715 0.0559 0.7272 0.1678 1.286 0.1119 0.5407 0.261 0.9695 0.1678 0.4288 0.3729 0.8017v0.317h-6.283zm-3.934-4.102q1.175 0 1.939-0.5034 0.7831-0.5034 1.119-1.137v-3.226h-1.976q-0.8763 0-1.492 0.2424-0.5966 0.2424-0.9695 0.6526-0.3542 0.4102-0.5221 0.9509-0.1492 0.5221-0.1492 1.1 0 0.8577 0.578 1.398 0.578 0.522 1.473 0.522z"/>
<path style="" d="m175.9 786.5q0-0.3915-0.1864-0.6899-0.1678-0.2983-0.6153-0.5594-0.4475-0.2797-1.212-0.522-0.7644-0.2424-1.939-0.5034-1.473-0.317-2.778-0.8204-1.286-0.5221-2.256-1.268-0.9509-0.7644-1.51-1.79-0.5407-1.025-0.5407-2.349 0-1.286 0.5407-2.442 0.5594-1.156 1.622-2.032 1.063-0.8763 2.61-1.38 1.548-0.5221 3.524-0.5221 2.032 0 3.673 0.4848t2.778 1.361q1.156 0.8577 1.771 2.07 0.6153 1.193 0.6153 2.648h-6.302q0-1.156-0.578-1.79-0.578-0.6339-1.976-0.6339-0.4848 0-0.9136 0.1492-0.4102 0.1305-0.7272 0.3916-0.317 0.2424-0.5034 0.5966-0.1864 0.3543-0.1864 0.7831 0 0.8204 0.7831 1.342 0.8017 0.5221 2.573 0.8577 1.529 0.2797 2.927 0.7272 1.417 0.4288 2.498 1.175 1.081 0.7272 1.715 1.827 0.6526 1.1 0.6526 2.704 0 1.342-0.6153 2.48-0.6153 1.137-1.771 1.976-1.137 0.8204-2.759 1.305-1.622 0.4661-3.654 0.4661-2.181 0-3.86-0.6153-1.659-0.6153-2.797-1.585-1.119-0.9882-1.697-2.2-0.578-1.231-0.578-2.442h5.873q0.0373 1.398 0.9322 2.051 0.895 0.6339 2.293 0.6339 1.286 0 1.92-0.5221 0.6526-0.5221 0.6526-1.361z"/>
<path style="" d="m194.6 792.6q-2.461 0-4.4-0.7831t-3.263-2.126q-1.324-1.342-2.032-3.114-0.6899-1.771-0.6899-3.766v-0.7085q0-2.2 0.5966-4.102 0.6153-1.92 1.827-3.319 1.231-1.398 3.039-2.2 1.827-0.8017 4.251-0.8017 2.144 0 3.841 0.6899 1.715 0.6899 2.89 1.976 1.193 1.286 1.809 3.114 0.6339 1.827 0.6339 4.102v2.554h-12.49q0.3356 1.697 1.473 2.666 1.137 0.9695 2.946 0.9695 1.286 0 2.517-0.4848 1.249-0.4848 2.144-1.603l2.871 3.393q-0.4848 0.6712-1.249 1.305-0.7458 0.6339-1.753 1.137-1.007 0.4848-2.256 0.7831-1.249 0.317-2.704 0.317zm-0.7085-16.07q-0.8017 0-1.38 0.2797-0.578 0.2797-0.9695 0.7644-0.3729 0.4848-0.5966 1.156t-0.3356 1.454h6.339v-0.4848q0.0373-1.51-0.7644-2.331-0.8017-0.839-2.293-0.839z"/>
</g>
</g>
</g>
</g>
</svg>
