<svg xmlns="http://www.w3.org/2000/svg" viewBox="0 0 280 103.43"><defs><style>.cls-1{fill:#010101;}.cls-2{fill:#90a584;}.cls-3{fill:#003f2e;}.cls-4{fill:#231f20;}</style></defs><title>logo</title><g id="Layer_1" data-name="Layer 1"><path class="cls-1" d="M14,18.24h13v3.25H17.71v4.72h6.73V29.4H17.71v5.41h9.65v3.41H14Z"/><path class="cls-1" d="M35.35,35.58a10,10,0,0,0,1.4-.11v2.8a14.09,14.09,0,0,1-2.83.25c-2.36,0-3.38-1.05-3.38-3.38V26.62H28.68v-2.8h1.86V19.2H34v4.62h2.8v2.8H34V33.9C34,35.11,34.11,35.58,35.35,35.58Z"/><path class="cls-1" d="M45.16,35.58a10,10,0,0,0,1.4-.11v2.8a14.09,14.09,0,0,1-2.83.25c-2.36,0-3.38-1.05-3.38-3.38V26.62H38.49v-2.8h1.86V19.2h3.41v4.62h2.8v2.8h-2.8V33.9C43.76,35.11,43.93,35.58,45.16,35.58Z"/><path class="cls-1" d="M53.54,38.49c-2.66,0-4-1.54-4-4.64v-10h3.41v9.34c0,1.76.41,2.58,1.65,2.58a4.88,4.88,0,0,0,3.19-1.62V23.82h3.37v14.4H58V36.54A6.89,6.89,0,0,1,53.54,38.49Z"/><path class="cls-1" d="M65.58,33.79c1.07,1.38,2.12,2.06,3.3,2.06s2-.63,2-1.59c0-1.18-1-1.46-2.65-2.06-3-1.13-4.5-2.06-4.5-4.45s1.95-4.21,4.95-4.21a6.13,6.13,0,0,1,4.86,2.2l-2.14,1.87a3.89,3.89,0,0,0-2.81-1.45c-1.18,0-1.84.57-1.84,1.42s1.19,1.21,3.22,2c2.63,1,4,2,4,4.5,0,2.67-2,4.43-5,4.43a6.56,6.56,0,0,1-5.64-2.91Z"/><path class="cls-1" d="M147.13,65.33h6.76c5,0,7.5,1.9,7.5,6a4.84,4.84,0,0,1-3.68,5.06l4.42,9h-4l-3.84-8.1h-3.44v8.1h-3.68Zm7,8.71c2.39,0,3.52-.85,3.52-2.78s-1.16-2.77-3.52-2.77h-3.27V74Z"/><path class="cls-1" d="M169.62,85.58c-3.82,0-6.1-2.72-6.1-7.45s2.31-7.49,6-7.49,6,2.63,6,7.3c0,.25,0,.49,0,.74h-8.63c0,2.72,1,4.1,3,4.1a3.25,3.25,0,0,0,2.94-1.84l2.5,1.54A6.06,6.06,0,0,1,169.62,85.58Zm2.55-9.34c0-1.93-1-3-2.61-3s-2.49,1.1-2.63,3Z"/><path class="cls-1" d="M180.39,80.88c1.07,1.38,2.12,2.06,3.3,2.06s2-.63,2-1.59c0-1.18-1-1.46-2.64-2.06-3-1.13-4.51-2.06-4.51-4.45s1.95-4.2,4.95-4.2a6.12,6.12,0,0,1,4.86,2.19l-2.14,1.87a3.9,3.9,0,0,0-2.8-1.46c-1.19,0-1.85.58-1.85,1.43s1.19,1.21,3.22,2c2.64,1,4,2,4,4.51,0,2.66-2,4.42-5,4.42a6.56,6.56,0,0,1-5.64-2.92Z"/><path class="cls-1" d="M197.49,85.58c-3.83,0-6.1-2.72-6.1-7.45s2.3-7.49,6-7.49,6,2.63,6,7.3c0,.25,0,.49,0,.74h-8.63c0,2.72,1,4.1,3,4.1a3.26,3.26,0,0,0,2.94-1.84l2.5,1.54A6.08,6.08,0,0,1,197.49,85.58ZM200,76.24c0-1.93-1-3-2.61-3s-2.5,1.1-2.64,3Z"/><path class="cls-1" d="M213.89,84a7.14,7.14,0,0,1-4.29,1.43,3.54,3.54,0,0,1-3.84-3.85c0-3.21,2.66-4.91,8.16-5.6V74.89c0-1-.72-1.65-2-1.65a3.73,3.73,0,0,0-3.16,1.65l-2.31-1.45a6.11,6.11,0,0,1,5.52-2.8c3.38,0,5.28,1.62,5.28,4.25v8.47a12.92,12.92,0,0,0,.21,1.94h-3.24Zm-4.78-2.69a1.41,1.41,0,0,0,1.54,1.54,4.58,4.58,0,0,0,3.16-1.51V78.3C210.62,78.74,209.11,79.65,209.11,81.35Z"/><path class="cls-1" d="M221.2,70.91h3.25V73.3c.93-1.76,2.14-2.64,3.56-2.64a2.22,2.22,0,0,1,.45,0v3.54h-.17a4.11,4.11,0,0,0-3.63,2.26V85.3H221.2Z"/><path class="cls-1" d="M242.14,81.93a5.68,5.68,0,0,1-5.66,3.65c-4.07,0-6.21-2.55-6.21-7.47,0-4.67,2.39-7.45,6.21-7.45A5.45,5.45,0,0,1,242,74.4l-2.85,1.24c-.5-1.46-1.24-2.17-2.45-2.17-2.09,0-3,1.53-3,4.83,0,3,.91,4.39,2.8,4.39a3.2,3.2,0,0,0,3-2.16Z"/><path class="cls-1" d="M244.61,65.33H248V72.5a6.22,6.22,0,0,1,4.24-1.86c2.66,0,4,1.56,4,4.67v10h-3.39V76c0-1.75-.43-2.55-1.67-2.55A4.85,4.85,0,0,0,248,75V85.3h-3.38Z"/><path class="cls-2" d="M280,51.33,267.73,45v4.19h-27v-31h-1.1v31H212.4V12.56h-1.1V49.19H184.07v-31H183v31H155.73V32.81h-1.1V49.19H132.9a6.47,6.47,0,0,1,0,4.94H267.73v4.24Z"/><path class="cls-2" d="M120.3,51.66a6.55,6.55,0,0,1,.48-2.47H0v4.94H12.93V85.06H14V54.13H41.27V90.69h1.1V54.13H69.61V85.06h1.1V54.13H98V70.45h1.1V54.13h21.73A6.33,6.33,0,0,1,120.3,51.66Z"/><path class="cls-3" d="M98.51,83.32a6.55,6.55,0,1,1,6.54-6.54A6.55,6.55,0,0,1,98.51,83.32Zm0-12A5.45,5.45,0,1,0,104,76.78,5.45,5.45,0,0,0,98.51,71.33Z"/><path class="cls-3" d="M70.16,97.63a6.55,6.55,0,1,1,6.55-6.55A6.56,6.56,0,0,1,70.16,97.63Zm0-12a5.45,5.45,0,1,0,5.45,5.44A5.45,5.45,0,0,0,70.16,85.64Z"/><path class="cls-3" d="M13.48,97.63A6.55,6.55,0,1,1,20,91.08,6.56,6.56,0,0,1,13.48,97.63Zm0-12a5.45,5.45,0,1,0,5.45,5.44A5.45,5.45,0,0,0,13.48,85.64Z"/><path class="cls-3" d="M41.82,103.26a6.55,6.55,0,1,1,6.55-6.55A6.56,6.56,0,0,1,41.82,103.26Zm0-12a5.45,5.45,0,1,0,5.45,5.45A5.45,5.45,0,0,0,41.82,91.26Z"/><path class="cls-3" d="M155.18,33a6.55,6.55,0,1,1,6.54-6.54A6.55,6.55,0,0,1,155.18,33Zm0-12a5.45,5.45,0,1,0,5.44,5.45A5.46,5.46,0,0,0,155.18,21Z"/><path class="cls-3" d="M183.52,18.71a6.55,6.55,0,1,1,6.54-6.54A6.55,6.55,0,0,1,183.52,18.71Zm0-12A5.45,5.45,0,1,0,189,12.17,5.46,5.46,0,0,0,183.52,6.72Z"/><path class="cls-3" d="M240.19,18.71a6.55,6.55,0,1,1,6.55-6.54A6.54,6.54,0,0,1,240.19,18.71Zm0-12a5.45,5.45,0,1,0,5.45,5.45A5.45,5.45,0,0,0,240.19,6.72Z"/><path class="cls-3" d="M211.85,13.09a6.55,6.55,0,1,1,6.55-6.55A6.55,6.55,0,0,1,211.85,13.09Zm0-12a5.45,5.45,0,1,0,5.45,5.44A5.45,5.45,0,0,0,211.85,1.1Z"/><path class="cls-3" d="M126.84,58.21a6.55,6.55,0,1,1,6.55-6.55A6.55,6.55,0,0,1,126.84,58.21Zm0-12a5.45,5.45,0,1,0,5.45,5.45A5.45,5.45,0,0,0,126.84,46.21Z"/><path class="cls-1" d="M257.81,71.58v-.75h3.32v.75h-1.21v3.3H259v-3.3Z"/><path class="cls-1" d="M262.85,70.83l.95,2.79h0l.89-2.79H266v4h-.84V72h0l-1,2.87h-.69l-1-2.84h0v2.84h-.83v-4Z"/><path class="cls-4" d="M120.64,96h1.08l1.4,7.26H122l-.38-1.89h-3.37l-1.18,1.89h-1Zm-1.88,4.55h2.75L120.93,97Z"/><path class="cls-4" d="M128.5,96h1.4l2.3,6,1.27-6h.92l-1.53,7.26h-1.29l-2.38-6.17-1.31,6.17H127Z"/><path class="cls-4" d="M137.79,103.26a2.45,2.45,0,0,1,.07-.76,2.06,2.06,0,0,1-1.75.92c-1.16,0-1.65-.66-1.47-1.49a2.18,2.18,0,0,1,1.2-1.48,4.4,4.4,0,0,1,1.82-.33c.24,0,.39,0,.68,0,.13-.62.19-.9,0-1.12s-.53-.33-.8-.33a1.09,1.09,0,0,0-1.2.86h-.94a2,2,0,0,1,.55-1,2.73,2.73,0,0,1,1.75-.54c.73,0,1.47.23,1.63.74a1.38,1.38,0,0,1,0,.78l-.56,2.41a11.34,11.34,0,0,0-.19,1.27Zm-.12-2.49c-.39,0-1.82,0-2,1-.07.32,0,.87.85.87a1.56,1.56,0,0,0,1.2-.54,2.84,2.84,0,0,0,.52-1.33A4,4,0,0,0,137.67,100.77Z"/><path class="cls-4" d="M140.6,98.19h.89l.23-1.06,1-.3-.29,1.36h1.13l-.15.69h-1.13l-.64,3c0,.25-.15.67.53.67a2.18,2.18,0,0,0,.46,0l-.15.74a4.88,4.88,0,0,1-.79.06c-.87,0-1.23-.25-1.06-1.08l.71-3.37h-.89Z"/><path class="cls-4" d="M144.73,98.21h1l-1.08,5.05h-.95Zm.36-2.19h1.14l-.22,1h-1.14Z"/><path class="cls-4" d="M149.73,98.08c2,0,2.14,1.59,1.92,2.64a3.2,3.2,0,0,1-3.14,2.71c-1.67,0-2.23-1.16-1.92-2.64A3.15,3.15,0,0,1,149.73,98.08Zm-1,4.64c.71,0,1.64-.51,2-2,.27-1.26-.17-1.92-1-1.92-.61,0-1.66.38-2,2C147.36,101.77,147.6,102.72,148.68,102.72Z"/><path class="cls-4" d="M153.55,98.79l.12-.58h1l-.17.81a2.14,2.14,0,0,1,1.82-.91,1.33,1.33,0,0,1,1.46,1.72l-.73,3.43h-1l.68-3.21a1,1,0,0,0-.09-.87,1.05,1.05,0,0,0-.82-.34,1.73,1.73,0,0,0-1.64,1.51l-.62,2.91h-.94Z"/><path class="cls-4" d="M161.8,103.26a2.45,2.45,0,0,1,.07-.76,2.06,2.06,0,0,1-1.75.92c-1.16,0-1.65-.66-1.47-1.49a2.19,2.19,0,0,1,1.19-1.48,4.45,4.45,0,0,1,1.82-.33c.25,0,.4,0,.69,0,.13-.62.19-.9.05-1.12s-.53-.33-.81-.33a1.09,1.09,0,0,0-1.19.86h-1a2,2,0,0,1,.56-1,2.73,2.73,0,0,1,1.75-.54c.73,0,1.46.23,1.62.74a1.38,1.38,0,0,1,0,.78l-.55,2.41a11.34,11.34,0,0,0-.19,1.27Zm-.13-2.49c-.38,0-1.82,0-2,1-.07.32,0,.87.86.87a1.54,1.54,0,0,0,1.19-.54,2.73,2.73,0,0,0,.53-1.33A4.06,4.06,0,0,0,161.67,100.77Z"/><path class="cls-4" d="M165.86,96h.95l-1.54,7.25h-.94Z"/><path class="cls-4" d="M171.43,96h1l-1.54,7.26h-1Z"/><path class="cls-4" d="M173.66,98.79l.12-.58h.95l-.17.81a2.14,2.14,0,0,1,1.82-.91,1.32,1.32,0,0,1,1.45,1.72l-.72,3.43h-1l.68-3.21a1,1,0,0,0-.09-.87,1.06,1.06,0,0,0-.83-.34,1.73,1.73,0,0,0-1.63,1.51l-.62,2.91h-.94Z"/><path class="cls-4" d="M179.69,101.76c-.09.38,0,.91.91.91a1.24,1.24,0,0,0,1-.32.92.92,0,0,0,.26-.47c.11-.49-.23-.59-.94-.76-1-.24-1.84-.45-1.62-1.5a2.16,2.16,0,0,1,2.29-1.53c.63,0,1.48.18,1.66.78a1.51,1.51,0,0,1,0,.74h-1c.19-.77-.46-.83-.8-.83-.14,0-1,0-1.19.73-.09.46.34.57.59.64,1.32.33,1.61.41,1.85.69a1.09,1.09,0,0,1,.18.94,2,2,0,0,1-1,1.27,3.11,3.11,0,0,1-1.57.35c-1,0-1.89-.43-1.61-1.64Z"/><path class="cls-4" d="M184.15,98.19h.9l.22-1.06,1-.3L186,98.19h1.13l-.15.69h-1.13l-.64,3c-.05.25-.14.67.53.67a2.18,2.18,0,0,0,.46,0l-.15.74a4.88,4.88,0,0,1-.79.06c-.87,0-1.23-.25-1.06-1.08l.72-3.37H184Z"/><path class="cls-4" d="M188.1,99.23c.07-.34.13-.69.17-1h1l-.19,1a1.79,1.79,0,0,1,1.42-1,3.1,3.1,0,0,1,.66,0l-.2.92-.17,0h-.27c-1.12,0-1.52.67-1.7,1.53l-.58,2.69h-.95Z"/><path class="cls-4" d="M193.05,98.21l-.7,3.25c-.1.49-.13,1.11.84,1.11a1.72,1.72,0,0,0,1.31-.56,1.85,1.85,0,0,0,.41-1l.61-2.85h1l-.88,4.1c0,.1-.12.66-.17,1h-1l.16-.87a2,2,0,0,1-1.8.92c-1.25,0-1.68-.72-1.47-1.71l.72-3.39Z"/><path class="cls-4" d="M198.16,98.88l.13-.67h1l-.16.73a2.14,2.14,0,0,1,1.78-.86c1.11,0,1.34.57,1.44.94a2.36,2.36,0,0,1,1.9-.94c.73,0,1.79.3,1.48,1.79l-.72,3.39h-1l.69-3.24a1.16,1.16,0,0,0,0-.77.92.92,0,0,0-.88-.44,1.63,1.63,0,0,0-1.18.53,2.33,2.33,0,0,0-.46,1.09l-.6,2.83h-1l.71-3.34c.13-.63-.13-1.11-.88-1.11a1.73,1.73,0,0,0-1.22.55,2.1,2.1,0,0,0-.43,1l-.62,2.87h-.95Z"/><path class="cls-4" d="M207.81,100.9c-.24,1,0,1.82,1.05,1.82a1.41,1.41,0,0,0,1.41-1h.95a2.12,2.12,0,0,1-.66,1,2.67,2.67,0,0,1-1.88.68c-1.58,0-2.13-1-1.8-2.59a3.37,3.37,0,0,1,1.51-2.37,2.79,2.79,0,0,1,1.45-.37c2.26,0,1.79,2,1.6,2.82Zm2.8-.66c.12-.48.24-1.49-.93-1.49a1.74,1.74,0,0,0-1.69,1.49Z"/><path class="cls-4" d="M213.3,98.79l.12-.58h.94l-.17.81a2.14,2.14,0,0,1,1.82-.91,1.33,1.33,0,0,1,1.46,1.72l-.72,3.43h-1l.68-3.21a1,1,0,0,0-.09-.87,1.05,1.05,0,0,0-.82-.34,1.73,1.73,0,0,0-1.64,1.51l-.61,2.91h-1Z"/><path class="cls-4" d="M218.76,98.19h.9l.22-1.06,1-.3-.29,1.36h1.13l-.15.69h-1.13l-.64,3c-.05.25-.14.67.53.67a2.18,2.18,0,0,0,.46,0l-.15.74a4.88,4.88,0,0,1-.79.06c-.87,0-1.23-.25-1.06-1.08l.72-3.37h-.9Z"/><path class="cls-4" d="M222.67,101.76c-.09.38,0,.91.91.91a1.24,1.24,0,0,0,.95-.32.92.92,0,0,0,.26-.47c.11-.49-.23-.59-.94-.76-1-.24-1.84-.45-1.62-1.5a2.16,2.16,0,0,1,2.29-1.53c.64,0,1.48.18,1.66.78a1.51,1.51,0,0,1,0,.74h-1c.19-.77-.46-.83-.8-.83-.14,0-1,0-1.19.73-.09.46.34.57.59.64,1.33.33,1.61.41,1.85.69a1.09,1.09,0,0,1,.18.94,2,2,0,0,1-1,1.27,3.1,3.1,0,0,1-1.56.35c-1,0-1.9-.43-1.62-1.64Z"/><path class="cls-4" d="M231.24,96h2.59c.88,0,1.37.09,1.72.53a1.47,1.47,0,0,1,.24,1.3,2.18,2.18,0,0,1-1.58,1.64,1.37,1.37,0,0,1,1.07,1.81,2.57,2.57,0,0,1-1.23,1.64,3.1,3.1,0,0,1-1.71.34H229.7Zm-.4,6.44h1.72a1.63,1.63,0,0,0,1.7-1.26c.15-.72-.24-1.25-1.12-1.25h-1.76Zm.73-3.38H233a1.58,1.58,0,0,0,1.75-1.14c.23-1.1-.68-1.1-1.23-1.1H232Z"/><path class="cls-4" d="M237.23,99.23c.07-.34.13-.69.17-1h1l-.19,1a1.79,1.79,0,0,1,1.42-1,3.1,3.1,0,0,1,.66,0l-.2.92-.17,0h-.27c-1.12,0-1.52.67-1.7,1.53l-.58,2.69h-1Z"/><path class="cls-4" d="M243.31,103.26a2.45,2.45,0,0,1,.07-.76,2,2,0,0,1-1.75.92c-1.15,0-1.64-.66-1.46-1.49a2.19,2.19,0,0,1,1.19-1.48,4.45,4.45,0,0,1,1.82-.33c.24,0,.4,0,.69,0,.13-.62.19-.9,0-1.12s-.54-.33-.81-.33a1.09,1.09,0,0,0-1.19.86H241a2,2,0,0,1,.55-1,2.76,2.76,0,0,1,1.75-.54c.74,0,1.47.23,1.63.74a1.38,1.38,0,0,1,0,.78l-.55,2.41a11.34,11.34,0,0,0-.19,1.27Zm-.12-2.49c-.38,0-1.82,0-2,1-.07.32,0,.87.86.87a1.54,1.54,0,0,0,1.19-.54,2.73,2.73,0,0,0,.53-1.33A4.16,4.16,0,0,0,243.19,100.77Z"/><path class="cls-4" d="M246.8,98.79l.12-.58h1l-.18.81a2.18,2.18,0,0,1,1.83-.91A1.33,1.33,0,0,1,251,99.83l-.72,3.43h-1l.69-3.21a1,1,0,0,0-.09-.87,1.07,1.07,0,0,0-.83-.34,1.75,1.75,0,0,0-1.64,1.51l-.61,2.91h-.94Z"/><path class="cls-4" d="M257,96H258l-1.37,6.44c0,.11-.09.54-.13.81h-.95l.16-.81a2.13,2.13,0,0,1-.57.53,2.61,2.61,0,0,1-1.33.38c-.67,0-2.1-.36-1.62-2.57.41-1.92,1.68-2.75,2.86-2.75s1.32.64,1.39.85Zm-1,3.24a1.11,1.11,0,0,0-1-.51c-1.39,0-1.74,1.68-1.81,2-.19.9-.18,1.93,1,1.93,1.49,0,1.84-1.64,1.92-2A2,2,0,0,0,256,99.25Z"/></g></svg>