<?xml version="1.0" encoding="UTF-8" standalone="no"?>
<svg xmlns:rdf="http://www.w3.org/1999/02/22-rdf-syntax-ns#" xmlns="http://www.w3.org/2000/svg" height="146mm" width="263mm" version="1.1" xmlns:cc="http://creativecommons.org/ns#" xmlns:dc="http://purl.org/dc/elements/1.1/" viewBox="0 0 930.25934 518.26161">
<metadata>
<rdf:RDF>
<cc:Work rdf:about="">
<dc:format>image/svg+xml</dc:format>
<dc:type rdf:resource="http://purl.org/dc/dcmitype/StillImage"/>
<dc:title/>
</cc:Work>
</rdf:RDF>
</metadata>
<g transform="translate(-6.87 -152)">
<g transform="translate(0 21.2)">
<g>
<rect rx="9.98" ry="13.7" height="125" width="229" stroke="#000" y="327" x="8.45" stroke-width="3.17" fill="#fff"/>
<text style="word-spacing:0px;letter-spacing:0px" font-weight="bold" xml:space="preserve" font-size="31.2px" line-height="108.00000429%" y="353.79077" x="12.857142" font-family="Roboto" fill="#000000"><tspan x="12.857142" y="353.79077">page 0</tspan></text>
</g>
<g transform="translate(233)">
<rect rx="9.98" ry="13.7" height="125" width="229" stroke="#000" y="327" x="8.45" stroke-width="3.17" fill="#fff"/>
<text style="word-spacing:0px;letter-spacing:0px" font-weight="bold" font-size="31.2px" line-height="108.00000429%" y="353.79077" x="12.857142" font-family="Roboto" xml:space="preserve" fill="#000000"><tspan y="353.79077" x="12.857142">page 1</tspan></text>
</g>
<g transform="translate(-.551)">
<g opacity=".55" transform="translate(466)">
<rect opacity="1" rx="9.98" ry="13.7" height="125" width="229" stroke="#000" y="327" x="8.45" stroke-width="3.17" fill="#fff"/>
<text style="word-spacing:0px;letter-spacing:0px" font-weight="bold" xml:space="preserve" font-size="31.2px" line-height="108.00000429%" y="353.79077" x="12.857142" font-family="Roboto" fill="#000000"><tspan x="12.857142" y="353.79077">page 0</tspan></text>
</g>
<g opacity=".55" transform="translate(698)">
<rect opacity="1" rx="9.98" ry="13.7" height="125" width="229" stroke="#000" y="327" x="8.45" stroke-width="3.17" fill="#fff"/>
<text style="word-spacing:0px;letter-spacing:0px" font-weight="bold" font-size="31.2px" line-height="108.00000429%" y="353.79077" x="12.857142" font-family="Roboto" xml:space="preserve" fill="#000000"><tspan y="353.79077" x="12.857142">page 1</tspan></text>
</g>
</g>
<rect fill-opacity=".789" rx="5" ry="5" height="81.1" width="251" stroke="#000" y="368" x="461" stroke-width="3" fill="#fff"/>
</g>
<g transform="translate(0 -174)">
<g>
<rect rx="9.98" ry="13.7" height="125" width="229" stroke="#000" y="327" x="8.45" stroke-width="3.17" fill="#fff"/>
<text style="word-spacing:0px;letter-spacing:0px" font-weight="bold" font-size="31.2px" line-height="108.00000429%" y="353.79077" x="12.857142" font-family="Roboto" xml:space="preserve" fill="#000000"><tspan y="353.79077" x="12.857142">page 0</tspan></text>
</g>
<g transform="translate(233)">
<rect rx="9.98" ry="13.7" height="125" width="229" stroke="#000" y="327" x="8.45" stroke-width="3.17" fill="#fff"/>
<text style="word-spacing:0px;letter-spacing:0px" font-weight="bold" xml:space="preserve" font-size="31.2px" line-height="108.00000429%" y="353.79077" x="12.857142" font-family="Roboto" fill="#000000"><tspan x="12.857142" y="353.79077">page 1</tspan></text>
</g>
<rect fill-opacity=".789" rx="5" ry="5" height="81.1" width="251" stroke="#000" y="368" x="206" stroke-width="3" fill="#fff"/>
</g>
<g transform="translate(0 216)">
<g>
<rect rx="9.98" ry="13.7" height="125" width="229" stroke="#000" y="327" x="8.45" stroke-width="3.17" fill="#fff"/>
<text style="word-spacing:0px;letter-spacing:0px" font-weight="bold" xml:space="preserve" font-size="31.2px" line-height="108.00000429%" y="353.79077" x="12.857142" font-family="Roboto" fill="#000000"><tspan x="12.857142" y="353.79077">page 0</tspan></text>
</g>
<g transform="translate(233)">
<rect rx="9.98" ry="13.7" height="125" width="229" stroke="#000" y="327" x="8.45" stroke-width="3.17" fill="#fff"/>
<text style="word-spacing:0px;letter-spacing:0px" font-weight="bold" font-size="31.2px" line-height="108.00000429%" y="353.79077" x="12.857142" font-family="Roboto" xml:space="preserve" fill="#000000"><tspan y="353.79077" x="12.857142">page 1</tspan></text>
</g>
<g transform="translate(-.551)">
<g opacity=".55" transform="translate(466)">
<rect opacity="1" rx="9.98" ry="13.7" height="125" width="229" stroke="#000" y="327" x="8.45" stroke-width="3.17" fill="#fff"/>
<text style="word-spacing:0px;letter-spacing:0px" font-weight="bold" xml:space="preserve" font-size="31.2px" line-height="108.00000429%" y="353.79077" x="12.857142" font-family="Roboto" fill="#000000"><tspan x="12.857142" y="353.79077">page 0</tspan></text>
</g>
<g opacity=".55" transform="translate(698)">
<rect opacity="1" rx="9.98" ry="13.7" height="125" width="229" stroke="#000" y="327" x="8.45" stroke-width="3.17" fill="#fff"/>
<text style="word-spacing:0px;letter-spacing:0px" font-weight="bold" font-size="31.2px" line-height="108.00000429%" y="353.79077" x="12.857142" font-family="Roboto" xml:space="preserve" fill="#000000"><tspan y="353.79077" x="12.857142">page 1</tspan></text>
</g>
</g>
<rect fill-opacity=".789" rx="5" ry="5" height="81.1" width="251" stroke="#000" y="368" x="251" stroke-width="3" fill="#fff"/>
</g>
</g>
</svg>
