<?xml version="1.0" encoding="UTF-8" standalone="no"?>
<!-- Created with Inkscape (http://www.inkscape.org/) -->

<svg
   xmlns:dc="http://purl.org/dc/elements/1.1/"
   xmlns:cc="http://creativecommons.org/ns#"
   xmlns:rdf="http://www.w3.org/1999/02/22-rdf-syntax-ns#"
   xmlns:svg="http://www.w3.org/2000/svg"
   xmlns="http://www.w3.org/2000/svg"
   xmlns:sodipodi="http://sodipodi.sourceforge.net/DTD/sodipodi-0.dtd"
   xmlns:inkscape="http://www.inkscape.org/namespaces/inkscape"
   id="svg3461"
   version="1.1"
   inkscape:version="0.91 r13725"
   width="268"
   height="164"
   viewBox="0 0 268 164"
   sodipodi:docname="developers_call.svg">
  <metadata
     id="metadata3467">
    <rdf:RDF>
      <cc:Work
         rdf:about="">
        <dc:format>image/svg+xml</dc:format>
        <dc:type
           rdf:resource="http://purl.org/dc/dcmitype/StillImage" />
        <dc:title></dc:title>
      </cc:Work>
    </rdf:RDF>
  </metadata>
  <defs
     id="defs3465" />
  <sodipodi:namedview
     pagecolor="#ffffff"
     bordercolor="#666666"
     borderopacity="1"
     objecttolerance="10"
     gridtolerance="10"
     guidetolerance="10"
     inkscape:pageopacity="0"
     inkscape:pageshadow="2"
     inkscape:window-width="1918"
     inkscape:window-height="1060"
     id="namedview3463"
     showgrid="false"
     showguides="true"
     inkscape:guide-bbox="true"
     inkscape:zoom="3.3455649"
     inkscape:cx="169.62302"
     inkscape:cy="83.122789"
     inkscape:window-x="0"
     inkscape:window-y="18"
     inkscape:window-maximized="1"
     inkscape:current-layer="svg3461">
    <sodipodi:guide
       position="40.976735,26.551656"
       orientation="1,0"
       id="guide4160" />
    <sodipodi:guide
       position="52.944795,36.009858"
       orientation="0,1"
       id="guide4162" />
    <sodipodi:guide
       position="53.129732,22.033912"
       orientation="0,1"
       id="guide4164" />
    <sodipodi:guide
       position="222.98178,21.259489"
       orientation="1,0"
       id="guide4166" />
  </sodipodi:namedview>
  <circle
     style="fill:#ff6905"
     id="path3471"
     cx="129.49046"
     cy="34.649841"
     r="6.7634068" />
  <path
     style="fill:#ff6905;fill-opacity:1;fill-rule:evenodd;stroke:#ff6905;stroke-width:1px;stroke-linecap:butt;stroke-linejoin:miter;stroke-opacity:1"
     d="m 129.48112,50.0058 -3.56815,-4.819817 -6.93082,1.643967 0,14.12318 4.98794,2.98903 1.04617,18.008916 8.96709,0 1.0088,-18.008916 5.00663,-2.98903 0,-14.12318 -7.06159,-1.643967 z"
     id="path3503"
     inkscape:connector-curvature="0"
     sodipodi:nodetypes="cccccccccccc" />
  <g
     style="font-style:normal;font-variant:normal;font-weight:bold;font-stretch:normal;font-size:19.46624947px;line-height:125%;font-family:Roboto;-inkscape-font-specification:'Roboto, Bold';text-align:center;letter-spacing:0px;word-spacing:0px;writing-mode:lr-tb;text-anchor:middle;fill:#666666;fill-opacity:1;stroke:none;stroke-width:1px;stroke-linecap:butt;stroke-linejoin:miter;stroke-opacity:1"
     id="text4307">
    <path
       d="m 43.337099,141.93875 0,-13.83929 4.752502,0 q 2.537836,0 4.182202,1.62536 1.644366,1.61585 1.644366,4.15369 l 0,2.2907 q 0,2.54734 -1.644366,4.1632 -1.644366,1.60634 -4.182202,1.60634 l -4.752502,0 z m 2.775461,-11.70066 0,9.57154 1.834466,0 q 1.492286,0 2.338231,-1.00753 0.845946,-1.00753 0.845946,-2.63289 l 0,-2.30971 q 0,-1.60635 -0.845946,-2.61388 -0.845945,-1.00753 -2.338231,-1.00753 l -1.834466,0 z"
       style=""
       id="path4294" />
    <path
       d="m 64.618804,135.85555 -5.731518,0 0,3.95408 6.701028,0 0,2.12912 -9.476489,0 0,-13.83929 9.457479,0 0,2.13863 -6.682018,0 0,3.47883 5.731518,0 0,2.13863 z"
       style=""
       id="path4296" />
    <path
       d="m 71.985181,138.26031 0.17109,0.7509 0.05703,0 0.161585,-0.73189 3.013087,-10.17986 2.927541,0 -4.704977,13.83929 -2.851501,0 -4.695473,-13.83929 2.927542,0 2.994076,10.16085 z"
       style=""
       id="path4298" />
    <path
       d="m 88.191215,135.85555 -5.731517,0 0,3.95408 6.701028,0 0,2.12912 -9.47649,0 0,-13.83929 9.45748,0 0,2.13863 -6.682018,0 0,3.47883 5.731517,0 0,2.13863 z"
       style=""
       id="path4300" />
    <path
       d="m 93.637585,139.80963 6.159243,0 0,2.12912 -8.934705,0 0,-13.83929 2.775462,0 0,11.71017 z"
       style=""
       id="path4302" />
    <path
       d="m 111.95373,136.26426 q 0,2.54734 -1.61585,4.21072 -1.60635,1.66338 -4.18221,1.66338 -2.55684,0 -4.15368,-1.66338 -1.59684,-1.66338 -1.59684,-4.21072 l 0,-2.49031 q 0,-2.53783 1.58733,-4.20121 1.59684,-1.67288 4.15369,-1.67288 2.57585,0 4.19171,1.67288 1.61585,1.66338 1.61585,4.20121 l 0,2.49031 z m -2.77546,-2.50932 q 0,-1.61585 -0.80793,-2.65189 -0.80793,-1.03605 -2.22417,-1.03605 -1.41625,0 -2.19566,1.03605 -0.77941,1.02654 -0.77941,2.65189 l 0,2.50932 q 0,1.64437 0.78892,2.68041 0.78891,1.03605 2.19565,1.03605 1.42575,0 2.22417,-1.03605 0.79843,-1.03604 0.79843,-2.68041 l 0,-2.50932 z"
       style=""
       id="path4304" />
    <path
       d="m 116.90583,136.92011 0,5.01864 -2.77546,0 0,-13.83929 5.51291,0 q 2.38575,0 3.75447,1.21665 1.36872,1.21664 1.36872,3.20318 0,1.98655 -1.36872,3.19368 -1.36872,1.20714 -3.75447,1.20714 l -2.73745,0 z m 0,-2.13863 2.73745,0 q 1.15961,0 1.75842,-0.62733 0.59882,-0.63683 0.59882,-1.61585 0,-0.99802 -0.59882,-1.64436 -0.58931,-0.65585 -1.75842,-0.65585 l -2.73745,0 0,4.54339 z"
       style=""
       id="path4306" />
    <path
       d="m 135.33604,135.85555 -5.73152,0 0,3.95408 6.70103,0 0,2.12912 -9.47649,0 0,-13.83929 9.45748,0 0,2.13863 -6.68202,0 0,3.47883 5.73152,0 0,2.13863 z"
       style=""
       id="path4308" />
    <path
       d="m 140.78241,136.40684 0,5.53191 -2.77547,0 0,-13.83929 5.21825,0 q 2.36675,0 3.69745,1.08358 1.3402,1.07406 1.3402,3.00358 0,1.07406 -0.56079,1.84397 -0.5608,0.7699 -1.64437,1.24515 1.22615,0.36119 1.75843,1.20714 0.54178,0.84594 0.54178,2.0911 l 0,1.01704 q 0,0.5798 0.15208,1.21664 0.16159,0.62733 0.54179,0.93149 l 0,0.1996 -2.86101,0 q -0.3802,-0.30416 -0.49426,-1.01703 -0.11406,-0.71288 -0.11406,-1.34971 l 0,-0.97902 q 0,-1.03605 -0.5703,-1.60635 -0.56079,-0.5798 -1.58733,-0.5798 l -2.64239,0 z m 0,-2.13863 2.39526,0 q 1.16911,0 1.73941,-0.49426 0.57981,-0.49426 0.57981,-1.46377 0,-0.9505 -0.57981,-1.51129 -0.5703,-0.5608 -1.69189,-0.5608 l -2.44278,0 0,4.03012 z"
       style=""
       id="path4310" />
    <path
       d="m 158.36666,138.32685 q 0,-0.79842 -0.5703,-1.28318 -0.56079,-0.48475 -1.97704,-0.91248 -2.4713,-0.71287 -3.73546,-1.69189 -1.26417,-0.97901 -1.26417,-2.68041 0,-1.70139 1.44476,-2.77546 1.45427,-1.08357 3.70695,-1.08357 2.2812,0 3.71646,1.21664 1.43526,1.20714 1.38773,2.98457 l -0.019,0.057 -2.68992,0 q 0,-0.96 -0.64634,-1.54931 -0.63683,-0.59882 -1.79644,-0.59882 -1.11209,0 -1.72041,0.49426 -0.60832,0.49426 -0.60832,1.26417 0,0.70337 0.64634,1.15961 0.65585,0.44673 2.25269,0.9505 2.2907,0.63683 3.46933,1.68238 1.17862,1.04555 1.17862,2.74695 0,1.77744 -1.40674,2.80398 -1.39724,1.02654 -3.69745,1.02654 -2.26219,0 -3.94458,-1.15961 -1.68238,-1.16912 -1.63486,-3.26973 l 0.019,-0.057 2.69942,0 q 0,1.23565 0.7509,1.81546 0.7604,0.5703 2.11011,0.5703 1.13109,0 1.72991,-0.46574 0.59881,-0.46575 0.59881,-1.24516 z"
       style=""
       id="path4312" />
    <path
       d="m 164.62096,129.66779 -0.96951,2.68992 -1.21664,0 0,-5.24677 2.18615,0 0,2.55685 z"
       style=""
       id="path4314" />
    <path
       d="m 181.72046,137.23377 0.019,0.057 q 0.038,2.23368 -1.36872,3.54537 -1.39723,1.30219 -3.88755,1.30219 -2.49981,0 -4.05863,-1.60635 -1.55882,-1.60635 -1.55882,-4.13468 l 0,-2.74694 q 0,-2.51883 1.5208,-4.13468 1.5208,-1.61585 3.95408,-1.61585 2.56635,0 4.01111,1.3212 1.44476,1.31169 1.40674,3.58338 l -0.019,0.057 -2.69942,0 q 0,-1.36872 -0.65584,-2.0911 -0.65585,-0.73188 -2.04358,-0.73188 -1.24516,0 -1.97704,1.01703 -0.73189,1.00753 -0.73189,2.57586 l 0,2.76595 q 0,1.58734 0.76991,2.60437 0.7699,1.00754 2.08159,1.00754 1.30219,0 1.92002,-0.69387 0.62733,-0.70337 0.62733,-2.0816 l 2.68991,0 z"
       style=""
       id="path4316" />
    <path
       d="m 191.13041,138.95418 -4.85706,0 -0.94099,2.98457 -2.80398,0 4.76201,-13.83929 2.842,0 4.74299,13.83929 -2.80397,0 -0.941,-2.98457 z m -4.1727,-2.17665 3.48834,0 -1.7109,-5.43686 -0.057,0 -1.72041,5.43686 z"
       style=""
       id="path4318" />
    <path
       d="m 198.95303,139.80963 6.15924,0 0,2.12912 -8.9347,0 0,-13.83929 2.77546,0 0,11.71017 z"
       style=""
       id="path4320" />
    <path
       d="m 209.48458,139.80963 6.15925,0 0,2.12912 -8.93471,0 0,-13.83929 2.77546,0 0,11.71017 z"
       style=""
       id="path4322" />
  </g>
  <path
     style="fill:#ff6905"
     d="m 123.22607,90.511278 c -5.40669,-1.08523 -11.98054,-4.620289 -15.9225,-8.562248 -2.39507,-2.395061 -5.11114,-6.032048 -5.11114,-6.844114 0,-0.440732 4.46365,-3.282721 6.6888,-4.258732 0.20452,-0.08971 1.34906,0.506288 2.54342,1.324438 1.19436,0.818149 3.14089,1.979543 4.32561,2.580873 l 2.15405,1.093329 0,3.059209 0,3.059208 2.17787,0.963378 c 1.19784,0.529857 3.82071,1.234684 5.8286,1.566282 4.21153,0.695517 9.43646,0.06757 13.16642,-1.582365 l 2.21424,-0.97946 -0.12385,-3.034479 -0.12384,-3.03448 3.00179,-1.575438 c 1.65097,-0.866492 3.53166,-2.070842 4.17927,-2.676334 l 1.17749,-1.100895 3.76415,1.989435 c 2.07029,1.094189 3.76415,2.191901 3.76415,2.439358 0,2.127869 -7.90614,9.973176 -12.5253,12.42892 -5.9343,3.154932 -14.66679,4.451294 -21.17923,3.144115 z"
     id="path4179"
     inkscape:connector-curvature="0" />
</svg>
