<?xml version="1.0" encoding="UTF-8" standalone="no"?>
<svg xmlns:rdf="http://www.w3.org/1999/02/22-rdf-syntax-ns#" xmlns="http://www.w3.org/2000/svg" viewBox="0 0 1771.7089 1031.3286" height="1031" width="1772" version="1.1" xmlns:cc="http://creativecommons.org/ns#" xmlns:xlink="http://www.w3.org/1999/xlink" xmlns:dc="http://purl.org/dc/elements/1.1/">
<defs>
<marker id="d" refY="0" refX="0" style="overflow:visible" orient="auto">
<path style="fill-rule:evenodd;stroke:#000;stroke-width:1pt" transform="matrix(-.4 0 0 -.4 -4 0)" d="m0 0 5-5-17.5 5 17.5 5-5-5z"/>
</marker>
<linearGradient id="a" y2="405.5" gradientUnits="userSpaceOnUse" x2="229.7" gradientTransform="matrix(.8660 .5 -.5 .8660 304.4 -170.4)" y1="405.5" x1="216.1">
<stop style="stop-color:#ffb199" offset="0"/>
<stop style="stop-color:#eb3800" offset="1"/>
</linearGradient>
<linearGradient id="c" y2="1351" gradientUnits="userSpaceOnUse" x2="1622" gradientTransform="matrix(.7070 0 0 .7070 25.53 10.74)" y1="425.3" x1="350">
<stop style="stop-color:#b08071;stop-opacity:0" offset="0"/>
<stop style="stop-color:#938f8e" offset="1"/>
</linearGradient>
<linearGradient id="b" y2="674.8" gradientUnits="userSpaceOnUse" y1="834.6" x2="1419" x1="1191">
<stop style="stop-color:#5f2600" offset="0"/>
<stop style="stop-color:#ff6905" offset="1"/>
</linearGradient>
</defs>
<g transform="translate(-87.14 -36.65)">
<g transform="matrix(.6587 0 0 .6587 332.1 188.5)">
<path style="stroke:url(#c);stroke-width:400;fill:none" d="m365.9 196.3c32.32 400 175.5 200 398 337.4 222.3 137.3 173.7 317.2 444.5 331.3"/>
<rect style="stroke-linejoin:round;stroke:#ff5722;stroke-linecap:square;stroke-width:14.14;fill:#fff" height="329.3" width="620.1" y="43.72" x="94.21"/>
<path d="m319.9 83.23a6.349 6.349 0 0 0 -6.131 4.704l-42.3 157.6-59.6 59.6h-75.08v12.7h77.71a6.349 6.349 0 0 0 4.49 -1.858l62.67-62.67a6.349 6.349 0 0 0 1.643 -2.846l41.41-154.5h90.33 90.33c13.8 51.52 27.61 103 41.41 154.5a6.349 6.349 0 0 0 1.643 2.846l62.67 62.67a6.349 6.349 0 0 0 4.488 1.858h77.71v-12.7h-75.08l-59.61-59.6c-13.9-52.5-28-105-42.1-157.6a6.349 6.349 0 0 0 -6.131 -4.704h-95.2-95.2z" style="stroke-linejoin:round;color-rendering:auto;text-decoration-color:#000000;color:#000000;shape-rendering:auto;solid-color:#000000;stroke:#fff;text-decoration-line:none;stroke-width:6.348;fill-rule:evenodd;mix-blend-mode:normal;block-progression:tb;text-indent:0;image-rendering:auto;white-space:normal;text-decoration-style:solid;isolation:auto;stroke-linecap:square;text-transform:none"/>
<g transform="matrix(1.001 0 0 1.113 -237.6 -200)">
<path style="fill:#afafde;fill-rule:evenodd" d="m646.8 588.3 537.2 299.2 314-233.6-520.2-193.1z"/>
<path style="fill:#353564;fill-rule:evenodd" d="m646.8 516v72.32l331-127.5v-60.04z"/>
<path style="fill:#e9e9ff;fill-rule:evenodd" d="m977.8 400.7 520.3 174.6v78.63l-520.3-193.1z"/>
<path style="fill:url(#b);fill-rule:evenodd" d="m1184 786.4v101.1l314-233.6v-78.63z"/>
<path style="fill:#d06f51;fill-rule:evenodd" d="m646.8 516 537.2 270.4v101.1l-537.2-299.2z"/>
<path style="stroke-linejoin:round;fill-rule:evenodd;stroke:#ff5722;stroke-width:14.14;fill:#fff" d="m646.8 516 537.2 270.4 314-211.1-520.2-174.6z"/>
<path d="m1389 580-200-66.9-231.1 124.3 197.1 99.4 234-156.8" style="fill-rule:evenodd;stroke:#000;stroke-width:5.658;fill:#ea7955"/>
<path d="m1002 450.4-245.8 85.61 100 50.33 244.3-102.9-98.48-33.04" style="stroke-linejoin:round;fill-rule:evenodd;stroke:#000;stroke-width:5.658;fill:#ea7955"/>
<path d="m991.1 534.5 82.24 35.09" style="marker-end:url(#d);stroke:#000;stroke-linecap:round;stroke-width:7.072;fill:none"/>
</g>
<path style="stroke-linejoin:round;stroke:#000;stroke-linecap:square;stroke-width:2.441;fill:none" d="m848.3 436c-1.594 1.476-3.195 2.958-4.797 4.443-1.609 1.491-3.22 2.985-4.828 4.48-1.615 1.501-3.228 3.002-4.834 4.502-1.613 1.506-3.219 3.009-4.813 4.509-1.601 1.505-3.191 3.006-4.766 4.499-1.581 1.499-3.146 2.991-4.691 4.473-1.551 1.487-3.082 2.965-4.588 4.429-1.512 1.47-2.999 2.927-4.457 4.368-1.463 1.447-2.897 2.878-4.297 4.29-1.405 1.418-2.776 2.816-4.109 4.194-1.338 1.383-2.637 2.744-3.893 4.081-1.261 1.342-2.479 2.659-3.65 3.949-1.175 1.295-2.303 2.562-3.38 3.801-1.08 1.242-2.109 2.455-3.083 3.636-0.9771 1.184-1.899 2.336-2.762 3.454-0.8657 1.121-1.672 2.207-2.417 3.257-0.7466 1.052-1.43 2.068-2.049 3.044-0.6205 0.9791-1.175 1.919-1.661 2.818-0.4877 0.9013-0.9065 1.761-1.255 2.579-0.349 0.8194-0.6268 1.596-0.8318 2.328-0.2053 0.7338-0.3371 1.423-0.3943 2.067-0.0572 0.6449-0.0392 1.244 0.0549 1.796 0.0943 0.5534 0.2653 1.06 0.5136 1.519 0.2486 0.4596 0.5749 0.8713 0.979 1.235 0.4044 0.3641 0.8873 0.6798 1.448 0.947 0.5613 0.2676 1.201 0.4863 1.919 0.6566 0.718 0.1704 1.514 0.292 2.388 0.3654 0.8739 0.0734 1.825 0.0981 2.852 0.075 1.028-0.0231 2.132-0.0944 3.31-0.2127 1.179-0.1183 2.432-0.284 3.758-0.4959 1.326-0.2118 2.724-0.47 4.193-0.7732 1.469-0.303 3.008-0.6512 4.614-1.043 1.606-0.3914 3.28-0.8264 5.018-1.303 1.737-0.4764 3.539-0.9948 5.403-1.553 1.862-0.5578 3.785-1.155 5.766-1.791 1.979-0.6348 4.016-1.307 6.107-2.016 2.088-0.7073 4.231-1.45 6.423-2.226 2.189-0.7748 4.429-1.583 6.714-2.421 2.282-0.8372 4.609-1.705 6.978-2.601 2.365-0.8941 4.771-1.816 7.214-2.763 2.439-0.9453 4.914-1.916 7.422-2.908 2.503-0.9907 5.038-2.004 7.602-3.036 2.558-1.03 5.143-2.08 7.752-3.145 2.603-1.063 5.229-2.143 7.874-3.236 2.639-1.091 5.296-2.195 7.966-3.31 2.665-1.112 5.343-2.235 8.031-3.364 2.681-1.127 5.372-2.262 8.067-3.401 2.689-1.137 5.382-2.278 8.076-3.42 2.687-1.14 5.375-2.282 8.058-3.422l8.015-3.407c2.659-1.13 5.309-2.256 7.947-3.375 2.632-1.116 5.252-2.226 7.855-3.327 2.598-1.098 5.179-2.186 7.74-3.263 2.556-1.074 5.091-2.137 7.604-3.185 2.507-1.046 4.99-2.077 7.447-3.092 2.451-1.013 4.876-2.009 7.271-2.986 2.39-0.9752 4.75-1.932 7.076-2.867 2.322-0.9336 4.612-1.846 6.865-2.736 2.25-0.8879 4.463-1.753 6.638-2.593 2.172-0.8385 4.304-1.652 6.397-2.439 2.089-0.7856 4.137-1.545 6.141-2.275 2.002-0.7295 3.961-1.431 5.874-2.102 1.911-0.6702 3.777-1.31 5.595-1.919 1.816-0.6082 3.586-1.185 5.307-1.729 1.719-0.5434 3.389-1.054 5.008-1.531 1.618-0.4763 3.186-0.9186 4.702-1.326 1.515-0.4068 2.979-0.7785 4.389-1.114 1.41-0.3354 2.766-0.6347 4.07-0.8969 1.302-0.2622 2.551-0.4872 3.745-0.6744s2.332-0.3365 3.415-0.4473 2.111-0.183 3.083-0.216c0.9718-0.0331 1.888-0.0269 2.747 0.0188 0.8596 0.0457 1.663 0.1312 2.409 0.2566 0.7471 0.1255 1.437 0.2912 2.071 0.497 0.6338 0.2061 1.211 0.4525 1.732 0.7393 0.5211 0.2871 0.9853 0.6149 1.393 0.983 0.4083 0.3686 0.76 0.778 1.056 1.228 0.2962 0.4503 0.5361 0.9415 0.7207 1.473 0.1847 0.5321 0.3136 1.105 0.388 1.718 0.074 0.6138 0.094 1.268 0.059 1.962-0.034 0.6951-0.1235 1.43-0.2652 2.205-0.142 0.776-0.3374 1.591-0.5845 2.445-0.2476 0.856-0.5475 1.751-0.8977 2.684-0.351 0.9352-0.7531 1.909-1.204 2.919-0.4521 1.013-0.9537 2.064-1.502 3.15-0.5503 1.09-1.148 2.216-1.792 3.377-0.6455 1.165-1.337 2.365-2.072 3.599-0.7375 1.238-1.519 2.51-2.342 3.815-0.8258 1.309-1.693 2.651-2.6 4.023-0.9098 1.378-1.859 2.786-2.845 4.225-0.9896 1.443-2.016 2.917-3.077 4.417-1.064 1.506-2.163 3.041-3.293 4.601-1.134 1.566-2.3 3.158-3.494 4.774-1.199 1.622-2.426 3.269-3.678 4.937-1.257 1.675-2.54 3.371-3.844 5.087-1.31 1.723-2.641 3.465-3.991 5.224-1.355 1.766-2.729 3.55-4.117 5.347-1.394 1.805-2.802 3.624-4.221 5.455-1.425 1.839-2.861 3.689-4.303 5.547m-276-12.97c48.19-28.81 62.03-37.08 106.4-63.59l18.78 8.477c-4.242 2.39-8.516 4.797-13.05 7.363-12.11 6.853-25.26 14.34-39.34 22.38-14.34 8.189-29.67 16.97-45.81 26.23-4.053 2.326-8.376 4.816-12.53 7.202l-14.43-8.059m125-55.1c6.908-3.892 13.54-7.618 19.65-11.03 9.729-5.428 18.44-10.24 26.09-14.4 7.578-4.125 14.14-7.629 19.68-10.51 5.503-2.862 10.01-5.116 13.56-6.782 3.538-1.659 6.132-2.736 7.844-3.27 1.71-0.5334 2.539-0.5232 2.582-0.0253 0.043 0.4987-0.7082 1.49-2.137 2.905-1.435 1.42-3.559 3.271-6.238 5.469-2.695 2.211-5.959 4.778-9.638 7.609-3.707 2.852-7.844 5.976-12.25 9.27-4.44 3.323-9.154 6.822-13.98 10.39-4.867 3.605-9.847 7.283-14.77 10.93-3.757 2.785-7.377 5.487-11 8.196 0 0-19.4-8.758-19.4-8.758m19.4 8.758s20.05 9.05 20.05 9.05c-0.5302 0.2645-1.023 0.5031-1.557 0.7697-4.156 2.073-8.413 4.21-12.66 6.337-4.269 2.137-8.526 4.265-12.65 6.304-4.143 2.048-8.149 4.006-11.9 5.795-3.76 1.796-7.256 3.421-10.37 4.8-3.123 1.383-5.859 2.517-8.108 3.34-2.253 0.8237-4.017 1.334-5.213 1.484-1.196 0.1498-1.825-0.0595-1.844-0.6562-0.0191-0.5957 0.5676-1.574 1.766-2.938 1.194-1.36 2.99-3.099 5.357-5.195 2.355-2.086 5.266-4.519 8.662-7.255 3.374-2.718 7.219-5.729 11.43-8.965 4.176-3.21 8.704-6.638 13.45-10.2 1.149-0.8617 2.417-1.797 3.589-2.672m20.05 9.05c3.578-1.782 7.111-3.536 10.45-5.168 3.818-1.866 7.437-3.606 10.78-5.169 3.33-1.557 6.385-2.939 9.107-4.106 2.715-1.164 5.099-2.113 7.117-2.827 2.014-0.7124 3.663-1.188 4.934-1.418 1.271-0.2299 2.163-0.2133 2.686 0.0441 0.5242 0.2577 0.6791 0.7585 0.4922 1.483-0.1874 0.7256-0.7195 1.678-1.546 2.825-0.8288 1.15-1.958 2.499-3.321 4.004-1.368 1.511-2.976 3.182-4.747 4.962-1.779 1.789-3.723 3.691-5.751 5.65-2.038 1.969-4.161 3.996-6.283 6.027-1.076 1.029-2.112 2.032-3.176 3.056l-20.74-9.364m20.74 9.364s21.46 9.688 21.46 9.688c-2.396 1.047-4.818 2.11-7.231 3.167-2.762 1.209-5.504 2.403-8.156 3.534-2.658 1.134-5.227 2.204-7.634 3.165-2.411 0.9625-4.661 1.815-6.687 2.516-2.029 0.7014-3.834 1.251-5.364 1.616-1.531 0.3643-2.788 0.5427-3.736 0.5145-0.9472-0.0281-1.586-0.262-1.902-0.7122-0.3158-0.4496-0.3105-1.112 0.009-1.985 0.3189-0.8704 0.9476-1.948 1.862-3.212 0.9116-1.261 2.104-2.705 3.529-4.303 1.42-1.592 3.069-3.333 4.884-5.182 1.807-1.841 3.775-3.787 5.832-5.787 1.014-0.9862 2.089-2.013 3.135-3.018m21.46 9.688c0.3387-0.1483 0.6833-0.2999 1.021-0.4471 2.717-1.185 5.385-2.336 7.94-3.413 2.549-1.075 4.987-2.075 7.26-2.964 2.27-0.8875 4.375-1.664 6.278-2.303 1.901-0.6375 3.6-1.136 5.068-1.478 1.468-0.3418 2.706-0.5266 3.704-0.5453 0.9982-0.0187 1.755 0.1288 2.274 0.4413 0.5199 0.3128 0.8017 0.7922 0.8612 1.425 0.0596 0.6341-0.1049 1.424-0.4611 2.349-0.3572 0.9274-0.9098 1.992-1.615 3.165-0.7074 1.176-1.568 2.463-2.536 3.826-0.9712 1.367-2.05 2.811-3.179 4.293-1.134 1.488-2.32 3.015-3.501 4.541-0.2997 0.3876-0.5807 0.7618-0.8788 1.149l-22.24-10.04m22.24 10.04l23.04 10.4c-1.357 0.5149-2.713 1.028-4.074 1.545-2.173 0.8256-4.335 1.643-6.439 2.416-2.106 0.7741-4.154 1.504-6.091 2.154-1.939 0.6515-3.769 1.224-5.447 1.687-1.679 0.4632-3.205 0.8169-4.545 1.037s-2.495 0.3064-3.439 0.2436c-0.943-0.0628-1.676-0.2735-2.19-0.6403-0.5134-0.3664-0.8076-0.8866-0.8885-1.558-0.0808-0.6699 0.0495-1.489 0.375-2.444 0.3247-0.9521 0.8415-2.037 1.518-3.234 0.6748-1.193 1.509-2.496 2.457-3.877 0.9452-1.377 2.004-2.83 3.126-4.326 0.8348-1.113 1.721-2.262 2.601-3.404m23.04 10.4c0.8059-0.3057 1.617-0.617 2.415-0.917 2.137-0.804 4.236-1.58 6.251-2.297 2.012-0.7163 3.94-1.374 5.747-1.943 1.805-0.5689 3.489-1.051 5.024-1.424 1.534-0.3726 2.918-0.6356 4.133-0.7762 1.215-0.1407 2.26-0.1575 3.13-0.0448 0.8699 0.1127 1.562 0.3554 2.08 0.7273 0.519 0.3723 0.8643 0.8747 1.047 1.497 0.1824 0.623 0.2011 1.368 0.082 2.216-0.1195 0.8506-0.3802 1.806-0.7493 2.845-0.3699 1.041-0.8488 2.167-1.401 3.348-0.554 1.185-1.182 2.425-1.841 3.692-0.6606 1.271-1.353 2.567-2.034 3.858l-23.88-10.78"/>
<g transform="matrix(1.122 0 0 1.122 -543.4 -487.7)">
<g transform="matrix(-29.22 0 0 29.22 1.02e4 -7527)">
<path d="m287.1 302.4s0-5 8.03-5c8.04 0 8.04 5 8.04 5s0 2.41-8.04 2.41c-8.03 0-8.03-2.14-8.03-2.41z" style="fill-rule:evenodd;stroke:#ff5722;stroke-width:.4841;fill:#ff5722"/>
<path d="m300 295.4c-3.59 6.22-12.91 7.33-16.5 5.26-3.58-2.07 9.46-1.21 13.04-7.43 3.59-6.21-3.62-16.9-0.04-14.83 3.59 2.07 7.09 10.79 3.5 17z" style="stroke:#ff5722;stroke-width:.4841;fill:url(#a)"/>
<path d="m296.5 293.2c-3.59 6.21-9.41 9.58-13 7.51-3.58-2.07-3.58-8.8 0.01-15.01 3.59-6.22 9.41-9.58 12.99-7.51 3.59 2.07 3.59 8.79 0 15.01z" style="fill:#b93f19"/>
<path style="stroke:#ff5722;stroke-width:.4841;fill:none" d="m296.5 293.2c-3.59 6.21-9.41 9.58-13 7.51-3.58-2.07-3.58-8.8 0.01-15.01 3.59-6.22 9.41-9.58 12.99-7.51 3.59 2.07 3.59 8.79 0 15.01z"/>
<path style="stroke-width:0;fill:none" d="m296 278.5c-0.2063-0.0469-0.4595-0.0657-0.6752 0.0844-0.2157 0.15-0.2907 0.3939-0.3189 0.5908-0.0281 0.197-0.0375 0.4033 0 0.6096 0.1219 0.8628 0.5721 2.063 0.9941 3.554 0.844 2.964 1.613 6.827 0.0563 9.519s-5.317 3.958-8.347 4.717c-1.519 0.3845-2.823 0.619-3.639 0.9378-0.2063 0.0844-0.3658 0.1782-0.5252 0.3001-0.1594 0.1125-0.3282 0.3189-0.3564 0.5814-0.0281 0.2626 0.0938 0.4877 0.2345 0.6471 0.15 0.1594 0.3282 0.272 0.5627 0.4033 1.866 1.078 4.97 1.275 8.084 0.5064 3.123-0.769 6.265-2.542 8.028-5.599s1.791-6.687 0.9378-9.791c-0.844-3.104-2.523-5.721-4.389-6.799-0.2344-0.1313-0.4408-0.2157-0.6471-0.2626zm-0.0563 0.966c0.0657 0.0281 0.1125 0.0469 0.2345 0.1219 1.491 0.8534 3.16 3.311 3.948 6.237 0.7972 2.926 0.7878 6.283-0.8159 9.059-1.604 2.767-4.511 4.436-7.446 5.158-2.935 0.7221-5.918 0.4783-7.409-0.3845-0.1219-0.0657-0.1501-0.1219-0.2063-0.1782 0.0563-0.0281 0.0844-0.0469 0.1782-0.0844 0.6284-0.2532 1.969-0.5158 3.507-0.9097 3.085-0.7784 6.959-2.195 8.769-5.327 1.81-3.142 1.032-7.043 0.1782-10.06-0.4314-1.501-0.844-2.795-0.9378-3.451-0.0187-0.0844 0-0.1219 0-0.1782z"/>
</g>
<g transform="matrix(4.667 8.52 -8.52 4.667 1777 -155.6)">
<path style="fill:#ff6905;fill-rule:evenodd" d="m105.7 66.83c-2.682 2.548-5.857 3.822-9.527 3.822-3.871 0-7.188-1.365-9.948-4.094-2.761-2.729-4.141-6.029-4.141-9.901 0-3.871 1.333-7.188 3.999-9.949s5.934-4.141 9.805-4.141c3.967 0 7.33 1.365 10.09 4.094s4.141 6.061 4.141 9.996c0 2.693-0.6746 5.116-2.024 7.27l-2.396 2.902zm-9.527-18.07c-2.189 0-4.03 0.777-5.522 2.332-1.491 1.555-2.237 3.412-2.237 5.569 0 2.221 0.7299 4.078 2.19 5.569s3.316 2.237 5.569 2.237c2.126 0 3.927-0.7692 5.403-2.308 1.475-1.539 2.213-3.372 2.213-5.498 0-1.047-0.1903-2.047-0.5712-2.999-0.3806-0.9521-0.9202-1.777-1.618-2.475-0.6984-0.7296-1.531-1.317-2.499-1.761-0.9677-0.4443-1.944-0.6661-2.927-0.6661z" class="fil3"/>
<path style="fill:#ff6905;fill-rule:evenodd" class="fil3" d="m71.29 36.66c4.549-8.034 13.98-13.55 24.87-13.55 10.85 0 20.26 5.485 24.82 13.48l5.541-5.685c-6.214-9.323-17.49-15.56-30.36-15.56-12.97 0-24.31 6.323-30.5 15.76l5.63 5.561z"/>
<path style="fill:#ff6905;fill-rule:evenodd" class="fil3" d="m96.09 28.89c-9.485 0-17.69 4.484-21.6 11l5.617 5.547c2.163-5.053 8.501-8.713 15.98-8.713 7.555 0 13.94 3.734 16.04 8.865l5.554-5.698c-3.91-6.512-12.11-11-21.6-11z"/>
<text y="148.5569" x="195.22275" style="font-size:17.76px;font-weight:bold;fill:#969594;font-family:Harabara;fill-rule:evenodd" class="fil4 fnt0"/>
<text y="148.5569" x="256.77316" style="font-size:17.76px;font-weight:bold;fill:#969594;font-family:Harabara;fill-rule:evenodd" class="fil4 fnt0"/>
<text y="148.5569" x="279.70544" style="font-size:17.76px;font-weight:bold;fill:#969594;font-family:Harabara;fill-rule:evenodd" class="fil4 fnt0"/>
<text y="148.5569" x="344.62241" style="font-size:17.76px;font-weight:bold;fill:#969594;font-family:Harabara;fill-rule:evenodd" class="fil4 fnt0"/>
<text y="148.5569" x="473.09561" style="font-size:17.76px;font-weight:bold;fill:#969594;font-family:Harabara;fill-rule:evenodd" class="fil4 fnt0"/>
<text y="148.5569" x="548.49011" style="font-size:17.76px;font-weight:bold;fill:#969594;font-family:Harabara;fill-rule:evenodd" class="fil4 fnt0"/>
<text y="148.5569" x="687.89447" style="font-size:17.76px;font-weight:bold;fill:#969594;font-family:Harabara;fill-rule:evenodd" class="fil4 fnt0"/>
</g>
</g>
<path d="m525.3 404.3c-3.159-1.768-3.838-3.755-2.07-5.956 1.754-2.183 5.868-4.524 12.31-7.017 6.357-2.461 11.92-3.881 16.74-4.281 4.804-0.3983 8.786 0.2314 11.96 1.898 3.198 1.677 4.032 3.587 2.477 5.734-1.555 2.172-5.499 4.535-11.87 7.097-6.46 2.596-12.22 4.117-17.23 4.544-5.014 0.4356-9.126-0.24-12.3-2.019m51.5 28.82c-3.488-1.952-4.403-4.152-2.772-6.591 1.616-2.417 5.688-5.011 12.17-7.777 6.399-2.729 12.07-4.308 17.07-4.756 4.983-0.4477 9.215 0.2419 12.71 2.076 3.522 1.846 4.592 3.954 3.191 6.328-1.399 2.404-5.281 5.024-11.69 7.87-6.497 2.885-12.37 4.58-17.59 5.062-5.21 0.4914-9.585-0.2484-13.1-2.213m27.76 15.54c-3.672-2.055-4.717-4.372-3.17-6.943 1.533-2.548 5.569-5.285 12.07-8.204 6.411-2.879 12.14-4.544 17.23-5.021 5.077-0.4754 9.442 0.2454 13.12 2.173 3.702 1.941 4.909 4.159 3.599 6.661-1.306 2.534-5.144 5.298-11.56 8.303-6.506 3.047-12.44 4.84-17.75 5.352-5.313 0.5228-9.833-0.2536-13.53-2.322m-54.16-30.99l-5.042-4.675 4.748-1.936 5.052 4.684 28.77-11.89-6.538-3.455 4.171-1.703 17.34 9.1-4.178 1.762-6.587-3.481-33.5 13.96-4.23-2.364m-20.97-14.99c1.888 1.049 4.6 1.314 8.125 0.791 3.53-0.5145 7.928-1.823 13.16-3.91 5.176-2.064 8.534-3.841 10.1-5.339 1.569-1.482 1.396-2.722-0.5006-3.723-1.877-0.9904-4.518-1.242-7.937-0.7568-3.414 0.4934-7.692 1.742-12.86 3.758-5.227 2.04-8.693 3.819-10.37 5.331-1.676 1.528-1.586 2.812 0.2812 3.85m51.53 28.63c2.084 1.158 4.951 1.446 8.59 0.8602 3.645-0.5758 8.117-2.031 13.39-4.351 5.205-2.291 8.535-4.263 10.02-5.921 1.487-1.641 1.179-3.009-0.91-4.112-2.067-1.091-4.858-1.365-8.385-0.8236-3.521 0.5506-7.866 1.938-13.07 4.175-5.263 2.263-8.713 4.236-10.32 5.911-1.6 1.693-1.374 3.116 0.6876 4.261m27.77 15.43c2.194 1.219 5.145 1.52 8.844 0.8995 3.705-0.6103 8.21-2.149 13.49-4.598 5.212-2.419 8.519-4.499 9.949-6.247 1.437-1.729 1.05-3.17-1.147-4.329-2.173-1.146-5.042-1.432-8.624-0.8586-3.576 0.5828-7.955 2.046-13.16 4.406-5.274 2.389-8.704 4.472-10.26 6.238-1.553 1.786-1.252 3.284 0.9183 4.49m-67.22-48.87c-0.7175-0.3907-0.9951-0.8593-0.8391-1.405 0.1689-0.5374 0.7134-0.9883 1.635-1.35 0.9706-0.3809 2.018-0.5622 3.143-0.5468 1.138 0.0226 2.079 0.2342 2.823 0.6352 0.7593 0.4088 1.073 0.8818 0.9428 1.42-0.1169 0.5464-0.6406 1.006-1.579 1.378-0.9227 0.3658-1.99 0.5365-3.197 0.5127s-2.184-0.2376-2.93-0.6434m51.61 28.1c-0.7912-0.4308-1.13-0.9486-1.023-1.552 0.1217-0.5945 0.648-1.093 1.576-1.494 0.9769-0.4227 2.052-0.6264 3.231-0.6112 1.193 0.023 2.2 0.2553 3.021 0.6973 0.837 0.4506 1.217 0.9744 1.136 1.57-0.066 0.6045-0.5692 1.112-1.513 1.525-0.9283 0.4062-2.026 0.5983-3.292 0.574-1.266-0.0242-2.314-0.2605-3.136-0.708m27.8 15.14c-0.8325-0.4533-1.209-1-1.13-1.636 0.0941-0.6265 0.6075-1.152 1.537-1.575 0.9786-0.4461 2.072-0.6601 3.28-0.6452 1.223 0.0232 2.266 0.267 3.129 0.7319 0.8804 0.474 1.294 1.024 1.242 1.651-0.0362 0.6369-0.5254 1.172-1.47 1.608-0.9297 0.4288-2.044 0.6322-3.342 0.6077s-2.381-0.271-3.246-0.7419m-19.38-43.91c-3.337-1.715-4.28-3.642-2.859-5.775 1.41-2.116 5.109-4.383 11.06-6.799 5.876-2.386 11.12-3.762 15.78-4.148 4.646-0.3846 8.63 0.2279 11.97 1.846 3.363 1.628 4.444 3.482 3.22 5.563-1.22 2.106-4.75 4.396-10.63 6.877-5.957 2.513-11.38 3.986-16.22 4.397-4.843 0.4201-8.958-0.2363-12.32-1.961m-25.2-13.4l-4.923-4.116 4.356-1.694 4.932 4.126 26.43-10.41-6.267-3.057 3.836-1.493 16.61 8.049-3.84 1.543-6.306-3.076-30.76 12.21-4.058-2.083m51.73 26.55l-5.58-4.53 4.373-1.874 5.593 4.541 26.49-11.51-6.875-3.353 3.842-1.648 18.21 8.828-3.841 1.705-6.919-3.375-30.83 13.51-4.466-2.292m27.8 14.27l-5.946-4.759 4.375-1.974 5.961 4.77 26.48-12.12-7.212-3.518 3.839-1.734 19.11 9.261-3.834 1.795-7.261-3.542-30.81 14.23-4.692-2.408m-50.39-28.8c1.993 1.018 4.683 1.276 8.057 0.77 3.381-0.4973 7.5-1.764 12.33-3.786 4.776-1.999 7.815-3.721 9.137-5.174 1.329-1.437 0.9881-2.64-1.007-3.612-1.974-0.9616-4.594-1.207-7.872-0.7373-3.272 0.4773-7.282 1.688-12.06 3.642-4.829 1.976-7.973 3.699-9.404 5.165-1.426 1.481-1.158 2.726 0.8135 3.732m11.15-4.65c-0.7563-0.3791-1.093-0.8336-1.017-1.363 0.0902-0.5211 0.5598-0.9559 1.411-1.306 0.8965-0.369 1.896-0.5468 2.999-0.5314 1.116 0.0223 2.066 0.2279 2.851 0.6171 0.7998 0.3967 1.172 0.8556 1.12 1.377-0.0382 0.5299-0.4892 0.9761-1.355 1.336-0.8516 0.3543-1.869 0.5183-3.053 0.4947s-2.17-0.2313-2.955-0.625m6.671-25.85l-5.082-3.82 4.026-1.566 5.091 3.83 24.44-9.627-6.276-2.844 3.553-1.383 16.62 7.489-3.552 1.427-6.311-2.86-28.44 11.29-4.072-1.934m25.31 12.02l-5.389-3.998 4.029-1.643 5.399 4.008 24.44-10.1-6.558-2.972 3.551-1.449 17.37 7.825-3.548 1.497-6.597-2.99-28.43 11.84-4.261-2.023m26.5 12.58l-5.72-4.188 4.027-1.726 5.733 4.199 24.41-10.6-6.861-3.109 3.546-1.521s18.17 8.185 18.17 8.185l-3.54 1.571-6.9-3.127-28.39 12.44-4.465-2.12m27.76 13.18l-6.074-4.391 4.021-1.814 6.089 4.402 24.35-11.15-7.183-3.255 3.536-1.597 19.02 8.57-3.527 1.652-7.227-3.275-28.32 13.08-4.681-2.223m-36.1-54.5c-3.197-1.415-4.266-2.998-3.226-4.747 1.032-1.735 4.11-3.592 9.208-5.567 5.039-1.951 9.627-3.073 13.79-3.38 4.154-0.3057 7.816 0.2106 11.01 1.554 3.209 1.35 4.383 2.879 3.5 4.59-0.8766 1.729-3.818 3.603-8.851 5.625-5.093 2.047-9.812 3.239-14.13 3.564-4.311 0.3316-8.085-0.2178-11.3-1.64m25.33 11.21c-3.338-1.478-4.515-3.132-3.549-4.962 0.9583-1.815 3.999-3.758 9.091-5.825 5.031-2.043 9.645-3.219 13.87-3.542 4.219-0.3224 7.981 0.2144 11.31 1.615 3.348 1.409 4.631 3.006 3.826 4.794-0.797 1.808-3.692 3.77-8.714 5.888-5.082 2.144-9.831 3.396-14.22 3.739-4.381 0.3502-8.261-0.2218-11.62-1.708m54.15 23.97c-3.652-1.616-5.07-3.43-4.277-5.438 0.7872-1.992 3.726-4.126 8.787-6.399 4.999-2.245 9.666-3.539 14.03-3.899 4.352-0.3594 8.332 0.2223 11.96 1.751 3.653 1.537 5.178 3.283 4.554 5.244-0.6132 1.983-3.394 4.138-8.373 6.47-5.041 2.361-9.842 3.742-14.37 4.126-4.526 0.3915-8.635-0.2291-12.31-1.855m-27.88-12.82l-5.822-3.885 3.721-1.595 5.836 3.896 22.56-9.802-6.829-2.892 3.282-1.408s18.07 7.612 18.07 7.612l-3.273 1.453-6.863-2.906-26.23 11.49-4.449-1.968m-48.3-23.7c1.908 0.8397 4.36 1.057 7.342 0.6515 2.989-0.3992 6.558-1.427 10.69-3.075 4.089-1.63 6.644-3.039 7.681-4.23 1.046-1.18 0.6114-2.172-1.294-2.978-1.886-0.7976-4.279-1.005-7.188-0.6267-2.901 0.3852-6.39 1.372-10.48 2.968-4.136 1.614-6.773 3.023-7.899 4.223-1.119 1.212-0.7408 2.236 1.147 3.067m25.33 11.15c1.992 0.8769 4.506 1.103 7.527 0.676 3.028-0.4198 6.612-1.497 10.74-3.223 4.08-1.708 6.607-3.182 7.599-4.428 1-1.234 0.5022-2.271-1.485-3.112-1.967-0.832-4.419-1.048-7.364-0.6496-2.937 0.4046-6.438 1.439-10.52 3.111-4.129 1.69-6.745 3.164-7.828 4.42-1.075 1.269-0.6337 2.339 1.338 3.207m54.13 23.83c2.179 0.9592 4.823 1.202 7.921 0.7287 3.106-0.4655 6.714-1.653 10.81-3.553 4.048-1.879 6.504-3.499 7.388-4.866 0.8944-1.353 0.2545-2.488-1.915-3.405-2.147-0.908-4.725-1.14-7.743-0.6999-3.01 0.4476-6.535 1.585-10.59 3.423-4.103 1.858-6.652 3.479-7.634 4.858-0.972 1.393-0.3872 2.566 1.769 3.515m-69.93-38.77c-0.7234-0.3135-1.08-0.6871-1.069-1.122 0.024-0.4283 0.3995-0.7866 1.129-1.073 0.7679-0.3013 1.65-0.4432 2.646-0.4277 1.009 0.0212 1.891 0.1919 2.641 0.5141 0.7644 0.3284 1.15 0.7068 1.16 1.136 0.0231 0.4355-0.3349 0.8012-1.076 1.095-0.729 0.289-1.631 0.4221-2.7 0.3996-1.07-0.0224-1.979-0.1965-2.73-0.5221m25.31 10.97c-0.7551-0.3272-1.139-0.7176-1.152-1.172 0.00071-0.4478 0.3666-0.8216 1.094-1.121 0.7666-0.3155 1.656-0.4655 2.673-0.4501 1.031 0.0214 1.939 0.1992 2.721 0.5355 0.7978 0.3427 1.212 0.738 1.246 1.186 0.0476 0.4553-0.2972 0.8379-1.037 1.146-0.7276 0.3027-1.64 0.4425-2.732 0.4199s-2.029-0.204-2.813-0.5439m54.07 23.43c-0.8252-0.3576-1.274-0.7861-1.341-1.285-0.0516-0.4909 0.2851-0.9011 1.008-1.231 0.7612-0.347 1.672-0.5116 2.733-0.4963 1.076 0.0218 2.043 0.2153 2.898 0.5826 0.8714 0.3744 1.35 0.807 1.438 1.298 0.1036 0.4991-0.213 0.9179-0.9472 1.257-0.7221 0.333-1.653 0.489-2.794 0.4658-1.141-0.0231-2.138-0.2205-2.995-0.5919m-26.58-34.77c-3.326-1.378-4.589-2.919-3.808-4.62 0.7754-1.689 3.543-3.494 8.273-5.415 4.675-1.898 9.02-2.99 13.06-3.287 4.032-0.2963 7.693 0.2077 11 1.517 3.329 1.316 4.686 2.805 4.051 4.47-0.6261 1.683-3.257 3.506-7.917 5.472-4.716 1.99-9.179 3.149-13.37 3.463-4.18 0.3211-7.953-0.2147-11.3-1.6m53.85 22.31c-3.625-1.502-5.124-3.185-4.515-5.046 0.6041-1.847 3.262-3.825 7.948-5.929 4.63-2.079 9.015-3.277 13.18-3.607 4.153-0.3294 8.018 0.2152 11.62 1.639 3.621 1.432 5.213 3.054 4.758 4.874-0.4434 1.84-2.954 3.836-7.56 5.993-4.662 2.183-9.164 3.458-13.48 3.809-4.311 0.3579-8.299-0.2215-11.94-1.732m-79.26-33.25l-5.298-3.318 3.473-1.351 5.305 3.329s21.08-8.304 21.08-8.304l-6.245-2.484 3.072-1.196s16.52 6.538 16.52 6.538l-3.066 1.231-6.272-2.494s-24.51 9.729-24.51 9.729l-4.062-1.682m51.53 21.33l-5.895-3.613 3.451-1.479 5.907 3.626 20.92-9.088-6.784-2.698 3.047-1.307s17.94 7.1 17.94 7.1l-3.035 1.347-6.812-2.709-24.31 10.65-4.424-1.831m-23.09-11.63c1.984 0.8178 4.417 1.03 7.285 0.6365 2.876-0.3874 6.235-1.386 10.06-2.988 3.788-1.585 6.102-2.955 6.958-4.115 0.8659-1.148 0.3061-2.115-1.671-2.9-1.957-0.7772-4.332-0.9805-7.132-0.6126-2.793 0.3741-6.077 1.334-9.872 2.887-3.835 1.57-6.232 2.939-7.173 4.107-0.9318 1.18-0.4223 2.176 1.541 2.985m53.82 22.19c2.162 0.8915 4.717 1.119 7.653 0.6839 2.945-0.4282 6.317-1.525 10.1-3.283 3.745-1.738 5.983-3.239 6.731-4.507 0.7591-1.255 0.0615-2.309-2.089-3.163-2.129-0.8455-4.621-1.064-7.487-0.6581-2.857 0.4126-6.156 1.465-9.913 3.167-3.798 1.72-6.122 3.222-6.96 4.5-0.8273 1.291-0.1774 2.379 1.962 3.262m-44.99-25.87c-0.7516-0.3054-1.151-0.6692-1.2-1.093-0.0346-0.4169 0.2873-0.7646 0.9634-1.043 0.712-0.2931 1.555-0.4318 2.534-0.4164 0.9924 0.021 1.877 0.1883 2.656 0.5022 0.7938 0.3199 1.225 0.6875 1.293 1.105 0.0816 0.424-0.2199 0.7798-0.9067 1.066-0.6755 0.281-1.541 0.4102-2.593 0.3881-1.052-0.0222-1.966-0.192-2.747-0.5091m53.73 21.83c-0.8186-0.3326-1.281-0.7306-1.383-1.193-0.0864-0.4555 0.2062-0.8358 0.8753-1.141 0.7047-0.3212 1.567-0.473 2.586-0.4577 1.034 0.0214 1.975 0.2029 2.823 0.5446 0.8642 0.3483 1.358 0.7493 1.479 1.205 0.1365 0.4632-0.1362 0.8514-0.8156 1.165-0.6682 0.3082-1.55 0.4518-2.646 0.4292s-2.068-0.2068-2.918-0.5522m-28-32.2c-3.306-1.288-4.641-2.727-4.021-4.314 0.6155-1.575 3.14-3.258 7.545-5.047 4.356-1.769 8.456-2.785 12.32-3.058 3.861-0.2731 7.425 0.2015 10.71 1.428 3.304 1.233 4.723 2.625 4.236 4.179-0.4767 1.57-2.872 3.269-7.21 5.099-4.387 1.851-8.593 2.927-12.6 3.216-3.997 0.2952-7.667-0.208-10.99-1.503m26.16 10.2c-3.445-1.342-4.892-2.844-4.354-4.5 0.5341-1.644 3.006-3.402 7.387-5.271 4.332-1.847 8.447-2.91 12.37-3.198 3.915-0.2874 7.576 0.2058 11 1.482 3.44 1.283 4.967 2.733 4.565 4.354-0.3903 1.639-2.728 3.413-7.036 5.326-4.358 1.935-8.58 3.062-12.64 3.367-4.055 0.3111-7.823-0.2107-11.29-1.56m27.27 10.63c-3.593-1.4-5.156-2.966-4.708-4.697 0.4451-1.717 2.856-3.555 7.207-5.51 4.301-1.931 8.431-3.042 12.41-3.346 3.971-0.3027 7.728 0.2085 11.29 1.538 3.584 1.337 5.229 2.849 4.92 4.542-0.2963 1.711-2.569 3.566-6.841 5.567-4.323 2.025-8.558 3.205-12.68 3.527-4.115 0.3281-7.988-0.2145-11.6-1.622m-78.76-31.06l-5.362-3.105 3.237-1.259 5.37 3.117 19.66-7.744-6.211-2.33 2.868-1.116s16.42 6.132 16.42 6.132l-2.859 1.148-6.234-2.338-22.85 9.069-4.044-1.574m28.13 9.076c1.971 0.7646 4.327 0.9662 7.056 0.6016 2.737-0.3585 5.895-1.288 9.458-2.778 3.526-1.476 5.65-2.752 6.388-3.834 0.7472-1.071 0.1336-1.974-1.829-2.709-1.943-0.7279-4.243-0.9209-6.912-0.5799-2.661 0.3467-5.75 1.24-9.285 2.687-3.572 1.462-5.775 2.738-6.59 3.827-0.8057 1.1-0.2366 2.029 1.715 2.786m26.15 10.14c2.054 0.7968 4.464 1.005 7.223 0.622 2.768-0.3762 5.93-1.348 9.47-2.907 3.503-1.542 5.59-2.876 6.276-4.005 0.6965-1.118 0.0191-2.058-2.024-2.823-2.022-0.7578-4.379-0.9583-7.077-0.6009-2.689 0.3634-5.782 1.298-9.296 2.809-3.551 1.527-5.72 2.861-6.486 3.998-0.7557 1.148-0.1184 2.118 1.915 2.907m27.26 10.57c2.142 0.8309 4.611 1.046 7.4 0.6446 2.798-0.395 5.962-1.413 9.475-3.043 3.476-1.613 5.52-3.007 6.149-4.187 0.6407-1.168-0.1071-2.148-2.236-2.946-2.107-0.7895-4.518-0.9962-7.245-0.6212-2.717 0.3813-5.814 1.358-9.303 2.938-3.526 1.597-5.653 2.993-6.365 4.18-0.7008 1.2 0.007 2.212 2.125 3.034m-45.19-24.14c-0.7467-0.2857-1.159-0.6256-1.238-1.021-0.065-0.3892 0.2182-0.7134 0.8476-0.9725 0.663-0.2729 1.464-0.4016 2.407-0.3863 0.9569 0.0206 1.822 0.1776 2.595 0.4714 0.7884 0.2994 1.23 0.6438 1.326 1.034 0.1107 0.3958-0.1505 0.7268-0.7899 0.9927-0.6287 0.2616-1.452 0.3813-2.466 0.3596s-1.907-0.181-2.682-0.4778m26.1 9.986c-0.7778-0.2976-1.218-0.652-1.323-1.064-0.0896-0.406 0.1797-0.7444 0.8055-1.015 0.659-0.2852 1.467-0.42 2.429-0.4047 0.976 0.0208 1.866 0.184 2.672 0.49 0.8211 0.3118 1.294 0.6718 1.416 1.078 0.1365 0.4129-0.1122 0.7574-0.7476 1.035-0.6249 0.2734-1.454 0.3999-2.488 0.3779-1.034-0.0219-1.956-0.1885-2.764-0.4976m27.2 10.41c-0.8108-0.3103-1.284-0.681-1.415-1.111-0.116-0.4239 0.1377-0.7775 0.7589-1.061 0.6542-0.2982 1.472-0.4386 2.453-0.4233 0.9958 0.021 1.913 0.1908 2.753 0.5097 0.8558 0.325 1.357 0.6995 1.506 1.124 0.1644 0.431-0.0679 0.7911-0.6985 1.082-0.62 0.286-1.457 0.4187-2.513 0.3965-1.055-0.0222-2.002-0.1945-2.844-0.5167"/>
</g>
</g>
</svg>
