<?xml version="1.0" encoding="UTF-8" standalone="no"?>
<svg xmlns:rdf="http://www.w3.org/1999/02/22-rdf-syntax-ns#" xmlns="http://www.w3.org/2000/svg" height="164" viewBox="0 0 268 164" width="268" version="1.1" xmlns:cc="http://creativecommons.org/ns#" xmlns:dc="http://purl.org/dc/elements/1.1/">
<text style="font-size:15px;letter-spacing:0px;line-height:100%;word-spacing:0px;font-family:&apos;Bitstream Vera Sans&apos;;fill:#000000" xml:space="preserve" y="94.675079" x="56.220818"><tspan x="56.220818" y="94.675079"/></text>
<g style="fill:#666">
<path d="m93.25 141.8h-3.273v-5.702h-4.848v5.702h-3.292v-13.65h3.292v5.421h4.848v-5.421h3.273v13.65z"/>
<path d="m103.2 139.2h-4.511l-0.7878 2.551h-3.517l5.008-13.65h3.095l5.045 13.65h-3.536l-0.7971-2.551zm-3.723-2.541h2.935l-1.472-4.736-1.463 4.736z"/>
<path d="m119.4 137.1q-0.0469 1.069-0.4595 1.96-0.4126 0.8815-1.144 1.519-0.7315 0.6283-1.754 0.9847-1.022 0.347-2.288 0.347-1.369 0-2.448-0.4595-1.069-0.4595-1.819-1.313-0.7409-0.8628-1.135-2.091-0.3845-1.238-0.3845-2.776v-0.7409q0-1.538 0.4033-2.767 0.4126-1.238 1.163-2.101 0.7596-0.8628 1.819-1.322 1.06-0.4689 2.363-0.4689 1.332 0 2.354 0.3751 1.032 0.3658 1.744 1.022 0.7127 0.6565 1.116 1.557 0.4032 0.9003 0.497 1.96h-3.282q-0.0188-0.5721-0.1594-1.013-0.1313-0.4408-0.422-0.7315t-0.7409-0.4408q-0.4502-0.15-1.107-0.15-0.6096 0-1.06 0.2251-0.4501 0.2251-0.7502 0.7127-0.3001 0.4877-0.4502 1.266-0.1407 0.769-0.1407 1.857v0.7596q0 1.088 0.1313 1.857t0.4126 1.266q0.2907 0.4877 0.7502 0.7127 0.4689 0.2251 1.144 0.2251 1.135 0 1.735-0.5346 0.6002-0.5346 0.6377-1.697h3.273z"/>
<path d="m125.6 136.7-1.35 1.482v3.601h-3.292v-13.65h3.292v6.021l1.144-1.735 2.945-4.286h4.07l-4.614 6.039 4.614 7.615h-3.901l-2.907-5.083z"/>
<path d="m141.9 136.3h-5.308v5.439h-3.292v-13.65h9.134v2.541h-5.843v3.142h5.308v2.532z"/>
<path d="m152.2 136h-5.177v3.254h6.115v2.532h-9.406v-13.65h9.425v2.541h-6.133v2.879h5.177v2.448z"/>
<path d="m161.5 138.1q0-0.3188-0.0938-0.5721-0.0844-0.2626-0.347-0.4877-0.2626-0.2344-0.7409-0.4595-0.4689-0.2251-1.238-0.4783-0.9003-0.3001-1.735-0.6752-0.8346-0.3751-1.482-0.8909-0.6471-0.5158-1.041-1.2-0.3845-0.694-0.3845-1.613 0-0.8815 0.3939-1.585 0.3939-0.7127 1.097-1.21 0.7034-0.497 1.66-0.769 0.9659-0.272 2.101-0.272 1.116 0 2.054 0.3001 0.9378 0.3001 1.613 0.8534t1.05 1.341q0.3845 0.7784 0.3845 1.744h-3.282q0-0.3845-0.1219-0.7034-0.1125-0.3282-0.3564-0.5533-0.2344-0.2345-0.5908-0.3658-0.347-0.1313-0.8253-0.1313-0.4689 0-0.8253 0.1125-0.3564 0.1032-0.6002 0.3001-0.2344 0.1876-0.3564 0.4408-0.1219 0.2438-0.1219 0.5252 0 0.3095 0.1688 0.5627 0.1782 0.2438 0.497 0.4689 0.3282 0.2157 0.7878 0.4126 0.4689 0.1876 1.05 0.3751 1.088 0.347 1.941 0.769 0.8534 0.422 1.435 0.9659 0.5908 0.5439 0.8909 1.229 0.3095 0.6846 0.3095 1.547 0 0.919-0.3657 1.641-0.3564 0.7127-1.022 1.2-0.6565 0.4877-1.594 0.7409-0.9284 0.2532-2.073 0.2532-0.7034 0-1.397-0.1219-0.694-0.1125-1.332-0.3564-0.6283-0.2438-1.182-0.6096-0.5439-0.3751-0.9472-0.8909-0.3939-0.5158-0.6283-1.172-0.2251-0.6565-0.2251-1.463h3.301q0 0.6002 0.1594 1.013 0.1594 0.4033 0.4689 0.6565t0.7502 0.3657q0.4502 0.1032 1.032 0.1032 0.4689 0 0.7971-0.1032 0.3376-0.1125 0.5533-0.2907 0.2157-0.1876 0.3095-0.4314 0.1032-0.2438 0.1032-0.5158z"/>
<path d="m177.3 130.7h-4.098v11.11h-3.292v-11.11h-4.023v-2.541h11.41v2.541z"/>
</g>
<g transform="matrix(.2049 0 0 .2049 85.87 46.87)">
<g transform="translate(-271.3 -252.3)">
<g transform="translate(0 -25.76)">
<path style="stroke-linejoin:round;stroke:#ff6905;stroke-linecap:round;stroke-width:10;fill:#ff8c40" d="m375.4 361.7a112.9 112.9 0 0 1 -52.98 91.77l-59.81-95.71z"/>
<path style="stroke-linejoin:round;stroke:#ff6905;stroke-linecap:round;stroke-width:10;fill:#ff8c40" d="m311.6 461.4a112.9 112.9 0 0 1 -106 0l52.98-99.65z"/>
<path style="stroke-linejoin:round;stroke:#ff6905;stroke-linecap:round;stroke-width:10;fill:#ff8c40" d="m194.8 453.5a112.9 112.9 0 0 1 -52.98 -91.77l112.8-3.939z"/>
<path style="stroke-linejoin:round;stroke:#ff6905;stroke-linecap:round;stroke-width:10;fill:#ff8c40" d="m141.8 345.9a112.9 112.9 0 0 1 52.98 -91.77l59.81 95.71z"/>
<path style="stroke-linejoin:round;stroke:#ff6905;stroke-linecap:round;stroke-width:10;fill:#ff8c40" d="m205.6 246.1a112.9 112.9 0 0 1 106 0l-52.98 99.65z"/>
<path style="stroke-linejoin:round;stroke:#ff6905;stroke-linecap:round;stroke-width:10;fill:#ff8c40" d="m345.5 236.7a112.9 112.9 0 0 1 52.98 91.77l-112.8 3.939z"/>
<circle cx="240.2" cy="260.8" r="14.11" style="fill:#ff6905"/>
<circle r="14.11" style="fill:#ff6905" cx="266.3" cy="282.2"/>
<circle cx="218" cy="328.6" r="14.11" style="fill:#ff6905"/>
<circle r="14.11" style="fill:#ff6905" cx="190.2" cy="284"/>
<circle cx="167.7" cy="325" r="14.11" style="fill:#ff6905"/>
<circle r="14.11" style="fill:#ff6905" cx="216.3" cy="380"/>
<circle cx="173.4" cy="386.1" r="14.11" style="fill:#ff6905"/>
<circle r="14.11" style="fill:#ff6905" cx="242.3" cy="447.5"/>
<circle cx="261.6" cy="418.3" r="14.11" style="fill:#ff6905"/>
<circle r="14.11" style="fill:#ff6905" cx="306.6" cy="383.3"/>
<circle cx="327.3" cy="417.2" r="14.11" style="fill:#ff6905"/>
<circle r="14.11" style="fill:#ff6905" cx="339.5" cy="385.4"/>
<circle cx="270.5" cy="435" r="14.11" style="fill:#ff6905"/>
<circle r="14.11" style="fill:#ff6905" cx="327.7" cy="310"/>
<circle cx="353.4" cy="274.3" r="14.11" style="fill:#ff6905"/>
<circle r="14.11" style="fill:#ff6905" cx="374.5" cy="307.9"/>
<path style="stroke-linejoin:round;fill-rule:evenodd;stroke:#ff6905;stroke-width:.6875;fill:#ff6905" d="m423.5 315.4c-7.636-10.64 96.15 35.36 96.15 35.36s-103.8 45.79-96.15 35.36c7.68-10.44 7.636-60.07 0.00001-70.71z"/>
</g>
</g>
<path style="fill:#ff6905" d="m502.1-76.03c34.27 0 61.86 27.59 61.86 61.86v123.7c0 34.27-27.59 61.86-61.86 61.86h-165c-34.27 0-61.86-27.59-61.86-61.86v-123.7c0-34.27 27.59-61.86 61.86-61.86h165zm0 41.24h-165c-11.42 0-20.62 9.196-20.62 20.62v123.7c0 11.42 9.196 20.62 20.62 20.62h165c11.42 0 20.62-9.196 20.62-20.62v-123.7c0-11.42-9.196-20.62-20.62-20.62z"/>
<path style="fill:#ff6905" d="m419.6 192c-103.1 0-103.1 20.62-103.1 20.62 0 20.62 20.62 20.62 20.62 20.62h165c20.62 0 20.62-20.62 20.62-20.62s0-20.62-103.1-20.62z"/>
<g transform="translate(-271.3 -264)">
<path style="stroke:#ff6905;stroke-width:20;fill:none" d="m611.4 255.2h135.7"/>
<path d="m611.4 292.8h47.33" style="stroke:#ff6905;stroke-width:20;fill:none"/>
<path style="stroke:#ff6905;stroke-width:20;fill:none" d="m611.4 330.5h88.24"/>
<path d="m611.4 368.1h151.4" style="stroke:#ff6905;stroke-width:20;fill:none"/>
</g>
</g>
</svg>
