<?xml version="1.0" encoding="UTF-8" standalone="no"?>
<svg xmlns:rdf="http://www.w3.org/1999/02/22-rdf-syntax-ns#" xmlns="http://www.w3.org/2000/svg" height="164" viewBox="0 0 268 164" width="268" version="1.1" xmlns:cc="http://creativecommons.org/ns#" xmlns:dc="http://purl.org/dc/elements/1.1/">
<circle r="6.763" style="fill:#ff6905" cx="129.5" cy="34.65"/>
<path style="fill-rule:evenodd;stroke:#ff6905;stroke-width:1px;fill:#ff6905" d="m129.5 50.01-3.568-4.82-6.931 1.644v14.12l4.988 2.989 1.046 18.01h8.967l1.009-18.01 5.007-2.989v-14.12l-7.062-1.644z"/>
<g style="fill:#666">
<path style="" d="m95.55 128.1 3.526 10.2h0.05703l3.555-10.2h3.631v13.84h-2.775v-4.125l0.2661-6.112-0.057-0.01-3.707 10.25h-1.863l-3.688-10.21-0.05703 0.01 0.2661 6.074v4.125h-2.775v-13.84h3.621z"/>
<path style="" d="m117.4 135.9h-5.732v3.954h6.701v2.129h-9.476v-13.84h9.457v2.139h-6.682v3.479h5.732v2.139z"/>
<path style="" d="m128.6 135.9h-5.732v3.954h6.701v2.129h-9.476v-13.84h9.457v2.139h-6.682v3.479h5.732v2.139z"/>
<path style="" d="m141 130.2h-3.916v11.7h-2.775v-11.7h-3.897v-2.139h10.59v2.139z"/>
<path style="" d="m153.5 128.1v9.182q0 2.329-1.54 3.593t-4.03 1.264q-2.481 0-4.011-1.264-1.521-1.264-1.521-3.593v-9.182h2.785v9.182q0 1.369 0.7319 2.053 0.7319 0.6749 2.015 0.6749 1.302 0 2.044-0.6749 0.7414-0.6749 0.7414-2.053v-9.182h2.785z"/>
<path style="" d="m158.7 136.9v5.019h-2.775v-13.84h5.513q2.386 0 3.754 1.217 1.369 1.217 1.369 3.203 0 1.987-1.369 3.194t-3.754 1.207h-2.737zm0-2.139h2.737q1.16 0 1.758-0.6273 0.5988-0.6368 0.5988-1.616 0-0.998-0.5988-1.644-0.5893-0.6558-1.758-0.6558h-2.737v4.543z"/>
</g>
<circle cx="109.9" cy="38.88" r="5.178" style="fill:#ff6905"/>
<circle r="5.178" style="fill:#ff6905" cx="149.1" cy="38.88"/>
<path style="fill:#ff6905;fill-rule:evenodd" d="m106.6 47.71c-1.915-0.6997-2.546 0.2141-4.593 2.804-2.047 2.589-1.452 6.658 0.0747 9.353s0.7881 2.158 2.708 5.328c1.919 3.17 0.9746 16.79 0.9746 16.79h8.357s-1.27-13.12 0.493-16.04c1.763-2.914 3.558-2.605 3.558-2.605l-1.354-0.8105v-13.96s-2.221-1.402-3.672-0.8555c-1.45 0.546-1.367 4.48-3.221 4.494-1.853 0.01421-1.411-3.794-3.326-4.494z"/>
<path style="fill:#ff6905;fill-rule:evenodd" d="m152.8 47.64c2.288-0.02712 2.695-0.1595 4.07 1.683 1.374 1.842 1.527 10.47 0 13.16-1.527 2.695-1.311-0.4577-3.231 2.712-1.919 3.17-0.9746 16.79-0.9746 16.79h-8.357s0.8217-13.87-0.9414-16.79c-1.763-2.914-3.109-1.857-3.109-1.857l1.354-0.8105v-13.96s2.221-1.402 3.672-0.8555c1.45 0.546 1.741 1.192 3.594 1.206 1.853 0.01421 1.636-1.254 3.924-1.281z"/>
</svg>
