<?xml version="1.0" encoding="UTF-8" standalone="no"?>
<svg xmlns:rdf="http://www.w3.org/1999/02/22-rdf-syntax-ns#" xmlns="http://www.w3.org/2000/svg" height="245" width="400" version="1.1" xmlns:cc="http://creativecommons.org/ns#" xmlns:dc="http://purl.org/dc/elements/1.1/" viewBox="0 0 112.88889 69.144445">
<g transform="translate(-22.87 -57.81)">
<g transform="matrix(.9288 0 0 .9288 2.967 -7.939)">
<g style="stroke:#800000" transform="matrix(.06421 0 0 .06421 -172 213)">
<g style="stroke:#800000;stroke-width:1.546" transform="matrix(.6467 0 0 .6467 2609 -534.6)">
<g style="stroke:#800000" transform="translate(-29.28 -726.4)">
<path style="stroke-linejoin:round;stroke-dashoffset:.5985;stroke:#800000;stroke-linecap:round;stroke-width:61.85;fill:none" d="m918-847v-205.1c0-28.25 24.6-50.98 55.16-50.98h95.54"/>
<path style="stroke-linejoin:round;stroke-dashoffset:.5985;stroke:#800000;stroke-linecap:round;stroke-width:46.39;fill:none" d="m987.7-966.2h80.97"/>
</g>
<g style="stroke:#800000" transform="translate(-21.37 -726.4)">
<path style="stroke-linejoin:round;stroke-dashoffset:.5985;stroke:#800000;stroke-linecap:round;stroke-width:61.85;fill:none" d="m1385-847v-205.1c0-28.25 24.6-50.98 55.16-50.98h95.54"/>
<path style="stroke-linejoin:round;stroke-dashoffset:.5985;stroke:#800000;stroke-linecap:round;stroke-width:46.39;fill:none" d="m1455-966.2h80.97"/>
</g>
</g>
<path style="color-rendering:auto;fill-rule:evenodd;color:#000000;isolation:auto;mix-blend-mode:normal;text-decoration-color:#000000;shape-rendering:auto;solid-color:#000000;block-progression:tb;text-decoration-line:none;image-rendering:auto;white-space:normal;text-indent:0;text-transform:none;text-decoration-style:solid;fill:#800000" d="m3324-1686c-2.882 12.51-1.865 25.85 2.633 37.88s12.43 22.71 22.48 30.7c8.228 6.542 17.75 11.27 26.19 17.54 4.218 3.135 8.176 6.676 11.37 10.85 3.195 4.173 5.612 9.01 6.546 14.18 1.45 8.029-0.7738 16.41-4.835 23.48-4.062 7.076-9.856 13-15.94 18.43-19.46 17.38-42.6 30.6-67.45 38.54 39.25-1.047 78-15.87 107.9-41.28 7.495-6.365 14.54-13.48 19.38-22.04 4.845-8.557 7.354-18.73 5.399-28.36-1.711-8.433-6.71-15.93-12.9-21.91-6.193-5.975-13.56-10.57-20.99-14.91-7.431-4.339-15.01-8.486-21.85-13.72-6.831-5.233-12.95-11.67-16.52-19.5-4.362-9.569-4.61-20.68-2.123-30.89 2.486-10.22 7.554-19.64 13.46-28.34 18.91-27.83 47.15-49.21 79.07-59.86-36.03 2.844-71.06 17.24-98.68 40.55-15.27 12.89-28.68 29.19-33.17 48.66z"/>
</g>
<g transform="translate(-303.1 432.9)">
<g style="fill:#800000">
<path style="stroke-width:.01699px;fill:#800000" d="m367-326h-0.4232v-6.066h3.323v0.39h-2.9v2.572h2.738v0.3942h-2.738v2.709z"/>
<path style="stroke-width:.01699px;fill:#800000" d="m371.3-328.7v2.643h-0.4232v-6.066h1.444q1.129 0 1.668 0.419 0.5394 0.4149 0.5394 1.253 0 0.6099-0.3236 1.029-0.3195 0.419-0.975 0.6016l1.647 2.763h-0.5062l-1.564-2.643h-1.506zm0-0.3651h1.158q0.7676 0 1.191-0.3402 0.4232-0.3444 0.4232-1.012 0-0.6929-0.4149-1.008-0.4149-0.3153-1.353-0.3153h-1.004v2.676z"/>
<path style="stroke-width:.01699px;fill:#800000" d="m379.2-326h-3.315v-6.066h3.315v0.39h-2.892v2.294h2.73v0.39h-2.73v2.601h2.892v0.39z"/>
<path style="stroke-width:.01699px;fill:#800000" d="m383.9-326h-3.315v-6.066h3.315v0.39h-2.892v2.294h2.73v0.39h-2.73v2.601h2.892v0.39z"/>
<path style="stroke-width:.01699px;fill:#800000" d="m390.9-327.6q0 0.7592-0.5601 1.203-0.556 0.4439-1.481 0.4439-1.112 0-1.705-0.2448v-0.4232q0.6555 0.278 1.672 0.278 0.7468 0 1.182-0.3402 0.4398-0.3444 0.4398-0.9003 0-0.3444-0.1452-0.5684-0.1452-0.2282-0.473-0.4149t-0.9626-0.4024q-0.9294-0.3195-1.286-0.6887-0.3527-0.3734-0.3527-0.9916 0-0.6804 0.5311-1.108 0.5352-0.4315 1.373-0.4315 0.8547 0 1.606 0.3236l-0.1535 0.3651q-0.7551-0.3153-1.444-0.3153-0.6721 0-1.07 0.3112-0.3983 0.3112-0.3983 0.8464 0 0.3361 0.1203 0.5518 0.1245 0.2157 0.4024 0.39 0.278 0.1701 0.9542 0.4107 0.7095 0.2448 1.066 0.4771 0.3568 0.2282 0.5186 0.5228 0.166 0.2904 0.166 0.7053z"/>
<path style="stroke-width:.01699px;fill:#800000" d="m397.2-329.1q0 1.444-0.7219 2.286-0.7219 0.8381-1.991 0.8381-1.265 0-1.987-0.8381-0.7219-0.8422-0.7219-2.294 0-1.448 0.7261-2.278 0.7302-0.8339 1.991-0.8339 1.27 0 1.987 0.8381 0.7178 0.8339 0.7178 2.282zm-4.962 0q0 1.303 0.5808 2.016 0.5808 0.7095 1.668 0.7095 1.095 0 1.672-0.7053 0.5808-0.7053 0.5808-2.021 0-1.311-0.5808-2.008-0.5767-0.7012-1.664-0.7012-1.083 0-1.672 0.7053-0.585 0.7053-0.585 2.004z"/>
<path style="stroke-width:.01699px;fill:#800000" d="m399-326h-0.4232v-6.066h3.323v0.39h-2.9v2.572h2.738v0.3942h-2.738v2.709z"/>
<path style="stroke-width:.01699px;fill:#800000" d="m404.5-326h-0.4273v-5.667h-1.971v-0.3983h4.369v0.3983h-1.971v5.667z"/>
<path style="stroke-width:.01699px;fill:#800000" d="m412.2-326h-0.3485l-1.332-4.68q-0.166-0.5767-0.2489-0.946-0.0664 0.361-0.1908 0.8298-0.1203 0.4688-1.336 4.796h-0.3568l-1.668-6.066h0.4439l1.062 3.908q0.0622 0.2365 0.1162 0.4398 0.0539 0.1992 0.0954 0.3776 0.0456 0.1743 0.0788 0.3402 0.0373 0.1618 0.0664 0.3278 0.0996-0.5642 0.4232-1.714l1.037-3.68h0.4688l1.216 4.224q0.2116 0.7302 0.3029 1.178 0.0539-0.2987 0.1369-0.6348 0.0871-0.3361 1.282-4.767h0.4273l-1.676 6.066z"/>
<path style="stroke-width:.01699px;fill:#800000" d="m417.8-328.2h-2.464l-0.8464 2.141h-0.4688l2.44-6.091h0.2697l2.39 6.091h-0.4771l-0.8422-2.141zm-2.311-0.3817h2.17l-0.8256-2.186q-0.1037-0.2572-0.2489-0.7136-0.112 0.3983-0.2448 0.7219l-0.8505 2.178z"/>
<path style="stroke-width:.01699px;fill:#800000" d="m420.4-328.7v2.643h-0.4232v-6.066h1.444q1.129 0 1.668 0.419 0.5394 0.4149 0.5394 1.253 0 0.6099-0.3236 1.029-0.3195 0.419-0.975 0.6016l1.647 2.763h-0.5062l-1.564-2.643h-1.506zm0-0.3651h1.158q0.7676 0 1.191-0.3402 0.4232-0.3444 0.4232-1.012 0-0.6929-0.4149-1.008-0.4149-0.3153-1.353-0.3153h-1.004v2.676z"/>
<path style="stroke-width:.01699px;fill:#800000" d="m428.4-326h-3.315v-6.066h3.315v0.39h-2.892v2.294h2.73v0.39h-2.73v2.601h2.892v0.39z"/>
</g>
<g style="fill:#800000">
<path style="stroke-width:.01699px;fill:#800000" d="m368.3-317.5h-1.725v-6.482h3.831v1.405h-2.106v1.237h1.942v1.405h-1.942v2.434z"/>
<path style="stroke-width:.01699px;fill:#800000" d="m377.6-320.7q0 1.636-0.8025 2.487-0.8025 0.8512-2.35 0.8512-1.525 0-2.341-0.8557-0.8114-0.8557-0.8114-2.492 0-1.618 0.8069-2.47 0.8113-0.8557 2.354-0.8557 1.547 0 2.345 0.8468t0.798 2.487zm-4.46 0q0 1.88 1.308 1.88 0.665 0 0.9842-0.4567 0.3237-0.4567 0.3237-1.423 0-0.971-0.3281-1.432-0.3236-0.4655-0.971-0.4655-1.317 0-1.317 1.898z"/>
<path style="stroke-width:.01699px;fill:#800000" d="m384.2-324v3.902q0 1.272-0.7227 1.973-0.7182 0.6961-2.075 0.6961-1.326 0-2.039-0.6783-0.7094-0.6783-0.7094-1.951v-3.941h1.76v3.804q0 0.6872 0.2572 0.9976 0.2571 0.3104 0.7581 0.3104 0.5365 0 0.7759-0.3059 0.2438-0.3104 0.2438-1.011v-3.795h1.751z"/>
<path style="stroke-width:.01699px;fill:#800000" d="m391.8-317.5h-2.297l-2.368-4.567h-0.0399q0.0842 1.077 0.0842 1.645v2.922h-1.552v-6.482h2.288l2.359 4.505h0.0266q-0.0621-0.9798-0.0621-1.574v-2.931h1.561v6.482z"/>
<path style="stroke-width:.01699px;fill:#800000" d="m398.7-320.9q0 1.623-0.8956 2.501-0.8912 0.8778-2.509 0.8778h-2.097v-6.482h2.243q1.561 0 2.407 0.798 0.8512 0.798 0.8512 2.305zm-1.818 0.0621q0-0.8912-0.3547-1.321-0.3502-0.4301-1.068-0.4301h-0.5099v3.631h0.3902q0.798 0 1.17-0.4611 0.3724-0.4655 0.3724-1.419z"/>
<path style="stroke-width:.01699px;fill:#800000" d="m403.8-317.5-0.3192-1.215h-2.106l-0.3281 1.215h-1.924l2.115-6.509h2.336l2.141 6.509h-1.915zm-0.6828-2.651-0.2793-1.064q-0.0975-0.3547-0.2394-0.9178-0.1374-0.5631-0.1818-0.8069-0.0399 0.2261-0.1596 0.7448-0.1153 0.5187-0.5187 2.044h1.379z"/>
<path style="stroke-width:.01699px;fill:#800000" d="m409.3-317.5h-1.751v-5.05h-1.583v-1.432h4.912v1.432h-1.578v5.05z"/>
<path style="stroke-width:.01699px;fill:#800000" d="m411.8-317.5v-6.482h1.76v6.482h-1.76z"/>
<path style="stroke-width:.01699px;fill:#800000" d="m421-320.7q0 1.636-0.8025 2.487-0.8025 0.8512-2.35 0.8512-1.525 0-2.341-0.8557-0.8114-0.8557-0.8114-2.492 0-1.618 0.8069-2.47 0.8114-0.8557 2.354-0.8557 1.547 0 2.345 0.8468t0.798 2.487zm-4.46 0q0 1.88 1.308 1.88 0.665 0 0.9843-0.4567 0.3236-0.4567 0.3236-1.423 0-0.971-0.3281-1.432-0.3236-0.4655-0.971-0.4655-1.317 0-1.317 1.898z"/>
<path style="stroke-width:.01699px;fill:#800000" d="m428.4-317.5h-2.297l-2.368-4.567h-0.0399q0.0842 1.077 0.0842 1.645v2.922h-1.552v-6.482h2.288l2.359 4.505h0.0266q-0.0621-0.9798-0.0621-1.574v-2.931h1.561v6.482z"/>
</g>
</g>
<path style="stroke:#1e1e1e;stroke-width:.2641;fill:none" d="m61.7 98.62v18.79"/>
</g>
</g>
</svg>
