<?xml version="1.0" encoding="UTF-8" standalone="no"?>
<svg xmlns:rdf="http://www.w3.org/1999/02/22-rdf-syntax-ns#" xmlns="http://www.w3.org/2000/svg" height="164" viewBox="0 0 268 164" width="268" version="1.1" xmlns:cc="http://creativecommons.org/ns#" xmlns:dc="http://purl.org/dc/elements/1.1/">
<circle cx="129.9" cy="34.65" r="6.763" style="fill:#ff6905"/>
<circle cx="148.5" cy="71.16" r="5.178" style="fill:#ff6905"/>
<path style="fill:#ff6905" d="m102.7 81.96c0-2.884 1.926-3.735 8.449-3.735s8.449 0.8513 8.449 3.735c0 1.429-0.9058 1.601-8.449 1.601s-8.449-0.1716-8.449-1.601z"/>
<path style="fill:#ff6905" d="m121.4 81.96c0-2.884 1.926-3.735 8.449-3.735s8.449 0.8513 8.449 3.735c0 1.429-0.9058 1.601-8.449 1.601s-8.449-0.1716-8.449-1.601z"/>
<path style="fill:#ff6905" d="m140.1 81.96c0-2.884 1.926-3.735 8.449-3.735s8.449 0.8513 8.449 3.735c0 1.429-0.9058 1.601-8.449 1.601s-8.449-0.1716-8.449-1.601z"/>
<path style="fill:#ff6905" d="m120.5 74c-0.004-1.834-0.2601-5.436-0.5686-8.004l-0.5608-4.669h10.4 10.4l-0.6092 7.782c-0.3351 4.28-0.6989 7.891-0.8084 8.025-0.1096 0.1338-0.8151 0.0069-1.568-0.2819-1.034-0.3969-1.253-1.388-0.8948-4.058 0.6126-4.568-2.159-7.909-6.56-7.909-4.375 0-6.813 2.993-6.297 7.731 0.2964 2.72 0.057 3.863-0.8854 4.224-1.995 0.7654-2.035 0.7092-2.043-2.839z"/>
<path style="fill:#ff6905" d="m112.6 60.08c-2.179-2.248-2.779-3.503-2.338-4.891 0.5778-1.82 1.073-1.868 19.56-1.868 16.47 0 19.04 0.1848 19.51 1.407 0.7507 1.956 0.8393 1.748-2.22 5.232-3.073 3.5-5.244 4.065-5.244 1.365 0-1.691-0.5929-1.779-12.01-1.779-11.41 0-12.01 0.08784-12.01 1.779 0 2.629-1.941 2.168-5.25-1.245z"/>
<path style="fill:#ff6905" d="m117.9 48.57c0-3.163 2.201-5.919 4.727-5.919 0.85 0 2.036 1.345 2.802 3.177 1.559 3.731 3.534 3.294 2.68-0.5933-0.5153-2.346-0.3502-2.583 1.797-2.583 2.148 0 2.313 0.2372 1.797 2.583-0.8538 3.888 1.121 4.325 2.68 0.5933 2.193-5.25 7.529-3.197 7.529 2.896v2.82h-12.01-12.01z"/>
<circle r="5.178" style="fill:#ff6905" cx="129.9" cy="71.16"/>
<circle cx="111.2" cy="71.16" r="5.178" style="fill:#ff6905"/>
<text style="font-size:15px;letter-spacing:0px;line-height:100%;word-spacing:0px;font-family:&apos;Bitstream Vera Sans&apos;;fill:#000000" xml:space="preserve" y="94.675079" x="56.220818"><tspan x="56.220818" y="94.675079"/></text>
<g style="fill:#666">
<path style="" d="m81.45 137.1q-0.04689 1.069-0.4595 1.96-0.4126 0.8815-1.144 1.519-0.7315 0.6283-1.754 0.9847-1.022 0.347-2.288 0.347-1.369 0-2.448-0.4595-1.069-0.4595-1.819-1.313-0.7409-0.8628-1.135-2.091-0.3845-1.238-0.3845-2.776v-0.7409q0-1.538 0.4033-2.767 0.4126-1.238 1.163-2.101 0.7596-0.8628 1.819-1.322 1.06-0.4689 2.363-0.4689 1.332 0 2.354 0.3751 1.032 0.3658 1.744 1.022 0.7127 0.6565 1.116 1.557 0.4033 0.9003 0.497 1.96h-3.282q-0.01876-0.5721-0.1594-1.013-0.1313-0.4408-0.422-0.7315t-0.7409-0.4408q-0.4501-0.15-1.107-0.15-0.6096 0-1.06 0.2251-0.4501 0.2251-0.7502 0.7127-0.3001 0.4877-0.4501 1.266-0.1407 0.769-0.1407 1.857v0.7596q0 1.088 0.1313 1.857t0.4126 1.266q0.2907 0.4877 0.7502 0.7127 0.4689 0.2251 1.144 0.2251 1.135 0 1.735-0.5346 0.6002-0.5346 0.6377-1.697h3.273z"/>
<path style="" d="m94.57 135.2q0 1.566-0.4408 2.813t-1.238 2.119q-0.7878 0.8722-1.885 1.341-1.088 0.4595-2.391 0.4595-1.322 0-2.429-0.4595-1.097-0.4689-1.894-1.341-0.7878-0.8722-1.229-2.119-0.4408-1.247-0.4408-2.813v-0.5533q0-1.566 0.4314-2.813 0.4408-1.247 1.229-2.119 0.7971-0.8722 1.894-1.341 1.097-0.4689 2.42-0.4689 1.304 0 2.401 0.4689t1.885 1.341q0.7971 0.8722 1.238 2.119 0.4501 1.247 0.4501 2.813v0.5533zm-3.348-0.5721q0-2.035-0.6846-3.085-0.6752-1.06-1.941-1.06-1.322 0-1.979 1.06-0.6471 1.05-0.6471 3.085v0.5721q0 2.007 0.6658 3.085t1.979 1.078q1.257 0 1.932-1.069 0.6752-1.078 0.6752-3.095v-0.5721z"/>
<path style="" d="m107.7 141.8h-3.273l-4.839-8.497v8.497h-3.292v-13.65h3.292l4.83 8.497v-8.497h3.282v13.65z"/>
<path style="" d="m118.3 136.3h-5.308v5.439h-3.292v-13.65h9.134v2.541h-5.843v3.142h5.308v2.532z"/>
<path style="" d="m128.7 136h-5.177v3.254h6.115v2.532h-9.406v-13.65h9.425v2.541h-6.133v2.879h5.177v2.448z"/>
<path style="" d="m136 136.9h-1.782v4.82h-3.292v-13.65h5.374q1.182 0 2.138 0.272 0.9566 0.2626 1.632 0.7878 0.6752 0.5158 1.032 1.285 0.3658 0.769 0.3658 1.782 0 0.7878-0.1688 1.407-0.1688 0.6096-0.4877 1.078-0.3095 0.4595-0.7502 0.8065-0.4408 0.3376-0.9753 0.5908l2.851 5.505v0.1407h-3.526l-2.41-4.82zm-1.782-2.541h2.082q0.9378 0 1.407-0.4877 0.4783-0.497 0.4783-1.379 0-0.8815-0.4783-1.379-0.4783-0.5064-1.407-0.5064h-2.082v3.751z"/>
<path style="" d="m151.9 136h-5.177v3.254h6.115v2.532h-9.406v-13.65h9.425v2.541h-6.133v2.879h5.177v2.448z"/>
<path style="" d="m165.6 141.8h-3.273l-4.839-8.497v8.497h-3.292v-13.65h3.292l4.83 8.497v-8.497h3.282v13.65z"/>
<path style="" d="m178.7 137.1q-0.0469 1.069-0.4595 1.96-0.4126 0.8815-1.144 1.519-0.7315 0.6283-1.754 0.9847-1.022 0.347-2.288 0.347-1.369 0-2.448-0.4595-1.069-0.4595-1.819-1.313-0.7409-0.8628-1.135-2.091-0.3845-1.238-0.3845-2.776v-0.7409q0-1.538 0.4033-2.767 0.4126-1.238 1.163-2.101 0.7596-0.8628 1.819-1.322 1.06-0.4689 2.363-0.4689 1.332 0 2.354 0.3751 1.032 0.3658 1.744 1.022 0.7127 0.6565 1.116 1.557 0.4033 0.9003 0.497 1.96h-3.282q-0.0188-0.5721-0.1594-1.013-0.1313-0.4408-0.422-0.7315t-0.7409-0.4408q-0.4502-0.15-1.107-0.15-0.6096 0-1.06 0.2251-0.4502 0.2251-0.7502 0.7127-0.3001 0.4877-0.4502 1.266-0.1407 0.769-0.1407 1.857v0.7596q0 1.088 0.1313 1.857t0.4126 1.266q0.2907 0.4877 0.7502 0.7127 0.4689 0.2251 1.144 0.2251 1.135 0 1.735-0.5346 0.6002-0.5346 0.6377-1.697h3.273z"/>
<path style="" d="m188.7 136h-5.177v3.254h6.115v2.532h-9.406v-13.65h9.425v2.541h-6.133v2.879h5.177v2.448z"/>
</g>
</svg>
