<?xml version="1.0" encoding="UTF-8" standalone="no"?>
<svg xmlns:rdf="http://www.w3.org/1999/02/22-rdf-syntax-ns#" xmlns="http://www.w3.org/2000/svg" height="328" width="536" version="1.1" xmlns:cc="http://creativecommons.org/ns#" xmlns:dc="http://purl.org/dc/elements/1.1/" viewBox="0 0 536 328">
<g transform="translate(0 -724.4)">
<text y="1020.5294" x="357.49631" style="font-size:35.27px;font-weight:bold;fill:#969594;font-family:Harabara;fill-rule:evenodd" class="fil4 fnt0"/>
<text y="1020.5294" x="479.72595" style="font-size:35.27px;font-weight:bold;fill:#969594;font-family:Harabara;fill-rule:evenodd" class="fil4 fnt0"/>
<text y="1020.5294" x="525.26593" style="font-size:35.27px;font-weight:bold;fill:#969594;font-family:Harabara;fill-rule:evenodd" class="fil4 fnt0"/>
<text y="1020.5294" x="654.18103" style="font-size:35.27px;font-weight:bold;fill:#969594;font-family:Harabara;fill-rule:evenodd" class="fil4 fnt0"/>
<text y="1020.5294" x="909.30902" style="font-size:35.27px;font-weight:bold;fill:#969594;font-family:Harabara;fill-rule:evenodd" class="fil4 fnt0"/>
<text y="1020.5294" x="1059.0309" style="font-size:35.27px;font-weight:bold;fill:#969594;font-family:Harabara;fill-rule:evenodd" class="fil4 fnt0"/>
<text y="1020.5294" x="1335.8665" style="font-size:35.27px;font-weight:bold;fill:#969594;font-family:Harabara;fill-rule:evenodd" class="fil4 fnt0"/>
<g transform="matrix(.8524 0 0 .8524 39.21 122.9)">
<g transform="matrix(1.234 0 0 1.234 52.46 -210.3)">
<path style="fill:#ff6905;fill-rule:evenodd" class="fil3" d="m240.2 872.2c6.961 6.881 10.44 15.28 10.44 25.2 0 9.681-3.461 17.98-10.38 24.9-6.921 6.921-15.18 10.38-24.78 10.38-6.735 0-12.8-1.638-18.21-4.914l-12.59 12.59c7.835 8.914 11.75 19.54 11.75 31.88 0 13.3-4.753 24.7-14.26 34.21-9.506 9.507-20.85 14.26-34.04 14.26-13.41 0-24.89-4.726-34.46-14.18-9.562-9.451-14.34-20.88-14.34-34.29s4.615-24.89 13.85-34.46c9.232-9.562 20.55-14.34 33.96-14.34 11.89 0 22.22 3.541 30.98 10.62l11.99-11.99c-6.771-6.825-10.16-15.05-10.16-24.68 0-9.762 3.361-18.12 10.08-25.08 0.6241-0.646 1.262-1.262 1.912-1.848l-12.26-12.26c-5.326 5.06-11.63 7.59-18.92 7.59-7.687 0-14.27-2.71-19.76-8.129-5.483-5.419-8.224-11.97-8.224-19.66 0-7.688 2.647-14.27 7.941-19.76 5.294-5.483 11.78-8.224 19.47-8.224 7.878 0 14.56 2.71 20.04 8.13 5.481 5.419 8.223 12.04 8.223 19.85 0 5.347-1.34 10.16-4.02 14.44l13.61 13.61c4.96-2.787 10.53-4.181 16.7-4.181 10 0 18.48 3.44 25.44 10.32zm-79.43-49.88c-4.348 0-8.003 1.543-10.96 4.631-2.962 3.088-4.443 6.775-4.443 11.06 0 4.41 1.45 8.098 4.349 11.06s6.585 4.442 11.06 4.442c4.223 0 7.798-1.528 10.73-4.584 2.93-3.057 4.395-6.696 4.395-10.92 0-2.08-0.3778-4.065-1.134-5.956-0.7557-1.891-1.827-3.529-3.214-4.916-1.387-1.449-3.04-2.615-4.963-3.497-1.922-0.8824-3.86-1.323-5.814-1.323zm-12.64 122.6c-7.584 0-13.96 2.692-19.12 8.077-5.166 5.386-7.749 11.82-7.749 19.29 0 7.692 2.527 14.12 7.584 19.29 5.055 5.165 11.49 7.748 19.29 7.748 7.364 0 13.6-2.665 18.71-7.996 5.11-5.329 7.666-11.68 7.666-19.04 0-3.628-0.6593-7.089-1.979-10.39-1.319-3.297-3.187-6.155-5.605-8.573-2.418-2.528-5.303-4.561-8.656-6.1-3.351-1.539-6.731-2.308-10.14-2.308zm67.35-67.4c-5.522 0-10.16 1.96-13.92 5.88-3.761 3.921-5.641 8.601-5.641 14.04 0 5.601 1.84 10.28 5.521 14.04s8.361 5.64 14.04 5.64c5.36 0 9.901-1.941 13.62-5.821 3.72-3.881 5.581-8.501 5.581-13.86 0-2.641-0.4799-5.161-1.44-7.561-0.9598-2.4-2.32-4.481-4.08-6.241-1.761-1.841-3.861-3.321-6.301-4.441-2.44-1.121-4.9-1.68-7.381-1.68z"/>
<path style="fill:#ff6905;fill-rule:evenodd" class="fil3" d="m111.4 798.3c9.033-15.95 27.75-26.92 49.38-26.92 21.55 0 40.22 10.89 49.29 26.76l11-11.29c-12.34-18.51-34.73-30.89-60.3-30.89-25.75 0-48.28 12.56-60.56 31.29l11.18 11.04z"/>
<path style="fill:#ff6905;fill-rule:evenodd" class="fil3" d="m160.6 782.9c-18.84 0-35.13 8.905-42.89 21.84l11.15 11.02c4.296-10.04 16.88-17.3 31.74-17.3 15 0 27.69 7.414 31.86 17.61l11.03-11.32c-7.6-12.9-23.9-21.8-42.8-21.8z"/>
</g>
<g transform="matrix(.7469 .4312 -.4312 .7469 614.5 382.6)">
<path style="stroke-linejoin:round;stroke:#000;stroke-linecap:square;stroke-width:9.129;fill:#ff6905" d="m15.96 742.3-42.65 35.73 42.65 35.73h206.9v-71.47zm3.146 22.8c7.145 0.00052 12.94 5.793 12.94 12.94-0.000518 7.145-5.793 12.94-12.94 12.94-7.146 0.001-12.94-5.791-12.94-12.94 0.0005125-7.146 5.794-12.94 12.94-12.94z"/>
<g>
<path style="" d="m78.58 782.6h-3.543v9.583h-6.544v-27.15h10.68q2.349 0 4.251 0.5407 1.902 0.5221 3.244 1.566 1.342 1.025 2.051 2.554 0.7272 1.529 0.7272 3.543 0 1.566-0.3356 2.797-0.3356 1.212-0.9695 2.144-0.6153 0.9136-1.492 1.603-0.8763 0.6712-1.939 1.175l5.668 10.94v0.2797h-7.01l-4.792-9.583zm-3.543-5.053h4.139q1.864 0 2.797-0.9695 0.9509-0.9882 0.9509-2.741t-0.9509-2.741q-0.9509-1.007-2.797-1.007h-4.139v7.458z"/>
<path style="" d="m102.9 792.6q-2.461 0-4.4-0.7831t-3.263-2.126q-1.324-1.342-2.032-3.114-0.6899-1.771-0.6899-3.766v-0.7085q0-2.2 0.5966-4.102 0.6153-1.92 1.827-3.319 1.231-1.398 3.039-2.2 1.827-0.8017 4.251-0.8017 2.144 0 3.841 0.6899 1.715 0.6899 2.89 1.976 1.193 1.286 1.809 3.114 0.6339 1.827 0.6339 4.102v2.554h-12.49q0.3356 1.697 1.473 2.666 1.137 0.9695 2.946 0.9695 1.286 0 2.517-0.4848 1.249-0.4848 2.144-1.603l2.871 3.393q-0.4848 0.6712-1.249 1.305-0.7458 0.6339-1.753 1.137-1.007 0.4848-2.256 0.7831-1.249 0.317-2.704 0.317zm-0.7085-16.07q-0.8017 0-1.38 0.2797-0.578 0.2797-0.9695 0.7644-0.3729 0.4848-0.5966 1.156t-0.3356 1.454h6.339v-0.4848q0.0373-1.51-0.7644-2.331-0.8017-0.839-2.293-0.839z"/>
<path style="" d="m120.5 792.2h-6.302v-28.64h6.302v28.64z"/>
<path style="" d="m134.1 792.6q-2.461 0-4.4-0.7831t-3.263-2.126q-1.324-1.342-2.032-3.114-0.6899-1.771-0.6899-3.766v-0.7085q0-2.2 0.5966-4.102 0.6153-1.92 1.827-3.319 1.231-1.398 3.039-2.2 1.827-0.8017 4.251-0.8017 2.144 0 3.841 0.6899 1.715 0.6899 2.89 1.976 1.193 1.286 1.809 3.114 0.6339 1.827 0.6339 4.102v2.554h-12.49q0.3356 1.697 1.473 2.666 1.137 0.9695 2.946 0.9695 1.286 0 2.517-0.4848 1.249-0.4848 2.144-1.603l2.871 3.393q-0.4848 0.6712-1.249 1.305-0.7458 0.6339-1.753 1.137-1.007 0.4848-2.256 0.7831-1.249 0.317-2.704 0.317zm-0.7085-16.07q-0.8017 0-1.38 0.2797-0.578 0.2797-0.9695 0.7644-0.3729 0.4848-0.5966 1.156t-0.3356 1.454h6.339v-0.4848q0.0373-1.51-0.7644-2.331-0.8017-0.839-2.293-0.839z"/>
<path style="" d="m156.5 792.2q-0.2051-0.3729-0.3543-0.8204-0.1305-0.4661-0.2424-0.9882-0.7272 0.9136-1.883 1.548-1.156 0.6339-2.965 0.6339-1.398 0-2.648-0.4475-1.231-0.4475-2.163-1.231-0.9322-0.8017-1.492-1.92-0.5407-1.119-0.5407-2.461 0-1.566 0.5594-2.797 0.578-1.231 1.734-2.07 1.175-0.8577 2.946-1.305 1.79-0.4661 4.232-0.4661h1.939v-1.063q0-1.286-0.5594-2.032-0.5594-0.7458-1.846-0.7458-1.081 0-1.659 0.5407t-0.578 1.659h-6.283q0-1.398 0.6153-2.61 0.6339-1.212 1.79-2.088 1.156-0.8763 2.778-1.38 1.641-0.5034 3.654-0.5034 1.809 0 3.337 0.4475 1.548 0.4475 2.666 1.361 1.119 0.895 1.753 2.256 0.6339 1.342 0.6339 3.132v8.26q0 0.9882 0.0559 1.715 0.0559 0.7272 0.1678 1.286 0.1119 0.5407 0.261 0.9695 0.1678 0.4288 0.3729 0.8017v0.317h-6.283zm-3.934-4.102q1.175 0 1.939-0.5034 0.7831-0.5034 1.119-1.137v-3.226h-1.976q-0.8763 0-1.492 0.2424-0.5966 0.2424-0.9695 0.6526-0.3542 0.4102-0.5221 0.9509-0.1492 0.5221-0.1492 1.1 0 0.8577 0.578 1.398 0.578 0.522 1.473 0.522z"/>
<path style="" d="m175.9 786.5q0-0.3915-0.1864-0.6899-0.1678-0.2983-0.6153-0.5594-0.4475-0.2797-1.212-0.522-0.7644-0.2424-1.939-0.5034-1.473-0.317-2.778-0.8204-1.286-0.5221-2.256-1.268-0.9509-0.7644-1.51-1.79-0.5407-1.025-0.5407-2.349 0-1.286 0.5407-2.442 0.5594-1.156 1.622-2.032 1.063-0.8763 2.61-1.38 1.548-0.5221 3.524-0.5221 2.032 0 3.673 0.4848t2.778 1.361q1.156 0.8577 1.771 2.07 0.6153 1.193 0.6153 2.648h-6.302q0-1.156-0.578-1.79-0.578-0.6339-1.976-0.6339-0.4848 0-0.9136 0.1492-0.4102 0.1305-0.7272 0.3916-0.317 0.2424-0.5034 0.5966-0.1864 0.3543-0.1864 0.7831 0 0.8204 0.7831 1.342 0.8017 0.5221 2.573 0.8577 1.529 0.2797 2.927 0.7272 1.417 0.4288 2.498 1.175 1.081 0.7272 1.715 1.827 0.6526 1.1 0.6526 2.704 0 1.342-0.6153 2.48-0.6153 1.137-1.771 1.976-1.137 0.8204-2.759 1.305-1.622 0.4661-3.654 0.4661-2.181 0-3.86-0.6153-1.659-0.6153-2.797-1.585-1.119-0.9882-1.697-2.2-0.578-1.231-0.578-2.442h5.873q0.0373 1.398 0.9322 2.051 0.895 0.6339 2.293 0.6339 1.286 0 1.92-0.5221 0.6526-0.5221 0.6526-1.361z"/>
<path style="" d="m194.6 792.6q-2.461 0-4.4-0.7831t-3.263-2.126q-1.324-1.342-2.032-3.114-0.6899-1.771-0.6899-3.766v-0.7085q0-2.2 0.5966-4.102 0.6153-1.92 1.827-3.319 1.231-1.398 3.039-2.2 1.827-0.8017 4.251-0.8017 2.144 0 3.841 0.6899 1.715 0.6899 2.89 1.976 1.193 1.286 1.809 3.114 0.6339 1.827 0.6339 4.102v2.554h-12.49q0.3356 1.697 1.473 2.666 1.137 0.9695 2.946 0.9695 1.286 0 2.517-0.4848 1.249-0.4848 2.144-1.603l2.871 3.393q-0.4848 0.6712-1.249 1.305-0.7458 0.6339-1.753 1.137-1.007 0.4848-2.256 0.7831-1.249 0.317-2.704 0.317zm-0.7085-16.07q-0.8017 0-1.38 0.2797-0.578 0.2797-0.9695 0.7644-0.3729 0.4848-0.5966 1.156t-0.3356 1.454h6.339v-0.4848q0.0373-1.51-0.7644-2.331-0.8017-0.839-2.293-0.839z"/>
</g>
</g>
</g>
</g>
</svg>
