<?xml version="1.0" encoding="UTF-8" standalone="no"?>
<svg xmlns:rdf="http://www.w3.org/1999/02/22-rdf-syntax-ns#" xmlns="http://www.w3.org/2000/svg" height="328" width="536" version="1.1" xmlns:cc="http://creativecommons.org/ns#" xmlns:dc="http://purl.org/dc/elements/1.1/" viewBox="0 0 536 328">
<g transform="translate(0 -724.4)">
<text y="1020.5294" x="357.49631" style="font-size:35.27px;font-weight:bold;fill:#969594;font-family:Harabara;fill-rule:evenodd" class="fil4 fnt0"/>
<text y="1020.5294" x="479.72595" style="font-size:35.27px;font-weight:bold;fill:#969594;font-family:Harabara;fill-rule:evenodd" class="fil4 fnt0"/>
<text y="1020.5294" x="525.26593" style="font-size:35.27px;font-weight:bold;fill:#969594;font-family:Harabara;fill-rule:evenodd" class="fil4 fnt0"/>
<text y="1020.5294" x="654.18103" style="font-size:35.27px;font-weight:bold;fill:#969594;font-family:Harabara;fill-rule:evenodd" class="fil4 fnt0"/>
<text y="1020.5294" x="909.30902" style="font-size:35.27px;font-weight:bold;fill:#969594;font-family:Harabara;fill-rule:evenodd" class="fil4 fnt0"/>
<text y="1020.5294" x="1059.0309" style="font-size:35.27px;font-weight:bold;fill:#969594;font-family:Harabara;fill-rule:evenodd" class="fil4 fnt0"/>
<text y="1020.5294" x="1335.8665" style="font-size:35.27px;font-weight:bold;fill:#969594;font-family:Harabara;fill-rule:evenodd" class="fil4 fnt0"/>
<g transform="matrix(.8524 0 0 .8524 39.21 122.9)">
<g transform="matrix(1.234 0 0 1.234 52.46 -210.3)">
<path style="fill:#ff6905;fill-rule:evenodd" class="fil3" d="m240.2 872.2c6.961 6.881 10.44 15.28 10.44 25.2 0 9.681-3.461 17.98-10.38 24.9-6.921 6.921-15.18 10.38-24.78 10.38-6.735 0-12.8-1.638-18.21-4.914l-12.59 12.59c7.835 8.914 11.75 19.54 11.75 31.88 0 13.3-4.753 24.7-14.26 34.21-9.506 9.507-20.85 14.26-34.04 14.26-13.41 0-24.89-4.726-34.46-14.18-9.562-9.451-14.34-20.88-14.34-34.29s4.615-24.89 13.85-34.46c9.232-9.562 20.55-14.34 33.96-14.34 11.89 0 22.22 3.541 30.98 10.62l11.99-11.99c-6.771-6.825-10.16-15.05-10.16-24.68 0-9.762 3.361-18.12 10.08-25.08 0.6241-0.646 1.262-1.262 1.912-1.848l-12.26-12.26c-5.326 5.06-11.63 7.59-18.92 7.59-7.687 0-14.27-2.71-19.76-8.129-5.483-5.419-8.224-11.97-8.224-19.66 0-7.688 2.647-14.27 7.941-19.76 5.294-5.483 11.78-8.224 19.47-8.224 7.878 0 14.56 2.71 20.04 8.13 5.481 5.419 8.223 12.04 8.223 19.85 0 5.347-1.34 10.16-4.02 14.44l13.61 13.61c4.96-2.787 10.53-4.181 16.7-4.181 10 0 18.48 3.44 25.44 10.32zm-79.43-49.88c-4.348 0-8.003 1.543-10.96 4.631-2.962 3.088-4.443 6.775-4.443 11.06 0 4.41 1.45 8.098 4.349 11.06s6.585 4.442 11.06 4.442c4.223 0 7.798-1.528 10.73-4.584 2.93-3.057 4.395-6.696 4.395-10.92 0-2.08-0.3778-4.065-1.134-5.956-0.7557-1.891-1.827-3.529-3.214-4.916-1.387-1.449-3.04-2.615-4.963-3.497-1.922-0.8824-3.86-1.323-5.814-1.323zm-12.64 122.6c-7.584 0-13.96 2.692-19.12 8.077-5.166 5.386-7.749 11.82-7.749 19.29 0 7.692 2.527 14.12 7.584 19.29 5.055 5.165 11.49 7.748 19.29 7.748 7.364 0 13.6-2.665 18.71-7.996 5.11-5.329 7.666-11.68 7.666-19.04 0-3.628-0.6593-7.089-1.979-10.39-1.319-3.297-3.187-6.155-5.605-8.573-2.418-2.528-5.303-4.561-8.656-6.1-3.351-1.539-6.731-2.308-10.14-2.308zm67.35-67.4c-5.522 0-10.16 1.96-13.92 5.88-3.761 3.921-5.641 8.601-5.641 14.04 0 5.601 1.84 10.28 5.521 14.04s8.361 5.64 14.04 5.64c5.36 0 9.901-1.941 13.62-5.821 3.72-3.881 5.581-8.501 5.581-13.86 0-2.641-0.4799-5.161-1.44-7.561-0.9598-2.4-2.32-4.481-4.08-6.241-1.761-1.841-3.861-3.321-6.301-4.441-2.44-1.121-4.9-1.68-7.381-1.68z"/>
<path style="fill:#ff6905;fill-rule:evenodd" class="fil3" d="m111.4 798.3c9.033-15.95 27.75-26.92 49.38-26.92 21.55 0 40.22 10.89 49.29 26.76l11-11.29c-12.34-18.51-34.73-30.89-60.3-30.89-25.75 0-48.28 12.56-60.56 31.29l11.18 11.04z"/>
<path style="fill:#ff6905;fill-rule:evenodd" class="fil3" d="m160.6 782.9c-18.84 0-35.13 8.905-42.89 21.84l11.15 11.02c4.296-10.04 16.88-17.3 31.74-17.3 15 0 27.69 7.414 31.86 17.61l11.03-11.32c-7.6-12.9-23.9-21.8-42.8-21.8z"/>
</g>
</g>
</g>
</svg>
