<?xml version="1.0" encoding="UTF-8"?>
<svg width="66mm" height="66mm" version="1.1" viewBox="0 0 233.8 233.8" xmlns="http://www.w3.org/2000/svg" xmlns:osb="http://www.openswatchbook.org/uri/2009/osb" xmlns:xlink="http://www.w3.org/1999/xlink"><defs><linearGradient id="linearGradient5348" osb:paint="solid"><stop stop-color="#ff6905" offset="0"/></linearGradient><linearGradient id="linearGradient5358" x1="132.1" x2="269.9" y1="290.7" y2="290.7" gradientTransform="matrix(.5264 0 0 .4871 194.4 194.3)" gradientUnits="userSpaceOnUse"><stop offset="0"/></linearGradient><linearGradient id="linearGradient5364" x1="124.6" x2="277.4" y1="290.7" y2="290.7" gradientTransform="matrix(.5264 0 0 .4871 194.4 194.3)" gradientUnits="userSpaceOnUse" xlink:href="#linearGradient5348"/><linearGradient id="linearGradient5420" x1="39.46" x2="115.7" y1="645.7" y2="645.7" gradientTransform="matrix(.5666 -.03842 .03868 .5628 237 -20.63)" gradientUnits="userSpaceOnUse" xlink:href="#linearGradient5348"/><linearGradient id="linearGradient5550" x1="174.3" x2="230.8" y1="417.9" y2="417.9" gradientTransform="matrix(.35 0 0 .3476 229.3 242.6)" gradientUnits="userSpaceOnUse" xlink:href="#linearGradient5348"/></defs><g transform="translate(-251.4 -192.1)"><g transform="matrix(1.358 0 0 1.348 -39.32 -143.8)" fill-rule="evenodd"><g fill="#969594" font-family="Harabara" font-size="17.76px" font-weight="bold"><text x="169.45995" y="698.6192"/><text x="231.01036" y="698.6192"/><text x="253.94264" y="698.6192"/><text x="318.85962" y="698.6192"/><text x="447.33282" y="698.6192"/><text x="522.72729" y="698.6192"/><text x="662.13165" y="698.6192"/></g><g><path d="m336.5 335.9-36.27 77.41-36.27-77.41 36.27-77.41z" fill="url(#linearGradient5358)" stroke="url(#linearGradient5364)" stroke-linejoin="round" stroke-width="2.899"/><path d="m298.7 294.9c-7.348 0.4982-13.53 4.493-16.67 10.04l3.406 2.913c2.267-4.696 7.395-8.165 13.57-8.584 6.15-0.417 11.69 2.309 14.59 6.631l2.92-3.412c-3.881-5.008-10.51-8.083-17.81-7.589zm0.4865 7.628c-5.374 0.3644-9.849 3.203-11.81 7.018l3.396 2.907c1.03-2.927 4.481-5.231 8.719-5.519 4.281-0.2902 8.046 1.566 9.435 4.374l2.927-3.421c-2.467-3.515-7.29-5.724-12.66-5.36zm0.4073 7.705c-2.194 0.1487-3.992 1.052-5.395 2.708-1.404 1.656-2.03 3.574-1.881 5.753 0.1498 2.179 1.059 3.983 2.729 5.413 1.67 1.43 3.602 2.07 5.796 1.922 2.079-0.141 3.828-0.9801 5.25-2.517l3.737 3.236c-0.1741 0.1787-0.3441 0.3662-0.5096 0.5613-1.782 2.103-2.579 4.537-2.389 7.304 0.1875 2.728 1.314 4.994 3.379 6.798l-3.187 3.628c-2.638-1.838-5.653-2.641-9.046-2.411-3.826 0.2594-6.963 1.833-9.411 4.722-2.448 2.888-3.542 6.233-3.281 10.03 0.2612 3.8 1.848 6.946 4.761 9.44 2.912 2.494 6.282 3.611 10.11 3.352 3.763-0.2552 6.909-1.822 9.436-4.7 2.528-2.878 3.662-6.201 3.403-9.97-0.2403-3.496-1.566-6.432-3.975-8.807l3.348-3.812c1.605 0.824 3.369 1.171 5.291 1.04 2.74-0.1858 5.03-1.327 6.87-3.422s2.665-4.515 2.476-7.259c-0.1933-2.812-1.35-5.125-3.47-6.941-2.12-1.816-4.607-2.626-7.461-2.433-1.762 0.1195-3.324 0.6223-4.685 1.508l-4.147-3.594c0.6814-1.264 0.9695-2.654 0.8654-4.169-0.1522-2.215-1.063-4.037-2.733-5.467-1.67-1.43-3.629-2.07-5.877-1.917zm0.4021 3.472c0.5576-0.0378 1.118 0.0495 1.684 0.2624 0.5657 0.2129 1.061 0.5117 1.485 0.8954 0.4226 0.3662 0.7596 0.8094 1.012 1.331 0.2527 0.5212 0.3998 1.077 0.4403 1.666 0.0822 1.196-0.2648 2.255-1.041 3.178-0.7767 0.923-1.767 1.425-2.972 1.507-1.277 0.0865-2.358-0.2613-3.243-1.045-0.8849-0.7834-1.37-1.8-1.456-3.05-0.0835-1.214 0.2679-2.289 1.053-3.221 0.7849-0.9325 1.798-1.44 3.038-1.525zm16.68 14.57c0.7078-0.048 1.421 0.0638 2.139 0.3343 0.7181 0.2702 1.346 0.6491 1.884 1.137 0.5366 0.4647 0.9652 1.028 1.286 1.69 0.3208 0.6616 0.5075 1.366 0.5589 2.114 0.1044 1.519-0.3366 2.865-1.323 4.037-0.9861 1.172-2.244 1.81-3.773 1.913-1.621 0.1099-2.994-0.3321-4.117-1.327-1.124-0.9947-1.739-2.286-1.848-3.873-0.106-1.542 0.3389-2.904 1.336-4.088 0.9966-1.184 2.283-1.83 3.859-1.937zm-17.9 20.4c0.9722-0.0659 1.952 0.0866 2.938 0.4579 0.9867 0.3712 1.849 0.8919 2.588 1.562 0.7372 0.6384 1.326 1.412 1.766 2.321 0.4407 0.9089 0.6972 1.877 0.7679 2.905 0.1434 2.087-0.4629 3.935-1.817 5.544-1.354 1.61-3.082 2.485-5.183 2.627-2.226 0.151-4.112-0.456-5.655-1.822-1.543-1.366-2.391-3.14-2.54-5.32-0.1456-2.118 0.4662-3.991 1.835-5.617 1.369-1.626 3.136-2.512 5.3-2.659z" fill="url(#linearGradient5420)"/><path d="m299.1 369.2v8.695h-8.754v2.233h19.76v-2.233h-8.754v-8.695zm-6.722 13.11v2.234h15.69v-2.234zm2.032 4.415v2.233h11.63v-2.233zm2.032 4.414v2.233h7.565v-2.233zm1.75 4.414v2.233h4.065v-2.233z" color="#000000" color-rendering="auto" fill="url(#linearGradient5550)" image-rendering="auto" shape-rendering="auto" solid-color="#000000" style="isolation:auto;mix-blend-mode:normal;text-decoration-color:#000000;text-decoration-line:none;text-decoration-style:solid;text-indent:0;text-transform:none;white-space:normal"/></g></g></g></svg>
