<?xml version="1.0" encoding="UTF-8" standalone="no"?>
<!-- Created with Inkscape (http://www.inkscape.org/) -->

<svg
   xmlns:dc="http://purl.org/dc/elements/1.1/"
   xmlns:cc="http://creativecommons.org/ns#"
   xmlns:rdf="http://www.w3.org/1999/02/22-rdf-syntax-ns#"
   xmlns:svg="http://www.w3.org/2000/svg"
   xmlns="http://www.w3.org/2000/svg"
   xmlns:sodipodi="http://sodipodi.sourceforge.net/DTD/sodipodi-0.dtd"
   xmlns:inkscape="http://www.inkscape.org/namespaces/inkscape"
   version="1.1"
   id="svg756"
   xml:space="preserve"
   width="188.8524"
   height="38.057323"
   viewBox="0 0 188.8524 38.057323"
   sodipodi:docname="IEEE-sb-small.ka.svg"
   inkscape:version="0.92+devel unknown"><metadata
     id="metadata762"><rdf:RDF><cc:Work
         rdf:about=""><dc:format>image/svg+xml</dc:format><dc:type
           rdf:resource="http://purl.org/dc/dcmitype/StillImage" /><dc:title></dc:title></cc:Work></rdf:RDF></metadata><defs
     id="defs760" /><sodipodi:namedview
     pagecolor="#ffffff"
     bordercolor="#666666"
     inkscape:document-rotation="0"
     borderopacity="1"
     objecttolerance="10"
     gridtolerance="10"
     guidetolerance="10"
     inkscape:pageopacity="0"
     inkscape:pageshadow="2"
     inkscape:window-width="1920"
     inkscape:window-height="861"
     id="namedview758"
     showgrid="false"
     inkscape:zoom="9.0546902"
     inkscape:cx="94.426201"
     inkscape:cy="19.028662"
     inkscape:window-x="0"
     inkscape:window-y="27"
     inkscape:window-maximized="1"
     inkscape:current-layer="g764" /><g
     id="g764"
     inkscape:groupmode="layer"
     inkscape:label="IEEE-sb-small.ka"
     transform="matrix(1.3333333,0,0,-1.3333333,0,38.057323)"><g
       id="g766"><path
         d="M 6.691,28.543 0,9.105 h 3.031 l 6.692,19.438 z m 67.602,0 -6.688,-19.438 h 3.032 l 6.687,19.438 z"
         style="fill:#006699;fill-opacity:1;fill-rule:nonzero;stroke:none"
         id="path768"
         inkscape:connector-curvature="0" /><path
         d="m 87.094,14.043 c 0,0.195 -0.047,0.367 -0.141,0.516 -0.086,0.148 -0.246,0.285 -0.48,0.41 -0.227,0.133 -0.532,0.254 -0.914,0.359 -0.383,0.11 -0.868,0.219 -1.45,0.328 -0.742,0.149 -1.421,0.332 -2.039,0.551 -0.609,0.227 -1.129,0.496 -1.566,0.809 -0.438,0.32 -0.781,0.687 -1.031,1.101 -0.243,0.41 -0.364,0.887 -0.364,1.426 0,0.523 0.125,1.023 0.375,1.5 0.25,0.473 0.61,0.891 1.078,1.25 0.469,0.359 1.036,0.645 1.708,0.855 0.671,0.211 1.429,0.317 2.269,0.317 0.883,0 1.676,-0.106 2.379,-0.317 0.699,-0.203 1.293,-0.488 1.777,-0.855 0.493,-0.359 0.867,-0.789 1.125,-1.285 0.258,-0.5 0.383,-1.043 0.383,-1.629 h -3.25 c 0,0.492 -0.199,0.902 -0.598,1.23 -0.398,0.336 -1.003,0.504 -1.816,0.504 -0.754,0 -1.328,-0.136 -1.719,-0.41 -0.382,-0.273 -0.574,-0.609 -0.574,-1.008 0,-0.187 0.039,-0.363 0.117,-0.527 0.078,-0.156 0.215,-0.301 0.41,-0.434 0.204,-0.125 0.477,-0.242 0.821,-0.351 0.344,-0.102 0.777,-0.188 1.308,-0.266 0.766,-0.125 1.477,-0.285 2.133,-0.48 0.653,-0.196 1.219,-0.449 1.695,-0.762 0.477,-0.305 0.848,-0.68 1.114,-1.125 0.273,-0.437 0.406,-0.957 0.406,-1.566 0,-0.563 -0.133,-1.082 -0.406,-1.559 -0.266,-0.465 -0.649,-0.871 -1.149,-1.215 -0.492,-0.344 -1.09,-0.613 -1.789,-0.808 -0.703,-0.188 -1.488,-0.282 -2.355,-0.282 -0.949,0 -1.793,0.125 -2.528,0.375 -0.722,0.25 -1.332,0.575 -1.824,0.973 -0.492,0.406 -0.867,0.859 -1.125,1.367 -0.25,0.516 -0.375,1.031 -0.375,1.547 h 3.102 c 0.023,-0.344 0.117,-0.641 0.281,-0.891 0.164,-0.242 0.375,-0.441 0.633,-0.597 0.258,-0.149 0.551,-0.258 0.879,-0.328 0.336,-0.071 0.676,-0.106 1.027,-0.106 0.805,0 1.418,0.129 1.84,0.387 0.422,0.258 0.633,0.59 0.633,0.996 z"
         style="fill:#006699;fill-opacity:1;fill-rule:nonzero;stroke:none"
         id="path770"
         inkscape:connector-curvature="0" /><path
         d="m 104.172,16.77 c 0,-0.946 -0.106,-1.809 -0.313,-2.598 -0.203,-0.789 -0.511,-1.469 -0.925,-2.035 -0.414,-0.571 -0.93,-1.016 -1.547,-1.336 -0.614,-0.313 -1.332,-0.469 -2.153,-0.469 -0.742,0 -1.382,0.137 -1.929,0.41 -0.539,0.281 -1.004,0.672 -1.395,1.172 l -0.152,-1.586 h -2.926 v 18.215 h 3.254 v -6.461 c 0.375,0.438 0.816,0.777 1.324,1.02 0.516,0.242 1.113,0.363 1.801,0.363 0.828,0 1.551,-0.16 2.164,-0.481 0.625,-0.32 1.145,-0.765 1.559,-1.336 0.414,-0.566 0.722,-1.25 0.925,-2.046 0.207,-0.789 0.313,-1.649 0.313,-2.586 z m -3.25,0.246 c 0,0.515 -0.039,1.004 -0.117,1.461 -0.078,0.461 -0.215,0.863 -0.41,1.207 -0.188,0.351 -0.446,0.629 -0.774,0.832 -0.328,0.203 -0.738,0.304 -1.23,0.304 -0.59,0 -1.075,-0.125 -1.45,-0.375 -0.367,-0.25 -0.652,-0.593 -0.855,-1.031 v -5.043 c 0.203,-0.437 0.488,-0.781 0.855,-1.031 0.375,-0.25 0.868,-0.375 1.473,-0.375 0.492,0 0.898,0.094 1.219,0.281 0.32,0.195 0.574,0.461 0.762,0.797 0.195,0.344 0.332,0.746 0.41,1.207 0.078,0.465 0.117,0.973 0.117,1.52 z"
         style="fill:#006699;fill-opacity:1;fill-rule:nonzero;stroke:none"
         id="path772"
         inkscape:connector-curvature="0" /><path
         d="m 107.766,12.449 c 0,0.305 0.05,0.586 0.148,0.844 0.102,0.266 0.25,0.492 0.445,0.68 0.196,0.195 0.434,0.347 0.715,0.457 0.281,0.117 0.598,0.175 0.949,0.175 0.352,0 0.668,-0.058 0.946,-0.175 0.281,-0.11 0.515,-0.262 0.703,-0.457 0.195,-0.188 0.344,-0.414 0.445,-0.68 0.11,-0.258 0.164,-0.539 0.164,-0.844 0,-0.293 -0.054,-0.57 -0.164,-0.828 -0.101,-0.258 -0.25,-0.484 -0.445,-0.68 -0.188,-0.187 -0.422,-0.336 -0.703,-0.445 -0.278,-0.109 -0.594,-0.164 -0.946,-0.164 -0.351,0 -0.668,0.055 -0.949,0.164 -0.281,0.109 -0.519,0.258 -0.715,0.445 -0.195,0.196 -0.343,0.422 -0.445,0.68 -0.098,0.258 -0.148,0.535 -0.148,0.828 z"
         style="fill:#006699;fill-opacity:1;fill-rule:nonzero;stroke:none"
         id="path774"
         inkscape:connector-curvature="0" /><path
         d="m 120.949,15.797 -1.472,-1.367 v -3.864 h -3.254 v 17.977 h 3.254 V 18.266 l 0.984,1.125 3.496,3.839 h 3.91 l -4.773,-5.277 5.441,-7.387 h -3.992 z"
         style="fill:#006699;fill-opacity:1;fill-rule:nonzero;stroke:none"
         id="path776"
         inkscape:connector-curvature="0" /><path
         d="m 137.938,10.566 c -0.079,0.157 -0.145,0.336 -0.2,0.539 -0.054,0.204 -0.101,0.418 -0.14,0.645 -0.18,-0.195 -0.383,-0.379 -0.618,-0.551 -0.234,-0.172 -0.496,-0.324 -0.785,-0.457 -0.281,-0.125 -0.593,-0.222 -0.937,-0.293 -0.344,-0.078 -0.715,-0.117 -1.11,-0.117 -0.648,0 -1.246,0.094 -1.793,0.281 -0.539,0.188 -1,0.45 -1.39,0.785 -0.391,0.336 -0.695,0.735 -0.914,1.192 -0.219,0.469 -0.328,0.976 -0.328,1.523 0,1.332 0.496,2.364 1.488,3.09 0.996,0.735 2.484,1.098 4.457,1.098 h 1.812 v 0.75 c 0,0.609 -0.195,1.09 -0.593,1.441 -0.399,0.36 -0.973,0.539 -1.723,0.539 -0.664,0 -1.144,-0.144 -1.449,-0.433 -0.305,-0.282 -0.457,-0.66 -0.457,-1.137 h -3.254 c 0,0.539 0.117,1.051 0.351,1.535 0.243,0.481 0.59,0.906 1.043,1.274 0.457,0.367 1.016,0.656 1.672,0.867 0.664,0.218 1.418,0.328 2.27,0.328 0.765,0 1.476,-0.094 2.129,-0.281 0.664,-0.188 1.238,-0.465 1.722,-0.832 0.485,-0.368 0.864,-0.832 1.133,-1.391 0.274,-0.555 0.41,-1.199 0.41,-1.934 v -5.429 c 0,-0.68 0.043,-1.239 0.129,-1.684 0.086,-0.445 0.211,-0.828 0.375,-1.148 v -0.2 z m -3.102,2.282 c 0.328,0 0.633,0.039 0.914,0.117 0.281,0.078 0.535,0.18 0.762,0.305 0.226,0.125 0.422,0.265 0.586,0.421 0.164,0.164 0.293,0.329 0.382,0.493 v 2.175 h -1.66 c -0.508,0 -0.941,-0.05 -1.3,-0.152 -0.356,-0.094 -0.649,-0.23 -0.875,-0.41 -0.227,-0.172 -0.395,-0.383 -0.504,-0.629 -0.11,-0.242 -0.164,-0.508 -0.164,-0.797 0,-0.437 0.152,-0.801 0.457,-1.09 0.312,-0.289 0.781,-0.433 1.402,-0.433 z"
         style="fill:#006699;fill-opacity:1;fill-rule:nonzero;stroke:none"
         id="path778"
         inkscape:connector-curvature="0" /><path
         d="m 11.598,27.391 h 9.867 V 24.73 H 18.137 V 12.977 h 3.328 v -2.649 h -9.867 v 2.649 h 3.246 V 24.73 h -3.246 z"
         style="fill:#006699;fill-opacity:1;fill-rule:nonzero;stroke:none"
         id="path780"
         inkscape:connector-curvature="0" /><path
         d="m 35.762,17.805 h -7.008 v -4.817 h 8.191 v -2.66 H 25.449 V 27.391 H 36.91 v -2.684 h -8.156 v -4.301 h 7.008 z"
         style="fill:#006699;fill-opacity:1;fill-rule:nonzero;stroke:none"
         id="path782"
         inkscape:connector-curvature="0" /><path
         d="m 50.152,17.805 h -7.007 v -4.817 h 8.191 v -2.66 H 39.84 v 17.063 h 11.461 v -2.684 h -8.156 v -4.301 h 7.007 z"
         style="fill:#006699;fill-opacity:1;fill-rule:nonzero;stroke:none"
         id="path784"
         inkscape:connector-curvature="0" /><path
         d="m 64.543,17.805 h -7.008 v -4.817 h 8.192 v -2.66 H 54.23 v 17.063 h 11.461 v -2.684 h -8.156 v -4.301 h 7.008 z"
         style="fill:#006699;fill-opacity:1;fill-rule:nonzero;stroke:none"
         id="path786"
         inkscape:connector-curvature="0" /><path
         d="M 0.398,7.508 H 1.679 V 0.102 H 0.398 Z"
         style="fill:#666666;fill-opacity:1;fill-rule:nonzero;stroke:none"
         id="path788"
         inkscape:connector-curvature="0" /><path
         d="M 7.602,3.41 H 4.562 V 1.129 H 8.117 V 0.102 H 3.273 V 7.508 H 8.082 V 6.473 H 4.562 V 4.426 h 3.04 z"
         style="fill:#666666;fill-opacity:1;fill-rule:nonzero;stroke:none"
         id="path790"
         inkscape:connector-curvature="0" /><path
         d="M 13.504,3.41 H 10.461 V 1.129 H 14.02 V 0.102 H 9.176 V 7.508 H 13.98 V 6.473 H 10.461 V 4.426 h 3.043 z"
         style="fill:#666666;fill-opacity:1;fill-rule:nonzero;stroke:none"
         id="path792"
         inkscape:connector-curvature="0" /><path
         d="M 19.406,3.41 H 16.363 V 1.129 h 3.555 V 0.102 h -4.844 v 7.406 h 4.809 V 6.473 h -3.52 V 4.426 h 3.043 z"
         style="fill:#666666;fill-opacity:1;fill-rule:nonzero;stroke:none"
         id="path794"
         inkscape:connector-curvature="0" /><path
         d="m 27.453,2.008 c 0,0.152 -0.023,0.285 -0.066,0.398 -0.043,0.117 -0.125,0.227 -0.246,0.324 -0.114,0.102 -0.274,0.192 -0.481,0.282 -0.203,0.09 -0.469,0.187 -0.789,0.285 -0.351,0.105 -0.68,0.226 -0.976,0.359 -0.301,0.137 -0.559,0.297 -0.774,0.477 -0.215,0.18 -0.383,0.387 -0.504,0.617 -0.121,0.234 -0.183,0.504 -0.183,0.805 0,0.3 0.062,0.574 0.187,0.824 0.129,0.25 0.309,0.469 0.539,0.652 0.231,0.184 0.508,0.324 0.832,0.426 0.32,0.102 0.676,0.152 1.067,0.152 0.418,0 0.793,-0.058 1.125,-0.183 0.332,-0.117 0.613,-0.281 0.839,-0.488 0.231,-0.208 0.407,-0.446 0.528,-0.723 0.121,-0.27 0.183,-0.559 0.183,-0.867 h -1.281 c 0,0.179 -0.027,0.343 -0.086,0.492 -0.055,0.152 -0.14,0.285 -0.254,0.39 -0.117,0.114 -0.261,0.2 -0.437,0.262 -0.176,0.059 -0.387,0.09 -0.629,0.09 -0.227,0 -0.422,-0.023 -0.59,-0.074 C 25.293,6.457 25.152,6.383 25.043,6.293 24.934,6.203 24.852,6.094 24.797,5.969 24.746,5.844 24.723,5.707 24.723,5.559 c 0,-0.274 0.129,-0.5 0.386,-0.684 C 25.367,4.691 25.766,4.52 26.297,4.363 26.715,4.242 27.078,4.105 27.383,3.957 27.688,3.809 27.941,3.641 28.141,3.449 28.344,3.262 28.492,3.051 28.594,2.813 28.691,2.578 28.738,2.316 28.738,2.02 28.738,1.707 28.676,1.426 28.551,1.176 28.43,0.93 28.254,0.715 28.023,0.539 27.797,0.367 27.52,0.234 27.195,0.137 26.867,0.047 26.504,0 26.105,0 25.75,0 25.398,0.047 25.051,0.145 24.707,0.242 24.395,0.387 24.121,0.582 23.848,0.777 23.625,1.02 23.453,1.313 23.289,1.605 23.203,1.945 23.203,2.34 h 1.289 c 0,-0.235 0.039,-0.434 0.121,-0.606 0.086,-0.164 0.199,-0.304 0.34,-0.41 0.149,-0.105 0.32,-0.183 0.516,-0.234 0.195,-0.047 0.41,-0.07 0.636,-0.07 0.446,0 0.782,0.089 1.008,0.269 0.227,0.18 0.34,0.422 0.34,0.723 z"
         style="fill:#666666;fill-opacity:1;fill-rule:nonzero;stroke:none"
         id="path796"
         inkscape:connector-curvature="0" /><path
         d="M 31.297,6.945 V 5.605 H 32.27 V 4.691 H 31.297 V 1.617 c 0,-0.125 0.015,-0.226 0.043,-0.304 0.027,-0.079 0.066,-0.141 0.117,-0.184 0.051,-0.039 0.109,-0.07 0.176,-0.086 0.074,-0.012 0.152,-0.02 0.234,-0.02 0.086,0 0.168,0.004 0.246,0.016 0.082,0.012 0.145,0.024 0.188,0.035 V 0.117 C 32.203,0.09 32.086,0.066 31.953,0.043 31.824,0.016 31.672,0 31.488,0 31.285,0 31.094,0.027 30.918,0.082 30.746,0.137 30.594,0.227 30.465,0.348 30.34,0.469 30.242,0.629 30.168,0.824 30.098,1.023 30.062,1.262 30.062,1.547 v 3.144 h -0.906 v 0.914 h 0.906 v 1.34 z"
         style="fill:#666666;fill-opacity:1;fill-rule:nonzero;stroke:none"
         id="path798"
         inkscape:connector-curvature="0" /><path
         d="M 36.543,0.641 C 36.371,0.438 36.156,0.281 35.902,0.168 35.648,0.055 35.348,0 34.996,0 c -0.269,0 -0.519,0.039 -0.742,0.113 -0.219,0.078 -0.41,0.2 -0.57,0.36 -0.161,0.168 -0.282,0.379 -0.372,0.636 -0.085,0.262 -0.132,0.575 -0.132,0.938 v 3.558 h 1.238 v -3.57 c 0,-0.199 0.023,-0.367 0.07,-0.5 0.047,-0.129 0.11,-0.234 0.188,-0.312 0.082,-0.078 0.176,-0.137 0.281,-0.168 0.105,-0.032 0.215,-0.047 0.328,-0.047 0.32,0 0.578,0.058 0.774,0.172 0.199,0.117 0.347,0.273 0.445,0.472 v 3.953 h 1.234 V 0.102 h -1.164 z"
         style="fill:#666666;fill-opacity:1;fill-rule:nonzero;stroke:none"
         id="path800"
         inkscape:connector-curvature="0" /><path
         d="m 38.777,2.895 c 0,0.418 0.047,0.8 0.149,1.144 0.101,0.348 0.246,0.645 0.429,0.891 0.192,0.246 0.422,0.437 0.688,0.574 0.269,0.137 0.57,0.203 0.906,0.203 0.305,0 0.574,-0.051 0.805,-0.156 0.234,-0.106 0.437,-0.258 0.609,-0.453 v 2.816 h 1.235 V 0.102 H 42.48 l -0.062,0.57 C 42.242,0.457 42.031,0.293 41.789,0.172 41.547,0.059 41.266,0 40.938,0 40.605,0 40.305,0.07 40.039,0.207 39.773,0.352 39.547,0.547 39.363,0.793 39.176,1.043 39.031,1.336 38.93,1.672 38.828,2.016 38.777,2.387 38.777,2.789 Z m 1.235,-0.106 c 0,-0.246 0.023,-0.476 0.066,-0.691 0.047,-0.215 0.121,-0.403 0.219,-0.567 0.101,-0.164 0.23,-0.293 0.387,-0.386 0.156,-0.09 0.347,-0.137 0.57,-0.137 0.277,0 0.504,0.062 0.684,0.183 0.179,0.125 0.32,0.289 0.425,0.493 v 2.351 c -0.105,0.203 -0.246,0.363 -0.425,0.485 -0.18,0.117 -0.407,0.175 -0.672,0.175 -0.227,0 -0.418,-0.047 -0.575,-0.14 C 40.535,4.457 40.406,4.328 40.305,4.168 40.203,4.004 40.133,3.813 40.086,3.594 40.035,3.375 40.012,3.141 40.012,2.895 Z"
         style="fill:#666666;fill-opacity:1;fill-rule:nonzero;stroke:none"
         id="path802"
         inkscape:connector-curvature="0" /><path
         d="M 47.312,0 C 46.906,0 46.539,0.066 46.215,0.203 45.887,0.34 45.613,0.527 45.387,0.762 45.156,1 44.984,1.281 44.859,1.609 44.738,1.934 44.68,2.285 44.68,2.66 v 0.203 c 0,0.434 0.062,0.828 0.191,1.176 0.129,0.352 0.305,0.652 0.527,0.895 0.227,0.25 0.489,0.437 0.79,0.57 0.304,0.137 0.632,0.203 0.984,0.203 0.398,0 0.746,-0.066 1.043,-0.203 0.293,-0.133 0.539,-0.316 0.73,-0.559 0.196,-0.242 0.34,-0.527 0.434,-0.859 C 49.473,3.754 49.52,3.387 49.52,2.992 V 2.461 h -3.594 c 0.015,-0.211 0.058,-0.41 0.129,-0.59 0.078,-0.18 0.175,-0.336 0.3,-0.469 0.125,-0.129 0.274,-0.23 0.446,-0.304 0.172,-0.075 0.367,-0.11 0.582,-0.11 0.308,0 0.57,0.059 0.797,0.184 0.226,0.121 0.422,0.289 0.59,0.5 L 49.434,1.039 C 49.348,0.906 49.234,0.777 49.105,0.652 48.977,0.527 48.82,0.418 48.645,0.32 48.473,0.227 48.277,0.148 48.055,0.09 47.836,0.031 47.586,0 47.312,0 Z M 47.164,4.715 C 46.828,4.715 46.551,4.598 46.34,4.359 46.133,4.121 46.004,3.793 45.945,3.367 h 2.356 V 3.461 C 48.289,3.621 48.262,3.777 48.219,3.926 48.18,4.078 48.113,4.215 48.023,4.328 47.938,4.449 47.82,4.543 47.68,4.609 47.539,4.68 47.367,4.715 47.164,4.715 Z"
         style="fill:#666666;fill-opacity:1;fill-rule:nonzero;stroke:none"
         id="path804"
         inkscape:connector-curvature="0" /><path
         d="m 51.633,5.605 0.035,-0.636 c 0.191,0.234 0.426,0.418 0.695,0.547 0.274,0.129 0.575,0.191 0.907,0.191 0.265,0 0.503,-0.035 0.718,-0.109 C 54.203,5.523 54.391,5.406 54.543,5.246 54.695,5.082 54.812,4.871 54.895,4.609 54.977,4.348 55.02,4.031 55.02,3.656 V 0.102 h -1.235 v 3.566 c 0,0.191 -0.023,0.348 -0.066,0.477 -0.043,0.132 -0.102,0.242 -0.184,0.32 -0.082,0.082 -0.183,0.14 -0.305,0.176 -0.121,0.035 -0.257,0.054 -0.414,0.054 -0.254,0 -0.476,-0.062 -0.664,-0.183 C 51.965,4.391 51.816,4.227 51.703,4.02 V 0.102 h -1.234 v 5.503 z"
         style="fill:#666666;fill-opacity:1;fill-rule:nonzero;stroke:none"
         id="path806"
         inkscape:connector-curvature="0" /><path
         d="m 57.832,6.945 v -1.34 h 0.973 V 4.691 H 57.832 V 1.617 c 0,-0.125 0.016,-0.226 0.043,-0.304 0.027,-0.079 0.066,-0.141 0.117,-0.184 0.051,-0.039 0.11,-0.07 0.176,-0.086 0.074,-0.012 0.148,-0.02 0.234,-0.02 0.086,0 0.168,0.004 0.246,0.016 0.082,0.012 0.145,0.024 0.188,0.035 V 0.117 C 58.738,0.09 58.621,0.066 58.488,0.043 58.359,0.016 58.203,0 58.023,0 57.816,0 57.629,0.027 57.453,0.082 57.277,0.137 57.129,0.227 57,0.348 56.875,0.469 56.773,0.629 56.703,0.824 56.633,1.023 56.598,1.262 56.598,1.547 v 3.144 h -0.907 v 0.914 h 0.907 v 1.34 z"
         style="fill:#666666;fill-opacity:1;fill-rule:nonzero;stroke:none"
         id="path808"
         inkscape:connector-curvature="0" /><path
         d="m 62.469,0.102 v 7.406 h 2.539 c 0.398,0 0.758,-0.039 1.078,-0.121 0.316,-0.078 0.586,-0.199 0.809,-0.36 0.218,-0.164 0.386,-0.375 0.503,-0.629 0.118,-0.25 0.176,-0.546 0.176,-0.894 0,-0.34 -0.09,-0.645 -0.273,-0.914 -0.184,-0.274 -0.453,-0.485 -0.805,-0.633 0.215,-0.055 0.399,-0.141 0.555,-0.254 0.16,-0.109 0.289,-0.238 0.39,-0.387 0.106,-0.148 0.184,-0.312 0.235,-0.492 0.051,-0.179 0.078,-0.367 0.078,-0.558 0,-0.36 -0.059,-0.672 -0.18,-0.942 C 67.461,1.055 67.289,0.828 67.066,0.645 66.848,0.465 66.578,0.332 66.258,0.238 65.941,0.148 65.586,0.102 65.184,0.102 Z m 1.285,3.343 V 1.129 h 1.43 c 0.211,0 0.394,0.027 0.554,0.082 0.164,0.055 0.301,0.129 0.407,0.23 0.109,0.102 0.191,0.219 0.246,0.36 0.054,0.14 0.082,0.293 0.082,0.465 0,0.363 -0.098,0.652 -0.293,0.863 -0.192,0.211 -0.504,0.316 -0.942,0.316 z m 0,0.946 h 1.262 c 0.402,0 0.714,0.089 0.937,0.269 0.227,0.184 0.34,0.442 0.34,0.774 0,0.367 -0.105,0.629 -0.316,0.793 -0.207,0.164 -0.532,0.246 -0.969,0.246 h -1.254 z"
         style="fill:#666666;fill-opacity:1;fill-rule:nonzero;stroke:none"
         id="path810"
         inkscape:connector-curvature="0" /><path
         d="M 71.801,4.477 C 71.723,4.492 71.637,4.5 71.555,4.508 71.473,4.516 71.387,4.516 71.301,4.516 71,4.516 70.758,4.461 70.57,4.344 70.387,4.23 70.246,4.07 70.156,3.867 V 0.102 h -1.238 v 5.503 h 1.18 l 0.031,-0.613 c 0.141,0.223 0.309,0.399 0.516,0.524 0.207,0.129 0.449,0.191 0.726,0.191 0.07,0 0.149,-0.008 0.238,-0.023 0.09,-0.016 0.157,-0.032 0.2,-0.047 z"
         style="fill:#666666;fill-opacity:1;fill-rule:nonzero;stroke:none"
         id="path812"
         inkscape:connector-curvature="0" /><path
         d="M 75.871,0.102 C 75.84,0.168 75.809,0.242 75.785,0.332 75.766,0.418 75.746,0.516 75.73,0.617 75.648,0.531 75.559,0.453 75.457,0.375 75.355,0.301 75.246,0.234 75.125,0.18 75.008,0.125 74.875,0.082 74.734,0.051 74.594,0.016 74.445,0 74.285,0 74.012,0 73.758,0.039 73.527,0.121 73.297,0.207 73.098,0.324 72.934,0.469 72.77,0.617 72.641,0.793 72.547,0.992 72.453,1.191 72.406,1.41 72.406,1.645 c 0,0.293 0.059,0.554 0.168,0.781 0.114,0.226 0.278,0.418 0.488,0.57 0.215,0.152 0.477,0.27 0.786,0.348 0.312,0.078 0.668,0.121 1.062,0.121 h 0.778 v 0.359 c 0,0.285 -0.079,0.512 -0.239,0.684 -0.16,0.172 -0.402,0.258 -0.726,0.258 -0.145,0 -0.278,-0.02 -0.399,-0.059 C 74.207,4.668 74.105,4.617 74.02,4.547 73.938,4.484 73.875,4.406 73.828,4.313 73.785,4.223 73.762,4.125 73.762,4.02 h -1.239 c 0,0.214 0.055,0.425 0.161,0.625 0.109,0.203 0.261,0.382 0.457,0.539 0.195,0.16 0.433,0.285 0.711,0.382 0.281,0.094 0.597,0.141 0.941,0.141 0.309,0 0.594,-0.039 0.855,-0.121 C 75.91,5.508 76.137,5.391 76.324,5.23 76.516,5.074 76.664,4.875 76.77,4.641 76.871,4.406 76.926,4.129 76.926,3.816 V 1.375 c 0,-0.496 0.07,-0.891 0.207,-1.187 V 0.102 Z m -1.355,0.89 c 0.14,0 0.273,0.02 0.394,0.055 0.125,0.039 0.238,0.086 0.336,0.148 0.102,0.063 0.192,0.133 0.266,0.207 0.074,0.082 0.133,0.164 0.176,0.246 v 1.04 h -0.665 c -0.457,0 -0.8,-0.083 -1.035,-0.243 -0.23,-0.156 -0.343,-0.382 -0.343,-0.675 0,-0.11 0.019,-0.215 0.054,-0.309 0.039,-0.098 0.094,-0.18 0.168,-0.25 0.074,-0.066 0.164,-0.121 0.27,-0.164 0.109,-0.035 0.234,-0.055 0.379,-0.055 z"
         style="fill:#666666;fill-opacity:1;fill-rule:nonzero;stroke:none"
         id="path814"
         inkscape:connector-curvature="0" /><path
         d="m 79.367,5.605 0.035,-0.636 c 0.196,0.234 0.426,0.418 0.7,0.547 0.269,0.129 0.57,0.191 0.902,0.191 0.266,0 0.504,-0.035 0.719,-0.109 0.218,-0.075 0.402,-0.192 0.554,-0.352 0.153,-0.164 0.27,-0.375 0.352,-0.637 0.086,-0.261 0.125,-0.578 0.125,-0.953 V 0.102 H 81.52 v 3.566 c 0,0.191 -0.024,0.348 -0.067,0.477 -0.039,0.132 -0.101,0.242 -0.183,0.32 -0.082,0.082 -0.184,0.14 -0.305,0.176 -0.117,0.035 -0.258,0.054 -0.414,0.054 -0.254,0 -0.477,-0.062 -0.664,-0.183 C 79.699,4.391 79.551,4.227 79.438,4.02 V 0.102 h -1.235 v 5.503 z"
         style="fill:#666666;fill-opacity:1;fill-rule:nonzero;stroke:none"
         id="path816"
         inkscape:connector-curvature="0" /><path
         d="m 86.281,0.988 c 0.149,0 0.289,0.02 0.418,0.067 0.133,0.047 0.246,0.109 0.34,0.191 0.098,0.086 0.176,0.184 0.234,0.301 0.059,0.117 0.094,0.242 0.102,0.375 h 1.164 C 88.527,1.66 88.465,1.41 88.34,1.176 88.223,0.941 88.062,0.734 87.859,0.559 87.656,0.387 87.422,0.25 87.156,0.148 86.887,0.051 86.602,0 86.297,0 85.871,0 85.504,0.074 85.188,0.219 84.875,0.363 84.613,0.563 84.402,0.813 84.195,1.066 84.043,1.359 83.941,1.695 83.84,2.031 83.789,2.387 83.789,2.762 v 0.179 c 0,0.375 0.051,0.731 0.152,1.067 0.102,0.336 0.254,0.629 0.461,0.883 0.211,0.254 0.473,0.453 0.786,0.597 0.312,0.149 0.679,0.219 1.101,0.219 0.336,0 0.637,-0.051 0.906,-0.152 0.278,-0.102 0.512,-0.242 0.703,-0.426 0.196,-0.184 0.348,-0.402 0.457,-0.656 0.114,-0.254 0.172,-0.535 0.184,-0.84 H 87.375 C 87.367,3.777 87.336,3.918 87.281,4.051 87.23,4.184 87.16,4.297 87.062,4.395 86.973,4.492 86.859,4.57 86.727,4.629 86.598,4.688 86.445,4.715 86.281,4.715 86.031,4.715 85.824,4.664 85.66,4.559 85.496,4.457 85.367,4.324 85.273,4.156 85.18,3.988 85.113,3.801 85.074,3.586 85.043,3.371 85.023,3.156 85.023,2.941 V 2.762 c 0,-0.223 0.02,-0.442 0.051,-0.657 0.039,-0.21 0.106,-0.398 0.199,-0.562 0.094,-0.168 0.223,-0.301 0.383,-0.402 0.16,-0.102 0.371,-0.153 0.625,-0.153 z"
         style="fill:#666666;fill-opacity:1;fill-rule:nonzero;stroke:none"
         id="path818"
         inkscape:connector-curvature="0" /><path
         d="m 90.691,5.008 c 0.192,0.219 0.414,0.39 0.672,0.512 0.258,0.125 0.543,0.187 0.86,0.187 0.269,0 0.511,-0.035 0.73,-0.109 0.223,-0.078 0.41,-0.196 0.567,-0.364 0.156,-0.164 0.277,-0.375 0.363,-0.64 0.082,-0.262 0.125,-0.578 0.125,-0.953 V 0.102 h -1.235 v 3.55 c 0,0.379 -0.085,0.649 -0.25,0.805 -0.164,0.16 -0.406,0.238 -0.722,0.238 -0.258,0 -0.481,-0.058 -0.668,-0.179 C 90.949,4.398 90.805,4.238 90.691,4.035 V 0.102 h -1.234 v 7.812 h 1.234 z"
         style="fill:#666666;fill-opacity:1;fill-rule:nonzero;stroke:none"
         id="path820"
         inkscape:connector-curvature="0" /><path
         d="M 100.102,3.301 99.262,2.41 V 0.102 h -1.285 v 7.406 h 1.285 V 4.035 l 0.715,0.879 2.164,2.594 h 1.558 l -2.754,-3.281 2.91,-4.125 h -1.523 z"
         style="fill:#666666;fill-opacity:1;fill-rule:nonzero;stroke:none"
         id="path822"
         inkscape:connector-curvature="0" /><path
         d="m 107.719,0.102 c -0.035,0.066 -0.063,0.14 -0.086,0.23 -0.024,0.086 -0.039,0.184 -0.059,0.285 C 107.496,0.531 107.402,0.453 107.301,0.375 107.203,0.301 107.094,0.234 106.969,0.18 106.852,0.125 106.723,0.082 106.578,0.051 106.438,0.016 106.289,0 106.129,0 c -0.274,0 -0.527,0.039 -0.758,0.121 -0.23,0.086 -0.426,0.203 -0.594,0.348 -0.164,0.148 -0.293,0.324 -0.386,0.523 -0.09,0.199 -0.137,0.418 -0.137,0.653 0,0.293 0.055,0.554 0.168,0.781 0.113,0.226 0.273,0.418 0.488,0.57 0.215,0.152 0.473,0.27 0.781,0.348 0.313,0.078 0.668,0.121 1.067,0.121 h 0.777 v 0.359 c 0,0.285 -0.078,0.512 -0.238,0.684 -0.16,0.172 -0.402,0.258 -0.731,0.258 -0.144,0 -0.277,-0.02 -0.394,-0.059 -0.117,-0.039 -0.223,-0.09 -0.305,-0.16 -0.082,-0.063 -0.148,-0.141 -0.195,-0.234 -0.043,-0.09 -0.067,-0.188 -0.067,-0.293 h -1.234 c 0,0.214 0.051,0.425 0.156,0.625 0.11,0.203 0.262,0.382 0.457,0.539 0.2,0.16 0.438,0.285 0.715,0.382 0.281,0.094 0.594,0.141 0.942,0.141 0.308,0 0.593,-0.039 0.855,-0.121 0.258,-0.078 0.484,-0.195 0.676,-0.356 0.187,-0.156 0.336,-0.355 0.441,-0.589 0.106,-0.235 0.157,-0.512 0.157,-0.825 V 1.375 c 0,-0.496 0.07,-0.891 0.21,-1.187 V 0.102 Z m -1.36,0.89 c 0.145,0 0.274,0.02 0.399,0.055 0.125,0.039 0.234,0.086 0.336,0.148 0.101,0.063 0.187,0.133 0.261,0.207 0.075,0.082 0.137,0.164 0.18,0.246 v 1.04 h -0.668 c -0.457,0 -0.801,-0.083 -1.031,-0.243 -0.231,-0.156 -0.348,-0.382 -0.348,-0.675 0,-0.11 0.02,-0.215 0.059,-0.309 0.035,-0.098 0.094,-0.18 0.168,-0.25 0.074,-0.066 0.164,-0.121 0.269,-0.164 0.11,-0.035 0.235,-0.055 0.375,-0.055 z"
         style="fill:#666666;fill-opacity:1;fill-rule:nonzero;stroke:none"
         id="path824"
         inkscape:connector-curvature="0" /><path
         d="m 112.949,4.477 c -0.082,0.015 -0.168,0.023 -0.25,0.031 -0.082,0.008 -0.168,0.008 -0.254,0.008 -0.3,0 -0.543,-0.055 -0.73,-0.172 C 111.531,4.23 111.391,4.07 111.301,3.867 V 0.102 h -1.239 v 5.503 h 1.18 l 0.031,-0.613 c 0.141,0.223 0.313,0.399 0.516,0.524 0.207,0.129 0.449,0.191 0.727,0.191 0.07,0 0.152,-0.008 0.238,-0.023 0.094,-0.016 0.156,-0.032 0.199,-0.047 z"
         style="fill:#666666;fill-opacity:1;fill-rule:nonzero;stroke:none"
         id="path826"
         inkscape:connector-curvature="0" /><path
         d="m 113.809,7.914 h 1.234 V 0.102 h -1.234 z"
         style="fill:#666666;fill-opacity:1;fill-rule:nonzero;stroke:none"
         id="path828"
         inkscape:connector-curvature="0" /><path
         d="m 119.48,1.598 c 0,0.09 -0.015,0.168 -0.046,0.242 -0.028,0.078 -0.082,0.152 -0.168,0.215 -0.086,0.07 -0.204,0.133 -0.36,0.187 -0.152,0.059 -0.355,0.113 -0.601,0.164 -0.297,0.063 -0.567,0.137 -0.809,0.231 -0.242,0.09 -0.449,0.199 -0.621,0.328 -0.172,0.133 -0.309,0.289 -0.406,0.465 -0.098,0.175 -0.145,0.379 -0.145,0.609 0,0.223 0.051,0.438 0.149,0.637 0.097,0.203 0.238,0.383 0.422,0.535 0.187,0.152 0.41,0.269 0.671,0.359 0.266,0.09 0.559,0.137 0.887,0.137 0.34,0 0.649,-0.047 0.918,-0.137 0.277,-0.09 0.508,-0.211 0.699,-0.371 0.188,-0.156 0.332,-0.34 0.43,-0.554 0.105,-0.215 0.156,-0.446 0.156,-0.692 h -1.238 c 0,0.106 -0.02,0.207 -0.063,0.305 -0.039,0.101 -0.101,0.191 -0.179,0.269 -0.082,0.078 -0.184,0.141 -0.309,0.184 -0.117,0.047 -0.258,0.07 -0.414,0.07 -0.156,0 -0.293,-0.019 -0.41,-0.058 -0.113,-0.039 -0.211,-0.09 -0.289,-0.157 -0.074,-0.058 -0.129,-0.132 -0.168,-0.218 -0.035,-0.078 -0.055,-0.164 -0.055,-0.258 0,-0.09 0.016,-0.172 0.051,-0.242 0.035,-0.075 0.094,-0.137 0.18,-0.196 0.086,-0.058 0.203,-0.113 0.347,-0.164 0.149,-0.047 0.332,-0.093 0.551,-0.14 0.32,-0.067 0.606,-0.149 0.856,-0.239 0.254,-0.093 0.468,-0.203 0.64,-0.336 0.176,-0.132 0.309,-0.289 0.403,-0.468 0.089,-0.18 0.136,-0.395 0.136,-0.641 0,-0.246 -0.05,-0.469 -0.156,-0.672 -0.105,-0.203 -0.258,-0.379 -0.453,-0.531 -0.195,-0.145 -0.43,-0.258 -0.703,-0.34 C 119.109,0.039 118.805,0 118.469,0 c -0.379,0 -0.711,0.051 -1.004,0.156 -0.289,0.11 -0.531,0.25 -0.727,0.422 -0.199,0.176 -0.347,0.371 -0.449,0.586 -0.098,0.223 -0.148,0.445 -0.148,0.672 h 1.203 c 0.011,-0.168 0.051,-0.313 0.117,-0.426 0.066,-0.117 0.152,-0.211 0.258,-0.281 0.105,-0.07 0.222,-0.125 0.355,-0.156 0.133,-0.032 0.27,-0.047 0.406,-0.047 0.329,0 0.575,0.062 0.747,0.183 0.168,0.125 0.253,0.289 0.253,0.489 z"
         style="fill:#666666;fill-opacity:1;fill-rule:nonzero;stroke:none"
         id="path830"
         inkscape:connector-curvature="0" /><path
         d="m 124.648,4.477 c -0.082,0.015 -0.164,0.023 -0.25,0.031 -0.082,0.008 -0.164,0.008 -0.253,0.008 -0.297,0 -0.543,-0.055 -0.727,-0.172 C 123.23,4.23 123.09,4.07 123,3.867 V 0.102 h -1.238 v 5.503 h 1.183 l 0.028,-0.613 c 0.14,0.223 0.312,0.399 0.515,0.524 0.207,0.129 0.45,0.191 0.727,0.191 0.07,0 0.152,-0.008 0.238,-0.023 0.094,-0.016 0.16,-0.032 0.199,-0.047 z"
         style="fill:#666666;fill-opacity:1;fill-rule:nonzero;stroke:none"
         id="path832"
         inkscape:connector-curvature="0" /><path
         d="M 128.762,0.641 C 128.59,0.438 128.375,0.281 128.121,0.168 127.867,0.055 127.566,0 127.219,0 c -0.274,0 -0.52,0.039 -0.746,0.113 -0.219,0.078 -0.411,0.2 -0.567,0.36 -0.16,0.168 -0.285,0.379 -0.371,0.636 -0.09,0.262 -0.133,0.575 -0.133,0.938 v 3.558 h 1.235 v -3.57 c 0,-0.199 0.023,-0.367 0.07,-0.5 0.047,-0.129 0.113,-0.234 0.188,-0.312 0.082,-0.078 0.175,-0.137 0.281,-0.168 0.105,-0.032 0.215,-0.047 0.332,-0.047 0.316,0 0.574,0.058 0.773,0.172 0.196,0.117 0.344,0.273 0.442,0.472 v 3.953 h 1.234 V 0.102 h -1.164 z"
         style="fill:#666666;fill-opacity:1;fill-rule:nonzero;stroke:none"
         id="path834"
         inkscape:connector-curvature="0" /><path
         d="m 132.445,5.008 c 0.192,0.219 0.414,0.39 0.672,0.512 0.258,0.125 0.547,0.187 0.86,0.187 0.269,0 0.511,-0.035 0.734,-0.109 0.219,-0.078 0.406,-0.196 0.562,-0.364 0.157,-0.164 0.278,-0.375 0.364,-0.64 0.086,-0.262 0.125,-0.578 0.125,-0.953 V 0.102 h -1.235 v 3.55 c 0,0.379 -0.082,0.649 -0.25,0.805 -0.16,0.16 -0.402,0.238 -0.722,0.238 -0.258,0 -0.481,-0.058 -0.664,-0.179 -0.184,-0.118 -0.332,-0.278 -0.446,-0.481 V 0.102 h -1.234 v 7.812 h 1.234 z"
         style="fill:#666666;fill-opacity:1;fill-rule:nonzero;stroke:none"
         id="path836"
         inkscape:connector-curvature="0" /><path
         d="m 139.43,0 c -0.407,0 -0.774,0.066 -1.098,0.203 -0.324,0.137 -0.602,0.324 -0.828,0.559 -0.227,0.238 -0.402,0.519 -0.524,0.847 -0.125,0.325 -0.183,0.676 -0.183,1.051 v 0.203 c 0,0.434 0.062,0.828 0.191,1.176 0.129,0.352 0.305,0.652 0.532,0.895 0.222,0.25 0.484,0.437 0.789,0.57 0.304,0.137 0.632,0.203 0.98,0.203 0.399,0 0.746,-0.066 1.043,-0.203 0.293,-0.133 0.539,-0.316 0.73,-0.559 0.196,-0.242 0.34,-0.527 0.434,-0.859 0.094,-0.332 0.145,-0.699 0.145,-1.094 V 2.461 h -3.598 c 0.016,-0.211 0.062,-0.41 0.133,-0.59 0.074,-0.18 0.176,-0.336 0.301,-0.469 0.125,-0.129 0.273,-0.23 0.441,-0.304 0.172,-0.075 0.367,-0.11 0.586,-0.11 0.305,0 0.57,0.059 0.793,0.184 0.226,0.121 0.422,0.289 0.59,0.5 l 0.668,-0.633 c -0.09,-0.133 -0.2,-0.262 -0.332,-0.387 C 141.094,0.527 140.941,0.418 140.766,0.32 140.59,0.227 140.395,0.148 140.176,0.09 139.953,0.031 139.707,0 139.43,0 Z m -0.145,4.715 c -0.34,0 -0.613,-0.117 -0.824,-0.356 -0.207,-0.238 -0.34,-0.566 -0.399,-0.992 h 2.356 v 0.094 c -0.012,0.16 -0.039,0.316 -0.082,0.465 -0.039,0.152 -0.106,0.289 -0.191,0.402 -0.09,0.121 -0.204,0.215 -0.348,0.281 -0.137,0.071 -0.309,0.106 -0.512,0.106 z"
         style="fill:#666666;fill-opacity:1;fill-rule:nonzero;stroke:none"
         id="path838"
         inkscape:connector-curvature="0" /></g></g></svg>