<svg width="192" height="30" viewBox="0 0 192 30" fill="none" xmlns="http://www.w3.org/2000/svg">
<path d="M41.4767 22.6708L37.2421 8.37934H37.1436C37.16 8.71961 37.1846 9.23002 37.2175 9.91057C37.2503 10.5911 37.2831 11.3227 37.316 12.1053C37.3488 12.8709 37.3652 13.5685 37.3652 14.198V22.6708H34.0415V4.44918H39.1132L43.274 18.3834H43.3478L47.7548 4.44918H52.8265V22.6708H49.3551V14.0449C49.3551 13.4664 49.3633 12.8029 49.3797 12.0543C49.4125 11.3057 49.4372 10.5996 49.4536 9.93609C49.4864 9.25554 49.511 8.74513 49.5274 8.40486H49.429L44.8989 22.6708H41.4767Z" fill="black"/>
<path d="M71.5711 16.2397C71.5711 17.4987 71.3003 18.6386 70.7586 19.6594C70.2334 20.6632 69.4292 21.4629 68.3459 22.0583C67.279 22.6368 65.9249 22.926 64.2836 22.926C61.9529 22.926 60.1803 22.3135 58.9657 21.0886C57.7511 19.8466 57.1438 18.2132 57.1438 16.1886V4.44918H60.8614V15.6016C60.8614 17.0988 61.1569 18.1537 61.7478 18.7662C62.3386 19.3787 63.2167 19.6849 64.3821 19.6849C65.5967 19.6849 66.4748 19.3532 67.0164 18.6896C67.5745 18.0261 67.8535 16.9883 67.8535 15.5761V4.44918H71.5711V16.2397Z" fill="black"/>
<path d="M91.8298 13.5345C91.8298 15.423 91.5262 17.0733 90.9189 18.4855C90.328 19.8806 89.4171 20.9695 88.1861 21.7521C86.9551 22.5347 85.3794 22.926 83.4591 22.926C81.5551 22.926 79.9794 22.5347 78.732 21.7521C77.501 20.9695 76.5819 19.8721 75.9746 18.4599C75.3837 17.0478 75.0883 15.3975 75.0883 13.509C75.0883 11.6204 75.3837 9.97862 75.9746 8.5835C76.5819 7.18838 77.501 6.10802 78.732 5.3424C79.9794 4.55977 81.5633 4.16846 83.4837 4.16846C85.3876 4.16846 86.9551 4.55977 88.1861 5.3424C89.4171 6.10802 90.328 7.19689 90.9189 8.60903C91.5262 10.0041 91.8298 11.646 91.8298 13.5345ZM79.0029 13.5345C79.0029 15.44 79.3557 16.9457 80.0615 18.0516C80.7673 19.1405 81.8998 19.6849 83.4591 19.6849C85.0511 19.6849 86.1919 19.1405 86.8812 18.0516C87.5706 16.9457 87.9153 15.44 87.9153 13.5345C87.9153 11.6119 87.5706 10.1062 86.8812 9.01735C86.1919 7.92848 85.0594 7.38404 83.4837 7.38404C81.908 7.38404 80.7673 7.92848 80.0615 9.01735C79.3557 10.1062 79.0029 11.6119 79.0029 13.5345Z" fill="black"/>
<path d="M111.055 22.6708H106.328L98.6717 8.88975H98.5732C98.606 9.75745 98.6388 10.6251 98.6717 11.4928C98.7209 12.3605 98.7619 13.2282 98.7948 14.0959V22.6708H95.4711V4.44918H100.173L107.806 18.1027H107.88C107.863 17.252 107.838 16.4098 107.806 15.5761C107.773 14.7425 107.74 13.9088 107.707 13.0751V4.44918H111.055V22.6708Z" fill="black"/>
<path d="M132.259 17.6178C132.259 19.2341 131.693 20.5271 130.56 21.4969C129.444 22.4496 127.852 22.926 125.784 22.926C123.929 22.926 122.272 22.5602 120.811 21.8286V18.2303C121.648 18.6046 122.51 18.9533 123.396 19.2766C124.299 19.5828 125.193 19.736 126.08 19.736C126.999 19.736 127.647 19.5573 128.025 19.2C128.418 18.8257 128.615 18.3579 128.615 17.7964C128.615 17.337 128.46 16.9457 128.148 16.6225C127.852 16.2992 127.45 16.0015 126.941 15.7292C126.432 15.44 125.85 15.1338 125.193 14.8105C124.783 14.6063 124.34 14.3682 123.864 14.0959C123.388 13.8067 122.928 13.4579 122.485 13.0496C122.058 12.6243 121.705 12.1138 121.426 11.5184C121.147 10.9229 121.008 10.2083 121.008 9.37464C121.008 7.74133 121.541 6.47381 122.608 5.57208C123.675 4.65335 125.128 4.19398 126.966 4.19398C127.885 4.19398 128.755 4.30457 129.576 4.52574C130.413 4.74692 131.283 5.06167 132.185 5.47L130.979 8.48142C130.175 8.14115 129.453 7.87744 128.812 7.69029C128.172 7.50314 127.516 7.40956 126.843 7.40956C126.137 7.40956 125.595 7.5797 125.218 7.91997C124.84 8.26024 124.652 8.7026 124.652 9.24704C124.652 9.89356 124.931 10.404 125.489 10.7783C126.047 11.1526 126.876 11.6119 127.975 12.1564C128.878 12.5987 129.641 13.0581 130.265 13.5345C130.905 14.0109 131.397 14.5723 131.742 15.2188C132.087 15.8654 132.259 16.665 132.259 17.6178Z" fill="black"/>
<path d="M141.068 4.44918C143.333 4.44918 144.982 4.95959 146.016 5.98041C147.067 6.98422 147.592 8.37083 147.592 10.1403C147.592 11.1951 147.379 12.1904 146.952 13.1262C146.525 14.0449 145.811 14.785 144.81 15.3464C143.825 15.9079 142.479 16.1886 140.772 16.1886H139.172V22.6708H135.454V4.44918H141.068ZM140.871 7.61372H139.172V13.0241H140.403C141.453 13.0241 142.282 12.8114 142.89 12.3861C143.513 11.9437 143.825 11.2376 143.825 10.2679C143.825 8.49844 142.84 7.61372 140.871 7.61372Z" fill="black"/>
<path d="M160.447 22.6708L159.166 18.3323H152.765L151.485 22.6708H147.472L153.676 4.37262H158.231L164.46 22.6708H160.447ZM157 10.8548C156.918 10.5656 156.811 10.1998 156.68 9.75745C156.549 9.31509 156.417 8.86423 156.286 8.40486C156.155 7.94549 156.048 7.54567 155.966 7.2054C155.884 7.54567 155.769 7.97101 155.621 8.48142C155.49 8.97482 155.359 9.4512 155.227 9.91057C155.112 10.3529 155.022 10.6677 154.956 10.8548L153.701 15.0912H158.28L157 10.8548Z" fill="black"/>
<path d="M173.665 7.40956C172.237 7.40956 171.146 7.9625 170.391 9.06839C169.636 10.1743 169.258 11.6885 169.258 13.611C169.258 15.5506 169.603 17.0563 170.292 18.1282C170.998 19.183 172.122 19.7104 173.665 19.7104C174.387 19.7104 175.101 19.6254 175.807 19.4552C176.529 19.2851 177.309 19.0469 178.146 18.7407V21.9818C177.374 22.305 176.611 22.5432 175.856 22.6963C175.101 22.8495 174.256 22.926 173.32 22.926C171.515 22.926 170.021 22.5432 168.84 21.7776C167.674 20.995 166.813 19.9061 166.254 18.511C165.696 17.0988 165.417 15.457 165.417 13.5855C165.417 11.748 165.737 10.1232 166.378 8.71111C167.018 7.29897 167.945 6.19308 169.16 5.39344C170.391 4.5938 171.892 4.19398 173.665 4.19398C174.535 4.19398 175.405 4.31307 176.275 4.55126C177.161 4.77244 178.006 5.07869 178.811 5.47L177.604 8.60903C176.948 8.28576 176.283 8.00504 175.61 7.76685C174.954 7.52866 174.305 7.40956 173.665 7.40956Z" fill="black"/>
<path d="M192 22.6708H181.881V4.44918H192V7.61372H185.599V11.6204H191.557V14.785H185.599V19.4808H192V22.6708Z" fill="black"/>
<path fill-rule="evenodd" clip-rule="evenodd" d="M12.505 25.0101C19.4114 25.0101 25.0101 19.4114 25.0101 12.505C25.0101 5.5987 19.4114 0 12.505 0C5.5987 0 0 5.5987 0 12.505C0 15.857 1.31884 18.901 3.46592 21.1463L3.11054 22.7286L2.21409 26.7212C2.08486 27.2963 2.08423 27.5841 2.08423 27.5841C2.08423 28.6632 2.82825 29.1302 3.5409 29.1302C5.12679 29.1302 5.48248 27.5842 5.74157 26.4326L6.41316 23.4285C8.21573 24.4359 10.2933 25.0101 12.505 25.0101ZM6.41316 23.4285L6.90715 21.2188C6.90715 21.2188 8.16872 21.7583 9.81985 21.7583C11.4057 21.7583 12.6679 21.147 14.092 19.7083C14.9659 21.5784 16.9407 21.7583 17.4909 21.7583C18.9469 21.7583 19.7562 20.6437 20.2417 19.8163C21.0183 18.4139 21.5365 16.2565 21.5365 16.0404C21.5365 15.5372 21.083 15.5372 20.63 15.5372C20.0226 15.5372 19.9835 15.5719 19.8265 15.7112L19.8208 15.7163C19.7769 15.7897 19.7625 15.8467 19.687 16.1462C19.6514 16.2876 19.6021 16.4831 19.5297 16.7598C19.3352 17.7308 18.7204 20.4632 17.6201 20.4632H17.6197C17.3931 20.4632 17.0053 20.4632 17.0053 19.3848C17.0053 18.7732 17.186 17.9318 17.3166 17.3236C17.332 17.2518 17.3467 17.1833 17.3604 17.1188L18.1383 13.7033L19.3352 8.30816C19.3573 8.20228 19.3826 8.0853 19.4087 7.96517C19.4975 7.55542 19.5943 7.10905 19.5943 6.94195C19.5943 5.86293 18.8503 5.39522 18.1383 5.39522C17.3936 5.39522 16.6816 5.93474 16.3899 6.47425C16.1961 6.90572 16.0016 7.73309 15.8723 8.38064L13.8009 17.5865C13.7683 17.6945 12.3769 20.4632 10.0463 20.4632C7.94288 20.4632 7.94288 18.4857 7.94288 17.7308C7.94288 16.688 8.1361 15.7881 8.33057 14.9252L9.69062 8.88391C9.88447 8.09277 10.1762 6.76212 10.1762 6.51048C10.1762 5.64755 9.56077 5 8.71889 5C8.1041 5 7.00376 5.39592 6.64807 6.9782L3.46592 21.1463C4.32596 22.0457 5.31888 22.8169 6.41316 23.4285Z" fill="black"/>
</svg>