<?xml version="1.0" encoding="UTF-8"?>
<!-- Generator: Adobe Illustrator 13.0.2, SVG Export Plug-In . SVG Version: 6.00 Build 14948)  -->
<!DOCTYPE svg PUBLIC "-//W3C//DTD SVG 1.1//EN" "http://www.w3.org/Graphics/SVG/1.1/DTD/svg11.dtd">
<svg version="1.1" id="Calque_1" xmlns="http://www.w3.org/2000/svg" xmlns:xlink="http://www.w3.org/1999/xlink" x="0px" y="0px" width="763.914px" height="349.232px" viewBox="0 0 763.914 349.232" enable-background="new 0 0 763.914 349.232" xml:space="preserve">
<g>
	<path fill="#00286E" d="M641.375,229.587c2.215,0,4.006-1.789,4.006-4.006c0-2.207-1.791-3.994-4.006-3.994   c-2.211,0-4.002,1.787-4.002,3.994C637.373,227.798,639.164,229.587,641.375,229.587L641.375,229.587z"/>
	<g>
		
			<radialGradient id="SVGID_1_" cx="29.8599" cy="169.4409" r="135.7692" gradientTransform="matrix(1.2861 0 0 1.2861 188.289 -42.6729)" gradientUnits="userSpaceOnUse">
			<stop offset="0.8983" style="stop-color:#00286E"/>
			<stop offset="0.9156" style="stop-color:#434684"/>
			<stop offset="0.9387" style="stop-color:#7F7CAA"/>
			<stop offset="0.9595" style="stop-color:#B3B1CE"/>
			<stop offset="0.9773" style="stop-color:#DCDAE8"/>
			<stop offset="0.9914" style="stop-color:#F5F5F9"/>
			<stop offset="1" style="stop-color:#FFFFFF"/>
		</radialGradient>
		<path fill="url(#SVGID_1_)" d="M400.677,174.619c0,96.44-78.177,174.613-174.605,174.613c-96.44,0-174.622-78.173-174.622-174.613    C51.45,78.18,129.631,0,226.072,0C322.5,0,400.677,78.18,400.677,174.619z"/>
		<path fill="#00286E" d="M460.23,271.941c-4.764,0-8.829-4.941-8.829-15.672c0-4.324,1.173-14.583,9.137-14.583    c5.703,0,10.392,6.113,10.392,14.96C470.929,263.473,468.271,271.941,460.23,271.941L460.23,271.941z M476.035,220.171    l-5.186,2.888v21.055c0,0.695-0.47,0.695-0.548,0.695c-0.151,0-0.391,0-0.467-0.15c-0.39-0.865-3.202-7.355-10.074-7.355    c-10.911,0-13.456,11.501-13.456,20.208c0,8.545,3.628,18.682,13.538,18.682c7.098,0,9.293-6.132,10.537-7.391    c0.32-0.318,0.628,0.312,0.628,0.793v6.975l5.027-2.818V220.171L476.035,220.171z"/>
		<path fill="#00286E" d="M485.931,252.562c0.713-8.071,4.798-11.124,9.275-11.124c2.359,0,5.188,1.005,6.769,3.601    c1.644,2.74,1.568,6.115,1.568,7.523H485.931L485.931,252.562z M508.793,256.303c-0.381-9.065-1.774-19.113-13.347-19.113    c-4.242,0-8.49,1.61-11.546,6.357c-2.88,4.632-3.351,9.714-3.351,14.244c0,9.015,5.151,18.391,15.137,18.391    c5.263,0,8.702-1.56,12.029-5.689l-3.553-2.817c-2.188,2.65-4.787,4.142-8.329,4.142c-8.562,0-10.051-8.697-10.051-15.514H508.793    L508.793,256.303z"/>
		<path fill="#00286E" d="M553.344,228.175c7.899,0,13.774,2.107,13.774,11.141c0,7.468-4.143,10.126-13.937,10.126h-9.08v-21.267    H553.344L553.344,228.175z M538.623,275.692h5.479v-21.755h10.65c4.308,0,9.16,0,12.989-3.501    c1.872-1.712,4.757-5.599,4.757-11.518c0-4.815-1.797-8.876-5.14-11.592c-3.132-2.557-7.518-3.404-13.627-3.404h-15.109V275.692    L538.623,275.692z"/>
		<path fill="#00286E" d="M598.219,265.05c-1.556,1.801-7.159,7.137-11.898,7.137c-5.758,0-6.614-4.472-6.614-6.192    c0-4.153,2.884-6.976,6.69-8.557c3.727-1.566,7.776-1.639,11.822-1.639V265.05L598.219,265.05z M598.371,252.581    c-5.6,0-10.654,0-15.86,2.276c-2.568,1.094-8.051,4.311-8.051,11.534c0,1.245,0.466,4.466,2.706,6.891    c1.465,1.56,3.478,3.034,7.993,3.034c5.98,0,9.481-2.963,13.291-7.27c0.079-0.08,0.157-0.08,0.229-0.08    c0.079,0,0.161,0.08,0.239,0.08c0.076,0.239,0.076,0.319,0.076,0.867c0,1.294,0.937,4.31,3.035,5.549    c1.406,0.854,3.045,0.854,5.929,0.854v-4.242c-2.177,0-2.417,0-3.113-0.556c-0.48-0.4-1.251-1.255-1.251-3.371v-20.7    c0-2.038,0-5.291-3.663-8.018c-2.805-2.092-6.772-2.239-8.478-2.239c-4.516,0-7.472,0.696-13.603,3.631l2.174,4.914    c3.731-2.338,6.992-4.049,11.192-4.049c7.153,0,7.153,3.882,7.153,6.288V252.581L598.371,252.581z"/>
		<path fill="#00286E" d="M612.968,240.207l5.109-2.657v13.716c0,0.379,0.158,0.468,0.226,0.468c1.884,0,4.843-10.232,15.688-14.06    v8.717c-7.564,0-11.545,3.748-15.756,9.691v19.61h-5.268V240.207L612.968,240.207z"/>
		<polygon fill="#00286E" points="643.545,238.301 643.545,275.692 638.697,275.692 638.697,238.301 643.545,238.301   "/>
		<path fill="#00286E" d="M653.294,267.753c2.805,2.486,6.146,4.45,10.027,4.45c5.133,0,7.931-2.739,7.931-6.339    c0-2.58-1.712-4.606-4.039-5.638c-0.937-0.379-8.559-3.434-10.188-4.219c-1.248-0.545-5.294-2.583-5.294-8.28    c0-6.656,4.904-10.538,11.363-10.538c4.119,0,7.223,1.155,10.905,2.867l-1.643,4.618c-2.816-2.126-6.08-3.367-9.652-3.367    c-3.114,0-6.221,1.873-6.221,5.325c0,3.745,2.171,4.688,9.097,7.417c5.909,2.35,10.144,4.157,10.144,11.196    c0,7.507-5.716,10.926-12.55,10.926c-4.829,0-8.011-1.164-11.909-3.969L653.294,267.753L653.294,267.753z"/>
		<path fill="#00286E" d="M454.435,141.244l-18.63,72.254h-14.907l-19.728-72.254h12.962l10.905,46.964    c0.284,1.096,0.696,3.726,1.111,5.667c0.273,1.375,0.404,3.579,0.818,4.693c0.142,0.269,0.419,0.968,0.971,0.968h0.96    c0.556,0,0.83-0.699,0.975-1.111c0.552-1.383,0.685-4.005,0.96-5.521c0.28-1.656,0.695-3.316,0.971-4.825l10.627-46.835H454.435    L454.435,141.244z"/>
		<path fill="#00286E" d="M498.409,195.948c-3.754,3.755-10.139,10.308-18.193,10.308c-6.67,0-10.84-5.301-10.84-11.421    c0-12.833,13.754-18.692,29.033-18.831V195.948L498.409,195.948z M511.111,160.903c0-7.16-1.516-12.533-6.622-16.545    c-4.419-3.452-11.494-4.843-16.638-4.843c-11.665,0-18.194,3.457-27.131,8.299l5.356,9.234c6.217-3.854,13.724-7.579,20.938-7.579    c11.394,0,11.394,7.023,11.394,9.919v9.363c-11.949,0.134-23.061,2.188-30.957,7.949c-6.313,4.736-10.579,11.572-10.579,20.641    c0,9.329,7.284,17.662,17.505,17.662c6.526,0,11.951-0.676,20.277-7.784c0.695-0.549,3.754-3.751,4.588-4.296l0.412,0.265    c0.415,3.35,2.486,6.078,3.586,7.173c3.734,4.097,8.01,4.512,14.087,4.794v-9.729c-6.217,0.281-6.217-4.188-6.217-7.956V160.903    L511.111,160.903z"/>
		<path fill="#00286E" d="M519.375,147.249h10.452v-16.431l11.601-11.175h1.375v27.605h11.456v7.753h-12.214v43.011    c0,1.382,0,6.498,6.077,6.498c4.135,0,8.695-2.204,12.145-3.998v10.905c-3.73,2.08-9.94,3.586-14.075,3.586    c-3.32,0-16.601-1.094-16.601-15.468v-44.534h-10.216V147.249L519.375,147.249z"/>
		<path fill="#00286E" d="M593.283,149.745c1.779,0,3.572,0.284,5.219,0.971c3.31,1.385,6.333,4.441,7.983,9.139    c1.648,4.701,2.478,12.303,2.478,17.146c0,10.383-2.339,27.265-15.55,27.265c-14.303,0-16.23-20.472-16.23-26.02    C577.182,167.042,579.656,149.745,593.283,149.745L593.283,149.745z M564.978,176.039c0,12.451,2.354,22.278,7.76,29.055    c2.778,3.439,8.018,9.91,20.545,9.91c17.734,0,28.68-15.592,28.68-37.314c0-7.048-2.053-17.705-5.335-24.062    c-3.692-7.022-10.284-14.128-23.9-14.128C577.873,139.499,564.978,150.86,564.978,176.039L564.978,176.039z"/>
		<polygon fill="#00286E" points="634.788,141.244 647.242,141.244 647.242,213.508 634.788,213.508 634.788,141.244   "/>
		<path fill="#00286E" d="M664.802,143.954l11.519-4.703v22.959c0,0.83,0.278,1.659,0.689,1.659h1.52    c0.825-0.971,3.586-5.675,4.275-6.642c9.244-13.829,18.085-17.431,20.009-17.977v20.469c-1.512-0.28-3.031-0.41-4.548-0.41    c-8.564,0-15.602,5.806-20.707,12.848v41.352h-12.757V143.954L664.802,143.954z"/>
		<path fill="#00286E" d="M721.687,170.278c0.131-2.506,0.271-7.354,2.474-12.636c2.341-5.548,7.025-9.156,12.951-9.156    c9.779,0,14.463,9.293,14.463,21.792H721.687L721.687,170.278z M763.783,172.078c-0.414-17.763-9.604-32.562-26.944-32.562    c-6.486,0-28.277,3.032-28.277,39.909c0,22.534,11.738,35.813,28.41,35.813c13.088,0,18.716-4.993,23.383-9.149l-7.135-6.607    c-2.2,2.063-6.193,6.062-14.592,6.062c-12.814,0-17.498-10.728-17.357-26.813h42.644L763.783,172.078L763.783,172.078z"/>
		<path fill="#00286E" d="M641.34,110.896c8.841,0,16.011-7.167,16.011-16c0-8.838-7.17-16.01-16.011-16.01    c-8.837,0-16.007,7.172-16.007,16.01C625.333,103.729,632.503,110.896,641.34,110.896L641.34,110.896z"/>
		<polygon fill="#00286E" points="0,106.899 12.503,106.899 12.503,213.508 0,213.508 0,106.899   "/>
		<polygon fill="#00286E" points="36.635,107.225 48.197,107.225 30.311,151.494 18.946,151.494 36.635,107.225   "/>
		<path fill="#FFFFFF" d="M199.54,205.014c-10.628,0-17.2-13.4-17.2-27.484c0-23.818,11.75-29.033,16.644-29.033    c13.276,0,14.396,19.587,14.396,28.89C213.38,182.176,213.38,205.014,199.54,205.014L199.54,205.014z M170.372,211.241    l10.998,4.777l0.284-16.287c0-0.284,0.555-0.98,0.829-0.98c0.698,0,0.979,0.414,1.677,1.957    c1.956,4.44,6.993,14.561,18.036,14.561c20.498,0,23.692-27.303,23.692-37.882c0-25.501-9.864-38.886-23.552-38.886    c-7.833,0-11.604,4.163-13.838,6.807c-0.979,1.115-1.816,2.497-3.916,5.878l-1.401,0.13c-0.274-0.28-0.557-0.695-0.557-1.128    v-41.201l-12.251,4.73V211.241L170.372,211.241z"/>
		<path fill="#FFFFFF" d="M270.701,154.737c-5.469-3.95-9.26-6.754-16.556-6.754c-7.726,0-10.954,4.92-10.954,9.71    c0,5.48,4.348,8.288,8.848,10.549l11.792,5.911c4.075,1.966,13.592,6.756,13.592,19.271c0,13.096-10.082,22.083-24.124,22.083    c-10.664,0-17.171-4.151-21.485-6.922l4.869-9.534c6.932,5.627,11.138,7.469,17.041,7.469c8,0,12.496-5.492,12.496-11.553    c0-6.042-2.945-7.869-14.889-13.777c-13.405-6.616-18.397-12.243-18.397-21.95c0-12.805,10.116-20.227,21.767-20.227    c5.197,0,10.815,0.283,19.644,5.749L270.701,154.737L270.701,154.737z"/>
		<path fill="#FFFFFF" d="M297.119,169.75c0.14-2.549,0.274-7.507,2.537-12.895c2.394-5.671,7.191-9.361,13.256-9.361    c10.013,0,14.811,9.503,14.811,22.256H297.119L297.119,169.75z M339.975,171.568c-0.415-18.12-9.642-33.067-27.343-33.067    c-6.633,0-28.894,3.042-28.894,40.45c0,22.922,11.968,36.317,29.034,36.317c13.397,0,19.077-5.023,23.764-9.204l-7.163-6.697    c-2.216,2.092-6.307,6.138-14.907,6.138c-13.124,0-17.911-10.899-17.772-27.255h43.418L339.975,171.568L339.975,171.568z"/>
		<path fill="#FFFFFF" d="M350.725,143.016l11.751-4.772v23.266c0,0.851,0.282,1.688,0.692,1.688h1.543    c0.844-0.987,3.639-5.75,4.342-6.73c9.385-14.015,21.24-18.751,23.208-19.307l2.496,25.004c-1.535-0.28-8.477-3.589-10.02-3.589    c-8.682,0-15.822,5.885-21,13.03v41.903h-13.014V143.016L350.725,143.016z"/>
		<path fill="#FFFFFF" d="M79.956,78.724l-7.158,12.358c7.371-0.926,11.754-0.897,15.609-0.897c33.154,0,60.136,26.98,60.136,60.144    c0,33.146-26.999,61.247-60.136,60.128c-20.738-0.699-27.263-6.545-35.565-13.681l2.394,15.39    c10.378,6.484,17.657,10.295,33.171,10.295c39.769,0,72.139-32.361,72.139-72.132c0-39.779-32.37-72.138-72.139-72.138    c-5.61,0-6.404,0.254-8.767,0.581L79.956,78.724z"/>
	</g>
</g>
</svg>