<?xml version="1.0" standalone="no"?>
<!DOCTYPE svg PUBLIC "-//W3C//DTD SVG 20010904//EN"
 "http://www.w3.org/TR/2001/REC-SVG-20010904/DTD/svg10.dtd">
<svg version="1.0" xmlns="http://www.w3.org/2000/svg"
 width="700.000000pt" height="700.000000pt" viewBox="0 0 700.000000 700.000000"
 preserveAspectRatio="xMidYMid meet">
<metadata>
Created by potrace 1.11, written by Peter Selinger 2001-2013
</metadata>
<g transform="translate(0.000000,700.000000) scale(0.100000,-0.100000)"
fill="#000000" stroke="none">
<path d="M3157 6595 c-1 -1 -46 -5 -101 -9 -54 -3 -101 -8 -105 -10 -3 -2 -28
-7 -55 -10 -27 -4 -52 -9 -56 -11 -4 -2 -17 -6 -31 -8 -13 -3 -51 -12 -84 -21
-54 -15 -87 -26 -195 -66 -62 -24 -217 -107 -294 -159 -146 -99 -282 -226
-386 -362 l-58 -76 132 -132 132 -132 34 53 c178 279 479 475 851 555 128 27
439 25 571 -5 368 -81 655 -275 849 -572 l16 -25 127 130 c69 72 126 133 126
136 0 26 -201 251 -299 333 -201 169 -549 327 -796 362 -16 3 -40 7 -51 9 -38
8 -320 25 -327 20z"/>
<path d="M3058 5955 c-2 -2 -23 -6 -48 -10 -109 -16 -244 -54 -320 -91 -28
-13 -52 -24 -54 -24 -3 0 -33 -16 -68 -37 -126 -73 -279 -211 -337 -307 l-24
-38 131 -130 130 -130 16 29 c8 15 19 38 25 49 18 39 135 149 201 190 157 97
299 135 500 136 174 1 300 -27 441 -98 123 -61 235 -163 280 -256 13 -26 27
-48 30 -48 4 0 214 208 258 255 9 10 -94 138 -164 203 -151 141 -361 245 -585
289 -64 13 -403 27 -412 18z"/>
<path d="M3150 5323 c-62 -7 -146 -26 -157 -35 -7 -6 -13 -8 -13 -4 0 3 -23
-6 -52 -20 -243 -123 -382 -368 -364 -639 3 -51 15 -121 26 -156 54 -174 209
-340 380 -407 219 -86 467 -51 644 90 l50 39 143 -143 143 -142 -43 -45 c-23
-25 -45 -48 -48 -51 -11 -10 -87 -125 -103 -157 -27 -54 -55 -135 -70 -208
-20 -91 -15 -306 8 -390 31 -111 103 -245 176 -323 16 -18 30 -36 30 -40 0 -4
-62 -69 -137 -144 l-138 -138 -65 46 c-142 100 -316 168 -490 192 -62 8 -262
8 -335 0 -77 -9 -244 -58 -315 -93 -267 -131 -488 -379 -583 -658 -15 -43 -30
-95 -33 -115 -3 -20 -8 -40 -9 -43 -9 -13 -19 -162 -18 -254 1 -174 41 -336
120 -486 68 -129 113 -190 217 -292 186 -183 385 -283 641 -323 97 -15 330 -6
403 15 17 5 32 8 32 6 0 -9 180 59 245 93 147 77 299 210 407 356 283 381 283
933 0 1326 l-61 84 147 147 147 147 47 -24 c62 -31 144 -62 187 -69 19 -3 38
-8 43 -11 5 -3 58 -7 119 -8 96 -3 148 2 266 28 76 16 241 113 323 189 128
117 219 277 253 442 14 70 16 266 2 330 -24 117 -84 249 -150 335 -109 141
-287 266 -430 301 -22 5 -49 12 -60 14 -56 14 -100 18 -200 17 -120 0 -225
-22 -323 -67 -45 -21 -58 -23 -71 -13 -40 32 -301 300 -301 310 0 6 8 27 19
47 91 178 91 396 0 581 -58 116 -179 239 -290 293 -104 51 -257 81 -359 70z
m150 -300 c8 -3 21 -7 28 -9 27 -5 107 -59 141 -93 37 -38 71 -99 91 -163 12
-40 12 -163 -1 -188 -3 -8 -17 -38 -29 -67 -54 -124 -184 -202 -327 -196 -202
7 -344 154 -345 354 0 81 16 139 57 204 58 90 139 146 238 164 43 7 121 4 147
-6z m1332 -1309 c54 -17 133 -65 178 -106 48 -44 107 -141 122 -198 5 -19 11
-44 14 -55 6 -26 6 -143 -1 -174 -34 -170 -167 -313 -330 -355 -158 -42 -322
2 -435 114 -94 94 -138 209 -134 350 8 220 173 411 384 443 51 7 151 -2 202
-19z m-1622 -1568 c154 -21 336 -141 425 -281 68 -106 95 -194 100 -330 7
-192 -50 -340 -183 -473 -128 -129 -253 -182 -432 -183 -279 -2 -507 158 -596
417 -37 107 -43 278 -13 385 69 250 274 435 514 467 60 8 117 7 185 -2z"/>
</g>
</svg>
