<?xml version="1.0" encoding="UTF-8"?>
<svg xmlns="http://www.w3.org/2000/svg" xmlns:xlink="http://www.w3.org/1999/xlink" width="543pt" height="151pt" viewBox="0 0 543 151" version="1.1">
<g id="surface1">
<path fill="#1A171B" d="M 105.226562 111.867188 L 4.726562 111.867188 L 4.726562 95.972656 L 100.835938 95.972656 L 100.835938 72.023438 C 100.835938 72.023438 101.445312 66.273438 95.691406 66.273438 L 15.625 66.273438 C 15.625 66.273438 4.726562 65.820312 4.726562 50.082031 L 4.726562 15.152344 C 4.726562 15.152344 4.726562 3.648438 15.625 3.648438 L 116.277344 3.648438 L 116.277344 19.390625 L 20.011719 19.390625 L 20.011719 43.007812 C 20.011719 43.007812 19.710938 49.820312 25.160156 49.820312 L 105.226562 49.820312 C 105.226562 49.820312 116.277344 50.988281 116.277344 61.730469 L 116.277344 100.515625 C 116.277344 100.515625 117.03125 111.867188 105.226562 111.867188 "/>
<path fill="#1A171B" d="M 156.644531 111.71875 C 145.746094 111.71875 145.746094 103.960938 145.746094 103.960938 L 145.746094 18.746094 C 145.746094 18.746094 146.050781 3.648438 156.644531 3.648438 L 257.292969 3.648438 L 257.292969 19.390625 L 166.632812 19.390625 C 166.632812 19.390625 161.183594 19.085938 161.183594 25.746094 L 161.183594 49.472656 L 190.609375 49.472656 L 190.609375 65.820312 L 161.183594 65.820312 L 161.183594 90.070312 C 161.183594 90.070312 161.183594 95.824219 167.085938 95.824219 L 257.292969 95.824219 L 257.292969 111.71875 Z M 156.644531 111.71875 "/>
<path fill="#EC6500" d="M 285.027344 14.613281 C 285.027344 3.648438 292.828125 3.648438 292.828125 3.648438 L 384.042969 3.648438 C 384.042969 3.648438 399.234375 3.953125 399.234375 14.613281 L 399.234375 111.976562 L 383.394531 111.976562 L 383.394531 24.667969 C 383.394531 24.667969 383.699219 19.183594 377 19.183594 L 350.386719 19.183594 L 350.386719 111.976562 L 333.933594 111.976562 L 333.933594 19.183594 L 306.804688 19.183594 C 306.804688 19.183594 301.015625 19.183594 301.015625 25.125 L 301.015625 111.976562 L 285.027344 111.976562 Z M 285.027344 14.613281 "/>
<path fill="#1A171B" d="M 203.585938 90.035156 C 197.773438 90.035156 197.773438 85.898438 197.773438 85.898438 L 197.773438 57.566406 C 197.773438 57.566406 197.9375 49.507812 203.585938 49.507812 L 257.296875 49.507812 L 257.296875 57.90625 L 208.914062 57.90625 C 208.914062 57.90625 206.007812 57.742188 206.007812 61.304688 L 206.007812 65.394531 L 257.296875 65.394531 L 257.296875 74.117188 L 206.007812 74.117188 L 206.007812 78.488281 C 206.007812 78.488281 206.007812 81.554688 209.160156 81.554688 L 257.296875 81.554688 L 257.296875 90.035156 Z M 203.585938 90.035156 "/>
<path fill="#EC6500" d="M 531.457031 60.140625 C 531.457031 57.636719 528.871094 57.800781 528.871094 57.800781 L 490.515625 57.800781 C 488.253906 57.800781 488.410156 59.898438 488.410156 59.898438 L 488.410156 79.1875 C 488.410156 81.613281 491.082031 81.53125 491.082031 81.53125 L 528.871094 81.53125 C 531.457031 81.53125 531.457031 78.707031 531.457031 78.707031 Z M 533.71875 90.007812 L 485.992188 90.007812 C 485.992188 90.007812 480.179688 90.253906 480.179688 83.953125 L 480.179688 55.539062 C 480.179688 55.539062 480.09375 49.480469 485.992188 49.480469 L 533.71875 49.480469 C 533.71875 49.480469 539.617188 49.398438 539.617188 55.539062 L 539.617188 83.953125 C 539.617188 83.953125 539.617188 90.007812 533.71875 90.007812 "/>
<path fill="#EC6500" d="M 519.488281 95.824219 L 448.652344 95.824219 C 448.652344 95.824219 443.660156 95.972656 443.660156 91.433594 L 443.660156 23.171875 C 443.660156 23.171875 443.359375 19.238281 447.597656 19.238281 L 519.488281 19.238281 C 519.488281 19.238281 524.332031 18.933594 524.332031 23.625 L 524.332031 43.667969 L 539.621094 43.667969 L 539.621094 15.003906 C 539.621094 3.496094 528.570312 3.648438 528.570312 3.648438 L 439.121094 3.648438 C 428.070312 3.648438 428.222656 15.003906 428.222656 15.003906 L 428.222656 100.363281 C 428.222656 112.171875 439.121094 111.71875 439.121094 111.71875 L 528.570312 111.71875 C 539.621094 111.71875 539.621094 100.363281 539.621094 100.363281 L 539.621094 95.816406 Z M 519.488281 95.824219 "/>
<path fill="#1A171B" d="M 18.253906 146.867188 L 4.726562 146.867188 L 4.726562 144.730469 L 17.664062 144.730469 L 17.664062 141.019531 C 17.664062 141.019531 17.746094 140.25 16.972656 140.25 L 6.195312 140.25 C 6.195312 140.25 4.726562 140.1875 4.726562 138.066406 L 4.726562 133.851562 C 4.726562 133.851562 4.726562 132.300781 6.195312 132.300781 L 19.742188 132.300781 L 19.742188 134.421875 L 6.785156 134.421875 L 6.785156 137.148438 C 6.785156 137.148438 6.746094 138.066406 7.476562 138.066406 L 18.253906 138.066406 C 18.253906 138.066406 19.742188 138.1875 19.742188 139.636719 L 19.742188 145.339844 C 19.742188 145.339844 19.84375 146.867188 18.253906 146.867188 "/>
<path fill="#1A171B" d="M 30.042969 146.828125 C 28.574219 146.828125 28.574219 145.300781 28.574219 145.300781 L 28.574219 133.832031 C 28.574219 133.832031 28.617188 132.277344 30.042969 132.277344 L 43.589844 132.277344 L 43.589844 134.398438 L 31.386719 134.398438 C 31.386719 134.398438 30.652344 134.359375 30.652344 135.257812 L 30.652344 137.964844 L 43.589844 137.964844 L 43.589844 140.164062 L 30.652344 140.164062 L 30.652344 143.914062 C 30.652344 143.914062 30.652344 144.6875 31.449219 144.6875 L 43.589844 144.6875 L 43.589844 146.828125 Z M 30.042969 146.828125 "/>
<path fill="#1A171B" d="M 53.953125 146.828125 C 52.605469 146.828125 52.484375 145.300781 52.484375 145.300781 L 52.484375 133.832031 C 52.484375 132.320312 53.953125 132.277344 53.953125 132.277344 L 67.5 132.277344 L 67.5 134.398438 L 55.234375 134.398438 C 54.503906 134.398438 54.5625 135.050781 54.5625 135.050781 L 54.5625 143.953125 C 54.5625 144.6875 55.296875 144.6875 55.296875 144.6875 L 67.5 144.6875 L 67.5 146.828125 Z M 53.953125 146.828125 "/>
<path fill="#1A171B" d="M 89.839844 146.867188 L 77.78125 146.867188 C 76.292969 146.867188 76.292969 145.339844 76.292969 145.339844 L 76.292969 132.300781 L 78.371094 132.300781 L 78.371094 144.136719 C 78.371094 144.75 79.003906 144.730469 79.003906 144.730469 L 88.679688 144.730469 C 89.289062 144.730469 89.25 143.953125 89.25 143.953125 L 89.25 132.300781 L 91.328125 132.300781 L 91.328125 145.339844 C 91.328125 146.867188 89.839844 146.867188 89.839844 146.867188 "/>
<path fill="#1A171B" d="M 125.519531 146.828125 C 124.050781 146.828125 124.050781 145.300781 124.050781 145.300781 L 124.050781 133.832031 C 124.050781 133.832031 124.09375 132.277344 125.519531 132.277344 L 139.066406 132.277344 L 139.066406 134.398438 L 126.863281 134.398438 C 126.863281 134.398438 126.128906 134.359375 126.128906 135.257812 L 126.128906 137.964844 L 139.066406 137.964844 L 139.066406 140.164062 L 126.128906 140.164062 L 126.128906 143.914062 C 126.128906 143.914062 126.128906 144.6875 126.925781 144.6875 L 139.066406 144.6875 L 139.066406 146.828125 Z M 125.519531 146.828125 "/>
<path fill="#1A171B" d="M 184.144531 146.828125 L 184.144531 135.175781 C 184.144531 135.175781 184.164062 134.378906 183.613281 134.378906 L 180.195312 134.378906 C 180.195312 134.378906 179.621094 134.398438 179.621094 135.152344 L 179.621094 146.828125 L 177.421875 146.828125 L 177.421875 135.136719 C 177.421875 135.136719 177.441406 134.378906 176.789062 134.378906 L 173.835938 134.378906 C 173.835938 134.378906 173.269531 134.339844 173.269531 135.152344 L 173.269531 146.828125 L 171.125 146.828125 L 171.125 133.769531 C 171.125 133.769531 171.085938 132.300781 172.675781 132.277344 L 177.421875 132.277344 C 177.421875 132.277344 178.601562 132.277344 178.601562 133.769531 C 178.601562 133.769531 178.746094 132.277344 179.828125 132.277344 L 184.714844 132.277344 C 184.714844 132.277344 186.265625 132.179688 186.265625 133.769531 L 186.265625 146.828125 Z M 184.144531 146.828125 "/>
<path fill="#1A171B" d="M 208.09375 134.96875 C 208.09375 134.339844 207.441406 134.378906 207.441406 134.378906 L 197.765625 134.378906 C 197.195312 134.378906 197.238281 134.910156 197.238281 134.910156 L 197.238281 144.097656 C 197.238281 144.707031 197.90625 144.6875 197.90625 144.6875 L 207.441406 144.6875 C 208.09375 144.6875 208.09375 143.972656 208.09375 143.972656 Z M 208.664062 146.824219 L 196.625 146.824219 C 196.625 146.824219 195.15625 146.886719 195.15625 145.300781 L 195.15625 133.808594 C 195.15625 133.808594 195.136719 132.28125 196.625 132.28125 L 208.664062 132.28125 C 208.664062 132.28125 210.152344 132.261719 210.152344 133.808594 L 210.152344 145.300781 C 210.152344 145.300781 210.152344 146.824219 208.664062 146.824219 "/>
<path fill="#1A171B" d="M 232.492188 146.867188 L 221.859375 146.867188 L 221.859375 144.730469 L 230.84375 144.730469 C 230.84375 144.730469 231.839844 144.730469 231.902344 143.730469 L 231.902344 141.101562 C 231.902344 141.101562 231.902344 140.304688 230.679688 140.304688 L 221.941406 140.304688 L 221.941406 138.128906 L 230.722656 138.128906 C 230.722656 138.128906 231.902344 138.128906 231.902344 137.171875 L 231.902344 135.339844 C 231.902344 135.339844 231.902344 134.421875 230.84375 134.421875 L 221.820312 134.421875 C 221.820312 134.421875 221.023438 134.480469 221.023438 135.480469 L 221.023438 146.867188 L 218.945312 146.867188 L 218.945312 133.851562 C 218.945312 133.851562 218.988281 132.300781 220.433594 132.300781 L 232.492188 132.300781 C 232.492188 132.300781 233.980469 132.363281 233.980469 133.851562 L 233.980469 138.128906 C 233.980469 138.128906 233.859375 139.085938 232.492188 139.085938 C 232.492188 139.085938 233.980469 139.148438 233.980469 140.328125 L 233.980469 145.339844 C 233.980469 145.339844 233.980469 146.867188 232.492188 146.867188 "/>
<path fill="#1A171B" d="M 243.203125 132.277344 L 245.257812 132.277344 L 245.257812 146.824219 L 243.203125 146.824219 Z M 243.203125 132.277344 "/>
<path fill="#1A171B" d="M 256.011719 146.867188 C 254.523438 146.867188 254.523438 145.339844 254.523438 145.339844 L 254.523438 132.277344 L 256.605469 132.277344 L 256.605469 144.097656 C 256.605469 144.914062 257.4375 144.730469 257.4375 144.730469 L 266.992188 144.730469 L 266.992188 146.867188 Z M 256.011719 146.867188 "/>
<path fill="#1A171B" d="M 276.851562 146.828125 C 275.386719 146.828125 275.386719 145.300781 275.386719 145.300781 L 275.386719 133.832031 C 275.386719 133.832031 275.425781 132.277344 276.851562 132.277344 L 290.398438 132.277344 L 290.398438 134.398438 L 278.199219 134.398438 C 278.199219 134.398438 277.464844 134.359375 277.464844 135.257812 L 277.464844 137.964844 L 290.398438 137.964844 L 290.398438 140.164062 L 277.464844 140.164062 L 277.464844 143.914062 C 277.464844 143.914062 277.464844 144.6875 278.257812 144.6875 L 290.398438 144.6875 L 290.398438 146.828125 Z M 276.851562 146.828125 "/>
<path fill="#1A171B" d="M 335.8125 146.847656 L 334.289062 146.847656 L 324.367188 134.605469 L 324.367188 146.847656 L 322.289062 146.847656 L 322.289062 133.828125 C 322.289062 133.828125 322.289062 132.28125 323.757812 132.28125 L 325.261719 132.28125 L 335.222656 144.625 L 335.222656 132.28125 L 337.300781 132.28125 L 337.300781 145.316406 C 337.300781 145.316406 337.300781 146.847656 335.8125 146.847656 "/>
<path fill="#1A171B" d="M 347.644531 146.828125 C 346.175781 146.828125 346.175781 145.300781 346.175781 145.300781 L 346.175781 133.832031 C 346.175781 133.832031 346.21875 132.277344 347.644531 132.277344 L 361.191406 132.277344 L 361.191406 134.398438 L 348.988281 134.398438 C 348.988281 134.398438 348.253906 134.359375 348.253906 135.257812 L 348.253906 137.964844 L 361.191406 137.964844 L 361.191406 140.164062 L 348.253906 140.164062 L 348.253906 143.914062 C 348.253906 143.914062 348.253906 144.6875 349.046875 144.6875 L 361.191406 144.6875 L 361.191406 146.828125 Z M 347.644531 146.828125 "/>
<path fill="#1A171B" d="M 378.5625 134.378906 C 378.5625 134.378906 378.15625 134.421875 378.15625 134.867188 L 378.15625 146.867188 L 375.976562 146.867188 L 375.976562 134.769531 C 375.976562 134.769531 375.914062 134.378906 375.527344 134.378906 L 369.683594 134.378906 L 369.683594 132.300781 L 384.792969 132.300781 L 384.792969 134.378906 Z M 378.5625 134.378906 "/>
<path fill="#1A171B" d="M 406.910156 146.828125 L 401.796875 146.828125 C 400.984375 146.828125 400.824219 145.441406 400.824219 145.441406 C 400.824219 146.804688 399.621094 146.828125 399.621094 146.828125 L 394.875 146.828125 C 393.386719 146.828125 393.328125 145.339844 393.328125 145.339844 L 393.328125 132.300781 L 395.460938 132.300781 L 395.460938 144.179688 C 395.460938 144.6875 395.894531 144.75 395.894531 144.75 L 399.007812 144.75 C 399.640625 144.75 399.621094 144.179688 399.621094 144.179688 L 399.621094 132.300781 L 401.796875 132.300781 L 401.796875 144.179688 C 401.796875 144.75 402.328125 144.75 402.328125 144.75 L 405.789062 144.75 C 406.320312 144.75 406.320312 144.179688 406.320312 144.179688 L 406.320312 132.300781 L 408.460938 132.300781 L 408.460938 145.339844 C 408.460938 146.828125 406.910156 146.828125 406.910156 146.828125 "/>
<path fill="#1A171B" d="M 430.207031 134.96875 C 430.207031 134.339844 429.558594 134.378906 429.558594 134.378906 L 419.882812 134.378906 C 419.3125 134.378906 419.351562 134.910156 419.351562 134.910156 L 419.351562 144.097656 C 419.351562 144.707031 420.023438 144.6875 420.023438 144.6875 L 429.558594 144.6875 C 430.207031 144.6875 430.207031 143.972656 430.207031 143.972656 Z M 430.78125 146.824219 L 418.738281 146.824219 C 418.738281 146.824219 417.277344 146.886719 417.277344 145.300781 L 417.277344 133.808594 C 417.277344 133.808594 417.253906 132.28125 418.738281 132.28125 L 430.78125 132.28125 C 430.78125 132.28125 432.269531 132.261719 432.269531 133.808594 L 432.269531 145.300781 C 432.269531 145.300781 432.269531 146.824219 430.78125 146.824219 "/>
<path fill="#1A171B" d="M 489.25 132.277344 L 491.304688 132.277344 L 491.304688 146.824219 L 489.25 146.824219 Z M 489.25 132.277344 "/>
<path fill="#1A171B" d="M 514.121094 146.847656 L 512.589844 146.847656 L 502.667969 134.605469 L 502.667969 146.847656 L 500.59375 146.847656 L 500.59375 133.828125 C 500.59375 133.828125 500.59375 132.28125 502.058594 132.28125 L 503.5625 132.28125 L 513.527344 144.625 L 513.527344 132.28125 L 515.605469 132.28125 L 515.605469 145.316406 C 515.605469 145.316406 515.605469 146.847656 514.121094 146.847656 "/>
<path fill="#1A171B" d="M 539.617188 134.410156 L 527.5 134.398438 C 527.5 134.398438 526.660156 134.339844 526.660156 135.195312 L 526.660156 143.914062 C 526.660156 143.914062 526.640625 144.6875 527.535156 144.6875 L 536.761719 144.6875 C 536.761719 144.6875 537.542969 144.851562 537.542969 143.832031 L 537.542969 140.164062 L 532.648438 140.164062 L 532.648438 137.964844 L 539.617188 137.964844 L 539.617188 145.300781 C 539.617188 145.300781 539.679688 146.828125 538.132812 146.828125 L 526.070312 146.828125 C 526.070312 146.828125 524.585938 146.828125 524.585938 145.300781 L 524.585938 133.832031 C 524.585938 133.832031 524.625 132.277344 526.070312 132.277344 L 539.617188 132.277344 "/>
<path fill="#1A171B" d="M 113.9375 140.746094 L 103.628906 140.746094 L 103.628906 138.566406 L 112.570312 138.566406 C 112.570312 138.566406 113.34375 138.605469 113.34375 138.035156 L 113.34375 134.921875 C 113.34375 134.921875 113.386719 134.429688 112.632812 134.429688 L 102.464844 134.429688 L 102.464844 146.855469 L 100.390625 146.855469 L 100.390625 133.859375 C 100.390625 133.859375 100.429688 132.3125 101.875 132.3125 L 113.9375 132.3125 C 113.9375 132.3125 115.421875 132.375 115.421875 133.859375 L 115.421875 139.21875 C 115.421875 139.21875 115.464844 140.746094 113.9375 140.746094 "/>
<path fill="#1A171B" d="M 112.632812 140.746094 L 115.460938 146.867188 L 113.335938 146.867188 L 110.613281 140.746094 Z M 112.632812 140.746094 "/>
<path fill="#1A171B" d="M 454.566406 140.742188 L 444.257812 140.742188 L 444.257812 138.558594 L 453.199219 138.558594 C 453.199219 138.558594 453.972656 138.601562 453.972656 138.03125 L 453.972656 134.914062 C 453.972656 134.914062 454.015625 134.425781 453.257812 134.425781 L 443.09375 134.425781 L 443.09375 146.851562 L 441.019531 146.851562 L 441.019531 133.851562 C 441.019531 133.851562 441.058594 132.304688 442.503906 132.304688 L 454.566406 132.304688 C 454.566406 132.304688 456.050781 132.367188 456.050781 133.851562 L 456.050781 139.210938 C 456.050781 139.210938 456.089844 140.742188 454.566406 140.742188 "/>
<path fill="#1A171B" d="M 453.261719 140.742188 L 456.089844 146.859375 L 453.96875 146.859375 L 451.242188 140.742188 Z M 453.261719 140.742188 "/>
<path fill="#1A171B" d="M 465.40625 132.324219 L 467.488281 132.324219 L 467.488281 146.910156 L 465.40625 146.910156 Z M 465.40625 132.324219 "/>
<path fill="#1A171B" d="M 468.328125 138.285156 L 468.328125 140.472656 L 477.164062 146.945312 L 480.421875 146.945312 L 470.433594 139.257812 L 480.421875 132.210938 L 476.921875 132.210938 C 476.921875 132.210938 468.328125 137.636719 468.328125 138.285156 "/>
</g>
</svg>
