<?xml version="1.0" encoding="UTF-8"?>
<!-- Generator: Adobe Illustrator 27.2.0, SVG Export Plug-In . SVG Version: 6.00 Build 0)  -->
<svg version="1.1" id="Calque_1" xmlns="http://www.w3.org/2000/svg" xmlns:xlink="http://www.w3.org/1999/xlink" x="0px" y="0px" viewBox="0 0 365 82.1" style="enable-background:new 0 0 365 82.1;" xml:space="preserve">
<style type="text/css">
	.st0{fill:#0084CB;}
	.st1{fill:#24388D;}
</style>
<g>
	<g>
		<path class="st0" d="M4.9,33.1c2.1,3.1,4.6,4.7,7.7,4.7c3.3,0,5.6-1.8,5.6-4.6c0-2.5-1.5-3.3-4.6-4.9l-3.1-1.5    c-3.8-1.8-6.2-3.7-6.2-7.4c0-4.3,3.8-7.2,8.3-7.2c3.7,0,6.9,1.9,8.6,4.7l-2.4,1.8c-1.5-2.2-3.8-3.5-6.3-3.5c-2.7,0-4.9,1.5-4.9,4    c0,0.8,0.2,1.5,0.5,2c0.7,1,1.7,1.6,3.9,2.6l3.1,1.5c4.4,2.1,6.4,4.2,6.4,7.7c0,4.5-3.8,7.7-8.9,7.7c-4.3,0-8-2.3-10.2-5.9    L4.9,33.1z"/>
		<path class="st0" d="M36.3,28.9v11.4H33V28.9l-9.6-16.2h3.7l7.5,13l7.6-13h3.6L36.3,28.9z"/>
		<path class="st0" d="M67.4,40.4l-8.6-11.6H53v11.6h-3.2V12.8h9.7c5.3,0,8.8,3.3,8.8,8c0,3.7-2.2,6.6-5.8,7.7l8.8,12L67.4,40.4    L67.4,40.4z M52.9,25.9h6.3c3.6,0,5.6-2,5.6-5.1c0-3-2.1-5.1-5.6-5.1h-6.3V25.9z"/>
		<path class="st0" d="M79.7,15.7H70v-2.9h22.7v2.9h-9.7v24.7h-3.2V15.7z"/>
		<path class="st0" d="M95.6,12.8h17.7v2.9H98.9v8.4h11v2.9h-11v10.4h14.9v2.9H95.6L95.6,12.8L95.6,12.8z"/>
	</g>
	<g>
		<path class="st0" d="M52.8,74c0.8,1.3,1.8,2,2.9,2c1.3,0,2.1-0.8,2.1-1.9c0-1-0.6-1.4-1.8-2l-1.2-0.6c-1.4-0.8-2.4-1.6-2.4-3.1    c0-1.8,1.4-3,3.2-3c1.4,0,2.6,0.8,3.3,2l-0.9,0.8c-0.6-0.9-1.4-1.5-2.4-1.5c-1,0-1.9,0.6-1.9,1.7c0,0.3,0.1,0.6,0.2,0.8    c0.3,0.5,0.6,0.7,1.5,1.1l1.2,0.6c1.7,0.9,2.5,1.8,2.5,3.2c0,1.9-1.4,3.2-3.4,3.2c-1.6,0-3.1-1-3.9-2.5L52.8,74z"/>
		<path class="st0" d="M64.8,72.2V77h-1.2v-4.8l-3.7-6.8h1.4l2.9,5.5l2.9-5.5h1.4L64.8,72.2z"/>
		<path class="st0" d="M68.7,74.7c0.8,0.8,1.4,1.3,2.2,1.3c0.8,0,1.5-0.5,1.5-1.2c0-0.7-0.4-1-1.4-1.4l-0.8-0.3    c-1.3-0.6-1.9-1.2-1.9-2.4c0-1.5,1.1-2.4,2.6-2.4c1.1,0,2,0.5,2.6,1.4l-0.8,0.8c-0.5-0.6-1.2-1-1.9-1c-0.8,0-1.3,0.4-1.3,1.1    c0,0.5,0.3,0.8,1.3,1.2l0.7,0.3c1.4,0.7,2.1,1.4,2.1,2.5c0,0.8-0.3,1.4-0.8,1.9c-0.5,0.5-1.2,0.6-1.9,0.6c-1.3,0-2.3-0.7-3.1-1.7    L68.7,74.7z"/>
		<path class="st0" d="M79.6,77c-0.5,0.1-0.9,0.2-1.3,0.2c-1.6,0-2.6-0.9-2.6-2.8v-4.8h-1.3v-1.2h1.3v-2.3h1.2v2.3h2.4v1.2h-2.4v4.7    c0,1.2,0.6,1.6,1.6,1.6c0.3,0,0.6,0,1-0.1V77z"/>
		<path class="st0" d="M81.4,73.2c0.1,1.7,1.3,2.8,2.9,2.8c0.9,0,1.7-0.4,2.4-1.2l0.7,0.9c-0.8,0.9-1.9,1.5-3.1,1.5    c-2.3,0-4.1-1.9-4.1-4.5c0-2.5,1.8-4.5,4-4.5c2,0,3.6,1.6,3.6,3.9c0,0.3,0,0.7-0.1,1L81.4,73.2L81.4,73.2z M86.4,72    c0-1.5-1-2.5-2.3-2.5c-1.3,0-2.3,1-2.6,2.5H86.4z M81.7,63.5v-0.3h1.5l1.4,3.8h-0.9L81.7,63.5z"/>
		<path class="st0" d="M100.6,77h-1.2v-5.2c0-1.4-0.7-2.3-1.8-2.3c-1.2,0-2,1-2,2.2V77h-1.2v-5.2c0-1.4-0.7-2.3-1.9-2.3    c-1.2,0-2,1-2,2.3V77h-1.2v-8.6h1.2v0.9c0.6-0.7,1.4-1.1,2.3-1.1c1.1,0,1.9,0.5,2.4,1.5c0.6-0.9,1.5-1.5,2.7-1.5    c1.8,0,2.8,1.3,2.8,3.4L100.6,77L100.6,77z"/>
		<path class="st0" d="M103.3,73.2c0.1,1.7,1.3,2.8,2.9,2.8c0.9,0,1.7-0.4,2.4-1.2l0.7,0.9c-0.8,0.9-1.9,1.5-3.1,1.5    c-2.3,0-4.1-1.9-4.1-4.5c0-2.5,1.8-4.5,4-4.5c2,0,3.6,1.6,3.6,3.9c0,0.3,0,0.7-0.1,1L103.3,73.2L103.3,73.2z M108.3,72    c0-1.5-1-2.5-2.3-2.5c-1.3,0-2.3,1-2.6,2.5H108.3z"/>
		<path class="st0" d="M111.2,74.7c0.8,0.8,1.4,1.3,2.2,1.3c0.8,0,1.5-0.5,1.5-1.2c0-0.7-0.4-1-1.4-1.4l-0.8-0.3    c-1.3-0.6-1.9-1.2-1.9-2.4c0-1.5,1.1-2.4,2.6-2.4c1.1,0,2,0.5,2.6,1.4l-0.8,0.8c-0.5-0.6-1.2-1-1.9-1c-0.8,0-1.3,0.4-1.3,1.1    c0,0.5,0.3,0.8,1.3,1.2l0.7,0.3c1.4,0.7,2.1,1.4,2.1,2.5c0,0.8-0.3,1.4-0.8,1.9c-0.5,0.5-1.2,0.6-1.9,0.6c-1.3,0-2.3-0.7-3.1-1.7    L111.2,74.7z"/>
		<path class="st0" d="M129.1,63.8V77h-1.2v-1.4c-0.6,1-1.7,1.6-2.9,1.6c-2.2,0-3.8-1.9-3.8-4.5s1.7-4.5,3.8-4.5    c1.2,0,2.3,0.5,2.9,1.5v-5.9L129.1,63.8L129.1,63.8z M125.1,69.5c-1.6,0-2.8,1.4-2.8,3.2c0,1.8,1.2,3.2,2.8,3.2    c1.4,0,2.7-1,2.7-3.2C127.9,70.6,126.6,69.5,125.1,69.5z"/>
		<path class="st0" d="M131.9,73.2c0.1,1.7,1.3,2.8,2.9,2.8c0.9,0,1.7-0.4,2.4-1.2l0.7,0.9c-0.8,0.9-1.9,1.5-3.1,1.5    c-2.3,0-4.1-1.9-4.1-4.5c0-2.5,1.8-4.5,4-4.5c2,0,3.6,1.6,3.6,3.9c0,0.3,0,0.7-0.1,1L131.9,73.2L131.9,73.2z M136.9,72    c0-1.5-1-2.5-2.3-2.5s-2.3,1-2.6,2.5H136.9z"/>
		<path class="st0" d="M150.5,77l-3.3-4.9H145V77h-1.2V65.4h3.7c2,0,3.4,1.4,3.4,3.4c0,1.6-0.8,2.8-2.2,3.2l3.4,5.1H150.5z     M145,70.9h2.4c1.4,0,2.1-0.8,2.1-2.1c0-1.3-0.8-2.1-2.1-2.1H145V70.9z"/>
		<path class="st0" d="M153.5,73.2c0.1,1.7,1.3,2.8,2.9,2.8c0.9,0,1.7-0.4,2.4-1.2l0.7,0.9c-0.8,0.9-1.9,1.5-3.1,1.5    c-2.3,0-4.1-1.9-4.1-4.5c0-2.5,1.8-4.5,4-4.5c2,0,3.6,1.6,3.6,3.9c0,0.3,0,0.7-0.1,1L153.5,73.2L153.5,73.2z M158.4,72    c0-1.5-1-2.5-2.3-2.5s-2.3,1-2.6,2.5H158.4z M157,63.3h1.5v0.3l-1.9,3.5h-0.9L157,63.3z"/>
		<path class="st0" d="M162.7,68.5h1.9v1.2h-1.9V77h-1.2v-7.4h-1.1v-1.2h1.1v-2c0-1.9,1-2.8,2.6-2.8c0.3,0,0.7,0.1,1,0.1v1.2    c-0.3,0-0.5-0.1-0.7-0.1c-1,0-1.6,0.4-1.6,1.6L162.7,68.5L162.7,68.5z"/>
		<path class="st0" d="M166.2,73.2c0.1,1.7,1.3,2.8,2.9,2.8c0.9,0,1.7-0.4,2.4-1.2l0.7,0.9c-0.8,0.9-1.9,1.5-3.1,1.5    c-2.3,0-4.1-1.9-4.1-4.5c0-2.5,1.8-4.5,4-4.5c2,0,3.6,1.6,3.6,3.9c0,0.3,0,0.7-0.1,1L166.2,73.2L166.2,73.2z M171.2,72    c0-1.5-1-2.5-2.3-2.5s-2.3,1-2.6,2.5H171.2z M169.8,63.3h1.5v0.3l-1.9,3.5h-0.9L169.8,63.3z"/>
		<path class="st0" d="M178.2,69.6h-0.5c-1.3,0-2.5,0.9-2.5,2.5V77h-1.2v-8.6h1.2v1.2c0.6-0.8,1.5-1.3,2.4-1.3c0.2,0,0.4,0,0.6,0.1    V69.6z"/>
		<path class="st0" d="M179.8,73.2c0.1,1.7,1.3,2.8,2.9,2.8c0.9,0,1.7-0.4,2.4-1.2l0.7,0.9c-0.8,0.9-1.9,1.5-3.1,1.5    c-2.3,0-4.1-1.9-4.1-4.5c0-2.5,1.8-4.5,4-4.5c2,0,3.6,1.6,3.6,3.9c0,0.3,0,0.7-0.1,1L179.8,73.2L179.8,73.2z M184.8,72    c0-1.5-1-2.5-2.3-2.5c-1.3,0-2.3,1-2.6,2.5H184.8z"/>
		<path class="st0" d="M194.1,77h-1.2v-5.2c0-1.4-0.7-2.3-1.9-2.3s-2,1-2,2.3V77h-1.2v-8.6h1.2v0.9c0.6-0.7,1.4-1.1,2.4-1.1    c1.8,0,2.9,1.4,2.9,3.4V77z"/>
		<path class="st0" d="M199.6,68.3c1.4,0,2.5,0.7,3.2,1.9l-0.9,0.8c-0.6-0.9-1.4-1.4-2.3-1.4c-1.6,0-2.8,1.4-2.8,3.2    c0,1.8,1.2,3.2,2.8,3.2c0.9,0,1.7-0.5,2.3-1.4l0.9,0.8c-0.7,1.2-1.8,1.9-3.2,1.9c-2.3,0-4.1-2-4.1-4.5    C195.5,70.3,197.4,68.2,199.6,68.3z"/>
		<path class="st0" d="M204.9,73.2c0.1,1.7,1.3,2.8,2.9,2.8c0.9,0,1.7-0.4,2.4-1.2l0.7,0.9c-0.8,0.9-1.9,1.5-3.1,1.5    c-2.3,0-4.1-1.9-4.1-4.5c0-2.5,1.8-4.5,4-4.5c2,0,3.6,1.6,3.6,3.9c0,0.3,0,0.7-0.1,1L204.9,73.2L204.9,73.2z M209.9,72    c0-1.5-1-2.5-2.3-2.5s-2.3,1-2.6,2.5H209.9z"/>
		<path class="st0" d="M218.4,66.6h-3.7v-1.2h8.7v1.2h-3.7V77h-1.2V66.6z"/>
		<path class="st0" d="M224,73.2c0.1,1.7,1.3,2.8,2.9,2.8c0.9,0,1.7-0.4,2.4-1.2l0.7,0.9c-0.8,0.9-1.9,1.5-3.1,1.5    c-2.3,0-4.1-1.9-4.1-4.5c0-2.5,1.8-4.5,4-4.5c2,0,3.6,1.6,3.6,3.9c0,0.3,0,0.7-0.1,1L224,73.2L224,73.2z M229,72    c0-1.5-1-2.5-2.3-2.5s-2.3,1-2.6,2.5H229z"/>
		<path class="st0" d="M243.2,77h-1.2v-5.2c0-1.4-0.7-2.3-1.8-2.3c-1.2,0-2,1-2,2.2V77h-1.2v-5.2c0-1.4-0.7-2.3-1.9-2.3    c-1.2,0-2,1-2,2.3V77h-1.2v-8.6h1.2v0.9c0.6-0.7,1.4-1.1,2.3-1.1c1.1,0,1.9,0.5,2.4,1.5c0.6-0.9,1.5-1.5,2.7-1.5    c1.8,0,2.8,1.3,2.8,3.4L243.2,77L243.2,77z"/>
		<path class="st0" d="M249.3,77.2c-1.2,0-2.2-0.5-2.9-1.4v4.4h-1.2V68.5h1.2v1.4c0.6-1,1.7-1.6,2.9-1.6c2.2,0,3.8,1.9,3.8,4.5    S251.5,77.2,249.3,77.2z M249.1,69.5c-1.4,0-2.7,1-2.7,3.2c0,2.2,1.3,3.2,2.7,3.2c1.6,0,2.8-1.4,2.8-3.2S250.7,69.5,249.1,69.5z"/>
		<path class="st0" d="M254.7,74.7c0.8,0.8,1.4,1.3,2.2,1.3c0.8,0,1.5-0.5,1.5-1.2c0-0.7-0.4-1-1.4-1.4l-0.8-0.3    c-1.3-0.6-1.9-1.2-1.9-2.4c0-1.5,1.1-2.4,2.6-2.4c1.1,0,2,0.5,2.6,1.4l-0.8,0.8c-0.5-0.6-1.2-1-1.9-1c-0.8,0-1.3,0.4-1.3,1.1    c0,0.5,0.3,0.8,1.3,1.2l0.7,0.3c1.4,0.7,2.1,1.4,2.1,2.5c0,0.8-0.3,1.4-0.8,1.9c-0.5,0.5-1.2,0.6-1.9,0.6c-1.3,0-2.3-0.7-3.1-1.7    L254.7,74.7z"/>
		<path class="st0" d="M260.8,70.9h3.8v1.2h-3.8V70.9z"/>
		<path class="st0" d="M266.4,65.4h6.8v1.2h-5.5v3.6h4.2v1.2h-4.2v4.4h5.7v1.2h-7L266.4,65.4L266.4,65.4z"/>
		<path class="st0" d="M274.8,74.7c0.8,0.8,1.4,1.3,2.2,1.3c0.8,0,1.5-0.5,1.5-1.2c0-0.7-0.4-1-1.4-1.4l-0.8-0.3    c-1.3-0.6-1.9-1.2-1.9-2.4c0-1.5,1.1-2.4,2.6-2.4c1.1,0,2,0.5,2.6,1.4l-0.8,0.8c-0.5-0.6-1.2-1-1.9-1c-0.8,0-1.3,0.4-1.3,1.1    c0,0.5,0.3,0.8,1.3,1.2l0.7,0.3c1.4,0.7,2.1,1.4,2.1,2.5c0,0.8-0.3,1.4-0.8,1.9c-0.5,0.5-1.2,0.6-1.9,0.6c-1.3,0-2.3-0.7-3.1-1.7    L274.8,74.7z"/>
		<path class="st0" d="M285.5,77.2c-1.2,0-2.2-0.5-2.9-1.4v4.4h-1.2V68.5h1.2v1.4c0.6-1,1.7-1.6,2.9-1.6c2.2,0,3.8,1.9,3.8,4.5    S287.7,77.2,285.5,77.2z M285.4,69.5c-1.4,0-2.7,1-2.7,3.2c0,2.2,1.3,3.2,2.7,3.2c1.6,0,2.8-1.4,2.8-3.2    C288.1,70.9,286.9,69.5,285.4,69.5z"/>
		<path class="st0" d="M296.8,77h-1.2v-1.1c-0.6,0.8-1.5,1.3-2.6,1.3c-1.6,0-2.7-0.9-2.7-2.4c0-1.5,1.1-2.4,2.8-2.4h2.5v-0.7    c0-1.4-0.7-2.2-1.9-2.2c-0.9,0-1.6,0.5-2.3,1.4l-0.8-0.7c0.7-1.3,1.9-1.9,3.2-1.9c1.8,0,3.1,1.2,3.1,3.5V77z M295.6,73.5h-2.3    c-1.1,0-1.7,0.4-1.7,1.2c0,0.9,0.7,1.4,1.6,1.4c1.3,0,2.4-1,2.4-2.4V73.5z"/>
		<path class="st0" d="M302.3,68.3c1.4,0,2.5,0.7,3.2,1.9l-0.9,0.8c-0.6-0.9-1.4-1.4-2.3-1.4c-1.6,0-2.8,1.4-2.8,3.2    c0,1.8,1.2,3.2,2.8,3.2c0.9,0,1.7-0.5,2.3-1.4l0.9,0.8c-0.7,1.2-1.8,1.9-3.2,1.9c-2.3,0-4.1-2-4.1-4.5    C298.2,70.3,300.1,68.2,302.3,68.3z"/>
		<path class="st0" d="M307.6,73.2c0.1,1.7,1.3,2.8,2.9,2.8c0.9,0,1.7-0.4,2.4-1.2l0.7,0.9c-0.8,0.9-1.9,1.5-3.1,1.5    c-2.3,0-4.1-1.9-4.1-4.5c0-2.5,1.8-4.5,4-4.5c2,0,3.6,1.6,3.6,3.9c0,0.3,0,0.7-0.1,1L307.6,73.2L307.6,73.2z M312.6,72    c0-1.5-1-2.5-2.3-2.5c-1.3,0-2.3,1-2.6,2.5H312.6z"/>
	</g>
	<g>
		<polygon class="st1" points="334.9,13.3 347.8,26.2 347.9,26.2 335,13.2   "/>
		<rect x="334.9" y="27" class="st1" width="13" height="0.1"/>
		<path class="st1" d="M340.6,38c-0.2,0.8-0.3,1.6-0.3,2.4v0.3h0.1v-0.3c0-0.8,0.1-1.6,0.3-2.3"/>
		<path class="st1" d="M356.5,38.1c0.2,0.8,0.3,1.5,0.3,2.3c0,0.1,0,0.2,0,0.3h0.1v-0.3c0-0.8-0.1-1.6-0.3-2.3"/>
		<polygon class="st1" points="335,40.7 334.9,40.7 348.2,27.4 348.3,27.5   "/>
		<polygon class="st1" points="362.3,40.6 350.1,28.5 350.1,28.4 362.3,40.6   "/>
		<rect x="349.4" y="27" class="st1" width="13.1" height="0.1"/>
		<rect x="348.6" y="32.2" class="st1" width="0.1" height="8.6"/>
		<path class="st1" d="M335.1,13.4h27.2v27.2h-27.2V13.4z M334.9,40.8h27.6V13.2h-27.6V40.8z"/>
		<path class="st1" d="M348.7,13.5c-7.4,0.1-13.4,6.2-13.3,13.6c0.1,7.3,6,13.2,13.3,13.3c7.4-0.1,13.4-6.2,13.3-13.6    C361.9,19.5,356,13.6,348.7,13.5 M348.7,40.7c-7.5,0-13.7-6.1-13.7-13.7s6.1-13.7,13.7-13.7c7.5,0,13.7,6.1,13.7,13.7    c0,2.8-0.9,5.6-2.5,7.9C357.3,38.5,353.1,40.7,348.7,40.7"/>
		<path class="st1" d="M355.5,20.3c2,0,3.9,0.9,5.2,2.5h0.2c-2.3-2.9-6.6-3.5-9.5-1.2c0,0,0,0,0,0l0.1,0.1    C352.5,20.8,354,20.3,355.5,20.3"/>
		<path class="st1" d="M355.2,33.8h0.3c3.8,0,6.8-3.1,6.8-6.8c0-1.4-0.4-2.7-1.2-3.9l-0.1,0.1c2.1,3,1.4,7.2-1.7,9.3    c-1.1,0.8-2.5,1.2-3.8,1.2h-0.3"/>
		<path class="st1" d="M361.5,22.8h-0.7c0.1,0.1,0.2,0.2,0.2,0.3L361.5,22.8z"/>
		<path class="st1" d="M360.9,23.2l0.1-0.1c-0.1-0.1-0.1-0.2-0.2-0.3h-0.2C360.7,22.9,360.8,23.1,360.9,23.2"/>
		<path class="st1" d="M355.2,33.8c0-0.1,0-0.1,0-0.1L355.2,33.8z"/>
		<path class="st1" d="M356.3,37.1l-1.1-3.3c-0.6,0-1.3-0.1-1.9-0.4C354.6,34.3,355.7,35.6,356.3,37.1"/>
		<path class="st1" d="M351.6,22.8l-0.3-1c-2.9,2.3-3.3,6.5-1,9.4c1.2,1.5,3,2.4,4.9,2.5l-1.7-5.1l7.5-5.4c-0.1-0.1-0.2-0.3-0.3-0.4    H351.6z"/>
		<path class="st1" d="M348.6,32c1,0,2,0.2,2.9,0.5c-3.1-2.1-3.8-6.4-1.6-9.5c0.4-0.5,0.8-1,1.4-1.4l-2.6-8.2l-3,9.4h-9.8l7.9,5.8    l-2.9,8.5C342.3,34,345.3,32,348.6,32"/>
		<path class="st1" d="M356.6,37.9L356.6,37.9c-1.4-4.3-6-6.7-10.4-5.3c-2.6,0.8-4.6,2.8-5.4,5.4l-0.1-0.1l-0.1,0.2l8-5.8l8,5.9    L356.6,37.9z"/>
		<path class="st1" d="M340.7,37.8L340.7,37.8l0.3-0.7C340.9,37.3,340.8,37.6,340.7,37.8"/>
		<path class="st1" d="M356.6,37.9c-0.1-0.3-0.2-0.5-0.3-0.7L356.6,37.9L356.6,37.9z"/>
		<polygon class="st1" points="349.7,26 349.7,26 362.4,13.3 362.4,13.2   "/>
		<path class="st1" d="M272.7,16.1v10.2h6.2c3.6,0,5.4-2.1,5.4-5.1c0-2.9-1.8-5.1-5.4-5.1L272.7,16.1z M287.6,21.2    c0,4.7-3.3,8.1-8.6,8.1h-6.3v11.6h-3.2V13.2h9.5C284.3,13.2,287.6,16.5,287.6,21.2"/>
		<path class="st1" d="M308.1,17.4l-2.3,1.8c-1.4-2.2-3.7-3.5-6.2-3.5c-2.5,0-4.8,1.3-4.8,4c0,2.5,1.9,3.4,4.3,4.6l3,1.5    c3.9,1.9,6.3,4,6.3,7.7c0,4.6-3.7,7.7-8.7,7.7c-4.3,0-7.9-2.3-9.9-5.9l2.4-1.8c1.6,2.5,4,4.7,7.5,4.7c3.2,0,5.4-1.8,5.4-4.6    c0-2.5-1.8-3.6-4.5-4.9l-3-1.4c-3.1-1.6-6.1-3.5-6.1-7.4c0-4.4,3.8-7.2,8.1-7.2C303,12.7,306.3,14.5,308.1,17.4"/>
		<polygon class="st1" points="314.1,13.2 314.1,40.8 330,40.8 330,37.9 317.2,37.9 317.2,13.2   "/>
		<path class="st1" d="M128.7,16.7h1.8v15.5h-1.8L128.7,16.7z"/>
		<path class="st1" d="M134,16.7h1.7l-2.7,6.5h-1.6L134,16.7z"/>
		<path class="st1" d="M239.7,27.1h-6.3c0,2.4,0.7,4,2.5,4c0.8,0,1.6-0.3,2.1-0.9l1,1c-0.7,0.6-1.5,1.3-3.4,1.3    c-2.5,0-4.2-1.9-4.2-5.3c0-5.4,3.2-5.8,4.2-5.8c2.5,0,3.9,2.2,4,4.7L239.7,27.1z M237.9,25.9c0-1.8-0.7-3.2-2.1-3.2    c-0.9,0-1.6,0.5-1.9,1.3c-0.2,0.6-0.4,1.2-0.4,1.8L237.9,25.9z"/>
		<path class="st1" d="M194.8,21.6L192,32.2h-2.2l-2.9-10.6h1.9l1.6,6.9c0,0.2,0.1,0.5,0.2,0.8c0,0.2,0.1,0.5,0.1,0.7    c0,0.1,0.1,0.1,0.1,0.1h0.1c0.1,0,0.1-0.1,0.1-0.2c0.1-0.3,0.1-0.5,0.1-0.8c0.1-0.2,0.1-0.5,0.1-0.7l1.6-6.9L194.8,21.6z"/>
		<path class="st1" d="M203,29.9c0,0.5,0,1.2,0.9,1.2v1.4c-0.9,0-1.5-0.1-2.1-0.7c-0.3-0.3-0.5-0.6-0.5-1l-0.1-0.1    c-0.1,0.1-0.6,0.6-0.7,0.6c-1.2,1-2,1.2-3,1.2c-1.4,0-2.6-1.2-2.6-2.6l0,0c0-1.2,0.6-2.3,1.6-3c1.1-0.8,2.8-1.2,4.5-1.2v-1.4    c0-0.4,0-1.5-1.7-1.5c-1,0-2.1,0.5-3.1,1.1l-0.8-1.4c1.3-0.7,2.3-1.2,4-1.2c0.7,0,1.8,0.2,2.4,0.7c0.8,0.6,1,1.4,1,2.4L203,29.9    L203,29.9z M201.1,26.7c-2.2,0-4.2,0.9-4.2,2.7c0,0.9,0.6,1.7,1.6,1.7c1.2,0,2.1-1,2.7-1.5V26.7z"/>
		<path class="st1" d="M204.2,22.5h1.5v-2.4l1.7-1.6h0.2v4h1.7v1.2h-1.8v6.3c0,0.2,0,1,0.9,1c0.6,0,1.3-0.3,1.8-0.6v1.6    c-0.6,0.3-1.4,0.5-2.1,0.5c-0.5,0-2.4-0.2-2.4-2.3v-6.5h-1.5L204.2,22.5z"/>
		<path class="st1" d="M214.8,21.4c2,0,3,1,3.5,2.1c0.5,0.9,0.8,2.5,0.8,3.5c0,3.2-1.6,5.5-4.2,5.5c-1.8,0-2.6-1-3-1.5    c-0.8-1-1.1-2.4-1.1-4.3C210.7,23,212.6,21.4,214.8,21.4z M212.5,27.1c0,0.8,0.3,3.8,2.4,3.8c1.9,0,2.3-2.5,2.3-4    c0-0.8-0.1-1.7-0.4-2.5c-0.2-0.6-0.6-1.1-1.2-1.3c-0.3-0.1-0.5-0.1-0.8-0.1C212.8,22.9,212.5,25.4,212.5,27.1L212.5,27.1z"/>
		<path class="st1" d="M221,21.6h1.8v10.6H221V21.6z"/>
		<path class="st1" d="M225.2,22.1l1.7-0.7v3.4c0,0.2,0.2,0.4,0.5,0c0.2-0.3,0.4-0.7,0.5-0.8c1.4-2,2.7-2.5,2.9-2.6v3    c-0.2,0-0.5-0.1-0.7-0.1c-1.3,0-2.3,0.8-3,1.9v6h-1.9L225.2,22.1L225.2,22.1z"/>
		<path class="st1" d="M224.2,15c0,1.3-1,2.4-2.4,2.4c-1.3,0-2.4-1-2.4-2.4c0-1.3,1-2.4,2.4-2.4C223.2,12.6,224.2,13.7,224.2,15    L224.2,15z"/>
		<path class="st1" d="M222.5,34c0,0.3-0.3,0.6-0.6,0.6c-0.3,0-0.6-0.3-0.6-0.6c0-0.3,0.3-0.6,0.6-0.6S222.5,33.6,222.5,34L222.5,34    z"/>
		<path class="st1" d="M197.8,41l-0.7,0.4v-1c0,0,0-0.1,0-0.1c0,0,0,0-0.1,0c-0.1,0.1-0.1,0.2-0.2,0.3c-0.1,0.1-0.2,0.3-0.3,0.4    c-0.1,0.1-0.3,0.3-0.5,0.3c-0.2,0.1-0.4,0.1-0.6,0.1c-0.3,0-0.6-0.1-0.9-0.3c-0.3-0.2-0.5-0.4-0.6-0.6c-0.2-0.3-0.3-0.6-0.3-0.9    c-0.1-0.3-0.1-0.6-0.1-1s0-0.7,0.1-1c0.1-0.3,0.1-0.6,0.3-1c0.1-0.3,0.3-0.5,0.6-0.7c0.3-0.2,0.6-0.3,1-0.3c0.2,0,0.5,0.1,0.6,0.1    c0.2,0.1,0.3,0.2,0.5,0.3c0.1,0.1,0.2,0.2,0.3,0.4l0.1,0.2c0,0,0,0,0.1,0s0,0,0.1,0c0,0,0,0,0-0.1v-3.1l0.8-0.4V41z M195.5,40.7    c0.3,0,0.5-0.1,0.7-0.2c0.2-0.1,0.4-0.3,0.5-0.5c0.1-0.2,0.2-0.5,0.3-0.7c0.1-0.3,0.1-0.5,0.1-0.8c0-0.3,0-0.6-0.1-0.9    c-0.1-0.3-0.2-0.5-0.3-0.7c-0.1-0.2-0.3-0.3-0.5-0.5c-0.2-0.1-0.4-0.2-0.6-0.2c-0.3,0-0.5,0.1-0.7,0.3c-0.2,0.2-0.3,0.4-0.4,0.6    c-0.1,0.2-0.2,0.5-0.2,0.7c0,0.2-0.1,0.4-0.1,0.6c0,0.3,0,0.7,0.1,1c0.1,0.3,0.1,0.5,0.3,0.7c0.1,0.2,0.3,0.3,0.4,0.4    C195.1,40.7,195.3,40.7,195.5,40.7z"/>
		<path class="st1" d="M199.3,38.4c0,0.3,0,0.5,0.1,0.8c0,0.3,0.1,0.5,0.2,0.7c0.1,0.2,0.3,0.4,0.5,0.5c0.2,0.1,0.5,0.2,0.8,0.2    c0.2,0,0.5-0.1,0.7-0.2c0.2-0.1,0.4-0.3,0.5-0.5l0.5,0.4c-0.2,0.3-0.5,0.5-0.8,0.6c-0.3,0.1-0.6,0.2-1,0.2c-0.3,0-0.7-0.1-1-0.2    c-0.3-0.1-0.5-0.4-0.7-0.6c-0.2-0.3-0.3-0.6-0.4-0.9s-0.1-0.6-0.1-1s0-0.7,0.1-1c0.1-0.4,0.2-0.7,0.4-1c0.2-0.3,0.5-0.6,0.8-0.7    c0.3-0.1,0.6-0.2,0.9-0.2c0.3,0,0.7,0.1,1,0.3c0.3,0.2,0.5,0.4,0.6,0.6c0.1,0.3,0.2,0.6,0.3,0.9c0.1,0.3,0.1,0.7,0.1,1L199.3,38.4    z M201.9,37.9v-0.2c0-0.1,0-0.2,0-0.3c0-0.1,0-0.2-0.1-0.3c0-0.1-0.1-0.2-0.1-0.3c-0.1-0.2-0.3-0.3-0.5-0.4    c-0.2-0.1-0.3-0.1-0.5-0.1c-0.3,0-0.6,0.1-0.9,0.4c-0.3,0.3-0.4,0.7-0.5,1.2H201.9z"/>
		<path class="st1" d="M206.9,33.7h2.2c0.4,0,0.8,0,1.2,0.1c0.3,0.1,0.6,0.2,0.8,0.4c0.5,0.4,0.8,1,0.8,1.7c0,0.2,0,0.4-0.1,0.6    c0,0.2-0.1,0.3-0.2,0.5c-0.1,0.1-0.1,0.3-0.2,0.4c-0.1,0.1-0.1,0.2-0.2,0.3c-0.1,0.1-0.3,0.2-0.5,0.3c-0.1,0.1-0.3,0.1-0.5,0.1    c-0.2,0-0.3,0.1-0.5,0.1h-2v3.2h-0.8L206.9,33.7z M207.7,34.3v3.1h1.3c0.7,0,1.2-0.1,1.6-0.3c0.3-0.2,0.5-0.6,0.5-1.2    c0-0.3-0.1-0.6-0.1-0.8c-0.1-0.2-0.3-0.4-0.4-0.5c-0.2-0.1-0.4-0.2-0.6-0.3c-0.3-0.1-0.5-0.1-0.8-0.1L207.7,34.3L207.7,34.3z"/>
		<path class="st1" d="M215.6,37.2c0-0.1,0-0.2,0-0.3c0-0.1-0.1-0.2-0.1-0.3c-0.1-0.1-0.2-0.2-0.3-0.2c-0.2-0.1-0.4-0.1-0.6-0.1    c-0.3,0-0.6,0.1-0.8,0.2c-0.3,0.1-0.5,0.3-0.8,0.4l-0.3-0.7c0.2-0.1,0.4-0.2,0.6-0.3c0.2-0.1,0.3-0.1,0.5-0.2    c0.1,0,0.3-0.1,0.5-0.1c0.2,0,0.3,0,0.5,0h0.2c0.1,0,0.2,0,0.3,0c0.1,0,0.2,0.1,0.3,0.1c0.1,0.1,0.2,0.1,0.3,0.2    c0.1,0.1,0.2,0.2,0.3,0.3c0.1,0.1,0.1,0.2,0.2,0.3c0,0.1,0.1,0.2,0.1,0.3c0,0.1,0,0.2,0,0.3v3.1c0,0.1,0,0.2,0.1,0.3    c0,0.1,0.1,0.1,0.1,0.1c0.1,0,0.1,0.1,0.1,0.1c0.1,0,0.2,0,0.3,0v0.6c-0.2,0-0.4,0-0.5,0c-0.1,0-0.3-0.1-0.4-0.1    c-0.1-0.1-0.1-0.1-0.2-0.2c-0.1-0.1-0.1-0.1-0.1-0.2c0-0.1-0.1-0.1-0.1-0.2c0-0.1,0-0.1,0-0.2c0,0,0-0.1,0-0.1c0,0,0,0,0,0    c0,0,0,0,0,0h0c-0.1,0.1-0.3,0.3-0.4,0.4s-0.3,0.2-0.5,0.3c-0.2,0.1-0.3,0.2-0.5,0.2c-0.2,0.1-0.4,0.1-0.6,0.1    c-0.3,0-0.5,0-0.8-0.1c-0.2-0.1-0.3-0.2-0.4-0.3c-0.1-0.1-0.1-0.2-0.2-0.3c-0.1-0.1-0.1-0.2-0.1-0.3c0-0.1-0.1-0.2-0.1-0.3    c0-0.1,0-0.1,0-0.2c0-0.2,0-0.5,0.1-0.7c0.1-0.2,0.2-0.3,0.3-0.5c0.1-0.1,0.3-0.2,0.4-0.3c0.1-0.1,0.2-0.1,0.3-0.2    c0.4-0.2,0.8-0.3,1.2-0.3c0.4,0,0.8,0,1.2,0L215.6,37.2z M215.6,38.4c-0.3,0-0.6,0-0.9,0c-0.3,0-0.6,0.1-0.8,0.2    c-0.3,0.1-0.5,0.3-0.7,0.5c-0.2,0.2-0.3,0.5-0.3,0.8c0,0.1,0,0.2,0,0.3c0,0.1,0.1,0.2,0.1,0.3c0.1,0.1,0.2,0.2,0.3,0.3    c0.2,0.1,0.3,0.1,0.5,0.1c0.2,0,0.4-0.1,0.5-0.1c0.2-0.1,0.4-0.2,0.5-0.3c0.1-0.1,0.3-0.2,0.4-0.3c0.1-0.1,0.2-0.2,0.3-0.3V38.4z"/>
		<path class="st1" d="M217.7,36.1l0.7-0.4v2c0,0.1,0,0.1,0,0.1c0.1,0,0.1-0.1,0.3-0.2c0.1-0.2,0.2-0.4,0.4-0.6    c0.2-0.3,0.4-0.5,0.6-0.7c0.3-0.3,0.6-0.4,1-0.6V37c-0.3,0-0.5,0-0.7,0.1c-0.2,0.1-0.4,0.2-0.6,0.3c-0.2,0.1-0.4,0.3-0.5,0.5    c-0.2,0.2-0.3,0.4-0.5,0.6v2.9h-0.8L217.7,36.1z"/>
		<path class="st1" d="M222.3,35.8v5.5h-0.7v-5.5H222.3z"/>
		<path class="st1" d="M223.7,40.1c0.2,0.2,0.4,0.3,0.7,0.5c0.3,0.1,0.5,0.2,0.8,0.2c0.3,0,0.6-0.1,0.9-0.3c0.2-0.2,0.3-0.4,0.3-0.7    c0-0.2-0.1-0.4-0.2-0.5c-0.1-0.1-0.3-0.3-0.4-0.3l-0.3-0.1c-0.1-0.1-0.3-0.1-0.5-0.2l-0.5-0.2c-0.1-0.1-0.3-0.1-0.3-0.1l-0.2-0.1    c-0.1-0.1-0.2-0.1-0.3-0.2c-0.1-0.1-0.2-0.2-0.2-0.4c-0.1-0.2-0.1-0.3-0.1-0.5c0-0.2,0-0.5,0.1-0.6c0.1-0.2,0.2-0.3,0.3-0.5    c0.1-0.1,0.3-0.3,0.5-0.3c0.2-0.1,0.4-0.1,0.6-0.1c0.3,0,0.6,0,0.8,0.1s0.5,0.2,0.8,0.3l-0.2,0.7c-0.2-0.1-0.4-0.3-0.7-0.4    c-0.3-0.1-0.5-0.1-0.8-0.1c-0.2,0-0.5,0.1-0.6,0.2c-0.2,0.1-0.3,0.3-0.3,0.6c0,0.2,0.1,0.5,0.3,0.6c0.1,0.1,0.3,0.2,0.4,0.2    c0.2,0.1,0.4,0.2,0.6,0.3c0.2,0.1,0.4,0.2,0.6,0.3c0.2,0.1,0.3,0.2,0.5,0.3c0.1,0.1,0.2,0.3,0.3,0.4c0.1,0.2,0.1,0.4,0.1,0.6    c0,0.3-0.1,0.5-0.1,0.7c-0.1,0.2-0.2,0.4-0.4,0.5c-0.2,0.1-0.4,0.2-0.6,0.3s-0.5,0.1-0.7,0.1c-0.3,0-0.6,0-0.9-0.1    c-0.3-0.1-0.6-0.3-0.8-0.5L223.7,40.1z"/>
		<rect x="252.9" y="13.2" class="st1" width="1.2" height="27.6"/>
		<g>
			<path class="st1" d="M150.2,23c0-5.6-5-9.4-9.9-8.7c-2.1,3.7-3.2,8-3.2,12.3c0,1.3,0.1,2.6,0.3,3.9     C141.7,33.9,150.2,30.6,150.2,23z"/>
			<path class="st1" d="M160.3,26.9c0-2.1-0.5-4.1-2.1-4.1c-1.2,0-2.4,1.5-2.4,4.1c0,2.2,1,4.1,2.5,4.1     C159.7,31,160.3,29.3,160.3,26.9z"/>
			<path class="st1" d="M183.8,24.6c-0.7,0.3-1.4,1.2-1.7,1.6v6h-1.9V22.1c0.5-0.2,1.2-0.5,1.7-0.7v3.4c0,0.2,0.2,0.4,0.5,0     c0.4-0.6,1.6-2.8,3.5-3.4C183.1,8,169.9-0.5,156.6,2.4c-6.1,1.3-11.5,4.9-15,10c5.8,0,10.5,4.7,10.5,10.5     c0,7.7-7.8,12.4-14.1,9.9c3.5,13.2,17,21.1,30.2,17.6c10.9-2.9,18.4-12.7,18.4-23.9c0-0.6,0-1.3-0.1-1.9     C185.2,23.9,184.3,24.4,183.8,24.6L183.8,24.6z M162.1,26.7c0,3.4-1.2,5.7-3.2,5.7c-2.3,0.1-2.7-2.2-3-2.3c-0.1,0-0.2,0-0.2,0.2     c0,0.5,0,2-0.1,2.3c-0.2-0.1-1.2-0.5-1.6-0.7V17.8c0.4-0.1,1.4-0.5,1.8-0.7V23c0,0,0.3,0.3,0.4,0.1c0.8-1.6,2.1-2,3.6-1.5     C161,22.1,162.1,23.9,162.1,26.7L162.1,26.7z M169.5,30.3c-0.5,1.6-1.9,2.1-3.1,2.2c-1.8,0.1-3.1-0.8-3.3-1     c0.1-0.2,0.5-1,0.7-1.4c0.4,0.3,0.8,0.6,1.3,0.8c1.4,0.6,2.7,0,2.9-0.8c0.3-1,0-1.4-0.7-1.9c-0.9-0.5-2.3-1.1-3.1-1.9     c-1.1-1-0.9-2.4-0.6-3.1c0.5-1.1,1.5-1.8,2.6-1.9c1.1-0.1,2.2,0.2,3.1,0.8c-0.1,0.5-0.3,1-0.5,1.5c-0.7-0.5-1.2-0.8-2-0.9     c-0.8-0.1-1.6,0.1-1.9,0.8c-0.3,0.8,0.1,1.5,0.7,1.8c0.5,0.3,1.9,1,2.2,1.1C170,27.6,169.7,29.7,169.5,30.3L169.5,30.3z      M174.8,31.1c1.2,0.1,1.8-0.4,2.3-0.9c0.3,0.3,0.6,0.6,1,1c-0.6,0.5-1.4,1.3-3.4,1.3c-1.6,0-3-0.9-3.6-2.3     c-0.6-1.4-0.6-2.6-0.6-3.4c0.1-3.2,1.6-5.4,4.2-5.4c2.3,0,3.8,2.1,3.9,4.7c0,0.7,0,0.5,0,1h-6.3C172.5,30.5,173.8,31,174.8,31.1     L174.8,31.1z"/>
			<path class="st1" d="M176.9,25.9c0-1.8-0.7-3.2-2.1-3.2c-1.6,0-2.2,1.4-2.3,3.2H176.9z"/>
		</g>
	</g>
</g>
</svg>