<?xml version="1.0" encoding="UTF-8" standalone="no"?>
<svg xmlns:rdf="http://www.w3.org/1999/02/22-rdf-syntax-ns#" xmlns="http://www.w3.org/2000/svg" height="328" width="536" version="1.1" xmlns:cc="http://creativecommons.org/ns#" xmlns:xlink="http://www.w3.org/1999/xlink" viewBox="0 0 536 328" xmlns:dc="http://purl.org/dc/elements/1.1/">
<defs>
<radialGradient id="c" xlink:href="#a" gradientUnits="userSpaceOnUse" cy="968.8" cx="1064" gradientTransform="matrix(1 0 0 .8058 0 188.2)" r="5.869"/>
<linearGradient id="a">
<stop style="stop-color:#49b6ad" offset="0"/>
<stop style="stop-color:#366a5d" offset=".1882"/>
<stop style="stop-color:#231e0e" offset="1"/>
</linearGradient>
<radialGradient id="d" xlink:href="#a" gradientUnits="userSpaceOnUse" cy="968.8" cx="1111" gradientTransform="matrix(1 0 0 .8058 0 188.2)" r="5.869"/>
<linearGradient id="e" y2="1202" xlink:href="#b" gradientUnits="userSpaceOnUse" x2="1113" y1="967.7" x1="1113"/>
<linearGradient id="b">
<stop style="stop-color:#0ff" offset="0"/>
<stop style="stop-color:#0ff;stop-opacity:0" offset="1"/>
</linearGradient>
<linearGradient id="f" y2="1186" xlink:href="#b" gradientUnits="userSpaceOnUse" x2="1066" y1="969.3" x1="1066"/>
</defs>
<g transform="translate(0 -724.4)">
<text y="1020.5294" x="357.49631" style="font-size:35.27px;font-weight:bold;fill:#969594;font-family:Harabara;fill-rule:evenodd" class="fil4 fnt0"/>
<text y="1020.5294" x="479.72595" style="font-size:35.27px;font-weight:bold;fill:#969594;font-family:Harabara;fill-rule:evenodd" class="fil4 fnt0"/>
<text y="1020.5294" x="525.26593" style="font-size:35.27px;font-weight:bold;fill:#969594;font-family:Harabara;fill-rule:evenodd" class="fil4 fnt0"/>
<text y="1020.5294" x="654.18103" style="font-size:35.27px;font-weight:bold;fill:#969594;font-family:Harabara;fill-rule:evenodd" class="fil4 fnt0"/>
<text y="1020.5294" x="909.30902" style="font-size:35.27px;font-weight:bold;fill:#969594;font-family:Harabara;fill-rule:evenodd" class="fil4 fnt0"/>
<text y="1020.5294" x="1059.0309" style="font-size:35.27px;font-weight:bold;fill:#969594;font-family:Harabara;fill-rule:evenodd" class="fil4 fnt0"/>
<text y="1020.5294" x="1335.8665" style="font-size:35.27px;font-weight:bold;fill:#969594;font-family:Harabara;fill-rule:evenodd" class="fil4 fnt0"/>
<g transform="matrix(.8524 0 0 .8524 39.21 122.9)">
<g transform="translate(35.91 -.4168)">
<g transform="matrix(1.173 0 0 1.173 109.6 -255.2)">
<path style="fill:#231e0e" d="m320.3 203.1a141.9 141.9 0 0 1 200.3 5.52 141.9 141.9 0 0 1 -4.87 200.3 141.9 141.9 0 0 1 -200.3 -4.221 141.9 141.9 0 0 1 3.571 -200.4" transform="matrix(.7358 0 0 .7358 -205.7 781)"/>
<g transform="matrix(.7071 -.7071 .7071 .7071 -1433 1026)">
<path d="m1031 896.2c-4.503 13.5-4.4 33.21 1.698 47.51-7.42 16.24-11.92 33.44-14.07 47.75 12.39 9.423 31.01 12.57 42.22 13.29 2.567 4.015 8.646 8.032 13.22 8.876 4.996 0.9229 9.188 1.273 13.46 1.164 4.272 0.109 8.464-0.2412 13.46-1.164 4.571-0.8443 10.65-4.861 13.22-8.876 11.21-0.7155 29.86-3.866 42.25-13.29-1.874-17.32-6.728-34.91-14.09-47.73 6.109-14.3 6.203-34.03 1.698-47.53-11.99 2.221-22.55 9.93-27.74 17.05-8.333-4.815-17.88-7.688-28.04-7.688-0.5043-0.0143-0.9962 0-1.504 0-10.15 0-19.68 2.874-28.01 7.688-5.196-7.121-15.78-14.83-27.77-17.05z" style="stroke:#231e0e;stroke-width:6.985;fill:#5b584a"/>
<path style="fill:#ece7da" d="m1039 972.1c-6.957-0.0519-12.75 6.872-16.54 17.75v0.0239c0.7104 0.4476 1.422 0.8715 2.134 1.285 0.6218 0.3613 1.244 0.7064 1.867 1.043 0.153 0.0818 0.3072 0.1619 0.4608 0.2426 0.3244 0.1717 0.6452 0.344 0.9701 0.5093 0.4422 0.2217 0.8855 0.4435 1.334 0.6548 0.1135 0.0542 0.2259 0.1159 0.3395 0.1698 9.961 4.719 20.3 6.585 31.99 7.494 0.4346 0.038 0.8711 0.086 1.31 0.1214 2.97 4.796 6.79 7.21 10.96 8.464 0.049 0.017 0.097 0.032 0.1456 0.049 0.2569 0.075 0.5164 0.1513 0.776 0.2182 4.282 1.255 8.723 1.28 12.85 1.188 4.13 0.091 8.572 0.066 12.85-1.188 0.3089-0.08 0.6163-0.1751 0.9216-0.2668 4.172-1.254 7.992-3.668 10.96-8.464 0.4095-0.033 0.8063-0.085 1.212-0.1213 11.73-0.9064 22.1-2.762 32.08-7.494 0.185-0.0874 0.3731-0.1771 0.5578-0.2668 0.6135-0.2921 1.217-0.6097 1.819-0.9215 0.1364-0.0717 0.2759-0.1457 0.4123-0.2183 0.1056-0.0561 0.2099-0.1133 0.3153-0.1698 0.6237-0.3364 1.246-0.6815 1.867-1.043 0.7123-0.4138 1.424-0.8376 2.134-1.285v-0.0239c-4.669-13.39-12.36-20.8-21.54-16.56-3.834 10.06-11.27 16.17-23.23 17.36-3.754-8.391-7.437-15.43-20.37-15.43-12.94 0-16.62 7.04-20.37 15.43-11.96-1.195-19.4-7.303-23.23-17.36-1.722-0.795-3.389-1.176-4.996-1.188z"/>
<path d="m1059 964.1c-0.7409 0.9872-1.188 2.212-1.188 3.541 0 3.264 2.654 5.918 5.917 5.918 2.974 0 5.408-2.209 5.82-5.069l-10.55-4.39z" style="fill:#0ff"/>
<path d="m1115 964.1c0.7408 0.9872 1.188 2.212 1.188 3.541 0 3.264-2.654 5.918-5.918 5.918-2.974 0-5.407-2.209-5.82-5.069l10.55-4.39z" style="fill:#0ff"/>
<path style="fill:#231e0e" d="m1075 979c1.596-5.968 23.76-6.541 26.04 0 1.951 5.602-7.072 12.83-13.02 12.85-5.418 0.0147-14.62-6.846-13.02-12.85z"/>
<path d="m1035 908.4c6.412 4.145 12.65 8.538 16.61 16-6.001 5.625-9.926 10.29-13.62 17.84-5.935-15.33-5.449-25.48-2.987-33.84z" style="fill:#949389"/>
<path style="fill:#949389" d="m1139 908.4c-6.411 4.145-12.65 8.538-16.61 16 6.001 5.625 9.926 10.29 13.62 17.84 5.935-15.33 5.449-25.48 2.987-33.84z"/>
<path d="m1103 939.1c4.702-2.341 15.86 3.273 20.58 9.138 2.38 4.134 2.533 8.022 1.596 11.79l-28.55 11.64c5.977-8.545 7.786-19.59 6.375-32.57z" style="opacity:.4650;fill:#949389"/>
<path style="opacity:.4650;fill:#949389" d="m1072 939.1c-4.702-2.341-15.86 3.273-20.58 9.138-2.38 4.134-2.533 8.022-1.596 11.79l28.55 11.64c-5.976-8.545-7.786-19.59-6.375-32.57z"/>
</g>
<g transform="matrix(-.7071 -.7071 -.7071 .7071 1643 1026)">
<path style="stroke:#231e0e;stroke-width:6.985;fill:#5b584a" d="m1031 896.2c-4.503 13.5-4.4 33.21 1.698 47.51-7.42 16.24-11.92 33.44-14.07 47.75 12.39 9.423 31.01 12.57 42.22 13.29 2.567 4.015 8.646 8.032 13.22 8.876 4.996 0.9229 9.188 1.273 13.46 1.164 4.272 0.109 8.464-0.2412 13.46-1.164 4.571-0.8443 10.65-4.861 13.22-8.876 11.21-0.7155 29.86-3.866 42.25-13.29-1.874-17.32-6.728-34.91-14.09-47.73 6.109-14.3 6.203-34.03 1.698-47.53-11.99 2.221-22.55 9.93-27.74 17.05-8.333-4.815-17.88-7.688-28.04-7.688-0.5043-0.0143-0.9962 0-1.504 0-10.15 0-19.68 2.874-28.01 7.688-5.196-7.121-15.78-14.83-27.77-17.05z"/>
<path d="m1039 972.1c-6.957-0.0519-12.75 6.872-16.54 17.75v0.0239c0.7104 0.4476 1.422 0.8715 2.134 1.285 0.6218 0.3613 1.244 0.7064 1.867 1.043 0.153 0.0818 0.3072 0.1619 0.4608 0.2426 0.3244 0.1717 0.6452 0.344 0.9701 0.5093 0.4422 0.2217 0.8855 0.4435 1.334 0.6548 0.1135 0.0542 0.2259 0.1159 0.3395 0.1698 9.961 4.719 20.3 6.585 31.99 7.494 0.4346 0.038 0.8711 0.086 1.31 0.1214 2.97 4.796 6.79 7.21 10.96 8.464 0.049 0.017 0.097 0.032 0.1456 0.049 0.2569 0.075 0.5164 0.1513 0.776 0.2182 4.282 1.255 8.723 1.28 12.85 1.188 4.13 0.091 8.572 0.066 12.85-1.188 0.3089-0.08 0.6163-0.1751 0.9216-0.2668 4.172-1.254 7.992-3.668 10.96-8.464 0.4095-0.033 0.8063-0.085 1.212-0.1213 11.73-0.9064 22.1-2.762 32.08-7.494 0.185-0.0874 0.3731-0.1771 0.5578-0.2668 0.6135-0.2921 1.217-0.6097 1.819-0.9215 0.1364-0.0717 0.2759-0.1457 0.4123-0.2183 0.1056-0.0561 0.2099-0.1133 0.3153-0.1698 0.6237-0.3364 1.246-0.6815 1.867-1.043 0.7123-0.4138 1.424-0.8376 2.134-1.285v-0.0239c-4.669-13.39-12.36-20.8-21.54-16.56-3.834 10.06-11.27 16.17-23.23 17.36-3.754-8.391-7.437-15.43-20.37-15.43-12.94 0-16.62 7.04-20.37 15.43-11.96-1.195-19.4-7.303-23.23-17.36-1.722-0.795-3.389-1.176-4.996-1.188z" style="fill:#ece7da"/>
<path style="fill:url(#c)" d="m1059 964.1c-0.7409 0.9872-1.188 2.212-1.188 3.541 0 3.264 2.654 5.918 5.917 5.918 2.974 0 5.408-2.209 5.82-5.069l-10.55-4.39z"/>
<path style="fill:url(#d)" d="m1115 964.1c0.7408 0.9872 1.188 2.212 1.188 3.541 0 3.264-2.654 5.918-5.918 5.918-2.974 0-5.407-2.209-5.82-5.069l10.55-4.39z"/>
<path d="m1075 979c1.596-5.968 23.76-6.541 26.04 0 1.951 5.602-7.072 12.83-13.02 12.85-5.418 0.0147-14.62-6.846-13.02-12.85z" style="fill:#231e0e"/>
<path style="fill:#949389" d="m1035 908.4c6.412 4.145 12.65 8.538 16.61 16-6.001 5.625-9.926 10.29-13.62 17.84-5.935-15.33-5.449-25.48-2.987-33.84z"/>
<path d="m1139 908.4c-6.411 4.145-12.65 8.538-16.61 16 6.001 5.625 9.926 10.29 13.62 17.84 5.935-15.33 5.449-25.48 2.987-33.84z" style="fill:#949389"/>
<path style="opacity:.4650;fill:#949389" d="m1103 939.1c4.702-2.341 15.86 3.273 20.58 9.138 2.38 4.134 2.533 8.022 1.596 11.79l-28.55 11.64c5.977-8.545 7.786-19.59 6.375-32.57z"/>
<path d="m1072 939.1c-4.702-2.341-15.86 3.273-20.58 9.138-2.38 4.134-2.533 8.022-1.596 11.79l28.55 11.64c-5.976-8.545-7.786-19.59-6.375-32.57z" style="opacity:.4650;fill:#949389"/>
<path d="m1111 967.1a2 2 0 0 0 -1.969 2.031v225.4a2 2 0 1 0 4 0v-225.4a2 2 0 0 0 -2 -1.5z" style="opacity:.8;color:#000000;text-indent:0;block-progression:tb;text-decoration-line:none;text-transform:none;fill:url(#e)"/>
<path d="m1064 967.1a2 2 0 0 0 -1.781 2.031v225.4a2 2 0 1 0 4 0v-225.4a2 2 0 0 0 -2.219 -2.031z" style="opacity:.8;color:#000000;text-indent:0;block-progression:tb;text-decoration-line:none;text-transform:none;fill:url(#f)"/>
</g>
<g transform="translate(-982.6 -9.355)">
<path d="m1031 896.2c-4.503 13.5-4.4 33.21 1.698 47.51-7.42 16.24-11.92 33.44-14.07 47.75 12.39 9.423 31.01 12.57 42.22 13.29 2.567 4.015 8.646 8.032 13.22 8.876 4.996 0.9229 9.188 1.273 13.46 1.164 4.272 0.109 8.464-0.2412 13.46-1.164 4.571-0.8443 10.65-4.861 13.22-8.876 11.21-0.7155 29.86-3.866 42.25-13.29-1.874-17.32-6.728-34.91-14.09-47.73 6.109-14.3 6.203-34.03 1.698-47.53-11.99 2.221-22.55 9.93-27.74 17.05-8.333-4.815-17.88-7.688-28.04-7.688-0.5043-0.0143-0.9962 0-1.504 0-10.15 0-19.68 2.874-28.01 7.688-5.196-7.121-15.78-14.83-27.77-17.05z" style="stroke:#231e0e;stroke-width:6.985;fill:#5b584a"/>
<path style="fill:#ece7da" d="m1039 972.1c-6.957-0.0519-12.75 6.872-16.54 17.75v0.0239c0.7104 0.4476 1.422 0.8715 2.134 1.285 0.6218 0.3613 1.244 0.7064 1.867 1.043 0.153 0.0818 0.3072 0.1619 0.4608 0.2426 0.3244 0.1717 0.6452 0.344 0.9701 0.5093 0.4422 0.2217 0.8855 0.4435 1.334 0.6548 0.1135 0.0542 0.2259 0.1159 0.3395 0.1698 9.961 4.719 20.3 6.585 31.99 7.494 0.4346 0.038 0.8711 0.086 1.31 0.1214 2.97 4.796 6.79 7.21 10.96 8.464 0.049 0.017 0.097 0.032 0.1456 0.049 0.2569 0.075 0.5164 0.1513 0.776 0.2182 4.282 1.255 8.723 1.28 12.85 1.188 4.13 0.091 8.572 0.066 12.85-1.188 0.3089-0.08 0.6163-0.1751 0.9216-0.2668 4.172-1.254 7.992-3.668 10.96-8.464 0.4095-0.033 0.8063-0.085 1.212-0.1213 11.73-0.9064 22.1-2.762 32.08-7.494 0.185-0.0874 0.3731-0.1771 0.5578-0.2668 0.6135-0.2921 1.217-0.6097 1.819-0.9215 0.1364-0.0717 0.2759-0.1457 0.4123-0.2183 0.1056-0.0561 0.2099-0.1133 0.3153-0.1698 0.6237-0.3364 1.246-0.6815 1.867-1.043 0.7123-0.4138 1.424-0.8376 2.134-1.285v-0.0239c-4.669-13.39-12.36-20.8-21.54-16.56-3.834 10.06-11.27 16.17-23.23 17.36-3.754-8.391-7.437-15.43-20.37-15.43-12.94 0-16.62 7.04-20.37 15.43-11.96-1.195-19.4-7.303-23.23-17.36-1.722-0.795-3.389-1.176-4.996-1.188z"/>
<path d="m1059 964.1c-0.7409 0.9872-1.188 2.212-1.188 3.541 0 3.264 2.654 5.918 5.917 5.918 2.974 0 5.408-2.209 5.82-5.069l-10.55-4.39z" style="fill:#231e0e"/>
<path d="m1115 964.1c0.7408 0.9872 1.188 2.212 1.188 3.541 0 3.264-2.654 5.918-5.918 5.918-2.974 0-5.407-2.209-5.82-5.069l10.55-4.39z" style="fill:#231e0e"/>
<path style="opacity:.8;fill:#0ff" d="m497 464.6h-225.3l112.7-195.1z" transform="matrix(.4193 0 0 .6632 927.2 816.8)"/>
<path style="fill:#231e0e" d="m1075 979c1.596-5.968 23.76-6.541 26.04 0 1.951 5.602-7.072 12.83-13.02 12.85-5.418 0.0147-14.62-6.846-13.02-12.85z"/>
<path d="m1035 908.4c6.412 4.145 12.65 8.538 16.61 16-6.001 5.625-9.926 10.29-13.62 17.84-5.935-15.33-5.449-25.48-2.987-33.84z" style="fill:#949389"/>
<path style="fill:#949389" d="m1139 908.4c-6.411 4.145-12.65 8.538-16.61 16 6.001 5.625 9.926 10.29 13.62 17.84 5.935-15.33 5.449-25.48 2.987-33.84z"/>
<path d="m1103 939.1c4.702-2.341 15.86 3.273 20.58 9.138 2.38 4.134 2.533 8.022 1.596 11.79l-28.55 11.64c5.977-8.545 7.786-19.59 6.375-32.57z" style="opacity:.4650;fill:#949389"/>
<path style="opacity:.4650;fill:#949389" d="m1072 939.1c-4.702-2.341-15.86 3.273-20.58 9.138-2.38 4.134-2.533 8.022-1.596 11.79l28.55 11.64c-5.976-8.545-7.786-19.59-6.375-32.57z"/>
</g>
</g>
<g style="stroke:#231e0e;stroke-width:1.408;fill:#5b584a">
<path style="stroke-width:1.408" d="m169.1 933.2q0 0.7298-0.7298 1.095-1.004-0.3649-1.004-1.095 0-0.8211 1.004-1.368 0.7298 0.5474 0.7298 1.368zm2.372 5.839q0 0.6386-0.9123 1.095-0.9123-0.4562-0.9123-1.095 0-0.9123 0.9123-1.368 0.9123 0.4562 0.9123 1.368zm-3.102 3.284h-1.277v-1.186h1.277v1.186zm-1.551 11.49q0 0.821-0.9123 1.095-0.7298-0.2737-0.7298-1.095 0-0.7298 0.7298-1.004 0.9123 0.2737 0.9123 1.004zm0.4561-27.46q0 3.102-1.825 9.123t-1.825 9.123q0 0.9123 0.6386 2.646 0.6386 1.642 0.6386 2.554 0 1.642-1.186 4.926-1.186 3.193-1.186 4.926l1.095 1.095q0 3.832-3.011 10.95-2.919 7.025-2.919 10.86 0 0.5474 0.7298 1.825 0.8211 1.186 0.8211 1.733 0 0.2737-0.1825 1.095-1.004 0.2737-2.281 1.186 0.1824 1.642 0.1824 2.646 0 2.828-1.368 3.011 0.1825 1.277 0.1825 5.382 0 3.467-2.281 16.24-0.2737 3.011-1.277 8.849-1.277 5.565-5.291 5.565 0 1.004 1.46 3.011 1.551 2.007 1.551 3.375t-1.095 3.467q-1.186 2.372-1.277 3.467h-8.028l-2.281 2.372-1.277-1.004q-0.7298 1.277-2.281 1.277 0-8.028 2.828-23.9 2.919-15.96 2.919-23.99 0-9.761 3.649-21.26 0.7298-1.916 2.189-5.839-0.0912-1.46-0.0912-3.74l0.0912-6.568q0.0912-13.96 5.656-34.39h16.33zm-10.49 88.49-0.7298 0.4561-0.4562-0.4561 0.6386-0.7299 0.5474 0.7299zm-19.52-16.6q0 5.2-2.646 23.26-2.828 18.79-4.288 21.89-1.825-0.6386-2.463-5.565-0.8211-6.021-7.39-38.59-2.372-11.59-3.649-18.7-1.551-8.576-1.551-10.67 0-0.8211 0.4561-1.825 0.7298-0.4561 1.916-0.4561l-2.372-1.004q-1.916-5.93-4.835-19.34-3.102-14.51-3.102-20.89h14.96q1.46-1.186 3.375-1.551v0.6386q0 2.554 1.186 11.22l1.095 1.004v9.305h3.467q-1.277 1.277-1.277 7.481 0 0.2737 0.0912 0.9123 0.0912 0.5474 0.0912 0.8211l2.281-1.277q-1.368 1.368-1.368 5.839 0 6.021 2.554 17.15 1.733 2.646 3.467 8.119-1.277 2.828-1.277 3.375 0 1.551 0.6386 4.47t0.6386 4.379zm16.88 23.45q0 0.8211-0.7298 1.095-0.9123-0.2736-0.9123-1.095 0-0.7298 0.9123-1.186 0.7298 0.4562 0.7298 1.186zm-1.095 8.119q0 0.7298-0.8211 1.004-1.004-0.2737-1.004-1.004 0-0.7299 1.004-1.277 0.8211 0.5473 0.8211 1.277zm-7.754 15.96-0.7298 0.4561-0.4562-0.4561 0.4562-0.4562 0.7298 0.4562zm-3.467 0-0.7298 0.4561-0.4562-0.4561 0.4562-0.4562 0.7298 0.4562zm-10.4-1.004-0.1825 0.821-0.9123 0.1825v-0.4562q0-0.7298 0.8211-0.7298l0.2737 0.1825zm22.72-116.2q0-0.7298-0.7298-1.186-0.9123 0.4562-0.9123 1.186 0 0.821 0.9123 1.277 0.7298-0.4562 0.7298-1.277zm-22.72 38.04-0.1825-0.5474q-1.095-0.0912-1.095-0.0912t-0.8211 0.0912l-0.1825 0.5474 1.004 0.4561 1.277-0.4561zm-1.368 55.1q0-0.7298-0.9123-1.186-0.9123 0.4562-0.9123 1.186 0 0.8211 0.9123 1.095 0.9123-0.2736 0.9123-1.095zm11.31 11.49q0-0.7298-0.7298-1.095-0.7298 0.3649-0.7298 1.095 0 0.7298 0.7298 1.186 0.7298-0.4562 0.7298-1.186zm1.733 6.751v-1.004l-1.277 1.004h1.277zm-3.558-1.004v-2.463l-2.281 2.463h2.281zm-9.488-9.123q0-0.7299-0.9123-1.277-0.9123 0.5473-0.9123 1.277 0 0.7298 0.9123 1.004 0.9123-0.2737 0.9123-1.004z"/>
<path style="stroke-width:1.408" d="m219.4 935.3t-0.1825 1.095q-0.7298-0.2737-1.186-0.8211-0.0912-1.551-0.0912-1.551t0.0912-1.004q0.6386 0.0912 1.186 0.8211 0.1825 1.46 0.1825 1.46zm8.667 10.4q0 0.5474-0.7298 1.004-0.9123-0.2737-0.9123-1.004 0-0.9123 0.9123-1.368 0.7298 0.4562 0.7298 1.368zm-36.04 6.386-0.3649 0.4561-0.7298-0.5474 0.7298-0.6386 0.3649 0.7298zm35.31 21.17-1.186 1.004v50.81q-1.916 2.007-5.93 8.758-3.011 5.109-8.028 8.302-4.014 2.554-6.842 2.554-2.281 0-6.842-1.368 0-1.004-0.0912-2.828-0.0912-1.916-0.0912-2.737 0-4.653 5.565-10.67 5.656-6.021 5.656-10.22v-48.17q1.095-0.4562 1.642-1.277-0.2737-0.9123-1.277-2.189-1.095-24.63-8.302-24.63-1.095 0-1.916 0.2737l1.186-1.004-2.372-3.467v-12.68h5.839q1.46 1.733 1.004 5.839l1.004-1.186 0.821-3.193 1.004-0.5474 0.6386 0.2737q0.8211 1.368 1.095 3.467l1.277-2.189 6.842 1.004q-0.1825 0.9123-1.551 3.923-1.095 2.463-0.8211 4.197-1.368-1.277-4.014-1.277-0.7298 0-2.007 0.4561-0.8211 0.9123-0.8211 1.916 0 3.467 4.653 3.467 1.186 0 3.467-0.4561 2.281-0.5474 3.558-0.5474l1.004 1.004q3.011 0 3.375-3.467-0.0912 2.737-0.0912 3.011 0 2.646 1.277 7.663 1.277 5.018 1.277 7.572t-1.277 7.572q-1.186 5.018-1.186 7.572 0 2.007 2.463 3.467zm-32.57 17.24q0 0.8211-0.8211 1.277-0.8211-0.4561-0.8211-1.277 0-0.7298 0.8211-1.186 0.8211 0.4561 0.8211 1.186zm-1.095 2.281q0 0.7298-1.004 1.004-0.7298-0.2737-0.7298-1.004 0-0.7298 0.7298-1.004 1.004 0.2737 1.004 1.004zm2.554 52.91q-24.27-7.39-24.27-28.83v-70.43q0-9.761 6.204-9.67 0-5.565 2.463-6.933 1.186-0.5474 6.842-0.8211 3.923-0.1825 4.744-3.193v-1.186l0.7298-0.9123q1.46-0.2737 3.284-0.2737v15.42q-6.204 4.47-7.663 13.23-0.5474 3.284-0.5474 15.78v19.16q0 18.52 1.186 20.71 0.8211 1.46 2.463 4.562-1.277 1.551-3.558 4.561 0.9123 2.919 3.832 7.025 3.375 4.835 4.288 6.66v15.14zm-1.46-35.58q0 0.7298-0.8211 1.186-0.8211-0.4562-0.8211-1.186t0.8211-1.186q0.8211 0.4562 0.8211 1.186zm-3.467 8.028q0 0.7298-0.7298 1.095-0.9123-0.365-0.9123-1.095 0-0.821 0.9123-1.277 0.7298 0.4562 0.7298 1.277zm22.72-72.98-0.5474-0.8211-0.5474 0.6386 0.5474 0.7298 0.5474-0.5474zm-4.105-2.919v-1.368h-1.095l1.095 1.368zm0 2.098-0.3649-0.4561-0.7298 0.4561 0.5474 0.6386 0.5474-0.6386zm14.69 28.92q0-0.8211-0.7298-1.095-0.8211 0.2737-0.8211 1.095 0 0.7298 0.8211 1.004 0.7298-0.2737 0.7298-1.004zm-42.88-37.13v-0.3649q0-0.9123-0.4562-1.733l-0.4561 0.4561q-0.0912 1.551-0.0912 1.551t0.0912 1.095l0.4561 0.3649q0.4562-0.7298 0.4562-1.368zm42.88 44.06q0-0.7298-0.7298-1.095-0.8211 0.3649-0.8211 1.095 0 0.7298 0.8211 1.095 0.7298-0.3649 0.7298-1.095zm0.6386 4.47q0-1.46-1.368-2.189v2.189h1.368zm-3.284-2.646-0.4562-0.7298-0.4561 0.6386 0.4561 0.5474 0.4562-0.4562zm-0.4562 2.646-0.6386-0.5474-0.3649 0.5474 0.3649 0.6386 0.6386-0.6386zm-9.853-1.004-0.4561-1.186-0.4562 0.1824q-0.0912 1.004-0.0912 1.004t0.0912 0.9123l0.4562 0.0912 0.4561-1.004zm-24.08-10.86-0.4561-0.6386-0.5474 0.6386 0.5474 0.4561 0.4561-0.4561zm1.368 39.5q0-0.7299-0.8211-1.004-0.7298 0.2736-0.7298 1.004 0 0.821 0.7298 1.095 0.8211-0.2737 0.8211-1.095z"/>
<path style="stroke-width:1.408" d="m253.7 931.2-0.3649 0.5474-0.7298-0.5474 0.7298-0.6386 0.3649 0.6386zm-2.189 8.211q0 0.7298-0.6386 1.46l-0.4562-0.2737q-0.0912-1.186-0.0912-1.186t0.0912-1.551l0.4562-0.3649q0.6386 0.9123 0.6386 1.916zm-15.14-13.23q-0.0912 1.186-0.1825 2.463-0.2737 1.642-1.277 1.916v-4.379h1.46zm15.42 20.53q0 0.7298-0.9123 1.095-0.7298-0.3649-0.7298-1.095 0-0.7298 0.7298-1.004 0.9123 0.2737 0.9123 1.004zm-14.69-13.68-0.1825 0.8211-1.004 0.1825-0.0912-0.2737q0-0.9123 1.004-0.9123l0.2737 0.1825zm12.41 14.96q0 0.7298-0.9123 1.186-0.8211-0.4561-0.8211-1.186 0-0.8211 0.8211-1.277 0.9123 0.4561 0.9123 1.277zm3.467 4.561q0 0.7298-0.9123 1.004-0.7298-0.2737-0.7298-1.004 0-0.821 0.7298-1.277 0.9123 0.4562 0.9123 1.277zm-8.028-8.028q0 0.7298-0.9123 1.186-0.9123-0.4561-0.9123-1.186 0-0.8211 0.9123-1.186 0.9123 0.3649 0.9123 1.186zm5.93 4.653q-1.642 1.095-2.281 3.375v-1.277t0.3649-1.551q0.5474-0.7298 1.368-0.7298 0.0912 0 0.5474 0.1824zm-11.49 2.098-0.6386 0.7298-0.3649-0.7298 0.3649-0.4561 0.6386 0.4561zm12.41 26.55q0 0.7298-0.9123 1.277-0.7298-0.5474-0.7298-1.277 0-0.7298 0.7298-1.186 0.9123 0.4561 0.9123 1.186zm-15.69-9.853-0.1825 0.7298q-0.5474-0.5474-1.004-1.277v-1.095q0.5474 0.4562 1.004 1.095l0.1825 0.5474zm16.15 56.93v0.1825h-17.88q0-1.642 2.737-3.467l-1.186-1.277v-25.18q0-1.733 3.467-1.368-1.551-1.095-4.288-3.558-0.4562-1.46-0.4562-3.102 0-2.554 1.277-5.839l-0.4561-0.7298-0.5474-0.4561q0.1825-0.9123 0.7298-1.186 0.9123 0.1825 2.737 0.4561v-6.021l-1.277-0.0912-2.189 1.004q0.2737-1.186 2.098-3.649 1.46-2.189 1.46-4.288 0-1.46-1.368-3.74-1.277-2.281-1.277-3.193 0-0.7298 0.3649-1.733 1.095-0.5474 2.189-0.5474 0.7298 0 1.825 1.642 1.186 1.642 1.916 1.642 0.3649 0 0.7298-0.1825l1.186-0.8211-2.281-3.375 2.007-0.7298q0-2.646-3.193-5.382-3.193-2.737-3.193-5.565l-1.551-0.7298q0-2.828 3.558-9.579l-0.7298-0.4562-0.2737-0.5474q0.2737-1.277 1.004-3.467-0.2737-1.186-1.004-2.372h5.93q0 1.46-1.551 2.372h0.6386q3.375 0 4.105-3.375 4.379 0.5474 4.379 5.565h-3.284v2.281h1.186q0 5.839-2.281 6.842 0.3649-0.7298 0.3649-1.733-1.186-1.368-4.744-1.368-0.0912 0.7298-0.3649 2.281 0.3649 1.004 1.277 2.189-0.6386-0.2737-1.277-0.2737-1.733 0-3.375 1.368 2.281 4.47 4.653 4.47 1.186 0 2.189-1.095l0.1825 0.6386q-0.6386 1.916-1.186 2.828l0.0912 1.825 0.9123-0.7298 2.372 4.744 2.281-1.186v18.43q0 0.6386-2.098 5.839-2.098 5.109-2.554 5.565h3.558q-1.186 2.281-1.186 4.105 0 1.095 1.733 3.74 1.733 2.646 1.733 3.74 0 4.105-2.281 5.839l1.095 1.004v18.52q1.46 2.281 1.368 3.284zm34.3 1.277h-2.189q0.6386-1.46 2.189-1.46v1.46zm-32.84-22.44-0.3649 0.4561-0.7298-0.4561 0.7298-0.6386 0.3649 0.6386zm29.92 34.67-0.4562 0.4561-0.6386-0.6386 0.6386-0.4561 0.4562 0.6386zm-30.29-19.16h-1.277v-1.095l1.277 1.095zm29.83 13.78q-1.277 1.004-2.554 7.207-1.095 5.474-3.284 5.474h-15.97q-0.6386-0.5474-1.186-1.004-0.2737-0.091-0.6386-0.1825-1.186 0-2.828 1.186l0.2737 0.091q-0.8211 0.091-2.646 0.091-1.916 0-5.565-0.6386-3.649-0.7298-5.565-0.7298-1.004 0-1.916 0.4561l0.4561 0.7299h-1.186l0.7298-0.7299q-0.6386-1.186-3.74-1.46-2.646-0.2737-2.646-2.281v-14.05l1.004 1.277q4.014-1.46 12.68-1.46h-0.0912 0.0912 0.1825l0.7298 0.091 3.832 0.091 1.004 1.277q0.2737-0.7299 1.004-1.186 1.368-0.091 1.368-0.091t1.368 0.091q0.5474 0.4561 0.8211 1.186 0.1825-0.7299 1.004-1.186 1.277-0.091 1.277-0.091 19.25 0 21.99 5.839zm-46.07 12.68-1.186 0.4561-1.004-0.4561 0.1825-0.2737q0.821-0.1825 0.821-0.1825t1.004 0.1825l0.1825 0.2737zm10.95-115.5-0.5474-0.6386-0.7298 0.6386 0.7298 0.3649 0.5474-0.3649zm-1.825 3.832h-1.004t-1.551 0.1824q-0.7298 0.3649-0.9123 1.095h1.277q1.186-0.5474 2.189-1.277zm-4.744 7.025q0-0.7298-0.9123-1.186-0.9123 0.4561-0.9123 1.186 0 0.8211 0.9123 1.186 0.9123-0.3649 0.9123-1.186zm5.656 17.24q0-0.7298-0.9123-1.186-0.7298 0.4561-0.7298 1.186 0 0.7298 0.7298 1.095 0.9123-0.3649 0.9123-1.095zm2.098 2.828q0-0.9123-0.6386-1.733l-0.3649 0.3649v2.646l0.3649 0.4561q0.6386-0.7298 0.6386-1.733zm-3.467 0-0.5474-0.6386-0.4561 0.6386 0.4561 0.7298 0.5474-0.7298zm-2.098 1.733q0-0.7298-0.9123-1.004-0.7298 0.2737-0.7298 1.004 0 0.8211 0.7298 1.095 0.9123-0.2737 0.9123-1.095zm5.839 10.4q0-0.8211-0.9123-1.095-0.8211 0.2737-0.8211 1.095 0 0.7298 0.8211 1.004 0.9123-0.2737 0.9123-1.004zm-5.474-5.291-0.6386-1.277-1.368-0.7298q0 1.368-0.8211 3.832-0.8211 2.463-0.8211 3.74 3.649 0 3.649-5.565zm0.9123 6.386q0-0.7298-0.9123-1.095-0.9123 0.3649-0.9123 1.095 0 0.7298 0.9123 1.186 0.9123-0.4562 0.9123-1.186zm1.004 3.467q0-0.7298-0.7298-1.186-0.9123 0.4561-0.9123 1.186 0 0.7298 0.9123 1.277 0.7298-0.5474 0.7298-1.277zm-4.197-2.281h-1.186v1.095l1.186-1.095zm2.281 7.937h-2.281v1.186l2.281-1.186zm-2.281 5.839-0.7298-0.3649-0.4561 0.3649 0.4561 0.4561 0.7298-0.4561zm-4.653-2.372-0.5474-0.4561-0.6386 0.4561 0.6386 0.5474 0.5474-0.5474zm6.933 9.305-0.3649-0.1824q-0.9123 0-0.9123 0.9123v0.2737l1.095-0.1825 0.1825-0.8211zm-5.656 1.004-1.277-1.004v2.372l1.277-1.368zm27.46 32.29q-0.0912-0.4561-0.9123-0.4561h-0.2737q-0.9123 0-1.095 0.4561l1.186 0.6386 1.095-0.6386zm-27.09-25.82-0.3649-0.6386-0.6386 0.6386 0.6386 0.4561 0.3649-0.4561zm37.22 40.96q0-1.004-0.8211-1.368-0.8211 0.3649-0.8211 1.368 0 0.7298 0.8211 1.004 0.8211-0.2737 0.8211-1.004zm-28.83-26.55q0-0.821-0.9123-1.277-0.7298 0.4562-0.7298 1.277 0 0.7298 0.7298 1.095 0.9123-0.365 0.9123-1.095zm24.18 26.55q0-1.004-0.8211-1.368-0.9123 0.3649-0.9123 1.368 0 0.7298 0.9123 1.004 0.8211-0.2737 0.8211-1.004zm-22.72-21.99v-1.095h-1.095v1.095h1.095zm-2.828-1.824-0.5474-0.5474-0.4561 0.5474 0.4561 0.7298 0.5474-0.7298zm19.71 23.81q0-1.004-0.7298-1.368-0.8211 0.3649-0.8211 1.368 0 0.7298 0.8211 1.004 0.7298-0.2737 0.7298-1.004zm-26.37-25.45q0-0.7299-0.7298-1.095-1.004 0.3649-1.004 1.095 0 0.7298 1.004 1.095 0.7298-0.3649 0.7298-1.095zm18.34 25.91v-0.4561q0-1.004-0.7298-1.368-0.9123 0.3649-0.9123 1.368l0.6386 1.004 1.004-0.5474z"/>
<path style="stroke-width:1.408" d="m336.7 946.9q0 0.8211-1.095 1.095-0.7298-0.2737-0.7298-1.095 0-0.9123 0.7298-1.186 1.095 0.2737 1.095 1.186zm-4.835 10.31q0 0.7298-0.7298 1.095-0.7298-0.3649-0.7298-1.095 0-0.7298 0.7298-1.095 0.7298 0.3649 0.7298 1.095zm-20.7-19.6q0 0.8211-0.7298 1.277-1.004-0.4561-1.004-1.277 0-0.7298 1.004-1.004 0.7298 0.2737 0.7298 1.004zm35.03 103.8q0 4.288-7.207 4.288-2.646 0-4.47-0.5474h3.467q-1.186-1.825-3.467-1.825-1.004 0-2.919 0.7299-1.916 0.6386-2.919 0.6386-4.197-13.68-4.197-20.8h-1.368l-9.214-31.11h-2.372q-1.368 4.835-4.379 11.49l-1.46 0.4561v-34.76q2.919-4.197 10.4-20.98 3.375-7.298 9.123-22.26h10.31q0-1.825 4.835-1.825l1.004 1.368q0.4561-0.1825 2.463-1.368l1.46-0.1825q0 7.298-4.926 10.58-10.04 15.97-15.14 29.92 1.368 0.2737 1.368 4.744l-1.368 1.004q0.6386 2.372 2.463 3.375l-1.095 1.186q0.2737 2.098 2.098 5.839 1.916 3.649 2.281 5.565 1.368 7.207 2.007 9.032 0.9123 2.828 3.923 8.302 0 0.2736-0.0912 0.6386 0 4.835 5.839 24.63 0 0.091 2.189 5.93 1.368 3.74 1.368 5.93zm-37.04-2.554q-1.551 0.1825-6.112 3.649-4.47 3.375-7.572 3.375-0.9123 0-2.646-0.6386-1.642-0.7298-2.554-0.7298-0.4562 0-1.825 1.186h-1.004l1.004-24.08 2.463-2.372h-2.463v-92.96h9.305q0.8211-2.828 2.372-2.828v2.828h5.565l-1.095 2.098v0.7298l1.277 2.646-0.1825 1.551q-0.4561 0.7298-1.095 0.9123v8.028l1.095 1.186-1.095 1.095q-1.186 25.82-1.186 36.58v17.7q0 15.6 2.281 16.97l-1.095 1.277v19.34q0.4561 1.095 4.561 2.463zm37.77-4.561q0 0.6386-0.9123 1.095-0.9123-0.4561-0.9123-1.095 0-0.8211 0.9123-1.277 0.9123 0.4561 0.9123 1.277zm3.74 4.561-0.6386 0.4562-0.5474-0.4562 0.5474-0.4561 0.6386 0.4561zm-21.26-92.41-0.7298-0.7298-0.4561 0.5474 0.4561 0.6386 0.7298-0.4562zm-36.13 25.73-0.821-0.6386-0.5474 0.6386 0.5474 0.6386 0.821-0.6386zm50.18 71.25q0-0.7299-0.8211-1.186-1.004 0.4561-1.004 1.186 0 0.821 1.004 1.277 0.8211-0.4562 0.8211-1.277zm-15.33-10.86-0.4561-0.5473-0.6386 0.5473 0.6386 0.4562 0.4561-0.4562z"/>
</g>
</g>
<g transform="matrix(.7469 .4312 -.4312 .7469 614.5 382.6)">
<path style="stroke-linejoin:round;stroke:#000;stroke-linecap:square;stroke-width:9.129;fill:#ff6905" d="m15.96 742.3-42.65 35.73 42.65 35.73h206.9v-71.47zm3.146 22.8c7.145 0.00052 12.94 5.793 12.94 12.94-0.000518 7.145-5.793 12.94-12.94 12.94-7.146 0.001-12.94-5.791-12.94-12.94 0.0005125-7.146 5.794-12.94 12.94-12.94z"/>
<g>
<path style="" d="m78.58 782.6h-3.543v9.583h-6.544v-27.15h10.68q2.349 0 4.251 0.5407 1.902 0.5221 3.244 1.566 1.342 1.025 2.051 2.554 0.7272 1.529 0.7272 3.543 0 1.566-0.3356 2.797-0.3356 1.212-0.9695 2.144-0.6153 0.9136-1.492 1.603-0.8763 0.6712-1.939 1.175l5.668 10.94v0.2797h-7.01l-4.792-9.583zm-3.543-5.053h4.139q1.864 0 2.797-0.9695 0.9509-0.9882 0.9509-2.741t-0.9509-2.741q-0.9509-1.007-2.797-1.007h-4.139v7.458z"/>
<path style="" d="m102.9 792.6q-2.461 0-4.4-0.7831t-3.263-2.126q-1.324-1.342-2.032-3.114-0.6899-1.771-0.6899-3.766v-0.7085q0-2.2 0.5966-4.102 0.6153-1.92 1.827-3.319 1.231-1.398 3.039-2.2 1.827-0.8017 4.251-0.8017 2.144 0 3.841 0.6899 1.715 0.6899 2.89 1.976 1.193 1.286 1.809 3.114 0.6339 1.827 0.6339 4.102v2.554h-12.49q0.3356 1.697 1.473 2.666 1.137 0.9695 2.946 0.9695 1.286 0 2.517-0.4848 1.249-0.4848 2.144-1.603l2.871 3.393q-0.4848 0.6712-1.249 1.305-0.7458 0.6339-1.753 1.137-1.007 0.4848-2.256 0.7831-1.249 0.317-2.704 0.317zm-0.7085-16.07q-0.8017 0-1.38 0.2797-0.578 0.2797-0.9695 0.7644-0.3729 0.4848-0.5966 1.156t-0.3356 1.454h6.339v-0.4848q0.0373-1.51-0.7644-2.331-0.8017-0.839-2.293-0.839z"/>
<path style="" d="m120.5 792.2h-6.302v-28.64h6.302v28.64z"/>
<path style="" d="m134.1 792.6q-2.461 0-4.4-0.7831t-3.263-2.126q-1.324-1.342-2.032-3.114-0.6899-1.771-0.6899-3.766v-0.7085q0-2.2 0.5966-4.102 0.6153-1.92 1.827-3.319 1.231-1.398 3.039-2.2 1.827-0.8017 4.251-0.8017 2.144 0 3.841 0.6899 1.715 0.6899 2.89 1.976 1.193 1.286 1.809 3.114 0.6339 1.827 0.6339 4.102v2.554h-12.49q0.3356 1.697 1.473 2.666 1.137 0.9695 2.946 0.9695 1.286 0 2.517-0.4848 1.249-0.4848 2.144-1.603l2.871 3.393q-0.4848 0.6712-1.249 1.305-0.7458 0.6339-1.753 1.137-1.007 0.4848-2.256 0.7831-1.249 0.317-2.704 0.317zm-0.7085-16.07q-0.8017 0-1.38 0.2797-0.578 0.2797-0.9695 0.7644-0.3729 0.4848-0.5966 1.156t-0.3356 1.454h6.339v-0.4848q0.0373-1.51-0.7644-2.331-0.8017-0.839-2.293-0.839z"/>
<path style="" d="m156.5 792.2q-0.2051-0.3729-0.3543-0.8204-0.1305-0.4661-0.2424-0.9882-0.7272 0.9136-1.883 1.548-1.156 0.6339-2.965 0.6339-1.398 0-2.648-0.4475-1.231-0.4475-2.163-1.231-0.9322-0.8017-1.492-1.92-0.5407-1.119-0.5407-2.461 0-1.566 0.5594-2.797 0.578-1.231 1.734-2.07 1.175-0.8577 2.946-1.305 1.79-0.4661 4.232-0.4661h1.939v-1.063q0-1.286-0.5594-2.032-0.5594-0.7458-1.846-0.7458-1.081 0-1.659 0.5407t-0.578 1.659h-6.283q0-1.398 0.6153-2.61 0.6339-1.212 1.79-2.088 1.156-0.8763 2.778-1.38 1.641-0.5034 3.654-0.5034 1.809 0 3.337 0.4475 1.548 0.4475 2.666 1.361 1.119 0.895 1.753 2.256 0.6339 1.342 0.6339 3.132v8.26q0 0.9882 0.0559 1.715 0.0559 0.7272 0.1678 1.286 0.1119 0.5407 0.261 0.9695 0.1678 0.4288 0.3729 0.8017v0.317h-6.283zm-3.934-4.102q1.175 0 1.939-0.5034 0.7831-0.5034 1.119-1.137v-3.226h-1.976q-0.8763 0-1.492 0.2424-0.5966 0.2424-0.9695 0.6526-0.3542 0.4102-0.5221 0.9509-0.1492 0.5221-0.1492 1.1 0 0.8577 0.578 1.398 0.578 0.522 1.473 0.522z"/>
<path style="" d="m175.9 786.5q0-0.3915-0.1864-0.6899-0.1678-0.2983-0.6153-0.5594-0.4475-0.2797-1.212-0.522-0.7644-0.2424-1.939-0.5034-1.473-0.317-2.778-0.8204-1.286-0.5221-2.256-1.268-0.9509-0.7644-1.51-1.79-0.5407-1.025-0.5407-2.349 0-1.286 0.5407-2.442 0.5594-1.156 1.622-2.032 1.063-0.8763 2.61-1.38 1.548-0.5221 3.524-0.5221 2.032 0 3.673 0.4848t2.778 1.361q1.156 0.8577 1.771 2.07 0.6153 1.193 0.6153 2.648h-6.302q0-1.156-0.578-1.79-0.578-0.6339-1.976-0.6339-0.4848 0-0.9136 0.1492-0.4102 0.1305-0.7272 0.3916-0.317 0.2424-0.5034 0.5966-0.1864 0.3543-0.1864 0.7831 0 0.8204 0.7831 1.342 0.8017 0.5221 2.573 0.8577 1.529 0.2797 2.927 0.7272 1.417 0.4288 2.498 1.175 1.081 0.7272 1.715 1.827 0.6526 1.1 0.6526 2.704 0 1.342-0.6153 2.48-0.6153 1.137-1.771 1.976-1.137 0.8204-2.759 1.305-1.622 0.4661-3.654 0.4661-2.181 0-3.86-0.6153-1.659-0.6153-2.797-1.585-1.119-0.9882-1.697-2.2-0.578-1.231-0.578-2.442h5.873q0.0373 1.398 0.9322 2.051 0.895 0.6339 2.293 0.6339 1.286 0 1.92-0.5221 0.6526-0.5221 0.6526-1.361z"/>
<path style="" d="m194.6 792.6q-2.461 0-4.4-0.7831t-3.263-2.126q-1.324-1.342-2.032-3.114-0.6899-1.771-0.6899-3.766v-0.7085q0-2.2 0.5966-4.102 0.6153-1.92 1.827-3.319 1.231-1.398 3.039-2.2 1.827-0.8017 4.251-0.8017 2.144 0 3.841 0.6899 1.715 0.6899 2.89 1.976 1.193 1.286 1.809 3.114 0.6339 1.827 0.6339 4.102v2.554h-12.49q0.3356 1.697 1.473 2.666 1.137 0.9695 2.946 0.9695 1.286 0 2.517-0.4848 1.249-0.4848 2.144-1.603l2.871 3.393q-0.4848 0.6712-1.249 1.305-0.7458 0.6339-1.753 1.137-1.007 0.4848-2.256 0.7831-1.249 0.317-2.704 0.317zm-0.7085-16.07q-0.8017 0-1.38 0.2797-0.578 0.2797-0.9695 0.7644-0.3729 0.4848-0.5966 1.156t-0.3356 1.454h6.339v-0.4848q0.0373-1.51-0.7644-2.331-0.8017-0.839-2.293-0.839z"/>
</g>
</g>
</g>
</g>
</svg>
