<svg xmlns="http://www.w3.org/2000/svg" viewBox="0 0 503 169.85001" preserveAspecRatio="none slice"><path d="M1.25 26.965C1.25 17.918 8.168 9.99 16.7 9.99h469.603c8.53 0 15.448 7.928 15.448 16.975v125.25c0 9.05-6.917 16.385-15.448 16.385H16.699c-8.531 0-15.449-7.335-15.449-16.385V26.965" fill="#fff"/><path d="M1.25 26.965C1.25 17.918 8.168 9.99 16.7 9.99h469.603c8.53 0 15.448 7.928 15.448 16.975v125.25c0 9.05-6.917 16.385-15.448 16.385H16.699c-8.531 0-15.449-7.335-15.449-16.385V26.965z" fill="none" stroke="#231f20" stroke-width="2.5" stroke-miterlimit="3.864"/><path d="M7.897 31.751c0-8.284 6.716-15 15-15h456.884c8.284 0 15 6.716 15 15v114.675c0 8.284-6.716 15-15 15H22.897c-8.284 0-15-6.716-15-15V31.751" fill="#6293b9"/><path d="M7.897 31.751c0-8.284 6.716-15 15-15h456.884c8.284 0 15 6.716 15 15v114.675c0 8.284-6.716 15-15 15H22.897c-8.284 0-15-6.716-15-15V31.751z" fill="none" stroke="#231f20" stroke-width="2.5" stroke-miterlimit="3.864"/><path d="M142.591 115.363c0 6.873-1.25 16.123-10.625 16.123-9.374 0-10.624-9.25-10.624-16.123 0-6.877 1.25-16.001 10.624-16.001 9.375 0 10.625 9.124 10.625 16zm24.751 0c0-18.002-11-34.002-35.376-34.002-24.374 0-35.375 16-35.375 34.002 0 17.998 11 34.123 35.375 34.123s35.376-16.125 35.376-34.123m277.744-8.626c0-12.501.251-25.376-30.749-25.376-15.373 0-32.625 3-33.375 21.25h23.002c.124-2.75 1.626-6.623 9.247-6.623 4.001 0 8.125 1.624 8.125 5.998 0 4.126-3.374 5.125-6.75 5.75-12.625 2.375-36.624 1.626-36.624 22.127 0 13.623 10.377 19.623 22.874 19.623 8.003 0 15.625-1.75 20.876-7.748h.25c-.125 1.748.25 4.373.875 6.123h25.25c-2.75-4.126-3-9.623-3-14.5v-26.624zm-23.75 18c-.374 6.75-4.749 10.124-10.374 10.124-4.498 0-7.748-3.001-7.748-5.998 0-4.376 2.874-5.751 8.374-7 3.375-.752 6.748-1.626 9.748-3.126v6M166.154 26.558h-11.755v8.253h11.755v-8.253zm-11.755 42.394h11.755V38.136h-11.755v30.816m228.435-19.536c0-5.937.119-12.052-14.605-12.052-7.305 0-15.498 1.425-15.855 10.093H363.3c.057-1.306.771-3.146 4.394-3.146 1.9 0 3.86.772 3.86 2.85 0 1.959-1.604 2.434-3.208 2.731-5.996 1.128-17.395.772-17.395 10.51 0 6.47 4.926 9.321 10.864 9.321 3.801 0 7.423-.832 9.918-3.68h.116c-.058.83.12 2.077.419 2.908h11.99c-1.306-1.959-1.424-4.571-1.424-6.887V49.416zm-11.28 8.55c-.178 3.207-2.255 4.81-4.929 4.81-2.136 0-3.682-1.426-3.682-2.85 0-2.077 1.367-2.731 3.98-3.325 1.6-.356 3.206-.771 4.63-1.484v2.85" fill="#fff" fill-rule="evenodd"/><path d="M449.764 56.186c0-11.995-5.285-18.822-17.514-18.822-9.739 0-16.27 7.303-16.27 16.269 0 10.27 7.423 16.09 17.279 16.09 7.006 0 13.479-3.087 15.851-9.738h-10.984c-.95 1.485-3.027 2.198-4.926 2.198-3.682 0-5.701-2.494-5.999-5.997h22.563zm-22.501-6.115c.533-3.326 2.55-5.166 6.053-5.166 3.03 0 5.167 2.316 5.167 5.166h-11.22z" fill="none" stroke="#231f20" stroke-width=".938" stroke-miterlimit="3.864"/><path d="M266.549 2.101c-20.406 0-37.009 16.601-37.009 37.008 0 20.405 16.602 37.007 37.009 37.007 20.405 0 37.007-16.602 37.007-37.007 0-20.407-16.602-37.008-37.007-37.008" fill="#fff"/><path d="M11.189 156.564h480.043m-483.012-5.4h485.983M8.22 145.763h486.972m-486.972-5.4h486.972M8.22 134.962h486.972M8.22 129.561h486.972m-486.972-5.4h486.972m-486.972-5.4h486.972M8.22 113.36h486.972M8.22 107.96h486.972M8.22 102.56h486.972M8.22 97.16h486.972M8.22 91.76h486.972M8.22 86.359h486.972M8.22 80.958h486.972M8.22 75.558h486.972M8.22 70.159h486.972M8.22 64.759h486.972M8.22 59.36h486.972M8.22 53.96h486.972M8.22 48.56h486.972M8.22 43.16h486.972" fill="none" stroke="#486c91" stroke-width="1.25"/><path d="M8.22 37.76h486.972" fill="#fff"/><path d="M8.22 37.76h486.972" fill="none" stroke="#486c91" stroke-width="1.25"/><path d="M8.22 32.36h486.972" fill="#fff"/><path d="M8.22 32.36h486.972" fill="none" stroke="#486c91" stroke-width="1.25"/><path d="M8.22 26.96h485.983" fill="#fff"/><path d="M8.22 26.96h485.983" fill="none" stroke="#486c91" stroke-width="1.25"/><path d="M11.189 21.56h480.043" fill="#fff"/><path d="M11.189 21.56h480.043" fill="none" stroke="#486c91" stroke-width="1.25"/><path d="M90.231 58.61h-27.5v57.502c0 4 .5 12.624-6.625 12.624-7.374 0-7.374-6.374-7.374-13.25v-5.125H23.98v7.5c0 19.502 10.125 32.125 32.751 32.125 22.374 0 33.499-9.625 33.499-34.25V58.611" fill="#fff"/><path d="M90.231 58.61h-27.5v57.502c0 4 .5 12.624-6.625 12.624-7.374 0-7.374-6.374-7.374-13.25v-5.125H23.98v7.5c0 19.502 10.125 32.125 32.751 32.125 22.374 0 33.499-9.625 33.499-34.25V58.611z" fill="none" stroke="#231f20" stroke-width=".938" stroke-miterlimit="3.864"/><path d="M142.591 115.363c0 6.873-1.25 16.123-10.625 16.123-9.374 0-10.624-9.25-10.624-16.123 0-6.877 1.25-16.001 10.624-16.001 9.375 0 10.625 9.124 10.625 16zm24.751 0c0-18.002-11-34.002-35.376-34.002-24.374 0-35.375 16-35.375 34.002 0 17.998 11 34.123 35.375 34.123s35.376-16.125 35.376-34.123" fill="#fff"/><path d="M142.591 115.363c0 6.873-1.25 16.123-10.625 16.123-9.374 0-10.624-9.25-10.624-16.123 0-6.877 1.25-16.001 10.624-16.001 9.375 0 10.625 9.124 10.625 16zm24.751 0c0-18.002-11-34.002-35.376-34.002-24.374 0-35.375 16-35.375 34.002 0 17.998 11 34.123 35.375 34.123s35.376-16.125 35.376-34.123z" fill="none" stroke="#231f20" stroke-width=".938" stroke-miterlimit="3.864"/><path d="M240.977 82.987h-24.75v34.25c0 10.374-5.625 12.5-9.873 12.5-7.252 0-8.125-5.25-8.125-12.75v-34h-24.752v44.5c0 14.874 10.628 22 22.25 22 9.877 0 16.5-3.376 21.127-9.876h.25v8.25h23.873V82.987" fill="#fff"/><path d="M240.977 82.987h-24.75v34.25c0 10.374-5.625 12.5-9.873 12.5-7.252 0-8.125-5.25-8.125-12.75v-34h-24.752v44.5c0 14.874 10.628 22 22.25 22 9.877 0 16.5-3.376 21.127-9.876h.25v8.25h23.873V82.987z" fill="none" stroke="#231f20" stroke-width=".938" stroke-miterlimit="3.864"/><path d="M251.102 147.861h24.75v-25.625c0-13.874 5.25-19.625 15-19.625 5.002 0 7.25.75 9.75 1.626V82.361c-2.376-.625-4.748-1-7.25-1-8.998 0-14.25 4.25-18.248 12h-.251V82.987h-23.75v64.874" fill="#fff"/><path d="M251.102 147.861h24.75v-25.625c0-13.874 5.25-19.625 15-19.625 5.002 0 7.25.75 9.75 1.626V82.361c-2.376-.625-4.748-1-7.25-1-8.998 0-14.25 4.25-18.248 12h-.251V82.987h-23.75v64.874z" fill="none" stroke="#231f20" stroke-width=".938" stroke-miterlimit="3.864"/><path d="M305.465 147.861h24.749v-34.25c0-10.374 5.625-12.499 9.875-12.499 7.251 0 8.125 5.25 8.125 12.75v34h24.749V103.36c0-14.876-10.623-22-22.25-22-9.874 0-16.5 3.375-21.124 9.876h-.249v-8.25h-23.875v64.874" fill="#fff"/><path d="M305.465 147.861h24.749v-34.25c0-10.374 5.625-12.499 9.875-12.499 7.251 0 8.125 5.25 8.125 12.75v34h24.749V103.36c0-14.876-10.623-22-22.25-22-9.874 0-16.5 3.375-21.124 9.876h-.249v-8.25h-23.875v64.874z" fill="none" stroke="#231f20" stroke-width=".938" stroke-miterlimit="3.864"/><path d="M454.074 147.861h24.749v-89.25h-24.75v89.25" fill="#fff"/><path d="M454.074 147.861h24.749v-89.25h-24.75v89.25z" fill="none" stroke="#231f20" stroke-width=".938" stroke-miterlimit="3.864"/><path d="M445.086 106.737c0-12.501.251-25.376-30.749-25.376-15.373 0-32.625 3-33.375 21.25h23.002c.124-2.75 1.626-6.623 9.247-6.623 4.001 0 8.125 1.624 8.125 5.998 0 4.126-3.374 5.125-6.75 5.75-12.625 2.375-36.624 1.626-36.624 22.127 0 13.623 10.377 19.623 22.874 19.623 8.003 0 15.625-1.75 20.876-7.748h.25c-.125 1.748.25 4.373.875 6.123h25.25c-2.75-4.126-3-9.623-3-14.5v-26.624zm-23.75 18c-.374 6.75-4.749 10.124-10.374 10.124-4.498 0-7.748-3.001-7.748-5.998 0-4.376 2.874-5.751 8.374-7 3.375-.752 6.748-1.626 9.748-3.126v6" fill="#fff"/><path d="M445.086 106.737c0-12.501.251-25.376-30.749-25.376-15.373 0-32.625 3-33.375 21.25h23.002c.124-2.75 1.626-6.623 9.247-6.623 4.001 0 8.125 1.624 8.125 5.998 0 4.126-3.374 5.125-6.75 5.75-12.625 2.375-36.624 1.626-36.624 22.127 0 13.623 10.377 19.623 22.874 19.623 8.003 0 15.625-1.75 20.876-7.748h.25c-.125 1.748.25 4.373.875 6.123h25.25c-2.75-4.126-3-9.623-3-14.5v-26.624zm-23.75 18c-.374 6.75-4.749 10.124-10.374 10.124-4.498 0-7.748-3.001-7.748-5.998 0-4.376 2.874-5.751 8.374-7 3.375-.752 6.748-1.626 9.748-3.126v6z" fill="none" stroke="#231f20" stroke-width=".938" stroke-miterlimit="3.864"/><path d="M99.44 68.951h12.35V41.758h.12l7.361 27.193h9.738l7.362-27.193h.118V68.95h12.35V26.558h-18.584l-6.054 24.936h-.12l-6.057-24.936H99.44v42.394" fill="#fff"/><path d="M99.44 68.951h12.35V41.758h.12l7.361 27.193h9.738l7.362-27.193h.118V68.95h12.35V26.558h-18.584l-6.054 24.936h-.12l-6.057-24.936H99.44v42.394z" fill="none" stroke="#231f20" stroke-width=".938" stroke-miterlimit="3.864"/><path d="M166.154 26.558h-11.755v8.253h11.755v-8.253zm-11.755 42.394h11.755V38.136h-11.755v30.816" fill="#fff"/><path d="M166.154 26.558h-11.755v8.253h11.755v-8.253zm-11.755 42.394h11.755V38.136h-11.755v30.816z" fill="none" stroke="#231f20" stroke-width=".938" stroke-miterlimit="3.864"/><path d="M202.715 49.831c-.711-8.489-7.599-12.467-15.675-12.467-9.262 0-16.685 6.471-16.685 16.21 0 9.736 7.423 16.149 16.685 16.149 8.313 0 14.902-4.69 16.03-13.063h-11.221c-.236 2.434-2.019 4.513-4.571 4.513-4.513 0-5.167-3.859-5.167-7.6 0-3.742.654-7.66 5.167-7.66 1.246 0 2.256.356 2.968 1.01.773.653 1.188 1.662 1.308 2.908h11.161" fill="#fff"/><path d="M202.715 49.831c-.711-8.489-7.599-12.467-15.675-12.467-9.262 0-16.685 6.471-16.685 16.21 0 9.736 7.423 16.149 16.685 16.149 8.313 0 14.902-4.69 16.03-13.063h-11.221c-.236 2.434-2.019 4.513-4.571 4.513-4.513 0-5.167-3.859-5.167-7.6 0-3.742.654-7.66 5.167-7.66 1.246 0 2.256.356 2.968 1.01.773.653 1.188 1.662 1.308 2.908h11.161z" fill="none" stroke="#231f20" stroke-width=".938" stroke-miterlimit="3.864"/><path d="M206.73 68.951h11.756V56.78c0-6.59 2.494-9.323 7.125-9.323 2.376 0 3.443.357 4.631.773V37.839c-1.127-.298-2.255-.475-3.445-.475-4.272 0-6.767 2.018-8.666 5.7h-.12v-4.928H206.73v30.815" fill="#fff"/><path d="M206.73 68.951h11.756V56.78c0-6.59 2.494-9.323 7.125-9.323 2.376 0 3.443.357 4.631.773V37.839c-1.127-.298-2.255-.475-3.445-.475-4.272 0-6.767 2.018-8.666 5.7h-.12v-4.928H206.73v30.815z" fill="none" stroke="#231f20" stroke-width=".938" stroke-miterlimit="3.864"/><path d="M352.45 38.136h-12.231l-4.275 19.059h-.238l-4.096-19.059h-10.986l-3.919 19.059h-.117l-4.573-19.059h-9.494l-.718 6.469 7.6 24.346h12.053l4.573-18.94h.117l4.453 18.94h12.054l9.797-30.815" fill="#fff"/><path d="M352.45 38.136h-12.231l-4.275 19.059h-.238l-4.096-19.059h-10.986l-3.919 19.059h-.117l-4.573-19.059h-9.494l-.718 6.469 7.6 24.346h12.053l4.573-18.94h.117l4.453 18.94h12.054l9.797-30.815z" fill="none" stroke="#231f20" stroke-width=".938" stroke-miterlimit="3.864"/><path d="M382.834 49.416c0-5.937.119-12.052-14.605-12.052-7.305 0-15.498 1.425-15.855 10.093H363.3c.057-1.306.771-3.146 4.394-3.146 1.9 0 3.86.772 3.86 2.85 0 1.959-1.604 2.434-3.208 2.731-5.996 1.128-17.395.772-17.395 10.51 0 6.47 4.926 9.321 10.864 9.321 3.801 0 7.423-.832 9.918-3.68h.116c-.058.83.12 2.077.419 2.908h11.99c-1.306-1.959-1.424-4.571-1.424-6.887V49.416zm-11.28 8.55c-.178 3.207-2.255 4.81-4.929 4.81-2.136 0-3.682-1.426-3.682-2.85 0-2.077 1.367-2.731 3.98-3.325 1.6-.356 3.206-.771 4.63-1.484v2.85" fill="#fff"/><path d="M382.834 49.416c0-5.937.119-12.052-14.605-12.052-7.305 0-15.498 1.425-15.855 10.093H363.3c.057-1.306.771-3.146 4.394-3.146 1.9 0 3.86.772 3.86 2.85 0 1.959-1.604 2.434-3.208 2.731-5.996 1.128-17.395.772-17.395 10.51 0 6.47 4.926 9.321 10.864 9.321 3.801 0 7.423-.832 9.918-3.68h.116c-.058.83.12 2.077.419 2.908h11.99c-1.306-1.959-1.424-4.571-1.424-6.887V49.416zm-11.28 8.55c-.178 3.207-2.255 4.81-4.929 4.81-2.136 0-3.682-1.426-3.682-2.85 0-2.077 1.367-2.731 3.98-3.325 1.6-.356 3.206-.771 4.63-1.484v2.85z" fill="none" stroke="#231f20" stroke-width=".938" stroke-miterlimit="3.864"/><path d="M417.071 38.136h-11.995l-4.867 18.762h-.12l-4.806-18.762h-12.41l10.092 30.815h13.894l10.212-30.815" fill="#fff"/><path d="M417.071 38.136h-11.995l-4.867 18.762h-.12l-4.806-18.762h-12.41l10.092 30.815h13.894l10.212-30.815z" fill="none" stroke="#231f20" stroke-width=".938" stroke-miterlimit="3.864"/><path d="M449.764 56.186c0-11.995-5.285-18.822-17.514-18.822-9.739 0-16.27 7.303-16.27 16.269 0 10.27 7.423 16.09 17.279 16.09 7.006 0 13.479-3.087 15.851-9.738h-10.984c-.95 1.485-3.027 2.198-4.926 2.198-3.682 0-5.701-2.494-5.999-5.997h22.563zm-22.501-6.115c.533-3.326 2.55-5.166 6.053-5.166 3.03 0 5.167 2.316 5.167 5.166h-11.22" fill="#fff" fill-rule="evenodd"/><path d="M449.764 56.186c0-11.995-5.285-18.822-17.514-18.822-9.739 0-16.27 7.303-16.27 16.269 0 10.27 7.423 16.09 17.279 16.09 7.006 0 13.479-3.087 15.851-9.738h-10.984c-.95 1.485-3.027 2.198-4.926 2.198-3.682 0-5.701-2.494-5.999-5.997h22.563zm-22.501-6.115c.533-3.326 2.55-5.166 6.053-5.166 3.03 0 5.167 2.316 5.167 5.166h-11.22z" fill="none" stroke="#231f20" stroke-width=".938" stroke-miterlimit="3.864"/><path d="M229.135 39.109c0-20.664 16.75-37.415 37.414-37.415 20.662 0 37.412 16.751 37.412 37.415 0 20.664-16.75 37.413-37.412 37.413-20.664 0-37.414-16.75-37.414-37.413" fill="#fff"/><path d="M229.135 39.109c0-20.664 16.75-37.415 37.414-37.415 20.662 0 37.412 16.751 37.412 37.415 0 20.664-16.75 37.413-37.412 37.413-20.664 0-37.414-16.75-37.414-37.413z" fill="none" stroke="#231f20" stroke-width=".938" stroke-miterlimit="3.864"/><path d="M235.148 17.398c6.99-9.775 18.433-16.147 31.367-16.147 12.631 0 23.843 6.077 30.871 15.468" fill="#fff"/><path d="M235.148 17.398c6.99-9.775 18.433-16.147 31.367-16.147 12.631 0 23.843 6.077 30.871 15.468" fill="none" stroke="#231f20" stroke-width="2.5" stroke-miterlimit="3.864"/><path d="M240.817 60.112a16.41 16.41 0 0 1 1.535-.94 28.067 28.067 0 0 0 8.487 9.207 33.448 33.448 0 0 1-10.021-8.267zm-7.096-26.245c2.385.197 4.7.632 6.926 1.277a27.69 27.69 0 0 0-1.958 10.202 26.912 26.912 0 0 0-4.653.67 33.233 33.233 0 0 1-.315-12.149zm16.674-23.808l1.346 2.26c1.119 1.818 2.599 4.23 4.183 7.321a27.934 27.934 0 0 0-8.33 5.355 52.583 52.583 0 0 0-8.018-5.293 33.464 33.464 0 0 1 10.819-9.643zm43.115 9.643a52.487 52.487 0 0 0-7.996 5.318 27.868 27.868 0 0 0-8.25-5.338c1.615-3.16 3.122-5.61 4.259-7.458l1.257-2.113a33.509 33.509 0 0 1 10.73 9.591zm5.569 26.186a27.165 27.165 0 0 0-4.685-.642 27.708 27.708 0 0 0-1.964-10.117 35.245 35.245 0 0 1 6.921-1.327 33.144 33.144 0 0 1-.272 12.086zM282.244 68.38a28.065 28.065 0 0 0 8.572-9.355c.535.283 1.055.603 1.56.948a33.445 33.445 0 0 1-10.132 8.407zm-36.405-10.582a21.631 21.631 0 0 0 6.733 10.323c-.047.074-.1.14-.147.215a27.129 27.129 0 0 1-9.274-9.56 16.009 16.009 0 0 1 2.688-.978zm-6.235-11.605c.193-.005.386-.019.58-.019 1.835 0 3.625.195 5.353.558a21.52 21.52 0 0 0-.593 4.948c0 1.82.251 3.58.677 5.27-.999.264-1.97.622-2.905 1.064a26.781 26.781 0 0 1-3.112-11.821zm9.568-7.298a21.518 21.518 0 0 0-3.417 6.991 26.958 26.958 0 0 0-5.571-.586c-.207 0-.412.015-.618.019a26.795 26.795 0 0 1 1.936-9.923 35.314 35.314 0 0 1 7.67 3.499zm11.512-7.985a21.428 21.428 0 0 0-5.009 2.136 52.177 52.177 0 0 0-7.37-7.484 26.996 26.996 0 0 1 8.02-5.13 83.645 83.645 0 0 1 4.359 10.478zm5.421-12.481v11.675a21.657 21.657 0 0 0-4.57.587 84.4 84.4 0 0 0-4.384-10.565 26.838 26.838 0 0 1 8.954-1.697zm0-.885a27.703 27.703 0 0 0-9.361 1.773c-1.614-3.152-3.122-5.607-4.259-7.456l-1.319-2.217a33.006 33.006 0 0 1 14.939-3.775v11.675zm.874 0V5.869A33.038 33.038 0 0 1 282.01 9.69l-1.234 2.074c-1.155 1.876-2.688 4.372-4.328 7.594a27.764 27.764 0 0 0-9.47-1.815zm4.707 13.182a21.543 21.543 0 0 0-4.707-.622V18.429c3.188.051 6.235.668 9.065 1.738a85.008 85.008 0 0 0-4.358 10.56zm5.794 2.363a21.43 21.43 0 0 0-4.943-2.143 83.725 83.725 0 0 1 4.338-10.474 27.053 27.053 0 0 1 7.936 5.12 52.115 52.115 0 0 0-7.331 7.497zm15.6 12.117c-1.98 0-3.901.235-5.761.641a21.473 21.473 0 0 0-3.383-6.917 35.294 35.294 0 0 1 7.64-3.546 26.793 26.793 0 0 1 1.936 9.836c-.145-.003-.288-.014-.432-.014zM280.657 67.99a21.605 21.605 0 0 0 6.623-10.328c.941.24 1.855.57 2.736.976a27.143 27.143 0 0 1-9.191 9.597c-.053-.084-.114-.162-.168-.245zm-26.556 1.314a27.542 27.542 0 0 1-.929-.514c.027-.041.057-.078.083-.12.276.218.559.43.846.634zm.284-2.014a15.412 15.412 0 0 0 2.965 2.934 20.755 20.755 0 0 1-3.588-2.264c.195-.236.4-.463.623-.67zm-4.361-10.044c.408 0 .81.03 1.211.06-.01.222-.034.44-.034.665 0 3.195.984 6.161 2.66 8.62a7.6 7.6 0 0 0-.776.816 20.75 20.75 0 0 1-6.394-9.808 16.336 16.336 0 0 1 3.333-.353zm7.305-11.512a15.449 15.449 0 0 0-3.322 3.423 26.741 26.741 0 0 0-7.405-3.052 20.604 20.604 0 0 1 3.31-6.738 35.792 35.792 0 0 1 7.417 6.367zm3.918-2.143c-1.137.42-2.217.959-3.21 1.623a36.817 36.817 0 0 0-7.6-6.548 20.851 20.851 0 0 1 5.015-4.463 51.044 51.044 0 0 1 5.795 9.388zm2.635-.715c-.613.109-1.218.241-1.806.421a51.954 51.954 0 0 0-5.872-9.552 20.634 20.634 0 0 1 4.757-2.005 96.34 96.34 0 0 1 2.921 11.136zm2.223-.225c-.456.014-.91.04-1.355.091a97.411 97.411 0 0 0-2.938-11.22 20.753 20.753 0 0 1 4.293-.545v11.674zm2.386.116a15.455 15.455 0 0 0-1.512-.116V30.977c1.523.033 3.002.235 4.428.58a97.743 97.743 0 0 0-2.916 11.21zm2.634.563a15.49 15.49 0 0 0-1.759-.429c.825-4.125 1.816-7.831 2.895-11.125a20.625 20.625 0 0 1 4.69 2.011 51.955 51.955 0 0 0-5.826 9.543zm3.99 1.923a15.368 15.368 0 0 0-3.154-1.617 50.902 50.902 0 0 1 5.735-9.394 20.831 20.831 0 0 1 4.976 4.455 36.73 36.73 0 0 0-7.557 6.556zm3.961 3.899a15.495 15.495 0 0 0-3.255-3.37 35.796 35.796 0 0 1 7.366-6.396 20.628 20.628 0 0 1 3.277 6.643 26.804 26.804 0 0 0-7.388 3.123zm.24 17.3a15.248 15.248 0 0 0 2.57-8.48c0-.256-.027-.505-.039-.758.46-.037.924-.062 1.394-.062 1.081 0 2.145.117 3.185.322a20.746 20.746 0 0 1-6.291 9.81 7.89 7.89 0 0 0-.819-.832zm.67 2.102c.03.046.064.087.093.134-.362.21-.723.42-1.094.615.34-.242.676-.49 1.001-.75zm-4.247 1.668a15.427 15.427 0 0 0 3.064-3.065c.238.213.458.447.667.692a20.767 20.767 0 0 1-3.731 2.373zm-18.166-4.586a9.079 9.079 0 0 0 3.09 5.542 14.538 14.538 0 0 1-5.596-4.433 6.887 6.887 0 0 1 2.505-1.109zm3.656-8.726a9.12 9.12 0 0 0-2.07 2.082 17.072 17.072 0 0 0-7.008-2.476 14.347 14.347 0 0 1 2.124-6.175 26.266 26.266 0 0 1 6.954 6.57zm2.345-1.224a9.073 9.073 0 0 0-1.613.745 27.134 27.134 0 0 0-7.204-6.82 14.546 14.546 0 0 1 3.15-3.218 35.742 35.742 0 0 1 5.667 9.293zm1.632-.398a9.19 9.19 0 0 0-.786.15 36.58 36.58 0 0 0-5.803-9.555 14.342 14.342 0 0 1 3.007-1.5 51.203 51.203 0 0 1 3.582 10.905zm.13-3.184a51.881 51.881 0 0 0-2.877-8.004 14.107 14.107 0 0 1 1.59-.366c.506 2.618.944 5.4 1.287 8.37zm.769-.915a113.61 113.61 0 0 0-1.189-7.588c.39-.044.788-.064 1.189-.076v7.664zm.874 1.486v-9.15c.455.014.905.046 1.347.1-.537 2.818-.996 5.83-1.347 9.05zm.947-.679c.339-2.922.771-5.657 1.266-8.239.527.1 1.047.22 1.554.374a52.2 52.2 0 0 0-2.82 7.865zm.891 3.482a8.855 8.855 0 0 0-.742-.16 51.194 51.194 0 0 1 3.506-10.892c1.051.395 2.053.894 2.975 1.51a36.57 36.57 0 0 0-5.738 9.542zm2.363.988a8.993 8.993 0 0 0-1.542-.734 35.683 35.683 0 0 1 5.625-9.278 14.58 14.58 0 0 1 3.072 3.166 27.148 27.148 0 0 0-7.155 6.846zM273.934 59a9.161 9.161 0 0 0-1.995-2.028 26.21 26.21 0 0 1 6.881-6.617 14.328 14.328 0 0 1 2.106 6.082A17.044 17.044 0 0 0 273.934 59zm1.599 6.512a7.013 7.013 0 0 1 2.586 1.1 14.556 14.556 0 0 1-5.696 4.566 9.072 9.072 0 0 0 3.11-5.666zm-16.404-.068c3.771 0 6.846 3.005 6.976 6.746v.13c-.34-.004-.676-.01-1.011-.025l-.32-.016a8.222 8.222 0 0 1-6.338-6.782c.23-.024.457-.053.693-.053zm6.38.678a17.046 17.046 0 0 0-5.624-6.645 8.325 8.325 0 0 1 1.866-1.868 25.928 25.928 0 0 1 3.758 8.513zm.429-1.84a26.86 26.86 0 0 0-3.452-7.15 8.41 8.41 0 0 1 1.414-.636 35.236 35.236 0 0 1 2.038 7.785zm-.028-4.454a36.794 36.794 0 0 0-1.166-3.57c.201-.046.405-.08.611-.11.23 1.215.412 2.442.555 3.68zm1.44-.093c.138-1.199.328-2.384.546-3.56.201.032.399.072.594.12a36.303 36.303 0 0 0-1.14 3.44zm-.03 4.468c.376-2.656 1.078-5.21 2.013-7.651.476.171.93.385 1.36.64a26.81 26.81 0 0 0-3.373 7.011zm.431 1.826a26.01 26.01 0 0 1 3.685-8.342 8.265 8.265 0 0 1 1.778 1.81 17.12 17.12 0 0 0-5.463 6.532zm-.601 6.287l-.001-.04a6.994 6.994 0 0 1 6.986-6.927c.179 0 .354.028.531.041a8.224 8.224 0 0 1-6.356 6.89l-.32.015c-.279.012-.56.016-.84.02zm7.59-7.793c-.203-.017-.4-.048-.605-.048a7.84 7.84 0 0 0-5.936 2.72 16.228 16.228 0 0 1 5.492-6.956 8.159 8.159 0 0 1 1.062 4.025c0 .086-.01.172-.013.259zm-16.406-.259c0-1.474.394-2.854 1.076-4.05a16.181 16.181 0 0 1 5.656 7.078 7.846 7.846 0 0 0-5.937-2.722c-.264 0-.519.033-.778.059-.005-.122-.017-.242-.017-.365zm22.676-6.293c0 2.929-.88 5.653-2.384 7.934a7.894 7.894 0 0 0-3.017-1.271c.005-.123.02-.245.02-.37a9.016 9.016 0 0 0-1.217-4.519 16.15 16.15 0 0 1 6.564-2.432c.011.22.034.436.034.658zm-28.904-.579a16.18 16.18 0 0 1 6.578 2.334 9.02 9.02 0 0 0-1.227 4.538c0 .168.017.332.025.498a7.775 7.775 0 0 0-2.937 1.283 14.385 14.385 0 0 1-2.468-8.074c0-.195.022-.386.03-.579zm35.16-5.712a20.64 20.64 0 0 1-.622 4.947 17.311 17.311 0 0 0-3.403-.349c-.487 0-.968.026-1.446.065a15.2 15.2 0 0 0-2.231-6.447 25.871 25.871 0 0 1 7.12-3.011c.367 1.542.582 3.142.582 4.795zm-41.447 0c0-1.63.207-3.208.565-4.73a25.935 25.935 0 0 1 7.145 2.937 15.211 15.211 0 0 0-2.249 6.546c-.417-.03-.832-.061-1.256-.061a17.29 17.29 0 0 0-3.551.378 20.629 20.629 0 0 1-.654-5.07zm44.62 6.188a16.97 16.97 0 0 0-2.94-1.052 21.56 21.56 0 0 0 .642-5.136c0-1.718-.222-3.38-.604-4.982 1.79-.39 3.638-.618 5.543-.618.135 0 .271.01.405.013a26.789 26.789 0 0 1-3.046 11.775zm8.441-11.127a33.102 33.102 0 0 1-5.961 12.543 17.163 17.163 0 0 0-1.685-1.028 27.645 27.645 0 0 0 3.144-12.137c1.517.076 3.023.286 4.502.622zm-12.724-21.11a51.588 51.588 0 0 1 7.867-5.209 33.065 33.065 0 0 1 5.175 12.517 36.11 36.11 0 0 0-7.107 1.366 28 28 0 0 0-5.935-8.674zm5.08 8.929a36.128 36.128 0 0 0-7.833 3.656 21.713 21.713 0 0 0-5.153-4.66 51.079 51.079 0 0 1 7.228-7.359 27.093 27.093 0 0 1 5.758 8.363zm-50.255-.228a36.018 36.018 0 0 0-7.105-1.328 33.042 33.042 0 0 1 5.19-12.585 52.017 52.017 0 0 1 7.888 5.187 27.948 27.948 0 0 0-5.973 8.726zm6.672-8.176a51.105 51.105 0 0 1 7.27 7.346 21.748 21.748 0 0 0-5.225 4.693 36.163 36.163 0 0 0-7.862-3.611 27.046 27.046 0 0 1 5.817-8.428zm-8.944 20.064a27.65 27.65 0 0 0 3.219 12.188 17.01 17.01 0 0 0-1.653 1.016 33.112 33.112 0 0 1-6.041-12.556 26.108 26.108 0 0 1 4.475-.648zm30.271 26.909c.268-.024.535-.05.802-.08 17.294-1.639 30.87-16.239 30.87-33.954 0-18.81-15.302-34.111-34.11-34.111-18.81 0-34.11 15.301-34.11 34.111 0 17.715 13.576 32.315 30.87 33.953.266.03.533.057.803.08.17.02.343.036.512.05.213.027.425.052.64.07.42.06.848.101 1.284.101a9.15 9.15 0 0 0 1.286-.1 15.7 15.7 0 0 0 .638-.07c.172-.015.344-.03.515-.05" fill="#3b6396"/><path d="M289.74 72.937a3.268 3.268 0 1 1 6.538-.001 3.268 3.268 0 0 1-6.538 0z" fill="none" stroke="#fff" stroke-width=".738"/><path d="M291.415 70.82h1.843c.303 0 .555.044.75.132.373.171.56.483.56.94 0 .24-.048.434-.148.586a1.045 1.045 0 0 1-.413.365.8.8 0 0 1 .35.25c.08.103.124.269.134.5l.016.534c.008.152.02.265.04.338.032.127.09.208.173.244v.09h-.661a.578.578 0 0 1-.044-.134 2.746 2.746 0 0 1-.028-.313l-.03-.663c-.013-.261-.11-.435-.29-.524-.103-.048-.264-.073-.484-.073h-1.23V74.8h-.538v-3.98zm1.786 1.823c.253 0 .453-.05.599-.151.146-.102.223-.285.223-.549 0-.283-.103-.476-.31-.578a1.013 1.013 0 0 0-.443-.082h-1.316v1.36h1.247" fill="#fff" fill-rule="evenodd"/><path d="M479.781 16.751c8.284 0 15 6.716 15 15v114.675c0 8.284-6.716 15-15 15H22.897c-8.284 0-15-6.716-15-15V31.751c0-8.283 6.716-15 15-15" fill="none" stroke="#231f20" stroke-width="2.5" stroke-miterlimit="3.864"/></svg>